<svg width="326" height="329" viewBox="0 0 326 329" fill="none" xmlns="http://www.w3.org/2000/svg">
<path d="M166.041 58.1453V62.8592" stroke="#7B7B7B" stroke-width="1.10721" stroke-linecap="round" stroke-linejoin="round"/>
<path d="M166.041 67.9497V75.5815" stroke="#7B7B7B" stroke-width="1.10721" stroke-linecap="round" stroke-linejoin="round" stroke-dasharray="7.17 7.17"/>
<path d="M166.041 78.1232V82.8371" stroke="#7B7B7B" stroke-width="1.10721" stroke-linecap="round" stroke-linejoin="round"/>
<path d="M241.272 137.949H236.558" stroke="#7B7B7B" stroke-width="1.10721" stroke-linecap="round" stroke-linejoin="round"/>
<path d="M231.469 137.949H223.837" stroke="#7B7B7B" stroke-width="1.10721" stroke-linecap="round" stroke-linejoin="round" stroke-dasharray="7.17 7.17"/>
<path d="M221.294 137.949H216.58" stroke="#7B7B7B" stroke-width="1.10721" stroke-linecap="round" stroke-linejoin="round"/>
<path d="M115.507 137.949H110.786" stroke="#7B7B7B" stroke-width="1.10721" stroke-linecap="round" stroke-linejoin="round"/>
<path d="M105.702 137.949H98.0703" stroke="#7B7B7B" stroke-width="1.10721" stroke-linecap="round" stroke-linejoin="round" stroke-dasharray="7.17 7.17"/>
<path d="M95.5287 137.949H90.8076" stroke="#7B7B7B" stroke-width="1.10721" stroke-linecap="round" stroke-linejoin="round"/>
<path d="M296.002 153.937C296.002 153.608 296.133 153.292 296.366 153.059C296.599 152.826 296.915 152.695 297.244 152.695C297.574 152.695 297.89 152.826 298.123 153.059C298.356 153.292 298.487 153.608 298.487 153.937V156.649C298.487 156.979 298.356 157.295 298.123 157.528C297.89 157.761 297.574 157.892 297.244 157.892C296.915 157.892 296.599 157.761 296.366 157.528C296.133 157.295 296.002 156.979 296.002 156.649V153.937ZM296.818 156.699C296.818 157.068 296.982 157.21 297.244 157.21C297.507 157.21 297.663 157.068 297.663 156.699V153.859C297.663 153.49 297.5 153.348 297.244 153.348C296.989 153.348 296.818 153.49 296.818 153.859V156.699Z" fill="#7B7B7B"/>
<path d="M296.583 160.781C296.787 160.806 296.993 160.753 297.159 160.631C297.326 160.51 297.439 160.33 297.478 160.128H298.031V165.367H297.215V161.399H296.583V160.781Z" fill="#7B7B7B"/>
<path d="M296.002 168.81C296.002 168.481 296.133 168.165 296.366 167.932C296.599 167.699 296.915 167.568 297.244 167.568C297.574 167.568 297.89 167.699 298.123 167.932C298.356 168.165 298.487 168.481 298.487 168.81V171.515C298.487 171.845 298.356 172.161 298.123 172.394C297.89 172.627 297.574 172.758 297.244 172.758C296.915 172.758 296.599 172.627 296.366 172.394C296.133 172.161 296.002 171.845 296.002 171.515V168.81ZM296.818 171.572C296.818 171.941 296.982 172.083 297.244 172.083C297.507 172.083 297.663 171.941 297.663 171.572V168.732C297.663 168.356 297.5 168.221 297.244 168.221C296.989 168.221 296.818 168.356 296.818 168.732V171.572Z" fill="#7B7B7B"/>
<path d="M296.583 175.654C296.787 175.679 296.993 175.626 297.159 175.504C297.326 175.383 297.439 175.203 297.478 175.001H298.031V180.198H297.215V176.229H296.583V175.654Z" fill="#7B7B7B"/>
<path d="M296.002 183.684C296.002 183.354 296.133 183.038 296.366 182.805C296.599 182.572 296.915 182.441 297.244 182.441C297.574 182.441 297.89 182.572 298.123 182.805C298.356 183.038 298.487 183.354 298.487 183.684V186.388C298.487 186.718 298.356 187.034 298.123 187.267C297.89 187.5 297.574 187.631 297.244 187.631C296.915 187.631 296.599 187.5 296.366 187.267C296.133 187.034 296.002 186.718 296.002 186.388V183.684ZM296.818 186.438C296.818 186.814 296.982 186.949 297.244 186.949C297.507 186.949 297.663 186.814 297.663 186.438V183.598C297.663 183.229 297.5 183.087 297.244 183.087C296.989 183.087 296.818 183.229 296.818 183.598V186.438Z" fill="#7B7B7B"/>
<path d="M296.583 190.52C296.787 190.545 296.993 190.492 297.159 190.371C297.326 190.249 297.439 190.069 297.478 189.867H298.031V195.071H297.215V191.102H296.583V190.52Z" fill="#7B7B7B"/>
<path d="M296.002 198.55C296.002 198.22 296.133 197.904 296.366 197.671C296.599 197.438 296.915 197.307 297.244 197.307C297.574 197.307 297.89 197.438 298.123 197.671C298.356 197.904 298.487 198.22 298.487 198.55V201.262C298.487 201.591 298.356 201.907 298.123 202.14C297.89 202.373 297.574 202.504 297.244 202.504C296.915 202.504 296.599 202.373 296.366 202.14C296.133 201.907 296.002 201.591 296.002 201.262V198.55ZM296.818 201.311C296.818 201.68 296.982 201.822 297.244 201.822C297.507 201.822 297.663 201.68 297.663 201.311V198.472C297.663 198.102 297.5 197.96 297.244 197.96C296.989 197.96 296.818 198.102 296.818 198.472V201.311Z" fill="#7B7B7B"/>
<path d="M296.002 205.99C296.002 205.66 296.133 205.344 296.366 205.111C296.599 204.878 296.915 204.747 297.244 204.747C297.574 204.747 297.89 204.878 298.123 205.111C298.356 205.344 298.487 205.66 298.487 205.99V208.673C298.487 209.003 298.356 209.319 298.123 209.552C297.89 209.785 297.574 209.916 297.244 209.916C296.915 209.916 296.599 209.785 296.366 209.552C296.133 209.319 296.002 209.003 296.002 208.673V205.99ZM296.818 208.744C296.818 209.121 296.982 209.255 297.244 209.255C297.507 209.255 297.663 209.121 297.663 208.744V205.905C297.663 205.528 297.5 205.386 297.244 205.386C296.989 205.386 296.818 205.528 296.818 205.905V208.744Z" fill="#7B7B7B"/>
<path d="M296.002 213.423C296.002 213.093 296.133 212.777 296.366 212.544C296.599 212.311 296.915 212.18 297.244 212.18C297.574 212.18 297.89 212.311 298.123 212.544C298.356 212.777 298.487 213.093 298.487 213.423V216.128C298.487 216.457 298.356 216.773 298.123 217.006C297.89 217.239 297.574 217.37 297.244 217.37C296.915 217.37 296.599 217.239 296.366 217.006C296.133 216.773 296.002 216.457 296.002 216.128V213.423ZM296.818 216.184C296.818 216.553 296.982 216.695 297.244 216.695C297.507 216.695 297.663 216.553 297.663 216.184V213.345C297.663 212.975 297.5 212.833 297.244 212.833C296.989 212.833 296.818 212.975 296.818 213.345V216.184Z" fill="#7B7B7B"/>
<path d="M296.583 227.699C296.787 227.725 296.993 227.671 297.159 227.55C297.326 227.429 297.439 227.248 297.478 227.046H298.031V232.25H297.215V228.282H296.583V227.699Z" fill="#7B7B7B"/>
<path d="M296.583 235.14C296.789 235.167 296.996 235.113 297.163 234.99C297.33 234.867 297.443 234.684 297.478 234.48H298.031V239.683H297.215V235.715H296.583V235.14Z" fill="#7B7B7B"/>
<path d="M296.583 242.573C296.787 242.598 296.993 242.544 297.159 242.423C297.326 242.302 297.439 242.122 297.478 241.919H298.031V247.116H297.215V243.155H296.583V242.573Z" fill="#7B7B7B"/>
<path d="M296.002 250.602C296.002 250.273 296.133 249.957 296.366 249.724C296.599 249.491 296.915 249.36 297.244 249.36C297.574 249.36 297.89 249.491 298.123 249.724C298.356 249.957 298.487 250.273 298.487 250.602V253.307C298.487 253.636 298.356 253.952 298.123 254.185C297.89 254.418 297.574 254.549 297.244 254.549C296.915 254.549 296.599 254.418 296.366 254.185C296.133 253.952 296.002 253.636 296.002 253.307V250.602ZM296.818 253.357C296.818 253.733 296.982 253.868 297.244 253.868C297.507 253.868 297.663 253.733 297.663 253.357V250.559C297.663 250.183 297.5 250.041 297.244 250.041C296.989 250.041 296.818 250.183 296.818 250.559V253.357Z" fill="#7B7B7B"/>
<path d="M296.002 258.035C296.002 257.705 296.133 257.389 296.366 257.156C296.599 256.924 296.915 256.793 297.244 256.793C297.574 256.793 297.89 256.924 298.123 257.156C298.356 257.389 298.487 257.705 298.487 258.035V260.74C298.487 261.069 298.356 261.385 298.123 261.618C297.89 261.851 297.574 261.982 297.244 261.982C296.915 261.982 296.599 261.851 296.366 261.618C296.133 261.385 296.002 261.069 296.002 260.74V258.035ZM296.818 260.797C296.818 261.166 296.982 261.308 297.244 261.308C297.507 261.308 297.663 261.166 297.663 260.797V257.957C297.663 257.588 297.5 257.446 297.244 257.446C296.989 257.446 296.818 257.588 296.818 257.957V260.797Z" fill="#7B7B7B"/>
<path d="M296.583 264.879C296.787 264.904 296.993 264.851 297.159 264.729C297.326 264.608 297.439 264.428 297.478 264.226H298.031V269.423H297.215V265.468H296.583V264.879Z" fill="#7B7B7B"/>
<path d="M300.971 145.908C301.176 145.933 301.383 145.88 301.55 145.759C301.717 145.638 301.833 145.457 301.872 145.255H302.419V150.458H301.603V146.49H300.971V145.908Z" fill="#7B7B7B"/>
<path d="M300.971 153.348C301.176 153.373 301.383 153.32 301.55 153.199C301.717 153.078 301.833 152.898 301.872 152.695H302.419V157.892H301.603V153.923H300.971V153.348Z" fill="#7B7B7B"/>
<path d="M300.431 168.81C300.418 168.64 300.441 168.468 300.497 168.307C300.554 168.145 300.643 167.997 300.759 167.872C300.875 167.746 301.016 167.646 301.173 167.578C301.33 167.509 301.499 167.474 301.67 167.474C301.841 167.474 302.01 167.509 302.167 167.578C302.324 167.646 302.465 167.746 302.581 167.872C302.697 167.997 302.787 168.145 302.843 168.307C302.899 168.468 302.922 168.64 302.909 168.81V171.515C302.922 171.686 302.899 171.857 302.843 172.019C302.787 172.18 302.697 172.328 302.581 172.454C302.465 172.579 302.324 172.679 302.167 172.748C302.01 172.816 301.841 172.851 301.67 172.851C301.499 172.851 301.33 172.816 301.173 172.748C301.016 172.679 300.875 172.579 300.759 172.454C300.643 172.328 300.554 172.18 300.497 172.019C300.441 171.857 300.418 171.686 300.431 171.515V168.81ZM301.248 171.572C301.248 171.941 301.411 172.083 301.667 172.083C301.922 172.083 302.093 171.941 302.093 171.572V168.732C302.093 168.356 301.929 168.221 301.667 168.221C301.404 168.221 301.248 168.356 301.248 168.732V171.572Z" fill="#7B7B7B"/>
<path d="M300.971 190.52C301.176 190.546 301.383 190.492 301.55 190.371C301.717 190.25 301.833 190.07 301.872 189.867H302.419V195.071H301.603V191.102H300.971V190.52Z" fill="#7B7B7B"/>
<path d="M300.431 198.55C300.418 198.379 300.441 198.208 300.497 198.046C300.554 197.885 300.643 197.737 300.759 197.611C300.875 197.486 301.016 197.386 301.173 197.317C301.33 197.249 301.499 197.213 301.67 197.213C301.841 197.213 302.01 197.249 302.167 197.317C302.324 197.386 302.465 197.486 302.581 197.611C302.697 197.737 302.787 197.885 302.843 198.046C302.899 198.208 302.922 198.379 302.909 198.55V201.262C302.922 201.432 302.899 201.604 302.843 201.765C302.787 201.927 302.697 202.075 302.581 202.2C302.465 202.326 302.324 202.426 302.167 202.494C302.01 202.563 301.841 202.598 301.67 202.598C301.499 202.598 301.33 202.563 301.173 202.494C301.016 202.426 300.875 202.326 300.759 202.2C300.643 202.075 300.554 201.927 300.497 201.765C300.441 201.604 300.418 201.432 300.431 201.262V198.55ZM301.248 201.311C301.248 201.68 301.411 201.822 301.667 201.822C301.922 201.822 302.093 201.68 302.093 201.311V198.472C302.093 198.102 301.929 197.96 301.667 197.96C301.404 197.96 301.248 198.102 301.248 198.472V201.311Z" fill="#7B7B7B"/>
<path d="M300.971 205.393C301.176 205.419 301.383 205.366 301.55 205.244C301.717 205.123 301.833 204.943 301.872 204.74H302.419V209.944H301.603V205.976H300.971V205.393Z" fill="#7B7B7B"/>
<path d="M300.971 212.826C301.176 212.854 301.384 212.801 301.552 212.68C301.719 212.558 301.834 212.377 301.872 212.173H302.419V217.377H301.603V213.409H300.971V212.826Z" fill="#7B7B7B"/>
<path d="M300.971 220.266C301.176 220.292 301.383 220.239 301.55 220.117C301.717 219.996 301.833 219.816 301.872 219.613H302.419V224.81H301.603V220.841H300.971V220.266Z" fill="#7B7B7B"/>
<path d="M300.431 228.296C300.418 228.125 300.441 227.954 300.497 227.792C300.554 227.631 300.643 227.483 300.759 227.357C300.875 227.232 301.016 227.132 301.173 227.063C301.33 226.995 301.499 226.96 301.67 226.96C301.841 226.96 302.01 226.995 302.167 227.063C302.324 227.132 302.465 227.232 302.581 227.357C302.697 227.483 302.787 227.631 302.843 227.792C302.899 227.954 302.922 228.125 302.909 228.296V231.001C302.922 231.171 302.899 231.343 302.843 231.504C302.787 231.666 302.697 231.814 302.581 231.939C302.465 232.065 302.324 232.165 302.167 232.233C302.01 232.302 301.841 232.337 301.67 232.337C301.499 232.337 301.33 232.302 301.173 232.233C301.016 232.165 300.875 232.065 300.759 231.939C300.643 231.814 300.554 231.666 300.497 231.504C300.441 231.343 300.418 231.171 300.431 231.001V228.296ZM301.248 231.05C301.248 231.427 301.411 231.562 301.667 231.562C301.922 231.562 302.093 231.427 302.093 231.05V228.246C302.093 227.87 301.929 227.728 301.667 227.728C301.404 227.728 301.248 227.87 301.248 228.246V231.05Z" fill="#7B7B7B"/>
<path d="M300.431 235.729C300.418 235.558 300.441 235.387 300.497 235.225C300.554 235.064 300.643 234.916 300.759 234.79C300.875 234.665 301.016 234.565 301.173 234.496C301.33 234.428 301.499 234.393 301.67 234.393C301.841 234.393 302.01 234.428 302.167 234.496C302.324 234.565 302.465 234.665 302.581 234.79C302.697 234.916 302.787 235.064 302.843 235.225C302.899 235.387 302.922 235.558 302.909 235.729V238.434C302.922 238.604 302.899 238.776 302.843 238.937C302.787 239.099 302.697 239.247 302.581 239.372C302.465 239.498 302.324 239.598 302.167 239.666C302.01 239.735 301.841 239.77 301.67 239.77C301.499 239.77 301.33 239.735 301.173 239.666C301.016 239.598 300.875 239.498 300.759 239.372C300.643 239.247 300.554 239.099 300.497 238.937C300.441 238.776 300.418 238.604 300.431 238.434V235.729ZM301.248 238.49C301.248 238.86 301.411 239.002 301.667 239.002C301.922 239.002 302.093 238.86 302.093 238.49V235.651C302.093 235.282 301.929 235.14 301.667 235.14C301.404 235.14 301.248 235.282 301.248 235.651V238.49Z" fill="#7B7B7B"/>
<path d="M292.162 190.52C292.367 190.546 292.574 190.492 292.742 190.371C292.909 190.25 293.024 190.07 293.064 189.867H293.61V195.071H292.794V191.102H292.162V190.52Z" fill="#7B7B7B"/>
<path d="M291.585 198.55C291.585 198.22 291.716 197.904 291.949 197.671C292.182 197.438 292.498 197.307 292.827 197.307C293.157 197.307 293.473 197.438 293.706 197.671C293.939 197.904 294.07 198.22 294.07 198.55V201.262C294.07 201.591 293.939 201.907 293.706 202.14C293.473 202.373 293.157 202.504 292.827 202.504C292.498 202.504 292.182 202.373 291.949 202.14C291.716 201.907 291.585 201.591 291.585 201.262V198.55ZM292.401 201.311C292.401 201.68 292.565 201.822 292.827 201.822C293.09 201.822 293.253 201.68 293.253 201.311V198.472C293.253 198.102 293.09 197.96 292.827 197.96C292.565 197.96 292.401 198.102 292.401 198.472V201.311Z" fill="#7B7B7B"/>
<path d="M291.585 205.99C291.585 205.66 291.716 205.344 291.949 205.111C292.182 204.878 292.498 204.747 292.827 204.747C293.157 204.747 293.473 204.878 293.706 205.111C293.939 205.344 294.07 205.66 294.07 205.99V208.673C294.07 209.003 293.939 209.319 293.706 209.552C293.473 209.785 293.157 209.916 292.827 209.916C292.498 209.916 292.182 209.785 291.949 209.552C291.716 209.319 291.585 209.003 291.585 208.673V205.99ZM292.401 208.744C292.401 209.121 292.565 209.255 292.827 209.255C293.09 209.255 293.253 209.121 293.253 208.744V205.905C293.253 205.528 293.09 205.386 292.827 205.386C292.565 205.386 292.401 205.528 292.401 205.905V208.744Z" fill="#7B7B7B"/>
<path d="M292.162 212.826C292.367 212.854 292.575 212.801 292.743 212.68C292.911 212.558 293.026 212.377 293.064 212.173H293.61V217.377H292.794V213.409H292.162V212.826Z" fill="#7B7B7B"/>
<path d="M292.162 227.699C292.367 227.725 292.574 227.672 292.742 227.55C292.909 227.429 293.024 227.249 293.064 227.046H293.61V232.25H292.794V228.282H292.162V227.699Z" fill="#7B7B7B"/>
<path d="M292.162 235.14C292.368 235.165 292.576 235.111 292.744 234.988C292.911 234.865 293.026 234.684 293.064 234.48H293.61V239.683H292.794V235.715H292.162V235.14Z" fill="#7B7B7B"/>
<path d="M292.162 242.573C292.367 242.598 292.574 242.545 292.742 242.424C292.909 242.302 293.024 242.122 293.064 241.919H293.61V247.116H292.794V243.155H292.162V242.573Z" fill="#7B7B7B"/>
<path d="M287.171 168.81C287.158 168.64 287.18 168.468 287.236 168.307C287.293 168.145 287.382 167.997 287.498 167.872C287.615 167.746 287.756 167.646 287.912 167.578C288.069 167.509 288.238 167.474 288.409 167.474C288.58 167.474 288.75 167.509 288.906 167.578C289.063 167.646 289.204 167.746 289.32 167.872C289.437 167.997 289.526 168.145 289.582 168.307C289.639 168.468 289.661 168.64 289.648 168.81V171.515C289.661 171.686 289.639 171.857 289.582 172.019C289.526 172.18 289.437 172.328 289.32 172.454C289.204 172.579 289.063 172.679 288.906 172.748C288.75 172.816 288.58 172.851 288.409 172.851C288.238 172.851 288.069 172.816 287.912 172.748C287.756 172.679 287.615 172.579 287.498 172.454C287.382 172.328 287.293 172.18 287.236 172.019C287.18 171.857 287.158 171.686 287.171 171.515V168.81ZM287.987 171.572C287.987 171.941 288.15 172.083 288.406 172.083C288.661 172.083 288.832 171.941 288.832 171.572V168.732C288.832 168.356 288.668 168.221 288.406 168.221C288.143 168.221 287.987 168.356 287.987 168.732V171.572Z" fill="#7B7B7B"/>
<path d="M287.171 183.683C287.158 183.513 287.18 183.341 287.236 183.18C287.293 183.018 287.382 182.87 287.498 182.745C287.615 182.619 287.756 182.519 287.912 182.451C288.069 182.383 288.238 182.347 288.409 182.347C288.58 182.347 288.75 182.383 288.906 182.451C289.063 182.519 289.204 182.619 289.32 182.745C289.437 182.87 289.526 183.018 289.582 183.18C289.639 183.341 289.661 183.513 289.648 183.683V186.388C289.661 186.559 289.639 186.73 289.582 186.892C289.526 187.053 289.437 187.201 289.32 187.327C289.204 187.452 289.063 187.552 288.906 187.621C288.75 187.689 288.58 187.725 288.409 187.725C288.238 187.725 288.069 187.689 287.912 187.621C287.756 187.552 287.615 187.452 287.498 187.327C287.382 187.201 287.293 187.053 287.236 186.892C287.18 186.73 287.158 186.559 287.171 186.388V183.683ZM287.987 186.438C287.987 186.814 288.15 186.949 288.406 186.949C288.661 186.949 288.832 186.814 288.832 186.438V183.598C288.832 183.229 288.668 183.087 288.406 183.087C288.143 183.087 287.987 183.229 287.987 183.598V186.438Z" fill="#7B7B7B"/>
<path d="M287.737 205.393C287.942 205.419 288.149 205.366 288.317 205.244C288.484 205.123 288.599 204.943 288.639 204.74H289.186V209.944H288.369V205.976H287.737V205.393Z" fill="#7B7B7B"/>
<path d="M287.737 212.826C287.943 212.854 288.151 212.801 288.318 212.68C288.486 212.558 288.601 212.377 288.639 212.173H289.186V217.377H288.369V213.409H287.737V212.826Z" fill="#7B7B7B"/>
<path d="M287.737 235.14C287.943 235.165 288.151 235.111 288.319 234.988C288.486 234.865 288.601 234.684 288.639 234.48H289.186V239.683H288.369V235.715H287.737V235.14Z" fill="#7B7B7B"/>
<path d="M287.171 243.169C287.158 242.998 287.18 242.827 287.236 242.666C287.293 242.504 287.382 242.356 287.498 242.23C287.615 242.105 287.756 242.005 287.912 241.937C288.069 241.868 288.238 241.833 288.409 241.833C288.58 241.833 288.75 241.868 288.906 241.937C289.063 242.005 289.204 242.105 289.32 242.23C289.437 242.356 289.526 242.504 289.582 242.666C289.639 242.827 289.661 242.998 289.648 243.169V245.874C289.661 246.044 289.639 246.216 289.582 246.377C289.526 246.539 289.437 246.687 289.32 246.812C289.204 246.938 289.063 247.038 288.906 247.106C288.75 247.175 288.58 247.21 288.409 247.21C288.238 247.21 288.069 247.175 287.912 247.106C287.756 247.038 287.615 246.938 287.498 246.812C287.382 246.687 287.293 246.539 287.236 246.377C287.18 246.216 287.158 246.044 287.171 245.874V243.169ZM287.987 245.924C287.987 246.293 288.15 246.435 288.406 246.435C288.661 246.435 288.832 246.293 288.832 245.924V243.084C288.832 242.715 288.668 242.573 288.406 242.573C288.143 242.573 287.987 242.715 287.987 243.084V245.924Z" fill="#7B7B7B"/>
<path d="M287.737 250.006C287.942 250.031 288.149 249.978 288.317 249.857C288.484 249.736 288.599 249.555 288.639 249.353H289.186V254.557H288.369V250.56H287.737V250.006Z" fill="#7B7B7B"/>
<path d="M104.126 176.726C104.126 176.397 104.257 176.081 104.49 175.848C104.723 175.615 105.039 175.484 105.368 175.484C105.698 175.484 106.014 175.615 106.247 175.848C106.48 176.081 106.611 176.397 106.611 176.726V179.431C106.611 179.761 106.48 180.077 106.247 180.31C106.014 180.543 105.698 180.674 105.368 180.674C105.039 180.674 104.723 180.543 104.49 180.31C104.257 180.077 104.126 179.761 104.126 179.431V176.726ZM104.942 179.481C104.942 179.857 105.106 179.999 105.368 179.999C105.631 179.999 105.787 179.857 105.787 179.481V176.641C105.787 176.265 105.624 176.123 105.368 176.123C105.113 176.123 104.942 176.265 104.942 176.641V179.481Z" fill="#7B7B7B"/>
<path d="M104.126 184.18C104.126 183.851 104.257 183.535 104.49 183.302C104.723 183.069 105.039 182.938 105.368 182.938C105.698 182.938 106.014 183.069 106.247 183.302C106.48 183.535 106.611 183.851 106.611 184.18V186.885C106.611 187.215 106.48 187.531 106.247 187.764C106.014 187.997 105.698 188.128 105.368 188.128C105.039 188.128 104.723 187.997 104.49 187.764C104.257 187.531 104.126 187.215 104.126 186.885V184.18ZM104.942 186.942C104.942 187.311 105.106 187.453 105.368 187.453C105.631 187.453 105.787 187.311 105.787 186.942V184.102C105.787 183.733 105.624 183.591 105.368 183.591C105.113 183.591 104.942 183.733 104.942 184.102V186.942Z" fill="#7B7B7B"/>
<path d="M104.701 191.024C104.905 191.05 105.111 190.996 105.278 190.875C105.444 190.753 105.558 190.573 105.596 190.371H106.149V195.575H105.333V191.635H104.701V191.024Z" fill="#7B7B7B"/>
<path d="M104.126 199.054C104.126 198.724 104.257 198.408 104.49 198.175C104.723 197.942 105.039 197.811 105.368 197.811C105.698 197.811 106.014 197.942 106.247 198.175C106.48 198.408 106.611 198.724 106.611 199.054V201.759C106.611 202.088 106.48 202.404 106.247 202.637C106.014 202.87 105.698 203.001 105.368 203.001C105.039 203.001 104.723 202.87 104.49 202.637C104.257 202.404 104.126 202.088 104.126 201.759V199.054ZM104.942 201.808C104.942 202.184 105.106 202.326 105.368 202.326C105.631 202.326 105.787 202.184 105.787 201.808V199.004C105.787 198.628 105.624 198.486 105.368 198.486C105.113 198.486 104.942 198.628 104.942 199.004V201.808Z" fill="#7B7B7B"/>
<path d="M104.701 205.897C104.905 205.923 105.111 205.869 105.278 205.748C105.444 205.626 105.558 205.446 105.596 205.244H106.149V210.441H105.333V206.472H104.701V205.897Z" fill="#7B7B7B"/>
<path d="M104.126 213.927C104.126 213.597 104.257 213.281 104.49 213.048C104.723 212.815 105.039 212.684 105.368 212.684C105.698 212.684 106.014 212.815 106.247 213.048C106.48 213.281 106.611 213.597 106.611 213.927V216.632C106.611 216.961 106.48 217.277 106.247 217.51C106.014 217.743 105.698 217.874 105.368 217.874C105.039 217.874 104.723 217.743 104.49 217.51C104.257 217.277 104.126 216.961 104.126 216.632V213.927ZM104.942 216.681C104.942 217.05 105.106 217.192 105.368 217.192C105.631 217.192 105.787 217.05 105.787 216.681V213.842C105.787 213.472 105.624 213.33 105.368 213.33C105.113 213.33 104.942 213.472 104.942 213.842V216.681Z" fill="#7B7B7B"/>
<path d="M104.701 220.742C104.905 220.767 105.111 220.714 105.278 220.593C105.444 220.471 105.558 220.291 105.596 220.089H106.149V225.293H105.333V221.324H104.701V220.742Z" fill="#7B7B7B"/>
<path d="M104.126 228.793C104.126 228.463 104.257 228.147 104.49 227.914C104.723 227.681 105.039 227.55 105.368 227.55C105.698 227.55 106.014 227.681 106.247 227.914C106.48 228.147 106.611 228.463 106.611 228.793V231.498C106.611 231.827 106.48 232.143 106.247 232.376C106.014 232.609 105.698 232.74 105.368 232.74C105.039 232.74 104.723 232.609 104.49 232.376C104.257 232.143 104.126 231.827 104.126 231.498V228.793ZM104.942 231.555C104.942 231.924 105.106 232.066 105.368 232.066C105.631 232.066 105.787 231.924 105.787 231.555V228.715C105.787 228.346 105.624 228.204 105.368 228.204C105.113 228.204 104.942 228.346 104.942 228.715V231.555Z" fill="#7B7B7B"/>
<path d="M104.126 236.233C104.126 235.903 104.257 235.587 104.49 235.354C104.723 235.121 105.039 234.991 105.368 234.991C105.698 234.991 106.014 235.121 106.247 235.354C106.48 235.587 106.611 235.903 106.611 236.233V238.938C106.611 239.267 106.48 239.583 106.247 239.816C106.014 240.049 105.698 240.18 105.368 240.18C105.039 240.18 104.723 240.049 104.49 239.816C104.257 239.583 104.126 239.267 104.126 238.938V236.233ZM104.942 238.988C104.942 239.357 105.106 239.499 105.368 239.499C105.631 239.499 105.787 239.357 105.787 238.988V236.148C105.787 235.779 105.624 235.637 105.368 235.637C105.113 235.637 104.942 235.779 104.942 236.148V238.988Z" fill="#7B7B7B"/>
<path d="M104.126 243.666C104.126 243.336 104.257 243.02 104.49 242.787C104.723 242.554 105.039 242.424 105.368 242.424C105.698 242.424 106.014 242.554 106.247 242.787C106.48 243.02 106.611 243.336 106.611 243.666V246.371C106.611 246.7 106.48 247.016 106.247 247.249C106.014 247.482 105.698 247.613 105.368 247.613C105.039 247.613 104.723 247.482 104.49 247.249C104.257 247.016 104.126 246.7 104.126 246.371V243.666ZM104.942 246.421C104.942 246.797 105.106 246.939 105.368 246.939C105.631 246.939 105.787 246.797 105.787 246.421V243.616C105.787 243.24 105.624 243.105 105.368 243.105C105.113 243.105 104.942 243.24 104.942 243.616V246.421Z" fill="#7B7B7B"/>
<path d="M104.701 250.51C104.905 250.535 105.111 250.482 105.278 250.36C105.444 250.239 105.558 250.059 105.596 249.857H106.149V255.054H105.333V251.085H104.701V250.51Z" fill="#7B7B7B"/>
<path d="M104.701 257.943C104.905 257.968 105.111 257.914 105.278 257.793C105.444 257.672 105.558 257.492 105.596 257.29H106.149V262.493H105.333V258.525H104.701V257.943Z" fill="#7B7B7B"/>
<path d="M104.701 265.376C104.905 265.401 105.111 265.348 105.278 265.226C105.444 265.105 105.558 264.925 105.596 264.723H106.149V269.926H105.333V265.958H104.701V265.376Z" fill="#7B7B7B"/>
<path d="M104.701 272.816C104.905 272.841 105.111 272.788 105.278 272.666C105.444 272.545 105.558 272.365 105.596 272.163H106.149V277.36H105.333V273.391H104.701V272.816Z" fill="#7B7B7B"/>
<path d="M104.943 283.6C104.943 283.976 105.107 284.111 105.369 284.111C105.632 284.111 105.788 283.976 105.788 283.6V280.76C105.788 280.391 105.625 280.249 105.369 280.249C105.114 280.249 104.943 280.391 104.943 280.76V283.6Z" fill="#7B7B7B"/>
<path d="M109.118 205.897C109.323 205.923 109.53 205.87 109.698 205.748C109.865 205.627 109.98 205.447 110.02 205.244H110.566V210.441H109.75V206.472H109.118V205.897Z" fill="#7B7B7B"/>
<path d="M109.118 213.33C109.323 213.356 109.53 213.303 109.698 213.181C109.865 213.06 109.98 212.88 110.02 212.677H110.566V217.902H109.75V213.934H109.118V213.33Z" fill="#7B7B7B"/>
<path d="M108.578 228.793C108.565 228.622 108.587 228.451 108.644 228.289C108.7 228.128 108.789 227.98 108.906 227.854C109.022 227.729 109.163 227.629 109.32 227.56C109.476 227.492 109.646 227.457 109.817 227.457C109.988 227.457 110.157 227.492 110.314 227.56C110.47 227.629 110.611 227.729 110.728 227.854C110.844 227.98 110.933 228.128 110.99 228.289C111.046 228.451 111.068 228.622 111.055 228.793V231.498C111.068 231.668 111.046 231.84 110.99 232.001C110.933 232.163 110.844 232.311 110.728 232.436C110.611 232.562 110.47 232.662 110.314 232.73C110.157 232.799 109.988 232.834 109.817 232.834C109.646 232.834 109.476 232.799 109.32 232.73C109.163 232.662 109.022 232.562 108.906 232.436C108.789 232.311 108.7 232.163 108.644 232.001C108.587 231.84 108.565 231.668 108.578 231.498V228.793ZM109.394 231.555C109.394 231.924 109.557 232.066 109.813 232.066C110.069 232.066 110.239 231.924 110.239 231.555V228.715C110.239 228.346 110.076 228.204 109.813 228.204C109.55 228.204 109.394 228.346 109.394 228.715V231.555Z" fill="#7B7B7B"/>
<path d="M109.118 235.651C109.323 235.676 109.53 235.623 109.698 235.502C109.865 235.38 109.98 235.2 110.02 234.998H110.566V240.201H109.75V236.219H109.118V235.651Z" fill="#7B7B7B"/>
<path d="M108.578 243.666C108.565 243.495 108.587 243.324 108.644 243.163C108.7 243.001 108.789 242.853 108.906 242.727C109.022 242.602 109.163 242.502 109.32 242.434C109.476 242.365 109.646 242.33 109.817 242.33C109.988 242.33 110.157 242.365 110.314 242.434C110.47 242.502 110.611 242.602 110.728 242.727C110.844 242.853 110.933 243.001 110.99 243.163C111.046 243.324 111.068 243.495 111.055 243.666V246.371C111.068 246.541 111.046 246.713 110.99 246.874C110.933 247.036 110.844 247.184 110.728 247.309C110.611 247.435 110.47 247.535 110.314 247.603C110.157 247.672 109.988 247.707 109.817 247.707C109.646 247.707 109.476 247.672 109.32 247.603C109.163 247.535 109.022 247.435 108.906 247.309C108.789 247.184 108.7 247.036 108.644 246.874C108.587 246.713 108.565 246.541 108.578 246.371V243.666ZM109.394 246.421C109.394 246.797 109.557 246.939 109.813 246.939C110.069 246.939 110.239 246.797 110.239 246.421V243.616C110.239 243.24 110.076 243.105 109.813 243.105C109.55 243.105 109.394 243.24 109.394 243.616V246.421Z" fill="#7B7B7B"/>
<path d="M109.366 261.294C109.366 261.663 109.529 261.805 109.785 261.805C110.041 261.805 110.211 261.663 110.211 261.294V258.454C110.211 258.085 110.048 257.943 109.785 257.943C109.522 257.943 109.366 258.085 109.366 258.454V261.294Z" fill="#7B7B7B"/>
<path d="M109.117 265.376C109.314 265.397 109.511 265.346 109.673 265.233C109.835 265.119 109.95 264.95 109.997 264.758H110.544V269.962H109.728V265.994H109.096L109.117 265.376Z" fill="#7B7B7B"/>
<path d="M109.118 272.816C109.323 272.841 109.53 272.788 109.698 272.667C109.865 272.546 109.98 272.366 110.02 272.163H110.566V277.36H109.75V273.391H109.118V272.816Z" fill="#7B7B7B"/>
<path d="M108.578 295.711C108.565 295.541 108.587 295.37 108.644 295.208C108.7 295.047 108.789 294.898 108.906 294.773C109.022 294.648 109.163 294.547 109.32 294.479C109.476 294.411 109.646 294.375 109.817 294.375C109.988 294.375 110.157 294.411 110.314 294.479C110.47 294.547 110.611 294.648 110.728 294.773C110.844 294.898 110.933 295.047 110.99 295.208C111.046 295.37 111.068 295.541 111.055 295.711V298.423C111.068 298.594 111.046 298.765 110.99 298.927C110.933 299.088 110.844 299.237 110.728 299.362C110.611 299.487 110.47 299.587 110.314 299.656C110.157 299.724 109.988 299.76 109.817 299.76C109.646 299.76 109.476 299.724 109.32 299.656C109.163 299.587 109.022 299.487 108.906 299.362C108.789 299.237 108.7 299.088 108.644 298.927C108.587 298.765 108.565 298.594 108.578 298.423V295.711ZM109.394 298.473C109.394 298.842 109.557 298.984 109.813 298.984C110.069 298.984 110.239 298.842 110.239 298.473V295.633C110.239 295.264 110.076 295.122 109.813 295.122C109.55 295.122 109.394 295.264 109.394 295.633V298.473Z" fill="#7B7B7B"/>
<path d="M99.7051 199.054C99.7051 198.724 99.836 198.408 100.069 198.175C100.302 197.942 100.618 197.811 100.947 197.811C101.277 197.811 101.593 197.942 101.826 198.175C102.059 198.408 102.19 198.724 102.19 199.054V201.759C102.19 202.088 102.059 202.404 101.826 202.637C101.593 202.87 101.277 203.001 100.947 203.001C100.618 203.001 100.302 202.87 100.069 202.637C99.836 202.404 99.7051 202.088 99.7051 201.759V199.054ZM100.522 201.808C100.522 202.184 100.685 202.326 100.947 202.326C101.21 202.326 101.373 202.184 101.373 201.808V199.004C101.373 198.628 101.21 198.486 100.947 198.486C100.685 198.486 100.522 198.628 100.522 199.004V201.808Z" fill="#7B7B7B"/>
<path d="M100.279 205.897C100.484 205.923 100.691 205.87 100.859 205.748C101.026 205.627 101.141 205.447 101.181 205.244H101.728V210.441H100.911V206.472H100.279V205.897Z" fill="#7B7B7B"/>
<path d="M100.279 213.33C100.484 213.356 100.691 213.303 100.859 213.181C101.026 213.06 101.141 212.88 101.181 212.677H101.728V217.902H100.911V213.934H100.279V213.33Z" fill="#7B7B7B"/>
<path d="M99.7051 221.36C99.7051 221.03 99.836 220.714 100.069 220.481C100.302 220.248 100.618 220.117 100.947 220.117C101.277 220.117 101.593 220.248 101.826 220.481C102.059 220.714 102.19 221.03 102.19 221.36V224.065C102.19 224.394 102.059 224.71 101.826 224.943C101.593 225.176 101.277 225.307 100.947 225.307C100.618 225.307 100.302 225.176 100.069 224.943C99.836 224.71 99.7051 224.394 99.7051 224.065V221.36ZM100.522 224.114C100.522 224.491 100.685 224.633 100.947 224.633C101.21 224.633 101.373 224.491 101.373 224.114V221.31C101.373 220.934 101.21 220.792 100.947 220.792C100.685 220.792 100.522 220.934 100.522 221.31V224.114Z" fill="#7B7B7B"/>
<path d="M99.7051 236.233C99.7051 235.903 99.836 235.587 100.069 235.354C100.302 235.121 100.618 234.991 100.947 234.991C101.277 234.991 101.593 235.121 101.826 235.354C102.059 235.587 102.19 235.903 102.19 236.233V238.938C102.19 239.267 102.059 239.583 101.826 239.816C101.593 240.049 101.277 240.18 100.947 240.18C100.618 240.18 100.302 240.049 100.069 239.816C99.836 239.583 99.7051 239.267 99.7051 238.938V236.233ZM100.522 238.988C100.522 239.357 100.685 239.499 100.947 239.499C101.21 239.499 101.373 239.357 101.373 238.988V236.148C101.373 235.779 101.21 235.637 100.947 235.637C100.685 235.637 100.522 235.779 100.522 236.148V238.988Z" fill="#7B7B7B"/>
<path d="M99.7051 243.666C99.7051 243.336 99.836 243.02 100.069 242.787C100.302 242.554 100.618 242.424 100.947 242.424C101.277 242.424 101.593 242.554 101.826 242.787C102.059 243.02 102.19 243.336 102.19 243.666V246.371C102.19 246.7 102.059 247.016 101.826 247.249C101.593 247.482 101.277 247.613 100.947 247.613C100.618 247.613 100.302 247.482 100.069 247.249C99.836 247.016 99.7051 246.7 99.7051 246.371V243.666ZM100.522 246.421C100.522 246.797 100.685 246.939 100.947 246.939C101.21 246.939 101.373 246.797 101.373 246.421V243.616C101.373 243.24 101.21 243.105 100.947 243.105C100.685 243.105 100.522 243.24 100.522 243.616V246.421Z" fill="#7B7B7B"/>
<path d="M100.279 250.51C100.484 250.535 100.691 250.482 100.859 250.361C101.026 250.24 101.141 250.06 101.181 249.857H101.728V255.054H100.911V251.085H100.279V250.51Z" fill="#7B7B7B"/>
<path d="M99.7051 258.539C99.7051 258.21 99.836 257.894 100.069 257.661C100.302 257.428 100.618 257.297 100.947 257.297C101.277 257.297 101.593 257.428 101.826 257.661C102.059 257.894 102.19 258.21 102.19 258.539V261.244C102.19 261.574 102.059 261.89 101.826 262.123C101.593 262.356 101.277 262.486 100.947 262.486C100.618 262.486 100.302 262.356 100.069 262.123C99.836 261.89 99.7051 261.574 99.7051 261.244V258.539ZM100.522 261.294C100.522 261.663 100.685 261.805 100.947 261.805C101.21 261.805 101.373 261.663 101.373 261.294V258.454C101.373 258.085 101.21 257.943 100.947 257.943C100.685 257.943 100.522 258.085 100.522 258.454V261.294Z" fill="#7B7B7B"/>
<path d="M100.279 265.376C100.484 265.401 100.691 265.348 100.859 265.227C101.026 265.106 101.141 264.925 101.181 264.723H101.728V269.926H100.911V265.958H100.279V265.376Z" fill="#7B7B7B"/>
<path d="M95.2887 184.18C95.2758 184.01 95.2982 183.838 95.3546 183.677C95.411 183.515 95.5002 183.367 95.6165 183.242C95.7328 183.116 95.8737 183.016 96.0305 182.948C96.1873 182.879 96.3565 182.844 96.5275 182.844C96.6986 182.844 96.8678 182.879 97.0246 182.948C97.1814 183.016 97.3223 183.116 97.4386 183.242C97.5549 183.367 97.6441 183.515 97.7005 183.677C97.7569 183.838 97.7793 184.01 97.7664 184.18V186.885C97.7793 187.056 97.7569 187.227 97.7005 187.389C97.6441 187.55 97.5549 187.698 97.4386 187.824C97.3223 187.949 97.1814 188.049 97.0246 188.118C96.8678 188.186 96.6986 188.221 96.5275 188.221C96.3565 188.221 96.1873 188.186 96.0305 188.118C95.8737 188.049 95.7328 187.949 95.6165 187.824C95.5002 187.698 95.411 187.55 95.3546 187.389C95.2982 187.227 95.2758 187.056 95.2887 186.885V184.18ZM96.1051 186.942C96.1051 187.311 96.2684 187.453 96.524 187.453C96.7796 187.453 96.95 187.311 96.95 186.942V184.102C96.95 183.733 96.7867 183.591 96.524 183.591C96.2613 183.591 96.1051 183.733 96.1051 184.102V186.942Z" fill="#7B7B7B"/>
<path d="M95.8545 198.457C96.0595 198.483 96.2666 198.429 96.4339 198.308C96.6012 198.187 96.7164 198.007 96.7561 197.804H97.3028V202.994H96.5076V199.025H95.8758L95.8545 198.457Z" fill="#7B7B7B"/>
<path d="M95.8545 213.33C96.0595 213.356 96.2666 213.303 96.4339 213.181C96.6012 213.06 96.7164 212.88 96.7561 212.677H97.3028V217.902H96.5076V213.934H95.8758L95.8545 213.33Z" fill="#7B7B7B"/>
<path d="M95.2887 221.36C95.2758 221.189 95.2982 221.018 95.3546 220.856C95.411 220.695 95.5002 220.547 95.6165 220.421C95.7328 220.296 95.8737 220.196 96.0305 220.127C96.1873 220.059 96.3565 220.024 96.5275 220.024C96.6986 220.024 96.8678 220.059 97.0246 220.127C97.1814 220.196 97.3223 220.296 97.4386 220.421C97.5549 220.547 97.6441 220.695 97.7005 220.856C97.7569 221.018 97.7793 221.189 97.7664 221.36V224.065C97.7793 224.235 97.7569 224.407 97.7005 224.568C97.6441 224.73 97.5549 224.878 97.4386 225.003C97.3223 225.129 97.1814 225.229 97.0246 225.297C96.8678 225.366 96.6986 225.401 96.5275 225.401C96.3565 225.401 96.1873 225.366 96.0305 225.297C95.8737 225.229 95.7328 225.129 95.6165 225.003C95.5002 224.878 95.411 224.73 95.3546 224.568C95.2982 224.407 95.2758 224.235 95.2887 224.065V221.36ZM96.1051 224.121C96.1051 224.491 96.2684 224.633 96.524 224.633C96.7796 224.633 96.95 224.491 96.95 224.121V221.282C96.95 220.905 96.7867 220.771 96.524 220.771C96.2613 220.771 96.1051 220.905 96.1051 221.282V224.121Z" fill="#7B7B7B"/>
<path d="M95.8545 243.07C96.0595 243.095 96.2666 243.042 96.4339 242.921C96.6012 242.8 96.7164 242.619 96.7561 242.417H97.3028V247.62H96.5076V243.652H95.8758L95.8545 243.07Z" fill="#7B7B7B"/>
<path d="M95.8545 250.51C96.0595 250.535 96.2666 250.482 96.4339 250.361C96.6012 250.24 96.7164 250.06 96.7561 249.857H97.3028V255.054H96.5076V251.085H95.8758L95.8545 250.51Z" fill="#7B7B7B"/>
<path d="M95.8545 257.943C96.0595 257.968 96.2666 257.915 96.4339 257.794C96.6012 257.672 96.7164 257.492 96.7561 257.29H97.3028V262.493H96.5076V258.525H95.8758L95.8545 257.943Z" fill="#7B7B7B"/>
<path d="M234.314 5.35445C234.314 5.02495 234.445 4.70894 234.678 4.47595C234.911 4.24295 235.227 4.11206 235.557 4.11206C235.886 4.11206 236.202 4.24295 236.435 4.47595C236.668 4.70894 236.799 5.02495 236.799 5.35445V8.0593C236.799 8.38881 236.668 8.70481 236.435 8.93781C236.202 9.1708 235.886 9.30169 235.557 9.30169C235.227 9.30169 234.911 9.1708 234.678 8.93781C234.445 8.70481 234.314 8.38881 234.314 8.0593V5.35445ZM235.131 8.109C235.131 8.47817 235.294 8.62016 235.557 8.62016C235.82 8.62016 235.976 8.47817 235.976 8.109V5.26926C235.976 4.90009 235.812 4.7581 235.557 4.7581C235.301 4.7581 235.131 4.90009 235.131 5.26926V8.109Z" fill="#7B7B7B"/>
<path d="M234.314 12.7876C234.314 12.4581 234.445 12.142 234.678 11.9091C234.911 11.6761 235.227 11.5452 235.557 11.5452C235.886 11.5452 236.202 11.6761 236.435 11.9091C236.668 12.142 236.799 12.4581 236.799 12.7876V15.4924C236.799 15.8219 236.668 16.1379 236.435 16.3709C236.202 16.6039 235.886 16.7348 235.557 16.7348C235.227 16.7348 234.911 16.6039 234.678 16.3709C234.445 16.1379 234.314 15.8219 234.314 15.4924V12.7876ZM235.131 15.5705C235.131 15.9468 235.294 16.0888 235.557 16.0888C235.82 16.0888 235.976 15.9468 235.976 15.5705V12.7308C235.976 12.3545 235.812 12.2125 235.557 12.2125C235.301 12.2125 235.131 12.3545 235.131 12.7308V15.5705Z" fill="#7B7B7B"/>
<path d="M234.89 34.4974C235.094 34.5226 235.3 34.4691 235.466 34.3478C235.632 34.2265 235.746 34.0464 235.784 33.8442H236.366V39.0481H235.55V35.0795H234.918L234.89 34.4974Z" fill="#7B7B7B"/>
<path d="M234.89 41.9377C235.094 41.9629 235.3 41.9094 235.466 41.7881C235.632 41.6668 235.746 41.4867 235.784 41.2845H236.366V46.4813H235.55V42.5482H234.918L234.89 41.9377Z" fill="#7B7B7B"/>
<path d="M234.314 64.8331C234.314 64.5036 234.445 64.1876 234.678 63.9546C234.911 63.7216 235.227 63.5907 235.557 63.5907C235.886 63.5907 236.202 63.7216 236.435 63.9546C236.668 64.1876 236.799 64.5036 236.799 64.8331V67.5379C236.799 67.8674 236.668 68.1835 236.435 68.4164C236.202 68.6494 235.886 68.7803 235.557 68.7803C235.227 68.7803 234.911 68.6494 234.678 68.4164C234.445 68.1835 234.314 67.8674 234.314 67.5379V64.8331ZM235.131 67.5947C235.131 67.9639 235.294 68.1059 235.557 68.1059C235.82 68.1059 235.976 67.9639 235.976 67.5947V64.755C235.976 64.3858 235.812 64.2438 235.557 64.2438C235.301 64.2438 235.131 64.3858 235.131 64.755V67.5947Z" fill="#7B7B7B"/>
<path d="M234.314 79.7063C234.314 79.3768 234.445 79.0608 234.678 78.8278C234.911 78.5948 235.227 78.4639 235.557 78.4639C235.886 78.4639 236.202 78.5948 236.435 78.8278C236.668 79.0608 236.799 79.3768 236.799 79.7063V82.4111C236.799 82.7406 236.668 83.0566 236.435 83.2896C236.202 83.5226 235.886 83.6535 235.557 83.6535C235.227 83.6535 234.911 83.5226 234.678 83.2896C234.445 83.0566 234.314 82.7406 234.314 82.4111V79.7063ZM235.131 82.4608C235.131 82.8371 235.294 82.9791 235.557 82.9791C235.82 82.9791 235.976 82.8371 235.976 82.4608V79.6566C235.976 79.2803 235.812 79.1454 235.557 79.1454C235.301 79.1454 235.131 79.2803 235.131 79.6566V82.4608Z" fill="#7B7B7B"/>
<path d="M221.054 20.2207C221.054 19.8912 221.185 19.5752 221.418 19.3422C221.651 19.1092 221.967 18.9783 222.296 18.9783C222.626 18.9783 222.942 19.1092 223.175 19.3422C223.408 19.5752 223.538 19.8912 223.538 20.2207V22.9255C223.538 23.255 223.408 23.571 223.175 23.804C222.942 24.037 222.626 24.1679 222.296 24.1679C221.967 24.1679 221.651 24.037 221.418 23.804C221.185 23.571 221.054 23.255 221.054 22.9255V20.2207ZM221.87 22.9823C221.87 23.3515 222.033 23.4935 222.296 23.4935C222.559 23.4935 222.715 23.3515 222.715 22.9823V20.1426C222.715 19.7734 222.552 19.6314 222.296 19.6314C222.041 19.6314 221.87 19.7734 221.87 20.1426V22.9823Z" fill="#7B7B7B"/>
<path d="M221.054 27.6394C221.054 27.3099 221.185 26.9939 221.418 26.7609C221.651 26.5279 221.967 26.397 222.296 26.397C222.626 26.397 222.942 26.5279 223.175 26.7609C223.408 26.9939 223.538 27.3099 223.538 27.6394V30.3442C223.538 30.6737 223.408 30.9897 223.175 31.2227C222.942 31.4557 222.626 31.5866 222.296 31.5866C221.967 31.5866 221.651 31.4557 221.418 31.2227C221.185 30.9897 221.054 30.6737 221.054 30.3442V27.6394ZM221.87 30.3939C221.87 30.7631 222.033 30.9051 222.296 30.9051C222.559 30.9051 222.715 30.7631 222.715 30.3939V27.6394C222.715 27.2702 222.552 27.1282 222.296 27.1282C222.041 27.1282 221.87 27.2702 221.87 27.6394V30.3939Z" fill="#7B7B7B"/>
<path d="M221.054 35.0938C221.054 34.7643 221.185 34.4483 221.418 34.2153C221.651 33.9823 221.967 33.8514 222.296 33.8514C222.626 33.8514 222.942 33.9823 223.175 34.2153C223.408 34.4483 223.538 34.7643 223.538 35.0938V37.7987C223.538 38.1282 223.408 38.4442 223.175 38.6772C222.942 38.9102 222.626 39.0411 222.296 39.0411C221.967 39.0411 221.651 38.9102 221.418 38.6772C221.185 38.4442 221.054 38.1282 221.054 37.7987V35.0938ZM221.87 37.8484C221.87 38.2246 222.033 38.3666 222.296 38.3666C222.559 38.3666 222.715 38.2246 222.715 37.8484V35.0441C222.715 34.6679 222.552 34.5259 222.296 34.5259C222.041 34.5259 221.87 34.6679 221.87 35.0441V37.8484Z" fill="#7B7B7B"/>
<path d="M221.629 41.9377C221.833 41.9629 222.039 41.9094 222.205 41.7881C222.372 41.6668 222.485 41.4867 222.523 41.2845H223.077V46.4813H222.261V42.5482H221.629V41.9377Z" fill="#7B7B7B"/>
<path d="M221.629 56.8037C221.833 56.8289 222.039 56.7754 222.205 56.6541C222.372 56.5327 222.485 56.3527 222.523 56.1505H223.077V61.3543H222.261V57.3858H221.629V56.8037Z" fill="#7B7B7B"/>
<path d="M221.629 64.2438C221.833 64.2691 222.039 64.2156 222.205 64.0943C222.372 63.9729 222.485 63.7929 222.523 63.5907H223.077V68.8158H222.261V64.8473H221.629V64.2438Z" fill="#7B7B7B"/>
<path d="M221.054 79.7063C221.054 79.3768 221.185 79.0608 221.418 78.8278C221.651 78.5948 221.967 78.4639 222.296 78.4639C222.626 78.4639 222.942 78.5948 223.175 78.8278C223.408 79.0608 223.538 79.3768 223.538 79.7063V82.4111C223.538 82.7406 223.408 83.0566 223.175 83.2896C222.942 83.5226 222.626 83.6535 222.296 83.6535C221.967 83.6535 221.651 83.5226 221.418 83.2896C221.185 83.0566 221.054 82.7406 221.054 82.4111V79.7063ZM221.87 82.4608C221.87 82.8371 222.033 82.9791 222.296 82.9791C222.559 82.9791 222.715 82.8371 222.715 82.4608V79.6566C222.715 79.2803 222.552 79.1454 222.296 79.1454C222.041 79.1454 221.87 79.2803 221.87 79.6566V82.4608Z" fill="#7B7B7B"/>
<path d="M221.629 86.5643C221.833 86.5895 222.039 86.536 222.205 86.4147C222.372 86.2934 222.485 86.1133 222.523 85.9111H223.077V91.1079H222.261V87.1393H221.629V86.5643Z" fill="#7B7B7B"/>
<path d="M229.892 5.35445C229.892 5.02495 230.023 4.70894 230.255 4.47595C230.488 4.24295 230.804 4.11206 231.134 4.11206C231.463 4.11206 231.779 4.24295 232.012 4.47595C232.245 4.70894 232.376 5.02495 232.376 5.35445V8.0593C232.376 8.38881 232.245 8.70481 232.012 8.93781C231.779 9.1708 231.463 9.30169 231.134 9.30169C230.804 9.30169 230.488 9.1708 230.255 8.93781C230.023 8.70481 229.892 8.38881 229.892 8.0593V5.35445ZM230.687 8.109C230.687 8.47817 230.85 8.62016 231.106 8.62016C231.361 8.62016 231.532 8.47817 231.532 8.109V5.26926C231.532 4.90009 231.368 4.7581 231.106 4.7581C230.843 4.7581 230.687 4.90009 230.687 5.26926V8.109Z" fill="#7B7B7B"/>
<path d="M230.467 12.1912C230.672 12.2166 230.879 12.1634 231.046 12.0422C231.214 11.921 231.329 11.7408 231.368 11.5381H231.915V16.7419H231.099V12.7734H230.467V12.1912Z" fill="#7B7B7B"/>
<path d="M229.892 20.2207C229.892 19.8912 230.023 19.5752 230.255 19.3422C230.488 19.1092 230.804 18.9783 231.134 18.9783C231.463 18.9783 231.779 19.1092 232.012 19.3422C232.245 19.5752 232.376 19.8912 232.376 20.2207V22.9255C232.376 23.255 232.245 23.571 232.012 23.804C231.779 24.037 231.463 24.1679 231.134 24.1679C230.804 24.1679 230.488 24.037 230.255 23.804C230.023 23.571 229.892 23.255 229.892 22.9255V20.2207ZM230.687 22.9823C230.687 23.3515 230.85 23.4935 231.106 23.4935C231.361 23.4935 231.532 23.3515 231.532 22.9823V20.1426C231.532 19.7734 231.368 19.6314 231.106 19.6314C230.843 19.6314 230.687 19.7734 230.687 20.1426V22.9823Z" fill="#7B7B7B"/>
<path d="M230.467 27.0645C230.672 27.0899 230.879 27.0367 231.046 26.9155C231.214 26.7943 231.329 26.6141 231.368 26.4114H231.915V31.6152H231.099V27.6396H230.467V27.0645Z" fill="#7B7B7B"/>
<path d="M230.467 34.4974C230.672 34.5228 230.879 34.4695 231.046 34.3483C231.214 34.2271 231.329 34.047 231.368 33.8442H231.915V39.0481H231.099V35.0795H230.467V34.4974Z" fill="#7B7B7B"/>
<path d="M230.467 41.9377C230.672 41.9631 230.879 41.9098 231.046 41.7886C231.214 41.6674 231.329 41.4873 231.368 41.2845H231.915V46.4813H231.099V42.5482H230.467V41.9377Z" fill="#7B7B7B"/>
<path d="M229.892 49.9669C229.892 49.6374 230.023 49.3214 230.255 49.0884C230.488 48.8554 230.804 48.7245 231.134 48.7245C231.463 48.7245 231.779 48.8554 232.012 49.0884C232.245 49.3214 232.376 49.6374 232.376 49.9669V52.6717C232.376 53.0012 232.245 53.3172 232.012 53.5502C231.779 53.7832 231.463 53.9141 231.134 53.9141C230.804 53.9141 230.488 53.7832 230.255 53.5502C230.023 53.3172 229.892 53.0012 229.892 52.6717V49.9669ZM230.687 52.7214C230.687 53.0906 230.85 53.2326 231.106 53.2326C231.361 53.2326 231.532 53.0906 231.532 52.7214V49.8817C231.532 49.5125 231.368 49.3705 231.106 49.3705C230.843 49.3705 230.687 49.5125 230.687 49.8817V52.7214Z" fill="#7B7B7B"/>
<path d="M229.892 57.4C229.892 57.0705 230.023 56.7545 230.255 56.5215C230.488 56.2885 230.804 56.1576 231.134 56.1576C231.463 56.1576 231.779 56.2885 232.012 56.5215C232.245 56.7545 232.376 57.0705 232.376 57.4V60.1048C232.376 60.4343 232.245 60.7503 232.012 60.9833C231.779 61.2163 231.463 61.3472 231.134 61.3472C230.804 61.3472 230.488 61.2163 230.255 60.9833C230.023 60.7503 229.892 60.4343 229.892 60.1048V57.4ZM230.687 60.1545C230.687 60.5308 230.85 60.6728 231.106 60.6728C231.361 60.6728 231.532 60.5308 231.532 60.1545V57.3148C231.532 56.9385 231.368 56.8036 231.106 56.8036C230.843 56.8036 230.687 56.9385 230.687 57.3148V60.1545Z" fill="#7B7B7B"/>
<path d="M226.044 12.1912C226.249 12.2166 226.456 12.1634 226.623 12.0422C226.791 11.921 226.906 11.7408 226.946 11.5381H227.492V16.7419H226.676V12.7734H226.044V12.1912Z" fill="#7B7B7B"/>
<path d="M225.476 20.2208C225.463 20.0502 225.486 19.8788 225.542 19.7173C225.599 19.5558 225.688 19.4077 225.804 19.2822C225.92 19.1568 226.061 19.0567 226.218 18.9883C226.375 18.9198 226.544 18.8845 226.715 18.8845C226.886 18.8845 227.055 18.9198 227.212 18.9883C227.369 19.0567 227.51 19.1568 227.626 19.2822C227.742 19.4077 227.832 19.5558 227.888 19.7173C227.944 19.8788 227.967 20.0502 227.954 20.2208V22.9256C227.967 23.0962 227.944 23.2676 227.888 23.4291C227.832 23.5906 227.742 23.7387 227.626 23.8641C227.51 23.9896 227.369 24.0897 227.212 24.1581C227.055 24.2265 226.886 24.2619 226.715 24.2619C226.544 24.2619 226.375 24.2265 226.218 24.1581C226.061 24.0897 225.92 23.9896 225.804 23.8641C225.688 23.7387 225.599 23.5906 225.542 23.4291C225.486 23.2676 225.463 23.0962 225.476 22.9256V20.2208ZM226.293 22.9824C226.293 23.3516 226.456 23.4936 226.711 23.4936C226.967 23.4936 227.137 23.3516 227.137 22.9824V20.1427C227.137 19.7735 226.974 19.6315 226.711 19.6315C226.449 19.6315 226.293 19.7735 226.293 20.1427V22.9824Z" fill="#7B7B7B"/>
<path d="M225.476 27.6396C225.463 27.469 225.486 27.2976 225.542 27.1361C225.599 26.9746 225.688 26.8265 225.804 26.7011C225.92 26.5756 226.061 26.4755 226.218 26.4071C226.375 26.3387 226.544 26.3033 226.715 26.3033C226.886 26.3033 227.055 26.3387 227.212 26.4071C227.369 26.4755 227.51 26.5756 227.626 26.7011C227.742 26.8265 227.832 26.9746 227.888 27.1361C227.944 27.2976 227.967 27.469 227.954 27.6396V30.3444C227.967 30.515 227.944 30.6864 227.888 30.8479C227.832 31.0094 227.742 31.1575 227.626 31.283C227.51 31.4084 227.369 31.5085 227.212 31.5769C227.055 31.6454 226.886 31.6807 226.715 31.6807C226.544 31.6807 226.375 31.6454 226.218 31.5769C226.061 31.5085 225.92 31.4084 225.804 31.283C225.688 31.1575 225.599 31.0094 225.542 30.8479C225.486 30.6864 225.463 30.515 225.476 30.3444V27.6396ZM226.293 30.3941C226.293 30.7633 226.456 30.9053 226.711 30.9053C226.967 30.9053 227.137 30.7633 227.137 30.3941V27.6396C227.137 27.2704 226.974 27.1284 226.711 27.1284C226.449 27.1284 226.293 27.2704 226.293 27.6396V30.3941Z" fill="#7B7B7B"/>
<path d="M226.044 34.4974C226.249 34.5228 226.456 34.4695 226.623 34.3483C226.791 34.2271 226.906 34.047 226.946 33.8442H227.492V39.0481H226.676V35.0795H226.044V34.4974Z" fill="#7B7B7B"/>
<path d="M226.044 49.3708C226.249 49.3962 226.456 49.3429 226.623 49.2217C226.791 49.1005 226.906 48.9204 226.946 48.7177H227.492V53.9073H226.676V49.9529H226.044V49.3708Z" fill="#7B7B7B"/>
<path d="M226.044 56.8037C226.249 56.8291 226.456 56.7758 226.623 56.6546C226.791 56.5334 226.906 56.3533 226.946 56.1505H227.492V61.3543H226.676V57.3858H226.044V56.8037Z" fill="#7B7B7B"/>
<path d="M226.044 64.2438C226.249 64.2693 226.456 64.216 226.623 64.0948C226.791 63.9736 226.906 63.7934 226.946 63.5907H227.492V68.8158H226.676V64.8473H226.044V64.2438Z" fill="#7B7B7B"/>
<path d="M26.2246 87.6787C26.2246 87.3492 26.3555 87.0332 26.5885 86.8002C26.8215 86.5672 27.1375 86.4363 27.467 86.4363C27.7965 86.4363 28.1125 86.5672 28.3455 86.8002C28.5785 87.0332 28.7094 87.3492 28.7094 87.6787V90.3906C28.7094 90.7201 28.5785 91.0361 28.3455 91.2691C28.1125 91.5021 27.7965 91.633 27.467 91.633C27.1375 91.633 26.8215 91.5021 26.5885 91.2691C26.3555 91.0361 26.2246 90.7201 26.2246 90.3906V87.6787ZM27.041 90.4403C27.041 90.8095 27.2043 90.9515 27.467 90.9515C27.7297 90.9515 27.8859 90.8095 27.8859 90.4403V87.6006C27.8859 87.2314 27.7226 87.0894 27.467 87.0894C27.2114 87.0894 27.041 87.2314 27.041 87.6006V90.4403Z" fill="#7B7B7B"/>
<path d="M26.2246 95.1189C26.2246 94.7894 26.3555 94.4733 26.5885 94.2403C26.8215 94.0074 27.1375 93.8765 27.467 93.8765C27.7965 93.8765 28.1125 94.0074 28.3455 94.2403C28.5785 94.4733 28.7094 94.7894 28.7094 95.1189V97.8237C28.7094 98.1532 28.5785 98.4692 28.3455 98.7022C28.1125 98.9352 27.7965 99.0661 27.467 99.0661C27.1375 99.0661 26.8215 98.9352 26.5885 98.7022C26.3555 98.4692 26.2246 98.1532 26.2246 97.8237V95.1189ZM27.041 97.8734C27.041 98.2497 27.2043 98.3846 27.467 98.3846C27.7297 98.3846 27.8859 98.2497 27.8859 97.8734V95.0337C27.8859 94.6645 27.7226 94.5225 27.467 94.5225C27.2114 94.5225 27.041 94.6645 27.041 95.0337V97.8734Z" fill="#7B7B7B"/>
<path d="M26.7939 101.956C26.9981 101.981 27.2043 101.927 27.3704 101.806C27.5366 101.685 27.6503 101.505 27.6885 101.302H28.2422V106.506H27.4258V102.538H26.7939V101.956Z" fill="#7B7B7B"/>
<path d="M26.2246 109.992C26.2246 109.663 26.3555 109.347 26.5885 109.114C26.8215 108.881 27.1375 108.75 27.467 108.75C27.7965 108.75 28.1125 108.881 28.3455 109.114C28.5785 109.347 28.7094 109.663 28.7094 109.992V112.704C28.7094 113.034 28.5785 113.35 28.3455 113.583C28.1125 113.816 27.7965 113.947 27.467 113.947C27.1375 113.947 26.8215 113.816 26.5885 113.583C26.3555 113.35 26.2246 113.034 26.2246 112.704V109.992ZM27.041 112.754C27.041 113.123 27.2043 113.265 27.467 113.265C27.7297 113.265 27.8859 113.123 27.8859 112.754V109.914C27.8859 109.545 27.7226 109.403 27.467 109.403C27.2114 109.403 27.041 109.545 27.041 109.914V112.754Z" fill="#7B7B7B"/>
<path d="M26.7939 116.829C26.9981 116.854 27.2043 116.801 27.3704 116.679C27.5366 116.558 27.6503 116.378 27.6885 116.176H28.2422V121.351H27.4258V117.383H26.7939V116.829Z" fill="#7B7B7B"/>
<path d="M26.2246 124.858C26.2246 124.529 26.3555 124.213 26.5885 123.98C26.8215 123.747 27.1375 123.616 27.467 123.616C27.7965 123.616 28.1125 123.747 28.3455 123.98C28.5785 124.213 28.7094 124.529 28.7094 124.858V127.563C28.7094 127.893 28.5785 128.209 28.3455 128.442C28.1125 128.675 27.7965 128.805 27.467 128.805C27.1375 128.805 26.8215 128.675 26.5885 128.442C26.3555 128.209 26.2246 127.893 26.2246 127.563V124.858ZM27.041 127.62C27.041 127.989 27.2043 128.131 27.467 128.131C27.7297 128.131 27.8859 127.989 27.8859 127.62V124.78C27.8859 124.404 27.7226 124.269 27.467 124.269C27.2114 124.269 27.041 124.404 27.041 124.78V127.62Z" fill="#7B7B7B"/>
<path d="M26.7939 131.702C26.9981 131.727 27.2043 131.674 27.3704 131.552C27.5366 131.431 27.6503 131.251 27.6885 131.049H28.2422V136.26H27.4258V132.291H26.7939V131.702Z" fill="#7B7B7B"/>
<path d="M26.2246 139.731C26.2246 139.402 26.3555 139.086 26.5885 138.853C26.8215 138.62 27.1375 138.489 27.467 138.489C27.7965 138.489 28.1125 138.62 28.3455 138.853C28.5785 139.086 28.7094 139.402 28.7094 139.731V142.436C28.7094 142.766 28.5785 143.082 28.3455 143.315C28.1125 143.548 27.7965 143.679 27.467 143.679C27.1375 143.679 26.8215 143.548 26.5885 143.315C26.3555 143.082 26.2246 142.766 26.2246 142.436V139.731ZM27.041 142.486C27.041 142.862 27.2043 142.997 27.467 142.997C27.7297 142.997 27.8859 142.862 27.8859 142.486V139.646C27.8859 139.277 27.7226 139.135 27.467 139.135C27.2114 139.135 27.041 139.277 27.041 139.646V142.486Z" fill="#7B7B7B"/>
<path d="M26.2246 147.165C26.2246 146.835 26.3555 146.519 26.5885 146.286C26.8215 146.053 27.1375 145.922 27.467 145.922C27.7965 145.922 28.1125 146.053 28.3455 146.286C28.5785 146.519 28.7094 146.835 28.7094 147.165V149.869C28.7094 150.199 28.5785 150.515 28.3455 150.748C28.1125 150.981 27.7965 151.112 27.467 151.112C27.1375 151.112 26.8215 150.981 26.5885 150.748C26.3555 150.515 26.2246 150.199 26.2246 149.869V147.165ZM27.041 149.926C27.041 150.295 27.2043 150.437 27.467 150.437C27.7297 150.437 27.8859 150.295 27.8859 149.926V147.086C27.8859 146.717 27.7226 146.575 27.467 146.575C27.2114 146.575 27.041 146.717 27.041 147.086V149.926Z" fill="#7B7B7B"/>
<path d="M26.2246 154.605C26.2246 154.275 26.3555 153.959 26.5885 153.726C26.8215 153.493 27.1375 153.362 27.467 153.362C27.7965 153.362 28.1125 153.493 28.3455 153.726C28.5785 153.959 28.7094 154.275 28.7094 154.605V157.309C28.7094 157.639 28.5785 157.955 28.3455 158.188C28.1125 158.421 27.7965 158.552 27.467 158.552C27.1375 158.552 26.8215 158.421 26.5885 158.188C26.3555 157.955 26.2246 157.639 26.2246 157.309V154.605ZM27.041 157.359C27.041 157.728 27.2043 157.87 27.467 157.87C27.7297 157.87 27.8859 157.728 27.8859 157.359V154.519C27.8859 154.15 27.7226 154.008 27.467 154.008C27.2114 154.008 27.041 154.15 27.041 154.519V157.359Z" fill="#7B7B7B"/>
<path d="M26.7939 168.874C26.9984 168.901 27.2054 168.849 27.372 168.727C27.5386 168.605 27.6519 168.424 27.6885 168.221H28.2422V173.425H27.4258V169.457H26.7939V168.874Z" fill="#7B7B7B"/>
<path d="M31.1953 116.829C31.4004 116.854 31.6074 116.801 31.7747 116.68C31.942 116.559 32.0572 116.378 32.0969 116.176H32.6436V121.351H31.8414V117.383H31.1953V116.829Z" fill="#7B7B7B"/>
<path d="M31.1953 124.262C31.4004 124.287 31.6074 124.234 31.7747 124.113C31.942 123.992 32.0572 123.812 32.0969 123.609H32.6436V128.813H31.8414V124.844H31.1953V124.262Z" fill="#7B7B7B"/>
<path d="M30.6412 132.291C30.6283 132.121 30.6508 131.949 30.7072 131.788C30.7636 131.626 30.8527 131.478 30.969 131.353C31.0853 131.227 31.2263 131.127 31.383 131.059C31.5398 130.99 31.709 130.955 31.8801 130.955C32.0511 130.955 32.2204 130.99 32.3771 131.059C32.5339 131.127 32.6749 131.227 32.7912 131.353C32.9075 131.478 32.9966 131.626 33.053 131.788C33.1094 131.949 33.1318 132.121 33.1189 132.291V135.003C33.1318 135.174 33.1094 135.345 33.053 135.507C32.9966 135.668 32.9075 135.816 32.7912 135.942C32.6749 136.067 32.5339 136.167 32.3771 136.236C32.2204 136.304 32.0511 136.339 31.8801 136.339C31.709 136.339 31.5398 136.304 31.383 136.236C31.2263 136.167 31.0853 136.067 30.969 135.942C30.8527 135.816 30.7636 135.668 30.7072 135.507C30.6508 135.345 30.6283 135.174 30.6412 135.003V132.291ZM31.4577 135.053C31.4577 135.422 31.621 135.564 31.8765 135.564C32.1321 135.564 32.3025 135.422 32.3025 135.053V132.213C32.3025 131.844 32.1392 131.702 31.8765 131.702C31.6139 131.702 31.4577 131.844 31.4577 132.213V135.053Z" fill="#7B7B7B"/>
<path d="M30.6412 139.731C30.6283 139.561 30.6508 139.389 30.7072 139.228C30.7636 139.066 30.8527 138.918 30.969 138.793C31.0853 138.667 31.2263 138.567 31.383 138.499C31.5398 138.43 31.709 138.395 31.8801 138.395C32.0511 138.395 32.2204 138.43 32.3771 138.499C32.5339 138.567 32.6749 138.667 32.7912 138.793C32.9075 138.918 32.9966 139.066 33.053 139.228C33.1094 139.389 33.1318 139.561 33.1189 139.731V142.436C33.1318 142.607 33.1094 142.778 33.053 142.94C32.9966 143.101 32.9075 143.249 32.7912 143.375C32.6749 143.5 32.5339 143.6 32.3771 143.669C32.2204 143.737 32.0511 143.772 31.8801 143.772C31.709 143.772 31.5398 143.737 31.383 143.669C31.2263 143.6 31.0853 143.5 30.969 143.375C30.8527 143.249 30.7636 143.101 30.7072 142.94C30.6508 142.778 30.6283 142.607 30.6412 142.436V139.731ZM31.4577 142.486C31.4577 142.862 31.621 142.997 31.8765 142.997C32.1321 142.997 32.3025 142.862 32.3025 142.486V139.646C32.3025 139.277 32.1392 139.135 31.8765 139.135C31.6139 139.135 31.4577 139.277 31.4577 139.646V142.486Z" fill="#7B7B7B"/>
<path d="M31.1953 146.568C31.4006 146.595 31.6085 146.543 31.7763 146.421C31.944 146.3 32.0588 146.119 32.0969 145.915H32.6436V151.119H31.8414V147.15H31.1953V146.568Z" fill="#7B7B7B"/>
<path d="M31.1953 161.441C31.4004 161.467 31.6074 161.413 31.7747 161.292C31.942 161.171 32.0572 160.991 32.0969 160.788H32.6436V165.992H31.8414V162.023H31.1953V161.441Z" fill="#7B7B7B"/>
<path d="M21.7949 109.992C21.7949 109.663 21.9258 109.347 22.1588 109.114C22.3918 108.881 22.7078 108.75 23.0373 108.75C23.3668 108.75 23.6828 108.881 23.9158 109.114C24.1488 109.347 24.2797 109.663 24.2797 109.992V112.704C24.2797 113.034 24.1488 113.35 23.9158 113.583C23.6828 113.816 23.3668 113.947 23.0373 113.947C22.7078 113.947 22.3918 113.816 22.1588 113.583C21.9258 113.35 21.7949 113.034 21.7949 112.704V109.992ZM22.6184 112.754C22.6184 113.123 22.7817 113.265 23.0373 113.265C23.2929 113.265 23.4633 113.123 23.4633 112.754V109.914C23.4633 109.545 23.3 109.403 23.0373 109.403C22.7746 109.403 22.6184 109.545 22.6184 109.914V112.754Z" fill="#7B7B7B"/>
<path d="M22.3701 116.829C22.5752 116.854 22.7822 116.801 22.9495 116.68C23.1168 116.559 23.232 116.378 23.2717 116.176H23.8184V121.351H23.002V117.383H22.3701V116.829Z" fill="#7B7B7B"/>
<path d="M22.3701 124.262C22.5752 124.287 22.7822 124.234 22.9495 124.113C23.1168 123.992 23.232 123.812 23.2717 123.609H23.8184V128.813H23.002V124.844H22.3701V124.262Z" fill="#7B7B7B"/>
<path d="M21.7949 132.291C21.7949 131.962 21.9258 131.646 22.1588 131.413C22.3918 131.18 22.7078 131.049 23.0373 131.049C23.3668 131.049 23.6828 131.18 23.9158 131.413C24.1488 131.646 24.2797 131.962 24.2797 132.291V135.003C24.2797 135.333 24.1488 135.649 23.9158 135.882C23.6828 136.115 23.3668 136.245 23.0373 136.245C22.7078 136.245 22.3918 136.115 22.1588 135.882C21.9258 135.649 21.7949 135.333 21.7949 135.003V132.291ZM22.6184 135.053C22.6184 135.422 22.7817 135.564 23.0373 135.564C23.2929 135.564 23.4633 135.422 23.4633 135.053V132.213C23.4633 131.844 23.3 131.702 23.0373 131.702C22.7746 131.702 22.6184 131.844 22.6184 132.213V135.053Z" fill="#7B7B7B"/>
<path d="M22.3701 139.135C22.5752 139.16 22.7822 139.107 22.9495 138.986C23.1168 138.865 23.232 138.685 23.2717 138.482H23.8184V143.686H23.002V139.717H22.3701V139.135Z" fill="#7B7B7B"/>
<path d="M21.7949 147.165C21.7949 146.835 21.9258 146.519 22.1588 146.286C22.3918 146.053 22.7078 145.922 23.0373 145.922C23.3668 145.922 23.6828 146.053 23.9158 146.286C24.1488 146.519 24.2797 146.835 24.2797 147.165V149.869C24.2797 150.199 24.1488 150.515 23.9158 150.748C23.6828 150.981 23.3668 151.112 23.0373 151.112C22.7078 151.112 22.3918 150.981 22.1588 150.748C21.9258 150.515 21.7949 150.199 21.7949 149.869V147.165ZM22.6184 149.926C22.6184 150.295 22.7817 150.437 23.0373 150.437C23.2929 150.437 23.4633 150.295 23.4633 149.926V147.086C23.4633 146.717 23.3 146.575 23.0373 146.575C22.7746 146.575 22.6184 146.717 22.6184 147.086V149.926Z" fill="#7B7B7B"/>
<path d="M17.3795 95.119C17.3666 94.9484 17.389 94.777 17.4454 94.6155C17.5018 94.454 17.591 94.3059 17.7073 94.1804C17.8236 94.055 17.9645 93.9549 18.1213 93.8865C18.2781 93.818 18.4473 93.7827 18.6184 93.7827C18.7894 93.7827 18.9586 93.818 19.1154 93.8865C19.2722 93.9549 19.4131 94.055 19.5294 94.1804C19.6457 94.3059 19.7349 94.454 19.7913 94.6155C19.8477 94.777 19.8701 94.9484 19.8572 95.119V97.8238C19.8701 97.9944 19.8477 98.1658 19.7913 98.3273C19.7349 98.4888 19.6457 98.6369 19.5294 98.7623C19.4131 98.8878 19.2722 98.9879 19.1154 99.0563C18.9586 99.1247 18.7894 99.16 18.6184 99.16C18.4473 99.16 18.2781 99.1247 18.1213 99.0563C17.9645 98.9879 17.8236 98.8878 17.7073 98.7623C17.591 98.6369 17.5018 98.4888 17.4454 98.3273C17.389 98.1658 17.3666 97.9944 17.3795 97.8238V95.119ZM18.196 97.8735C18.196 98.2498 18.3592 98.3847 18.6148 98.3847C18.8704 98.3847 19.0408 98.2498 19.0408 97.8735V95.0338C19.0408 94.6575 18.8775 94.5155 18.6148 94.5155C18.3521 94.5155 18.196 94.6575 18.196 95.0338V97.8735Z" fill="#7B7B7B"/>
<path d="M17.9482 109.396C18.1533 109.421 18.3603 109.368 18.5276 109.247C18.695 109.125 18.8101 108.945 18.8499 108.743H19.3965V113.939H18.5801V109.992H17.9482V109.396Z" fill="#7B7B7B"/>
<path d="M17.3795 117.425C17.3666 117.255 17.389 117.083 17.4454 116.922C17.5018 116.76 17.591 116.612 17.7073 116.487C17.8236 116.362 17.9645 116.261 18.1213 116.193C18.2781 116.125 18.4473 116.089 18.6184 116.089C18.7894 116.089 18.9586 116.125 19.1154 116.193C19.2722 116.261 19.4131 116.362 19.5294 116.487C19.6457 116.612 19.7349 116.76 19.7913 116.922C19.8477 117.083 19.8701 117.255 19.8572 117.425V120.13C19.8701 120.301 19.8477 120.472 19.7913 120.634C19.7349 120.795 19.6457 120.943 19.5294 121.069C19.4131 121.194 19.2722 121.294 19.1154 121.363C18.9586 121.431 18.7894 121.467 18.6184 121.467C18.4473 121.467 18.2781 121.431 18.1213 121.363C17.9645 121.294 17.8236 121.194 17.7073 121.069C17.591 120.943 17.5018 120.795 17.4454 120.634C17.389 120.472 17.3666 120.301 17.3795 120.13V117.425ZM18.196 120.18C18.196 120.556 18.3592 120.691 18.6148 120.691C18.8704 120.691 19.0408 120.556 19.0408 120.18V117.376C19.0408 116.999 18.8775 116.858 18.6148 116.858C18.3521 116.858 18.196 116.999 18.196 117.376V120.18Z" fill="#7B7B7B"/>
<path d="M17.3795 132.298C17.3666 132.128 17.389 131.956 17.4454 131.795C17.5018 131.633 17.591 131.485 17.7073 131.36C17.8236 131.234 17.9645 131.134 18.1213 131.066C18.2781 130.997 18.4473 130.962 18.6184 130.962C18.7894 130.962 18.9586 130.997 19.1154 131.066C19.2722 131.134 19.4131 131.234 19.5294 131.36C19.6457 131.485 19.7349 131.633 19.7913 131.795C19.8477 131.956 19.8701 132.128 19.8572 132.298V135.003C19.8701 135.174 19.8477 135.345 19.7913 135.507C19.7349 135.668 19.6457 135.816 19.5294 135.942C19.4131 136.067 19.2722 136.167 19.1154 136.236C18.9586 136.304 18.7894 136.339 18.6184 136.339C18.4473 136.339 18.2781 136.304 18.1213 136.236C17.9645 136.167 17.8236 136.067 17.7073 135.942C17.591 135.816 17.5018 135.668 17.4454 135.507C17.389 135.345 17.3666 135.174 17.3795 135.003V132.298ZM18.196 135.053C18.196 135.422 18.3592 135.564 18.6148 135.564C18.8704 135.564 19.0408 135.422 19.0408 135.053V132.213C19.0408 131.844 18.8775 131.702 18.6148 131.702C18.3521 131.702 18.196 131.844 18.196 132.213V135.053Z" fill="#7B7B7B"/>
<path d="M17.3795 139.731C17.3666 139.561 17.389 139.389 17.4454 139.228C17.5018 139.066 17.591 138.918 17.7073 138.793C17.8236 138.667 17.9645 138.567 18.1213 138.499C18.2781 138.43 18.4473 138.395 18.6184 138.395C18.7894 138.395 18.9586 138.43 19.1154 138.499C19.2722 138.567 19.4131 138.667 19.5294 138.793C19.6457 138.918 19.7349 139.066 19.7913 139.228C19.8477 139.389 19.8701 139.561 19.8572 139.731V142.436C19.8701 142.607 19.8477 142.778 19.7913 142.94C19.7349 143.101 19.6457 143.249 19.5294 143.375C19.4131 143.5 19.2722 143.6 19.1154 143.669C18.9586 143.737 18.7894 143.772 18.6184 143.772C18.4473 143.772 18.2781 143.737 18.1213 143.669C17.9645 143.6 17.8236 143.5 17.7073 143.375C17.591 143.249 17.5018 143.101 17.4454 142.94C17.389 142.778 17.3666 142.607 17.3795 142.436V139.731ZM18.196 142.486C18.196 142.862 18.3592 143.004 18.6148 143.004C18.8704 143.004 19.0408 142.862 19.0408 142.486V139.646C19.0408 139.27 18.8775 139.128 18.6148 139.128C18.3521 139.128 18.196 139.27 18.196 139.646V142.486Z" fill="#7B7B7B"/>
<path d="M17.3795 147.164C17.3666 146.994 17.389 146.823 17.4454 146.661C17.5018 146.5 17.591 146.351 17.7073 146.226C17.8236 146.101 17.9645 146 18.1213 145.932C18.2781 145.864 18.4473 145.828 18.6184 145.828C18.7894 145.828 18.9586 145.864 19.1154 145.932C19.2722 146 19.4131 146.101 19.5294 146.226C19.6457 146.351 19.7349 146.5 19.7913 146.661C19.8477 146.823 19.8701 146.994 19.8572 147.164V149.869C19.8701 150.04 19.8477 150.211 19.7913 150.373C19.7349 150.534 19.6457 150.682 19.5294 150.808C19.4131 150.933 19.2722 151.033 19.1154 151.102C18.9586 151.17 18.7894 151.206 18.6184 151.206C18.4473 151.206 18.2781 151.17 18.1213 151.102C17.9645 151.033 17.8236 150.933 17.7073 150.808C17.591 150.682 17.5018 150.534 17.4454 150.373C17.389 150.211 17.3666 150.04 17.3795 149.869V147.164ZM18.196 149.926C18.196 150.295 18.3592 150.437 18.6148 150.437C18.8704 150.437 19.0408 150.295 19.0408 149.926V147.086C19.0408 146.717 18.8775 146.575 18.6148 146.575C18.3521 146.575 18.196 146.717 18.196 147.086V149.926Z" fill="#7B7B7B"/>
<path d="M17.9482 168.917C18.1543 168.942 18.3622 168.888 18.5297 168.765C18.6972 168.642 18.8117 168.461 18.8499 168.257H19.3965V173.46H18.5801V169.492H17.9482V168.917Z" fill="#7B7B7B"/>
<path d="M266.985 164.381C243.784 154.988 242.102 122.686 242.102 122.686H247.071V118.824C258.849 118.824 266.985 111.519 266.985 111.519C266.985 111.519 275.121 118.824 286.899 118.824V122.686H291.868C291.868 122.686 290.178 154.988 266.985 164.381Z" stroke="#7B7B7B" stroke-width="1.10721" stroke-linecap="round" stroke-linejoin="round"/>
<path d="M266.984 160.114C251.785 153.015 247.383 134.159 246.169 126.037H250.713V121.976C256.554 121.255 262.136 119.136 266.984 115.8C271.836 119.136 277.42 121.255 283.263 121.976V126.037H287.793C286.564 134.13 282.134 153.015 266.984 160.114Z" stroke="#7B7B7B" stroke-width="1.10721" stroke-linecap="round" stroke-linejoin="round"/>
<path d="M275.177 133.399H258.785C258.255 133.399 257.826 133.828 257.826 134.357V144.204C257.826 144.733 258.255 145.163 258.785 145.163H275.177C275.706 145.163 276.135 144.733 276.135 144.204V134.357C276.135 133.828 275.706 133.399 275.177 133.399Z" fill="#7B7B7B"/>
<path d="M267.311 123.481C266.421 123.438 265.531 123.576 264.695 123.887C263.859 124.197 263.095 124.674 262.45 125.289C261.804 125.904 261.289 126.643 260.938 127.462C260.586 128.281 260.404 129.163 260.403 130.055V130.765C260.403 130.826 260.415 130.886 260.438 130.942C260.462 130.998 260.496 131.048 260.538 131.091C260.581 131.134 260.632 131.168 260.688 131.191C260.744 131.214 260.804 131.226 260.865 131.226H262.526C262.587 131.226 262.647 131.214 262.703 131.191C262.759 131.168 262.809 131.134 262.852 131.091C262.895 131.048 262.929 130.998 262.952 130.942C262.976 130.886 262.987 130.826 262.987 130.765V130.218C262.975 129.189 263.351 128.194 264.04 127.43C264.73 126.667 265.683 126.192 266.708 126.101C267.253 126.065 267.8 126.141 268.315 126.325C268.829 126.509 269.301 126.796 269.7 127.169C270.099 127.543 270.418 127.994 270.636 128.495C270.854 128.996 270.966 129.537 270.967 130.083V130.793C270.967 130.916 271.016 131.033 271.102 131.12C271.189 131.206 271.306 131.255 271.429 131.255H273.09C273.212 131.255 273.33 131.206 273.416 131.12C273.503 131.033 273.551 130.916 273.551 130.793V130.296C273.583 128.577 272.953 126.911 271.792 125.643C270.63 124.375 269.026 123.601 267.311 123.481Z" fill="#7B7B7B"/>
<path d="M268.702 137.964C268.702 137.657 268.621 137.356 268.466 137.091C268.31 136.826 268.087 136.608 267.819 136.459C267.551 136.309 267.248 136.235 266.941 136.242C266.634 136.25 266.335 136.34 266.075 136.502C265.814 136.665 265.602 136.894 265.46 137.166C265.318 137.438 265.252 137.743 265.268 138.049C265.284 138.356 265.382 138.652 265.551 138.908C265.72 139.164 265.955 139.37 266.231 139.504L265.606 142.266H268.354L267.729 139.504C268.019 139.364 268.263 139.145 268.435 138.873C268.607 138.601 268.699 138.286 268.702 137.964Z" fill="white" stroke="#7B7B7B" stroke-width="1.10721" stroke-linecap="round" stroke-linejoin="round"/>
<path d="M193.684 16.3655H137.627C136.326 16.3655 135.271 17.4207 135.271 18.7225V50.2862C135.271 51.588 136.326 52.6432 137.627 52.6432H193.684C194.986 52.6432 196.041 51.588 196.041 50.2862V18.7225C196.041 17.4207 194.986 16.3655 193.684 16.3655Z" stroke="#7B7B7B" stroke-width="1.10721" stroke-linecap="round" stroke-linejoin="round"/>
<path d="M140.929 47.5742H158.514C158.965 47.5742 159.33 47.2087 159.33 46.7578V22.2579C159.33 21.807 158.965 21.4415 158.514 21.4415L140.929 21.4415C140.478 21.4415 140.112 21.807 140.112 22.2579V46.7578C140.112 47.2087 140.478 47.5742 140.929 47.5742Z" stroke="#7B7B7B" stroke-width="1.10721" stroke-linecap="round" stroke-linejoin="round"/>
<path d="M149.753 47.5672H140.978C140.749 47.5672 140.528 47.4759 140.366 47.3135C140.204 47.1511 140.112 46.9308 140.112 46.701V40.6666C140.112 40.6666 145.018 40.4536 145.841 39.41C146.665 38.3664 145.756 36.7335 145.756 36.7335C145.458 36.3644 145.387 33.7447 145.387 33.7447L145.089 33.6666C144.798 33.5956 144.379 31.4232 144.379 30.6068C144.378 30.3716 144.445 30.1412 144.571 29.9425C144.696 29.7438 144.876 29.5851 145.089 29.4851C145.089 29.4851 144.379 24.189 149.725 24.189C155.071 24.189 154.354 29.4851 154.354 29.4851C154.566 29.5851 154.746 29.7438 154.872 29.9425C154.998 30.1412 155.064 30.3716 155.064 30.6068C155.064 31.4232 154.68 33.5956 154.354 33.6666L154.055 33.7447C154.055 33.7447 153.984 36.3644 153.686 36.7335C153.686 36.7335 152.77 38.3664 153.601 39.41C154.432 40.4536 159.33 40.6666 159.33 40.6666V46.701C159.331 46.8151 159.309 46.9281 159.266 47.0336C159.223 47.1391 159.159 47.235 159.079 47.3156C158.998 47.3962 158.902 47.46 158.797 47.5032C158.691 47.5464 158.578 47.5681 158.464 47.5672H149.753Z" fill="#7B7B7B"/>
<path d="M189.95 47.6953H178.009C177.772 47.6954 177.544 47.6026 177.374 47.4367C177.204 47.2709 177.106 47.0452 177.101 46.8079C177.101 46.5669 177.196 46.3357 177.367 46.1653C177.537 45.9949 177.768 45.8992 178.009 45.8992H189.95C190.191 45.8992 190.423 45.9949 190.593 46.1653C190.763 46.3357 190.859 46.5669 190.859 46.8079C190.854 47.0452 190.755 47.2709 190.586 47.4367C190.416 47.6026 190.188 47.6954 189.95 47.6953Z" fill="#7B7B7B"/>
<path d="M189.951 23.1312H165.196C164.955 23.1312 164.724 23.0354 164.553 22.865C164.383 22.6946 164.287 22.4634 164.287 22.2224C164.287 21.9814 164.383 21.7503 164.553 21.5799C164.724 21.4095 164.955 21.3137 165.196 21.3137H189.951C190.192 21.3137 190.423 21.4095 190.594 21.5799C190.764 21.7503 190.86 21.9814 190.86 22.2224C190.86 22.4634 190.764 22.6946 190.594 22.865C190.423 23.0354 190.192 23.1312 189.951 23.1312Z" fill="#7B7B7B"/>
<path d="M179.395 29.2722H165.196C165.075 29.2722 164.956 29.2482 164.845 29.2017C164.734 29.1551 164.633 29.0869 164.548 29.001C164.464 28.9151 164.397 28.8133 164.352 28.7014C164.307 28.5895 164.285 28.4698 164.287 28.3493C164.287 28.1083 164.383 27.8771 164.553 27.7067C164.724 27.5363 164.955 27.4406 165.196 27.4406H179.395C179.632 27.4461 179.858 27.5443 180.024 27.7141C180.189 27.8839 180.282 28.1119 180.282 28.3493C180.286 28.5891 180.195 28.8207 180.029 28.9936C179.862 29.1664 179.634 29.2666 179.395 29.2722Z" fill="#7B7B7B"/>
<path d="M174.872 35.4487H165.196C164.955 35.4487 164.724 35.3529 164.553 35.1825C164.383 35.0121 164.287 34.781 164.287 34.5399C164.287 34.2989 164.383 34.0678 164.553 33.8974C164.724 33.727 164.955 33.6312 165.196 33.6312H174.872C175.113 33.6312 175.344 33.727 175.515 33.8974C175.685 34.0678 175.781 34.2989 175.781 34.5399C175.781 34.781 175.685 35.0121 175.515 35.1825C175.344 35.3529 175.113 35.4487 174.872 35.4487Z" fill="#7B7B7B"/>
<path d="M179.392 41.5538H165.193C164.952 41.5538 164.721 41.4581 164.551 41.2877C164.38 41.1173 164.285 40.8861 164.285 40.6451C164.281 40.5234 164.302 40.4022 164.345 40.2886C164.389 40.1751 164.456 40.0715 164.541 39.9841C164.625 39.8967 164.727 39.8272 164.839 39.7798C164.951 39.7324 165.072 39.7079 165.193 39.708H179.392C179.512 39.7108 179.63 39.7372 179.74 39.7859C179.85 39.8346 179.949 39.9045 180.031 39.9917C180.114 40.0788 180.178 40.1814 180.221 40.2935C180.263 40.4057 180.283 40.5252 180.279 40.6451C180.28 40.8825 180.187 41.1105 180.021 41.2803C179.855 41.4501 179.629 41.5483 179.392 41.5538Z" fill="#7B7B7B"/>
<path d="M78.1627 112.959V147.888L68.7631 157.288H43.8018V112.959H78.1627Z" stroke="#7B7B7B" stroke-width="1.10721" stroke-linecap="round" stroke-linejoin="round"/>
<path d="M78.1613 147.888L68.7617 157.288V147.888H78.1613Z" fill="#7B7B7B" stroke="#7B7B7B" stroke-width="1.10721" stroke-linecap="round" stroke-linejoin="round"/>
<path d="M52.1729 118.611H72.9101" stroke="#7B7B7B" stroke-width="1.10721" stroke-linecap="round" stroke-linejoin="round"/>
<path d="M49.0479 122.515H72.9088" stroke="#7B7B7B" stroke-width="1.10721" stroke-linecap="round" stroke-linejoin="round"/>
<path d="M49.0479 126.42H72.9088" stroke="#7B7B7B" stroke-width="1.10721" stroke-linecap="round" stroke-linejoin="round"/>
<path d="M49.0479 130.325H72.9088" stroke="#7B7B7B" stroke-width="1.10721" stroke-linecap="round" stroke-linejoin="round"/>
<path d="M49.0479 134.229H72.9088" stroke="#7B7B7B" stroke-width="1.10721" stroke-linecap="round" stroke-linejoin="round"/>
<path d="M49.0479 138.134H72.9088" stroke="#7B7B7B" stroke-width="1.10721" stroke-linecap="round" stroke-linejoin="round"/>
<path d="M49.0479 142.031H72.9088" stroke="#7B7B7B" stroke-width="1.10721" stroke-linecap="round" stroke-linejoin="round"/>
<path d="M49.0479 145.936H69.7922" stroke="#7B7B7B" stroke-width="1.10721" stroke-linecap="round" stroke-linejoin="round"/>
<path d="M79.7948 118.611H83.806V153.54L74.4135 162.939H49.4521V158.807" stroke="#7B7B7B" stroke-width="1.10721" stroke-linecap="round" stroke-linejoin="round"/>
<path d="M83.8065 153.539L74.4141 162.939V153.539H83.8065Z" fill="#7B7B7B" stroke="#7B7B7B" stroke-width="1.10721" stroke-linecap="round" stroke-linejoin="round"/>
<path d="M207.245 88.6727H124.069C122.406 88.6727 121.059 90.0204 121.059 91.6829V184.216C121.059 185.878 122.406 187.226 124.069 187.226H207.245C208.907 187.226 210.255 185.878 210.255 184.216V91.6829C210.255 90.0204 208.907 88.6727 207.245 88.6727Z" fill="#FEE26D" stroke="#7B7B7B" stroke-width="1.10721" stroke-linecap="round" stroke-linejoin="round"/>
<g opacity="0.5">
<path d="M208.46 121.528H122.855" stroke="white" stroke-width="1.10721" stroke-linecap="round" stroke-linejoin="round"/>
<path d="M208.46 132.475H122.855" stroke="white" stroke-width="1.10721" stroke-linecap="round" stroke-linejoin="round"/>
<path d="M208.46 143.422H122.855" stroke="white" stroke-width="1.10721" stroke-linecap="round" stroke-linejoin="round"/>
<path d="M208.46 154.37H122.855" stroke="white" stroke-width="1.10721" stroke-linecap="round" stroke-linejoin="round"/>
<path d="M208.46 165.317H122.855" stroke="white" stroke-width="1.10721" stroke-linecap="round" stroke-linejoin="round"/>
<path d="M208.46 176.271H122.855" stroke="white" stroke-width="1.10721" stroke-linecap="round" stroke-linejoin="round"/>
<path d="M208.46 110.574H122.855" stroke="white" stroke-width="1.10721" stroke-linecap="round" stroke-linejoin="round"/>
<path d="M208.46 99.6265H122.855" stroke="white" stroke-width="1.10721" stroke-linecap="round" stroke-linejoin="round"/>
<path d="M188.008 185.465V90.4258" stroke="white" stroke-width="1.10721" stroke-linecap="round" stroke-linejoin="round"/>
<path d="M176.832 185.465V90.4258" stroke="white" stroke-width="1.10721" stroke-linecap="round" stroke-linejoin="round"/>
<path d="M165.657 185.465V90.4258" stroke="white" stroke-width="1.10721" stroke-linecap="round" stroke-linejoin="round"/>
<path d="M154.482 185.465V90.4258" stroke="white" stroke-width="1.10721" stroke-linecap="round" stroke-linejoin="round"/>
<path d="M143.309 185.465V90.4258" stroke="white" stroke-width="1.10721" stroke-linecap="round" stroke-linejoin="round"/>
<path d="M132.142 185.465V90.4258" stroke="white" stroke-width="1.10721" stroke-linecap="round" stroke-linejoin="round"/>
<path d="M199.182 185.465V90.4258" stroke="white" stroke-width="1.10721" stroke-linecap="round" stroke-linejoin="round"/>
</g>
<path d="M162.533 167.972C163.488 163.032 164.796 158.166 166.445 153.412C166.778 152.453 167.154 151.488 167.566 150.458C168.539 147.973 170.534 142.897 169.781 141.385C169.706 141.224 169.59 141.086 169.444 140.985C169.298 140.884 169.128 140.824 168.951 140.81C168.913 140.808 168.875 140.815 168.84 140.828C168.804 140.841 168.772 140.862 168.745 140.888C166.53 142.699 165.103 147.718 164.066 151.381L163.718 152.616C162.343 157.542 161.37 162.57 160.808 167.653" stroke="#7B7B7B" stroke-width="1.10721" stroke-linecap="round" stroke-linejoin="round"/>
<path d="M165.82 168.207C166.738 163.556 167.978 158.976 169.533 154.498C169.845 153.582 170.243 152.624 170.619 151.616C172.174 147.661 174.105 142.763 172.713 139.958C172.368 139.259 171.837 138.668 171.178 138.25C170.52 137.832 169.759 137.603 168.979 137.587C168.155 137.579 167.356 137.864 166.722 138.389C163.718 140.839 162.199 146.199 160.978 150.501L160.63 151.729C159.256 156.612 158.275 161.598 157.698 166.638" stroke="#7B7B7B" stroke-width="1.10721" stroke-linecap="round" stroke-linejoin="round"/>
<path d="M169.186 167.887C170.051 163.705 171.187 159.584 172.586 155.548C174.276 150.728 178.081 143.48 175.611 138.51C173.587 134.442 168.291 132.93 164.678 135.883C160.546 139.248 158.906 146 157.514 150.835C156.202 155.489 155.236 160.235 154.625 165.033" stroke="#7B7B7B" stroke-width="1.10721" stroke-linecap="round" stroke-linejoin="round"/>
<path d="M172.72 166.908C173.492 163.424 174.469 159.989 175.645 156.621C175.922 155.818 176.277 154.924 176.653 153.965C178.669 148.833 181.182 142.436 178.506 137.055C177.622 135.279 176.265 133.782 174.583 132.729C172.902 131.677 170.962 131.11 168.979 131.091C166.664 131.084 164.419 131.885 162.632 133.356C158.046 137.097 156.242 143.551 154.744 148.726L154.404 149.926C153.207 154.14 152.299 158.431 151.685 162.769" stroke="#7B7B7B" stroke-width="1.10721" stroke-linecap="round" stroke-linejoin="round"/>
<path d="M176.497 165.04C177.158 162.442 177.882 160.035 178.698 157.693C178.968 156.933 179.302 156.074 179.657 155.172C181.786 149.72 184.718 142.28 181.403 135.621C180.252 133.304 178.482 131.352 176.289 129.981C174.096 128.61 171.566 127.874 168.979 127.854C165.918 127.843 162.95 128.903 160.588 130.85C155.206 135.237 153.226 142.209 151.628 147.846L151.288 149.038C150.286 152.557 149.483 156.129 148.881 159.737" stroke="#7B7B7B" stroke-width="1.10721" stroke-linecap="round" stroke-linejoin="round"/>
<path d="M180.395 161.881C181.104 156.684 185.293 150.522 185.705 143.316C186.081 136.714 183.909 132.483 182.368 130.36C182.002 129.837 181.769 129.232 181.69 128.599C181.611 127.965 181.688 127.322 181.914 126.725C182.944 123.7 182.909 120.413 181.814 117.411" stroke="#7B7B7B" stroke-width="1.10721" stroke-linecap="round" stroke-linejoin="round"/>
<path d="M170.556 107.706C176.022 111.128 179.572 116.516 179.849 123.481C179.941 125.98 177.911 126.839 175.369 126.065C170.052 124.446 157.379 120.3 149.655 142.017C148.175 146.523 147.083 151.148 146.39 155.84" stroke="#7B7B7B" stroke-width="1.10721" stroke-linecap="round" stroke-linejoin="round"/>
<path d="M159.693 108.061C163.104 108.015 166.475 108.804 169.511 110.361C174.701 113.151 177.967 119.711 176.298 121.379C174.445 123.232 171.002 118.76 160.474 123.076C155.412 125.149 151.82 129.373 149.377 134.172C148.276 136.364 147.346 138.638 146.594 140.974C145.615 143.978 144.81 147.035 144.181 150.132" stroke="#7B7B7B" stroke-width="1.10721" stroke-linecap="round" stroke-linejoin="round"/>
<path d="M153.71 112.065C155.564 111.576 157.472 111.321 159.39 111.305C168.683 111.092 172.168 116.048 171.146 117.304C170.287 118.362 168.377 117.766 165.758 118.085C158.197 119.015 152.219 123.317 148.194 129.678C146.208 132.9 144.625 136.352 143.48 139.958C143.267 140.604 143.061 141.257 142.862 141.911" stroke="#7B7B7B" stroke-width="1.10721" stroke-linecap="round" stroke-linejoin="round"/>
<path d="M149.327 117.411C152.425 114.909 156.325 113.617 160.303 113.776C161.481 113.776 164.392 114.159 164.783 115.274C165.301 116.736 160.573 114.748 153.722 119.313C144.94 125.17 143.875 130.722 143.875 130.722" stroke="#7B7B7B" stroke-width="1.10721" stroke-linecap="round" stroke-linejoin="round"/>
<path d="M184.121 157.948C184.121 157.948 188.885 147.661 188.381 139.71C188.068 134.591 185.541 131.382 185.143 129.103C184.746 126.825 185.853 126.264 185.555 124.177" stroke="#7B7B7B" stroke-width="1.10721" stroke-linecap="round" stroke-linejoin="round"/>
<path d="M127.064 109.523V94.9979H141.59" stroke="#7B7B7B" stroke-width="1.10721" stroke-linecap="round" stroke-linejoin="round"/>
<path d="M141.59 180.9H127.064V166.375" stroke="#7B7B7B" stroke-width="1.10721" stroke-linecap="round" stroke-linejoin="round"/>
<path d="M204.256 109.523V94.9979H189.73" stroke="#7B7B7B" stroke-width="1.10721" stroke-linecap="round" stroke-linejoin="round"/>
<path d="M189.73 180.9H204.256V166.375" stroke="#7B7B7B" stroke-width="1.10721" stroke-linecap="round" stroke-linejoin="round"/>
<path d="M265.957 314.453C262.166 308.774 258.19 302.782 254.925 297.82C250.75 291.494 247.74 286.872 247.74 286.872C246.143 279.397 243.878 276.465 241.599 270.324C239.32 264.183 241.202 258.709 242.146 251.106C243.09 243.502 241.599 236.417 240.804 231.611C240.009 226.805 240.939 222.268 240.804 221.203C240.669 220.138 236.133 214.53 234.415 210.391C233.636 208.545 232.549 206.845 231.199 205.365C229.707 203.658 227.841 202.319 225.746 201.453C224.874 201.11 223.963 200.871 223.034 200.743C220.905 200.438 219.187 200.778 217.468 200.778C215.062 200.778 209.993 196.647 206.656 195.986C206.037 195.864 205.411 195.776 204.782 195.724C202.02 195.461 199.102 195.724 195.872 195.979C192.642 196.235 188.886 193.175 185.862 192.217H185.812C185.143 191.983 184.429 191.905 183.725 191.989C180.523 192.522 174.496 193.054 174.496 193.054C174.496 193.054 173.964 188.922 173.694 183.314C173.644 182.341 173.573 181.404 173.488 180.474C173.176 177.01 172.679 173.914 172.6 171.082C172.6 170.372 172.6 169.612 172.6 168.902C172.863 164.912 172.742 161.803 172.6 155.669C172.6 155.463 172.6 155.243 172.6 155.023C172.6 153.113 172.6 151.289 172.487 149.642C172.267 145.645 171.379 142.691 167.404 142.081C163.932 141.548 161.533 143.281 160.063 149.024C158.593 154.767 157.529 154.363 157.131 162.768C156.733 171.174 154.852 176.527 155.122 180.794C155.392 185.06 154.455 193.338 154.455 193.338C152.857 192.536 151.388 193.203 151.111 193.871C150.834 194.538 149.655 201.084 148.711 205.755C147.888 209.908 144.104 213.749 142.712 216.61V216.674C142.563 216.983 142.44 217.303 142.343 217.632C141.541 220.571 141.945 226.861 141.945 234.855C141.945 242.849 139.943 251.141 141.945 256.473C142.372 257.559 142.969 258.57 143.713 259.469C146.787 263.267 152.431 266.568 157.564 272.624C163.953 280.234 168.511 285.843 172.778 288.385C175.838 290.188 177.18 291.664 177.748 293.61C177.971 294.453 178.087 295.321 178.095 296.194C178.152 297.898 179.075 299.197 180.637 301.355C183.074 304.656 185.212 308.168 187.026 311.848C188.737 315.277 191.357 321.787 194.126 329L265.957 314.453Z" fill="white"/>
<path opacity="0.4" d="M172.58 168.867C172.537 169.577 172.53 170.287 172.58 171.046C167.475 170.081 157.621 172.601 157.472 175.611C157.302 179.282 156.855 187.957 158.722 189.98C160.589 192.004 164.593 193.296 164.593 193.296C164.298 193.318 164.004 193.356 163.713 193.409H163.613C162.336 193.678 161.171 194.333 160.277 195.284C156.372 199.288 156.209 208.162 157.487 212.436C162.832 230.184 154.178 244.227 151.097 242.523C148.016 240.819 147.768 225.562 148.698 221.991C149.259 219.909 149.534 217.759 149.514 215.602C148.151 215.148 145.29 215.808 142.663 216.624V216.56C144.083 213.721 147.839 209.858 148.662 205.705C149.606 201.034 150.792 194.488 151.062 193.821C151.331 193.154 152.808 192.486 154.405 193.289C154.405 193.289 155.343 185.018 155.073 180.744C154.803 176.47 156.677 171.131 157.082 162.719C157.487 154.306 158.544 154.718 160.014 148.974C161.483 143.231 163.883 141.499 167.355 142.031C171.33 142.642 172.218 145.581 172.438 149.592C171.991 149.168 171.517 148.775 171.018 148.413C169.761 147.437 168.181 146.971 166.595 147.107C164.756 147.363 163.145 149.237 162.122 151.168C160.653 154.008 160.411 157.053 162.477 156.01C164.82 154.838 169.655 155.229 172.601 155.619C172.722 161.746 172.842 164.877 172.58 168.867Z" fill="#92E3A9"/>
<path opacity="0.4" d="M178.032 296.173C178.024 295.3 177.907 294.432 177.684 293.588C177.123 291.643 175.781 290.167 172.714 288.363C168.455 285.822 163.904 280.213 157.5 272.603C152.367 266.519 146.723 263.246 143.649 259.448C147.519 261.542 152.772 260.463 154.426 263.778C156.833 268.563 168.135 275.847 168.135 275.847C179.168 286.766 178.032 296.173 178.032 296.173Z" fill="#92E3A9"/>
<path opacity="0.4" d="M185.75 192.188C184.45 191.926 180.929 200.608 180.595 203.689C179.708 211.676 183.804 236.297 178.537 235.743C176.357 235.516 173.801 224.015 173.652 218.655C173.177 202.376 173.83 195.61 173.83 195.61C173.83 195.61 172.665 186.594 173.446 180.453C173.532 181.376 173.603 182.313 173.652 183.293C173.922 188.901 174.454 193.033 174.454 193.033C174.454 193.033 180.46 192.501 183.684 191.968C184.38 191.885 185.086 191.96 185.75 192.188Z" fill="#92E3A9"/>
<path opacity="0.4" d="M204.719 195.716C201.879 195.972 199.039 198.748 196.703 199.266C193.864 199.87 188.646 193.473 185.799 192.224C188.823 193.182 192.614 196.192 195.809 195.986C199.004 195.78 201.957 195.454 204.719 195.716Z" fill="#92E3A9"/>
<path opacity="0.4" d="M222.999 200.736C221.592 202.498 220.46 204.463 219.641 206.564C217.355 213.955 219.514 241.919 215.829 237.34C211.03 231.391 216.042 210.753 212.542 202.873C211.434 200.352 207.48 196.32 206.621 195.979C209.958 196.639 215.027 200.771 217.433 200.771C219.151 200.771 220.877 200.43 222.999 200.736Z" fill="#92E3A9"/>
<path opacity="0.4" d="M254.911 297.813C251.169 293.596 247.251 289.577 244.688 288.072C238.447 284.395 236.658 280.59 236.119 274.25C235.579 267.91 237.191 268.045 239.058 261.776C240.925 255.508 237.453 247.755 237.723 249.43C237.993 251.106 235.047 262.706 232.882 263.281C230.716 263.856 229.985 256.033 229.715 249.658C229.445 243.282 232.917 213.593 231.944 207.771C231.812 206.926 231.549 206.107 231.163 205.343C232.513 206.824 233.601 208.524 234.379 210.37C236.119 214.509 240.655 220.117 240.769 221.182C240.882 222.247 239.967 226.791 240.769 231.59C241.571 236.389 243.041 243.467 242.111 251.085C241.181 258.702 239.271 264.162 241.564 270.303C243.857 276.444 246.108 279.376 247.705 286.851C247.726 286.865 250.736 291.487 254.911 297.813Z" fill="#92E3A9"/>
<path opacity="0.4" d="M198.562 211.513C199.982 213.003 200.877 232.541 201.679 237.347C202.481 242.153 199.989 253.676 198.562 250.169C197.135 246.662 192.783 205.436 198.562 211.513Z" fill="#92E3A9"/>
<path d="M193.061 326.238C190.704 320.147 188.524 314.816 187.033 311.827C185.219 308.147 183.081 304.635 180.644 301.334C179.082 299.204 178.159 297.876 178.102 296.173C178.094 295.3 177.977 294.432 177.754 293.588V293.588C177.194 291.643 175.852 290.167 172.785 288.363C168.525 285.822 163.975 280.213 157.571 272.603C152.438 266.519 146.794 263.246 143.72 259.448C142.975 258.549 142.379 257.538 141.952 256.452C139.95 251.12 141.952 242.835 141.952 234.834C141.952 226.833 141.548 220.55 142.35 217.611C142.447 217.282 142.57 216.961 142.719 216.653V216.589C144.139 213.749 147.894 209.887 148.718 205.734C149.662 201.062 150.848 194.517 151.118 193.849C151.387 193.182 152.864 192.515 154.461 193.317C154.461 193.317 155.398 185.046 155.129 180.772C154.859 176.499 156.733 171.16 157.138 162.747C157.542 154.334 158.6 154.746 160.07 149.003C161.539 143.259 163.939 141.527 167.411 142.06C171.386 142.67 172.274 145.609 172.494 149.62C172.586 151.267 172.572 153.092 172.607 155.002C172.607 155.222 172.607 155.442 172.607 155.648C172.735 161.76 172.856 164.877 172.607 168.881C172.565 169.591 172.558 170.301 172.607 171.061C172.685 173.9 173.182 176.988 173.495 180.453C173.58 181.376 173.651 182.313 173.701 183.293C173.97 188.901 174.503 193.033 174.503 193.033C174.503 193.033 180.509 192.501 183.732 191.968C184.436 191.884 185.15 191.962 185.819 192.195H185.869C188.893 193.154 192.684 196.164 195.879 195.958C199.074 195.752 202.027 195.44 204.789 195.702C205.418 195.755 206.044 195.842 206.663 195.965C210 196.625 215.069 200.757 217.475 200.757C219.193 200.757 220.919 200.416 223.041 200.722C223.97 200.85 224.88 201.088 225.753 201.432C227.848 202.298 229.714 203.636 231.205 205.343C232.555 206.824 233.643 208.524 234.421 210.37C236.161 214.509 240.697 220.117 240.811 221.182C240.925 222.247 240.009 226.791 240.811 231.59C241.613 236.389 243.083 243.467 242.153 251.085C241.223 258.702 239.313 264.162 241.606 270.303C243.899 276.443 246.15 279.376 247.747 286.851C247.747 286.851 250.757 291.473 254.932 297.798C257.828 302.193 261.278 307.418 264.672 312.494" stroke="#7B7B7B" stroke-width="1.10721" stroke-linecap="round" stroke-linejoin="round"/>
<path d="M154.426 193.296C154.426 199.174 153.893 206.465 153.006 209.497C152.119 212.528 152.715 222.666 151.082 226.933" stroke="#7B7B7B" stroke-width="1.10721" stroke-linecap="round" stroke-linejoin="round"/>
<path d="M157.457 197.924C157.457 197.924 161.546 193.296 164.556 193.296C167.567 193.296 170.612 195.255 173.786 195.61C176.959 195.965 180.324 193.601 183.398 193.033" stroke="#7B7B7B" stroke-width="1.10721" stroke-linecap="round" stroke-linejoin="round"/>
<path d="M159.765 176.506C159.765 176.506 165.288 174.489 168.135 176.506" stroke="#7B7B7B" stroke-width="1.10721" stroke-linecap="round" stroke-linejoin="round"/>
<path d="M163.953 173.886C163.953 173.886 165.643 173.425 168.135 174.631" stroke="#7B7B7B" stroke-width="1.10721" stroke-linecap="round" stroke-linejoin="round"/>
<path d="M162.477 159.687C164.347 159.271 166.286 159.271 168.156 159.687" stroke="#7B7B7B" stroke-width="1.10721" stroke-linecap="round" stroke-linejoin="round"/>
<path d="M142.655 216.56C142.655 216.56 146.205 214.835 147.625 214.658" stroke="#7B7B7B" stroke-width="1.10721" stroke-linecap="round" stroke-linejoin="round"/>
<path d="M152.034 222.027C152.034 222.027 149.904 225.335 149.507 226.932" stroke="#7B7B7B" stroke-width="1.10721" stroke-linecap="round" stroke-linejoin="round"/>
<path d="M162.476 145.247C162.476 145.247 161.624 152.041 162.476 152.645C163.328 153.248 169.909 153.823 170.449 152.645C170.988 151.466 171.081 146.49 171.081 146.49C171.081 146.49 167.141 139.724 162.476 145.247Z" stroke="#7B7B7B" stroke-width="1.10721" stroke-linecap="round" stroke-linejoin="round"/>
<path d="M148.689 205.712C148.689 205.712 154.149 202.958 154.277 199.018C154.404 195.078 152.8 195.12 150.77 195.099" stroke="#7B7B7B" stroke-width="1.10721" stroke-linecap="round" stroke-linejoin="round"/>
<path d="M233.803 214.658C233.981 220.884 232.206 239.037 232.021 241.706C231.837 244.376 232.021 251.198 232.021 251.198" stroke="#7B7B7B" stroke-width="1.10721" stroke-linecap="round" stroke-linejoin="round"/>
<path d="M194.828 200.402C200.699 208.921 194.828 205.712 198.562 246.512" stroke="#7B7B7B" stroke-width="1.10721" stroke-linecap="round" stroke-linejoin="round"/>
<path d="M247.725 286.865C247.725 286.865 242.521 282.819 241.627 280.476" stroke="#7B7B7B" stroke-width="1.10721" stroke-linecap="round" stroke-linejoin="round"/>
<path d="M175.071 284.949C176.633 287.54 177.62 293.219 177.677 293.567" stroke="#7B7B7B" stroke-width="1.10721" stroke-linecap="round" stroke-linejoin="round"/>
</svg>
