<svg width="428" height="451" viewBox="0 0 428 451" fill="none" xmlns="http://www.w3.org/2000/svg">
<path d="M314.204 158.289L308.681 198.771L372.514 207.481L378.037 166.999L314.204 158.289Z" fill="#EBEBEB"/>
<path d="M314.179 158.28C316.414 161.095 318.726 163.814 320.951 166.59C323.176 169.367 325.547 172.056 327.859 174.765C330.171 177.474 332.696 180.396 335.144 183.182C335.21 183.277 335.281 183.367 335.357 183.453C337.518 185.911 339.678 188.371 341.839 190.835L342.168 191.183L342.555 190.932C345.303 189.139 348.044 187.343 350.778 185.543L351.059 185.359C354.165 183.318 357.251 181.277 360.347 179.177C363.249 177.242 366.239 175.191 369.18 173.169C372.121 171.147 375.052 169.096 377.974 166.977C374.946 168.719 371.947 170.567 368.938 172.366C365.929 174.166 362.93 176.042 359.94 177.919C356.612 179.99 353.281 182.096 349.946 184.237C347.45 185.824 344.957 187.42 342.468 189.026C340.533 186.82 338.53 184.595 336.557 182.408C333.925 179.506 331.284 176.546 328.623 173.643C326.243 171.063 323.85 168.483 321.444 165.903C319.016 163.349 316.626 160.766 314.179 158.28Z" fill="white"/>
<path d="M349.763 185.146C349.763 185.146 349.763 185.146 349.83 185.224C350.13 185.553 350.421 185.891 350.72 186.191C352.143 187.759 353.623 189.278 355.094 190.768C356.922 192.596 358.799 194.367 360.686 196.127C362.572 197.888 364.497 199.581 366.49 201.255C368.483 202.929 370.447 204.583 372.537 206.092C370.825 204.157 369.025 202.281 367.206 200.462C365.387 198.643 363.501 196.863 361.624 195.102C359.747 193.341 357.802 191.629 355.819 189.955C354.252 188.62 352.655 187.294 350.982 186.085C350.604 185.785 350.227 185.504 349.83 185.214L349.763 185.146Z" fill="white"/>
<path d="M309.013 197.482C311.431 196.514 313.802 195.499 316.143 194.415C318.484 193.331 320.787 192.17 323.099 191.019C325.411 189.868 327.675 188.62 329.92 187.343C331.748 186.317 333.558 185.253 335.338 184.121L336.47 183.395L336.557 183.337H336.45L335.106 183.879C333.171 184.643 331.303 185.495 329.427 186.366C327.085 187.449 324.783 188.6 322.48 189.771C320.177 190.942 317.904 192.161 315.659 193.438C313.415 194.715 311.151 196.05 309.013 197.482Z" fill="white"/>
<path d="M100.093 38.4836L32.9785 55.5161L43.7806 98.0807L110.896 81.0481L100.093 38.4836Z" fill="#EBEBEB"/>
<path d="M32.9717 55.514C36.3482 57.4489 39.744 59.2001 43.1109 61.0576C46.4777 62.9152 49.8832 64.6566 53.2984 66.4174C56.7136 68.1783 60.39 70.0745 63.9407 71.8837L64.2599 72.0579L73.6929 76.8082L74.1573 77.021L74.4572 76.6147C76.4695 73.7122 78.4722 70.8098 80.4652 67.9074C80.5417 67.8081 80.6127 67.7047 80.6781 67.5978C82.9549 64.3277 85.2123 61.0318 87.4504 57.7101C89.5885 54.5562 91.717 51.3538 93.8358 48.1611C95.9546 44.9684 98.0443 41.7371 100.105 38.4863C97.7831 41.4468 95.5385 44.4944 93.265 47.4936C90.9914 50.4927 88.7565 53.579 86.4926 56.6556C84.0062 60.0514 81.5294 63.5053 79.0817 66.9689C77.2371 69.5489 75.3956 72.1288 73.5574 74.7087C70.713 73.2962 67.8493 71.874 64.9952 70.5002C61.1834 68.6491 57.3844 66.8141 53.5983 64.9953C50.1799 63.3699 46.7583 61.7574 43.3334 60.1579C39.8408 58.6196 36.4256 57.0039 32.9717 55.514Z" fill="white"/>
<path d="M79.2656 67.9557L79.3624 68.0041L80.6491 68.6329C82.6905 69.6004 84.7609 70.5679 86.8507 71.4289C89.3951 72.5222 91.9783 73.5284 94.5905 74.5249C97.2027 75.5214 99.7859 76.4598 102.427 77.3112C105.068 78.1626 107.71 79.0237 110.409 79.7202C107.922 78.4528 105.378 77.3306 102.833 76.247C100.289 75.1634 97.6864 74.1572 95.0936 73.1607C92.5007 72.1642 89.8885 71.2258 87.2473 70.3647C85.1576 69.6585 83.0291 68.9909 80.8813 68.4298L79.3914 68.0331L79.2656 67.9557Z" fill="white"/>
<path d="M43.5947 96.68C45.6361 94.745 47.5711 92.8101 49.4576 90.7493C51.3442 88.6886 53.1921 86.6472 55.0206 84.5575C56.8492 82.4677 58.6197 80.3005 60.3708 78.1527C61.7737 76.3919 63.1571 74.6021 64.4729 72.7542L65.3049 71.5836C65.3049 71.5836 65.3049 71.5158 65.3727 71.4868L65.2856 71.5642C64.8986 71.9319 64.531 72.2801 64.1633 72.6478C62.5573 74.1861 61.019 75.7921 59.5001 77.4078C57.5651 79.4395 55.7656 81.5099 53.9467 83.5997C52.1279 85.6894 50.3284 87.8275 48.6063 89.9753C46.8841 92.1231 45.1717 94.3774 43.5947 96.68Z" fill="white"/>
<path d="M168.39 366.858H3.42488L0 299.164H171.824L168.39 366.858Z" fill="#EBEBEB"/>
<path d="M9.73242 306.691H81.5L80.2133 330.191H11.2417L9.73242 306.691ZM80.6293 307.523H10.6225L11.9963 329.32H79.3909L80.6293 307.523Z" fill="#DBDBDB"/>
<path d="M11.1934 335.977H78.5686L77.514 357.184H12.5188L11.1934 335.977ZM77.6882 336.809H12.0834L13.3025 356.352H76.7207L77.6882 336.809Z" fill="#DBDBDB"/>
<path d="M38.3604 315.282H51.4116L50.6957 320.952H39.086L38.3604 315.282ZM50.4635 316.114H39.2988L39.8212 320.12H49.9411L50.4635 316.114Z" fill="#DBDBDB"/>
<path d="M38.3604 343.745H51.4116L50.6957 349.415H39.086L38.3604 343.745ZM50.4635 344.577H39.2988L39.8212 348.583H49.9411L50.4635 344.577Z" fill="#DBDBDB"/>
<path d="M90.8555 306.691H162.623L161.336 330.191H92.3647L90.8555 306.691ZM161.743 307.523H91.7455L93.1484 329.359H160.543L161.743 307.523Z" fill="#DBDBDB"/>
<path d="M92.2979 335.977H159.673L158.609 357.184H93.6426L92.2979 335.977ZM158.793 336.809H93.1976L94.4263 356.352H157.845L158.793 336.809Z" fill="#DBDBDB"/>
<path d="M119.483 315.282H132.525L131.799 320.952H120.19L119.483 315.282ZM131.587 316.114H120.422L120.944 320.12H131.064L131.587 316.114Z" fill="#DBDBDB"/>
<path d="M119.483 343.745H132.525L131.799 349.415H120.19L119.483 343.745ZM131.587 344.577H120.422L120.944 348.583H131.064L131.587 344.577Z" fill="#DBDBDB"/>
<path d="M153.597 366.858L154.632 374.231L156.712 389.043H160.785V366.858H153.597Z" fill="#EBEBEB"/>
<path d="M153.597 366.858L154.632 374.231H160.785V366.858H153.597Z" fill="#DBDBDB"/>
<path d="M18.2177 366.858L17.1825 374.231L15.1024 389.043H11.0293V366.858H18.2177Z" fill="#EBEBEB"/>
<path d="M18.2177 366.858L17.1825 374.231H11.0293V366.858H18.2177Z" fill="#DBDBDB"/>
<path d="M123.218 299.125V249.223H110.65V299.125H123.218Z" fill="#C7C7C7"/>
<path d="M123.218 252.048V246.562H110.65V252.048H123.218Z" fill="#DBDBDB"/>
<path d="M123.218 261.093V259.062H110.65V261.093H123.218Z" fill="#DBDBDB"/>
<path d="M123.218 292.585V287.099H110.65V292.585H123.218Z" fill="#DBDBDB"/>
<path d="M110.65 299.135V240.922H101.866V299.135H110.65Z" fill="#DBDBDB"/>
<path d="M108.938 268.775V246.388H103.666V268.775H108.938Z" fill="#EBEBEB"/>
<path d="M45.4708 299.089L86.8701 258.164L80.6943 251.916L39.2949 292.842L45.4708 299.089Z" fill="#C7C7C7"/>
<path d="M53.9225 288.21L69.8438 272.471L66.1369 268.721L50.2156 284.46L53.9225 288.21Z" fill="#DBDBDB"/>
<path d="M101.876 299.154V254.931H86.9575V299.154H101.876Z" fill="#A6A6A6"/>
<path d="M101.866 294.452V290.331H86.9477V294.452H101.866Z" fill="#C7C7C7"/>
<path d="M101.876 287.622V286.026H86.9575V287.622H101.876Z" fill="#C7C7C7"/>
<path d="M148.983 295.08L132.594 256.896L123.125 260.96L139.515 299.144L148.983 295.08Z" fill="#A6A6A6"/>
<path d="M147.253 291.036L145.727 287.48L136.258 291.544L137.785 295.1L147.253 291.036Z" fill="#C7C7C7"/>
<path d="M137.506 268.338L135.979 264.782L126.511 268.846L128.038 272.402L137.506 268.338Z" fill="#C7C7C7"/>
<path d="M139.146 272.152L138.555 270.774L129.086 274.838L129.678 276.216L139.146 272.152Z" fill="#C7C7C7"/>
<path d="M329.455 154.429L316.752 154.7L310.309 154.806C308.151 154.855 305.984 154.806 303.827 154.864H303.401V154.429L303.353 143.603V143.119H303.836L316.646 143.177C320.912 143.177 325.189 143.293 329.455 143.342H329.726V143.603C329.726 145.441 329.649 147.27 329.6 149.069L329.455 154.429ZM329.455 154.429L329.329 148.992C329.281 147.183 329.223 145.402 329.204 143.632L329.465 143.893C325.198 143.942 320.922 144.048 316.655 144.058L303.846 144.116L304.33 143.632V154.458L303.894 154.023C306.003 154.023 308.113 154.023 310.231 154.081L316.597 154.187L329.455 154.429Z" fill="#EBEBEB"/>
<path d="M315.166 168.08L302.463 168.351L296.02 168.457C293.872 168.457 291.705 168.457 289.547 168.515H289.122V168.08L289.073 157.254V156.731H289.557L302.366 156.789C306.633 156.789 310.909 156.906 315.176 156.954H315.447V157.215C315.447 159.053 315.369 160.882 315.321 162.681L315.166 168.08ZM315.166 168.08L315.031 162.614C314.982 160.805 314.924 159.024 314.905 157.254L315.166 157.515C310.9 157.563 306.623 157.67 302.357 157.68L289.547 157.738L290.031 157.254L289.973 168.08L289.547 167.645C291.656 167.645 293.766 167.645 295.875 167.703L302.241 167.809L315.166 168.08Z" fill="#EBEBEB"/>
<path d="M343.745 168.08L331.052 168.351L324.609 168.457C322.451 168.457 320.284 168.457 318.127 168.515H317.72V168.08L317.662 157.254V156.731H318.146L330.955 156.789C335.232 156.789 339.498 156.906 343.765 156.954H344.036V157.215C344.036 159.053 343.949 160.882 343.91 162.681L343.745 168.08ZM343.745 168.08L343.61 162.614C343.61 160.805 343.503 159.024 343.484 157.254L343.745 157.515C339.479 157.563 335.212 157.67 330.936 157.68L318.127 157.738L318.61 157.254L318.562 168.08L318.127 167.645C320.236 167.645 322.345 167.645 324.463 167.703L330.829 167.809L343.745 168.08Z" fill="#EBEBEB"/>
<path d="M392.555 56.3943L379.852 56.6652L373.408 56.7716C371.251 56.7716 369.093 56.7716 366.936 56.8297H366.501V56.3943L366.452 45.5682V45.0845H366.946L379.755 45.1425C384.022 45.1425 388.288 45.2586 392.564 45.307H392.826V45.5682C392.826 47.4064 392.739 49.235 392.7 51.0345L392.555 56.3943ZM392.555 56.3943L392.41 50.928C392.41 49.1189 392.303 47.3387 392.284 45.5682L392.555 45.8294C388.278 45.8778 384.012 45.9842 379.745 45.9939L366.936 46.052L367.41 45.5682L367.362 56.3943L366.936 55.9589C369.045 55.9589 371.144 55.9589 373.263 56.017L379.639 56.1137L392.555 56.3943Z" fill="#EBEBEB"/>
<path d="M406.844 70.0454L394.151 70.3163L387.707 70.4227C385.559 70.4227 383.392 70.4227 381.235 70.4808H380.799V70.0454L380.751 59.2193V58.7356H381.235L394.044 58.7936C398.311 58.7936 402.577 58.9097 406.854 58.9581H407.115V59.2193C407.115 61.0575 407.028 62.8861 406.989 64.6856L406.844 70.0454ZM406.844 70.0454L406.728 64.5792C406.679 62.77 406.612 60.9898 406.592 59.2193L406.863 59.4806C402.587 59.5289 398.32 59.6354 394.054 59.645L381.244 59.7031L381.728 59.2193L381.67 70.0454L381.244 69.6101C383.354 69.6101 385.453 69.6101 387.572 69.6681L393.938 69.7745L406.844 70.0454Z" fill="#EBEBEB"/>
<path d="M29.7598 56.4039L17.0665 56.6748L10.6231 56.7813C8.4656 56.8296 6.29844 56.7813 4.14097 56.8393H3.71527V56.4039L3.65723 45.5779V45.0941H4.14097L16.9504 45.1618C21.2266 45.1618 25.4932 45.2683 29.7598 45.3166H30.0307V45.5779C30.0307 47.4161 29.9436 49.2446 29.9049 51.0538L29.7598 56.4039ZM29.7598 56.4039L29.6244 50.9377C29.6244 49.1382 29.5179 47.3483 29.4986 45.5779L29.7598 45.8487C25.4932 45.8487 21.2266 45.9939 16.9504 46.0035L4.14097 46.0616L4.62471 45.5779L4.57633 56.4039L4.14097 55.9783C6.25007 55.9783 8.35917 55.9783 10.478 55.9783L16.8343 56.1137L29.7598 56.4039Z" fill="#EBEBEB"/>
<path d="M381.225 308.152L393.918 307.881L400.362 307.775C402.519 307.726 404.686 307.775 406.844 307.717H407.27V308.152L407.328 318.978V319.462H406.844L394.034 319.394C389.758 319.394 385.492 319.288 381.225 319.239H380.954V318.978C380.954 317.14 381.041 315.311 381.09 313.502L381.225 308.152ZM381.225 308.152L381.36 313.618C381.36 315.418 381.467 317.208 381.486 318.978L381.225 318.707C385.492 318.659 389.758 318.562 394.034 318.552L406.844 318.494L406.36 318.978L406.408 308.152L406.844 308.578C404.735 308.578 402.626 308.578 400.507 308.529L394.141 308.423L381.225 308.152Z" fill="#EBEBEB"/>
<path d="M4.14056 308.152L16.8339 307.881L23.2773 307.775C25.4251 307.726 27.5922 307.775 29.7497 307.717H30.1851V308.152V318.978V319.462H29.7014L16.8919 319.394C12.6254 319.394 8.35877 319.288 4.08251 319.239H3.82129V318.978C3.82129 317.14 3.90836 315.311 3.94706 313.502L4.14056 308.152ZM4.14056 308.152L4.27601 313.618C4.27601 315.418 4.3921 317.208 4.41145 318.978L4.14056 318.707C8.41682 318.659 12.6834 318.562 16.95 318.552L29.7594 318.494L29.2757 318.978L29.3337 308.152L29.7594 308.578C27.6503 308.578 25.5509 308.578 23.4321 308.529L17.0661 308.423L4.14056 308.152Z" fill="#EBEBEB"/>
<path d="M18.4302 294.501L31.1332 294.23L37.5766 294.123C39.7341 294.075 41.8915 294.123 44.049 294.065H44.4844V294.501V305.327V305.811H43.991L31.2396 305.724C26.973 305.724 22.7064 305.617 18.4302 305.569H18.1689V305.308C18.1689 303.469 18.256 301.641 18.2947 299.832L18.4302 294.501ZM18.4302 294.501L18.5753 299.967C18.5753 301.767 18.6817 303.556 18.7011 305.327L18.4302 305.056C22.7064 305.008 26.973 304.911 31.2396 304.901L44.049 304.843L43.5749 305.327V294.501L44.0006 294.926C41.8915 294.926 39.7921 294.926 37.6733 294.926L31.346 294.772L18.4302 294.501Z" fill="#EBEBEB"/>
<path d="M372.809 73.7606V0" stroke="#C7C7C7" stroke-miterlimit="10"/>
<path d="M337.331 107.961L340.185 114.23H405.442L408.286 107.961L380.5 88.7275H365.117L337.331 107.961Z" fill="#EBEBEB"/>
<path d="M363.182 70.2003L365.117 88.7275H380.5L382.434 70.2003H363.182Z" fill="#DBDBDB"/>
<path d="M337.331 107.961L340.185 114.24H405.442L408.286 107.961H337.331Z" fill="#DBDBDB"/>
<path d="M296.629 53.5306V0" stroke="#C7C7C7" stroke-miterlimit="10"/>
<path d="M261.161 87.7212L264.015 94.0002H329.262L332.116 87.7212L304.33 68.4974H288.937L261.161 87.7212Z" fill="#EBEBEB"/>
<path d="M287.013 49.9703L288.938 68.4976H304.331L306.256 49.9703H287.013Z" fill="#DBDBDB"/>
<path d="M261.161 87.731L264.015 94.0002H329.272L332.116 87.731H261.161Z" fill="#DBDBDB"/>
<path d="M205.493 451C306.208 451 387.853 442.302 387.853 431.573C387.853 420.844 306.208 412.146 205.493 412.146C104.778 412.146 23.1328 420.844 23.1328 431.573C23.1328 442.302 104.778 451 205.493 451Z" fill="#EBEBEB"/>
<path d="M2.29297 389.043L53.0953 388.81L103.898 388.723L205.493 388.559L307.088 388.723L357.89 388.81L408.692 389.043L357.89 389.284L307.088 389.362L205.493 389.526L103.898 389.362L53.0953 389.275L2.29297 389.043Z" fill="#263238"/>
<path d="M284.216 62.4508H126.353C124.235 62.4698 122.142 62.9058 120.193 63.734C118.244 64.5622 116.478 65.7663 114.994 67.2776C113.511 68.7888 112.34 70.5775 111.548 72.5415C110.756 74.5055 110.359 76.6063 110.38 78.7238V403.69C110.344 407.964 112.006 412.078 115.001 415.128C117.996 418.177 122.079 419.913 126.353 419.954H284.216C288.491 419.913 292.575 418.177 295.572 415.128C298.568 412.079 300.233 407.965 300.199 403.69V78.7238C300.218 76.6058 299.82 74.5048 299.027 72.5408C298.234 70.5767 297.062 68.7881 295.578 67.277C294.094 65.7659 292.327 64.5619 290.377 63.7338C288.428 62.9057 286.334 62.4698 284.216 62.4508ZM290.205 393.638C290.205 402.191 283.8 409.118 275.906 409.118H134.654C126.74 409.118 120.335 402.191 120.335 393.638V91.0398C120.335 73.6252 126.74 72.7641 134.654 72.7641H162.952C164.597 72.7641 165.942 74.6314 165.942 76.9436V77.9111C165.942 83.329 168.912 83.3484 172.55 83.3484H237.971C241.647 83.3484 244.598 83.3483 244.598 77.9111V76.9436C244.598 74.6314 245.923 72.7641 247.597 72.7641H275.886C283.781 72.7641 290.186 75.0764 290.186 91.0398L290.205 393.638Z" fill="#263238"/>
<path d="M290.215 91.0398V393.638C290.215 402.191 283.81 409.118 275.915 409.118H134.663C126.749 409.118 120.345 402.191 120.345 393.638V91.0398C120.345 73.6252 126.749 72.7642 134.663 72.7642H162.962C164.607 72.7642 165.952 74.6314 165.952 76.9437V77.9111C165.952 83.329 168.922 83.3484 172.56 83.3484H238C241.676 83.3484 244.627 83.3484 244.627 77.9111V76.9437C244.627 74.6314 245.952 72.7642 247.626 72.7642H275.915C283.858 72.7642 290.215 75.0764 290.215 91.0398Z" fill="white"/>
<path d="M290.215 91.0398V118.497H120.354V91.0398C120.354 73.6252 126.759 72.7642 134.673 72.7642H162.972C164.617 72.7642 165.961 74.6314 165.961 76.9533V77.9208C165.961 83.3484 168.932 83.3677 172.569 83.3677H238C241.676 83.3677 244.627 83.3677 244.627 77.9208V76.9533C244.627 74.6314 245.953 72.7642 247.626 72.7642H275.915C283.858 72.7642 290.215 75.0861 290.215 91.0398Z" fill="#FFC727"/>
<path d="M214.2 76.3439H196.36C196.071 76.3414 195.794 76.2254 195.59 76.0209C195.385 75.8164 195.269 75.5398 195.267 75.2506C195.267 74.9598 195.381 74.6807 195.586 74.4741C195.791 74.2676 196.069 74.1503 196.36 74.1477H214.2C214.493 74.1477 214.773 74.2639 214.98 74.4707C215.187 74.6776 215.303 74.9581 215.303 75.2506C215.301 75.5415 215.183 75.8195 214.977 76.0243C214.77 76.229 214.491 76.3439 214.2 76.3439Z" fill="white"/>
<path d="M158.086 79.3333L157.815 79.6041L157.66 79.7589C157.314 79.4123 156.904 79.1373 156.451 78.9496C155.999 78.762 155.514 78.6654 155.024 78.6654C154.534 78.6654 154.049 78.762 153.597 78.9496C153.145 79.1373 152.734 79.4123 152.388 79.7589L152.243 79.6138L151.972 79.3333L152.32 79.0237C152.565 78.824 152.831 78.652 153.113 78.5109C153.451 78.3474 153.809 78.2302 154.178 78.1626C154.352 78.1626 154.526 78.1626 154.71 78.0852H155.184H155.542C155.872 78.1235 156.197 78.2015 156.509 78.3174C156.736 78.4029 156.956 78.5065 157.167 78.627C157.39 78.7519 157.601 78.8977 157.796 79.0624L158.086 79.3236V79.3333Z" fill="white"/>
<path d="M153.249 80.5815L152.813 80.1558C153.101 79.8647 153.444 79.6337 153.822 79.476C154.2 79.3183 154.605 79.2371 155.014 79.2371C155.424 79.2371 155.829 79.3183 156.207 79.476C156.585 79.6337 156.928 79.8647 157.216 80.1558L156.78 80.5911C156.549 80.358 156.274 80.1729 155.971 80.0467C155.668 79.9204 155.343 79.8554 155.014 79.8554C154.686 79.8554 154.361 79.9204 154.058 80.0467C153.755 80.1729 153.48 80.358 153.249 80.5911V80.5815Z" fill="white"/>
<path d="M156.355 81.0071L155.929 81.4425C155.81 81.3234 155.67 81.229 155.514 81.1645C155.359 81.1001 155.193 81.0669 155.025 81.0669C154.856 81.0669 154.69 81.1001 154.535 81.1645C154.38 81.229 154.239 81.3234 154.12 81.4425L153.685 81.0168C154.043 80.6725 154.521 80.4794 155.018 80.4776C155.515 80.4758 155.994 80.6654 156.355 81.0071Z" fill="white"/>
<path d="M155.416 81.8295C155.418 81.9083 155.397 81.9859 155.354 82.0524C155.312 82.1189 155.251 82.1713 155.178 82.2028C155.106 82.2343 155.026 82.2436 154.948 82.2294C154.871 82.2152 154.799 82.1782 154.743 82.1231C154.686 82.068 154.648 81.9974 154.631 81.9202C154.615 81.843 154.623 81.7627 154.652 81.6897C154.682 81.6166 154.733 81.5541 154.798 81.5101C154.864 81.4661 154.941 81.4425 155.02 81.4425C155.071 81.4412 155.123 81.4503 155.171 81.4691C155.219 81.488 155.263 81.5163 155.3 81.5524C155.336 81.5884 155.366 81.6315 155.386 81.6791C155.406 81.7267 155.416 81.7779 155.416 81.8295Z" fill="white"/>
<path d="M131.432 80.117C131.436 79.8935 131.506 79.6762 131.633 79.4925C131.76 79.3087 131.939 79.1666 132.146 79.0842C132.354 79.0018 132.581 78.9827 132.8 79.0293C133.019 79.0759 133.218 79.1862 133.374 79.3462C133.53 79.5062 133.635 79.7088 133.677 79.9285C133.718 80.1481 133.693 80.375 133.605 80.5806C133.517 80.7861 133.371 80.9611 133.184 81.0834C132.997 81.2058 132.778 81.2701 132.554 81.2683C132.404 81.2683 132.256 81.2383 132.118 81.1801C131.98 81.1219 131.855 81.0367 131.75 80.9293C131.646 80.822 131.564 80.6949 131.509 80.5553C131.454 80.4158 131.428 80.2668 131.432 80.117Z" fill="white"/>
<path d="M134.983 80.1169C134.989 79.8963 135.059 79.6822 135.186 79.5015C135.313 79.3208 135.49 79.1815 135.695 79.101C135.901 79.0205 136.126 79.0024 136.341 79.0489C136.557 79.0954 136.754 79.2045 136.908 79.3626C137.062 79.5206 137.166 79.7206 137.207 79.9375C137.248 80.1543 137.225 80.3785 137.139 80.5819C137.053 80.7853 136.909 80.9588 136.725 81.0809C136.542 81.203 136.326 81.2682 136.105 81.2682C135.955 81.2683 135.807 81.2383 135.669 81.1801C135.531 81.1219 135.406 81.0366 135.301 80.9293C135.196 80.822 135.114 80.6949 135.06 80.5553C135.005 80.4158 134.979 80.2667 134.983 80.1169Z" fill="white"/>
<path d="M138.524 80.117C138.528 79.8935 138.598 79.6762 138.725 79.4925C138.852 79.3087 139.03 79.1666 139.238 79.0842C139.446 79.0018 139.673 78.9827 139.892 79.0293C140.11 79.0759 140.31 79.1862 140.466 79.3462C140.622 79.5062 140.727 79.7088 140.768 79.9285C140.809 80.1481 140.784 80.375 140.697 80.5806C140.609 80.7861 140.462 80.9611 140.276 81.0834C140.089 81.2058 139.87 81.2701 139.646 81.2683C139.496 81.2683 139.348 81.2383 139.21 81.1801C139.072 81.1219 138.947 81.0367 138.842 80.9293C138.737 80.822 138.655 80.6949 138.601 80.5553C138.546 80.4158 138.52 80.2668 138.524 80.117Z" fill="white"/>
<path d="M142.065 80.1167C142.068 79.8937 142.138 79.6768 142.265 79.4932C142.391 79.3096 142.569 79.1676 142.777 79.0849C142.984 79.0021 143.211 78.9825 143.429 79.0283C143.647 79.0741 143.847 79.1835 144.004 79.3425C144.16 79.5016 144.266 79.7033 144.308 79.9223C144.35 80.1413 144.327 80.3679 144.24 80.5736C144.154 80.7793 144.009 80.955 143.823 81.0785C143.638 81.2021 143.42 81.268 143.197 81.2681C143.046 81.2681 142.897 81.2382 142.759 81.1801C142.62 81.122 142.495 81.0369 142.389 80.9297C142.284 80.8225 142.201 80.6955 142.145 80.5559C142.089 80.4163 142.062 80.267 142.065 80.1167Z" fill="white"/>
<path d="M145.616 80.117C145.619 79.8935 145.689 79.6762 145.816 79.4925C145.944 79.3087 146.122 79.1666 146.33 79.0842C146.538 79.0018 146.765 78.9827 146.984 79.0293C147.202 79.0759 147.402 79.1862 147.558 79.3462C147.714 79.5062 147.819 79.7088 147.86 79.9285C147.901 80.1481 147.876 80.375 147.789 80.5806C147.701 80.7861 147.554 80.9611 147.367 81.0834C147.18 81.2058 146.961 81.2701 146.738 81.2683C146.588 81.2683 146.44 81.2383 146.302 81.1801C146.164 81.1219 146.038 81.0367 145.934 80.9293C145.829 80.822 145.747 80.6949 145.693 80.5553C145.638 80.4158 145.612 80.2668 145.616 80.117Z" fill="white"/>
<path d="M277.473 82.5743H268.311V78.3657H277.473V82.5743ZM268.765 82.1099H276.989V78.8011H268.765V82.1099Z" fill="white"/>
<path d="M274.977 79.0527H269.065V81.8584H274.977V79.0527Z" fill="white"/>
<path d="M278.285 79.3235H277.473V81.5971H278.285V79.3235Z" fill="white"/>
<path d="M136.453 107.99L131.432 103.288L136.453 98.5862L137.227 99.4182L133.096 103.288L137.227 107.168L136.453 107.99Z" fill="white"/>
<path d="M274.812 108.358H271.426V107.187C271.425 107.137 271.411 107.089 271.386 107.046C271.36 107.004 271.324 106.969 271.281 106.945C271.151 106.882 271.025 106.811 270.903 106.732C270.859 106.707 270.809 106.693 270.758 106.693C270.707 106.693 270.657 106.707 270.613 106.732L269.597 107.322L267.904 104.42L268.93 103.839C268.971 103.81 269.003 103.77 269.025 103.725C269.047 103.679 269.058 103.629 269.056 103.578C269.056 103.511 269.056 103.443 269.056 103.365C269.056 103.288 269.056 103.23 269.056 103.153C269.058 103.103 269.047 103.055 269.025 103.011C269.003 102.967 268.97 102.929 268.93 102.901L267.904 102.311L269.597 99.4084L270.613 99.9986C270.657 100.025 270.707 100.039 270.758 100.039C270.809 100.039 270.86 100.025 270.903 99.9986C271.021 99.8735 271.147 99.7571 271.281 99.6503C271.323 99.628 271.359 99.5947 271.385 99.5539C271.41 99.5131 271.425 99.4662 271.426 99.4181V98.2378H274.812V99.4181C274.813 99.4662 274.828 99.5131 274.853 99.5539C274.879 99.5947 274.915 99.628 274.957 99.6503C275.087 99.7166 275.213 99.7909 275.335 99.8728C275.378 99.8993 275.428 99.9133 275.48 99.9133C275.531 99.9133 275.581 99.8993 275.625 99.8728L276.641 99.2827L278.334 102.185L277.308 102.775C277.265 102.8 277.229 102.837 277.207 102.882C277.184 102.927 277.176 102.977 277.182 103.027V103.52C277.176 103.57 277.184 103.62 277.207 103.665C277.229 103.71 277.265 103.747 277.308 103.772L278.334 104.362L276.641 107.264L275.615 106.674C275.573 106.649 275.524 106.635 275.475 106.635C275.425 106.635 275.377 106.649 275.335 106.674C275.213 106.753 275.087 106.824 274.957 106.887C274.913 106.91 274.876 106.945 274.851 106.988C274.825 107.03 274.812 107.079 274.812 107.129V108.358ZM272.152 107.632H274.086V107.187C274.082 107.002 274.131 106.82 274.227 106.663C274.323 106.505 274.462 106.378 274.628 106.297C274.737 106.248 274.84 106.19 274.938 106.123C275.094 106.023 275.275 105.97 275.46 105.97C275.646 105.97 275.827 106.023 275.983 106.123L276.37 106.355L277.337 104.681L276.941 104.449C276.773 104.354 276.637 104.212 276.551 104.039C276.465 103.867 276.432 103.673 276.457 103.482V103.133C276.433 102.941 276.467 102.746 276.555 102.574C276.643 102.401 276.781 102.259 276.95 102.166L277.337 101.943L276.37 100.269L275.983 100.492C275.828 100.59 275.648 100.642 275.465 100.642C275.282 100.642 275.102 100.59 274.948 100.492L274.628 100.308C274.464 100.228 274.326 100.102 274.23 99.9464C274.134 99.7906 274.084 99.6108 274.086 99.4278V98.9731H272.152V99.4278C272.153 99.6118 272.102 99.7923 272.004 99.9483C271.906 100.104 271.766 100.229 271.6 100.308L271.29 100.492C271.136 100.59 270.956 100.642 270.773 100.642C270.59 100.642 270.41 100.59 270.255 100.492L269.859 100.269L268.891 101.943L269.278 102.166C269.448 102.259 269.585 102.401 269.673 102.574C269.761 102.746 269.796 102.941 269.772 103.133V103.52C269.796 103.712 269.761 103.907 269.673 104.08C269.585 104.252 269.448 104.394 269.278 104.488L268.891 104.71L269.859 106.384L270.255 106.152C270.411 106.052 270.592 105.999 270.778 105.999C270.963 105.999 271.144 106.052 271.3 106.152C271.398 106.219 271.501 106.277 271.61 106.326C271.776 106.407 271.915 106.534 272.011 106.692C272.107 106.85 272.156 107.031 272.152 107.216V107.632ZM273.119 105.862C272.615 105.863 272.122 105.716 271.703 105.437C271.283 105.159 270.955 104.762 270.761 104.298C270.567 103.833 270.515 103.321 270.613 102.827C270.71 102.332 270.951 101.878 271.307 101.521C271.662 101.164 272.116 100.921 272.609 100.822C273.103 100.723 273.615 100.773 274.081 100.965C274.546 101.158 274.944 101.484 275.224 101.902C275.504 102.321 275.654 102.813 275.654 103.317C275.649 103.986 275.379 104.626 274.905 105.097C274.43 105.568 273.788 105.833 273.119 105.833V105.862ZM273.119 101.508C272.758 101.506 272.405 101.611 272.105 101.81C271.804 102.009 271.57 102.293 271.431 102.626C271.292 102.959 271.255 103.325 271.325 103.679C271.395 104.033 271.568 104.358 271.823 104.613C272.078 104.868 272.403 105.041 272.757 105.111C273.111 105.181 273.477 105.144 273.81 105.005C274.143 104.866 274.427 104.632 274.626 104.331C274.825 104.031 274.93 103.678 274.928 103.317C274.932 103.077 274.888 102.839 274.799 102.616C274.71 102.393 274.577 102.19 274.409 102.019C274.24 101.848 274.04 101.712 273.818 101.619C273.597 101.527 273.359 101.479 273.119 101.479V101.508Z" fill="white"/>
<path d="M190.671 100.453C190.67 100.381 190.683 100.308 190.71 100.241C190.738 100.173 190.778 100.112 190.83 100.061C190.881 100.009 190.942 99.9685 191.01 99.9412C191.077 99.914 191.15 99.9006 191.222 99.9019C191.37 99.9019 191.511 99.9597 191.616 100.063C191.721 100.166 191.781 100.306 191.784 100.453V106.326C191.781 106.473 191.721 106.613 191.616 106.717C191.511 106.82 191.37 106.877 191.222 106.877C191.15 106.879 191.077 106.865 191.01 106.838C190.942 106.811 190.881 106.77 190.83 106.719C190.778 106.667 190.738 106.606 190.71 106.539C190.683 106.471 190.67 106.399 190.671 106.326V100.453Z" fill="white"/>
<path d="M194.744 106.326C194.754 106.404 194.748 106.483 194.725 106.558C194.702 106.633 194.664 106.703 194.612 106.762C194.56 106.821 194.496 106.868 194.425 106.901C194.353 106.933 194.276 106.95 194.197 106.95C194.118 106.95 194.041 106.933 193.969 106.901C193.898 106.868 193.834 106.821 193.782 106.762C193.73 106.703 193.692 106.633 193.669 106.558C193.646 106.483 193.64 106.404 193.65 106.326V100.521C193.648 100.433 193.668 100.346 193.706 100.266C193.745 100.187 193.802 100.119 193.873 100.066C193.989 99.982 194.133 99.947 194.274 99.9687C194.415 99.9905 194.543 100.067 194.628 100.182L197.849 104.633V100.531C197.849 100.461 197.863 100.391 197.89 100.327C197.916 100.262 197.956 100.204 198.005 100.154C198.054 100.105 198.113 100.066 198.178 100.039C198.242 100.012 198.311 99.9985 198.381 99.9985C198.524 99.9984 198.662 100.054 198.765 100.153C198.867 100.252 198.928 100.388 198.933 100.531V106.335C198.93 106.481 198.871 106.62 198.769 106.723C198.666 106.826 198.527 106.884 198.381 106.887C198.303 106.886 198.225 106.867 198.155 106.832C198.085 106.797 198.023 106.746 197.975 106.684V106.626L194.792 102.204L194.744 106.326Z" fill="white"/>
<path d="M201.322 106.326V100.453C201.322 100.307 201.38 100.167 201.484 100.063C201.587 99.96 201.727 99.9019 201.874 99.9019H203.286C203.632 99.9155 203.968 100.022 204.258 100.209C204.549 100.397 204.784 100.659 204.939 100.968C205.094 101.277 205.164 101.622 205.14 101.967C205.117 102.312 205.001 102.645 204.805 102.93C205.197 103.177 205.498 103.544 205.663 103.977C205.828 104.409 205.849 104.884 205.721 105.329C205.593 105.774 205.325 106.165 204.955 106.445C204.586 106.724 204.136 106.876 203.673 106.877H201.912C201.837 106.881 201.762 106.87 201.691 106.844C201.62 106.818 201.555 106.778 201.5 106.727C201.445 106.676 201.401 106.613 201.37 106.545C201.34 106.476 201.323 106.401 201.322 106.326ZM202.435 102.601H203.286C203.498 102.599 203.699 102.513 203.848 102.363C203.996 102.212 204.08 102.009 204.08 101.798C204.08 101.588 203.996 101.386 203.847 101.237C203.698 101.088 203.497 101.005 203.286 101.005H202.435V102.601ZM202.435 105.774H203.673C203.948 105.774 204.211 105.665 204.405 105.471C204.599 105.277 204.708 105.014 204.708 104.739C204.708 104.465 204.599 104.201 204.405 104.007C204.211 103.813 203.948 103.704 203.673 103.704H202.435V105.774Z" fill="white"/>
<path d="M212.739 100.772C213.386 101.452 213.746 102.355 213.746 103.293C213.746 104.231 213.386 105.133 212.739 105.813C212.438 106.146 212.071 106.412 211.661 106.595C211.251 106.778 210.808 106.874 210.359 106.877C209.902 106.875 209.45 106.779 209.031 106.596C208.611 106.413 208.234 106.147 207.921 105.813C207.287 105.127 206.936 104.227 206.936 103.293C206.936 102.359 207.287 101.459 207.921 100.772C208.232 100.437 208.61 100.169 209.029 99.9862C209.449 99.8031 209.901 99.7085 210.359 99.7083C210.808 99.7088 211.252 99.8039 211.662 99.9872C212.072 100.171 212.439 100.438 212.739 100.772ZM212.613 103.288C212.613 102.643 212.371 102.022 211.936 101.546C211.735 101.324 211.489 101.147 211.215 101.025C210.941 100.904 210.645 100.841 210.345 100.841C210.045 100.841 209.748 100.904 209.474 101.025C209.2 101.147 208.955 101.324 208.753 101.546C208.31 102.017 208.068 102.642 208.076 103.288C208.065 103.932 208.308 104.554 208.753 105.02C208.953 105.245 209.198 105.425 209.472 105.548C209.747 105.671 210.044 105.735 210.345 105.735C210.645 105.735 210.943 105.671 211.217 105.548C211.491 105.425 211.736 105.245 211.936 105.02C212.373 104.549 212.615 103.93 212.613 103.288Z" fill="white"/>
<path d="M220.208 100.85L218.273 103.423L220.208 106.007C220.289 106.123 220.323 106.267 220.301 106.407C220.28 106.548 220.204 106.675 220.091 106.761C220 106.833 219.888 106.874 219.772 106.877C219.684 106.877 219.596 106.855 219.517 106.815C219.439 106.775 219.37 106.716 219.318 106.645L217.644 104.343L215.96 106.645C215.911 106.716 215.846 106.773 215.771 106.814C215.695 106.854 215.611 106.876 215.525 106.877C215.408 106.879 215.295 106.837 215.206 106.761C215.147 106.721 215.097 106.669 215.059 106.609C215.02 106.548 214.995 106.481 214.983 106.411C214.971 106.34 214.974 106.268 214.99 106.199C215.007 106.129 215.038 106.064 215.08 106.007L216.967 103.423L215.08 100.85C215.038 100.793 215.007 100.727 214.99 100.658C214.974 100.588 214.971 100.516 214.983 100.446C214.995 100.376 215.02 100.308 215.059 100.248C215.097 100.188 215.147 100.136 215.206 100.095C215.261 100.048 215.325 100.013 215.395 99.9934C215.465 99.9735 215.538 99.9689 215.61 99.98C215.681 99.991 215.75 100.017 215.81 100.057C215.871 100.097 215.922 100.15 215.96 100.211L217.644 102.504L219.318 100.211C219.359 100.151 219.412 100.099 219.474 100.06C219.537 100.02 219.606 99.9946 219.679 99.9837C219.752 99.9728 219.826 99.9771 219.897 99.9963C219.968 100.016 220.034 100.049 220.091 100.095C220.207 100.18 220.283 100.307 220.305 100.449C220.327 100.59 220.292 100.734 220.208 100.85Z" fill="white"/>
<path d="M241.212 134.915H137.102V141.436H241.212V134.915Z" fill="white"/>
<path d="M241.29 141.503H137.034V134.847H241.29V141.503Z" fill="#EBEBEB"/>
<path d="M241.279 134.847H234.613V141.513H241.279V134.847Z" fill="#FFC727"/>
<path d="M240.022 140.004L239.413 140.459L238.3 138.988L237.894 138.446C237.977 138.412 238.055 138.366 238.126 138.311C238.26 138.206 238.366 138.07 238.435 137.914L238.871 138.485L240.022 140.004Z" fill="white"/>
<path d="M238.832 136.531C238.641 136.282 238.382 136.094 238.087 135.988C237.793 135.881 237.473 135.861 237.168 135.93C236.862 135.999 236.582 136.154 236.362 136.377C236.141 136.599 235.988 136.88 235.922 137.187C235.856 137.493 235.878 137.812 235.987 138.106C236.096 138.4 236.287 138.657 236.536 138.846C236.786 139.035 237.085 139.149 237.397 139.174C237.71 139.199 238.023 139.135 238.3 138.988C238.378 138.942 238.452 138.89 238.522 138.833C238.655 138.735 238.772 138.617 238.871 138.485C239.073 138.197 239.178 137.853 239.171 137.501C239.164 137.15 239.045 136.81 238.832 136.531ZM238.126 138.311C238.055 138.366 237.977 138.412 237.894 138.446C237.694 138.53 237.471 138.543 237.263 138.486C237.054 138.428 236.871 138.301 236.742 138.127C236.662 138.025 236.604 137.909 236.57 137.784C236.536 137.659 236.527 137.529 236.544 137.401C236.561 137.273 236.604 137.15 236.67 137.039C236.735 136.927 236.822 136.83 236.926 136.753C237.094 136.601 237.31 136.512 237.537 136.503C237.763 136.494 237.986 136.565 238.166 136.703C238.345 136.841 238.471 137.038 238.52 137.26C238.569 137.481 238.539 137.713 238.435 137.914C238.372 138.084 238.265 138.234 238.126 138.349V138.311Z" fill="white"/>
<path d="M138.814 136.192H138.466V140.149H138.814V136.192Z" fill="#C7C7C7"/>
<path d="M282.475 131.577C282.078 131.817 281.647 131.996 281.198 132.109C280.117 132.371 278.976 132.216 278.004 131.674C277.033 131.133 276.301 130.245 275.955 129.187C275.609 128.13 275.674 126.981 276.138 125.97C276.601 124.958 277.429 124.159 278.456 123.731C279.483 123.303 280.634 123.278 281.678 123.661C282.723 124.044 283.585 124.806 284.092 125.797C284.599 126.787 284.714 127.932 284.415 129.003C284.115 130.075 283.422 130.994 282.475 131.577Z" fill="#FFC727"/>
<path d="M281.488 127.311C281.46 127.649 281.305 127.964 281.055 128.194C280.805 128.423 280.478 128.551 280.139 128.551C279.799 128.551 279.472 128.423 279.222 128.194C278.972 127.964 278.818 127.649 278.789 127.311C278.773 127.124 278.796 126.936 278.857 126.758C278.918 126.581 279.014 126.418 279.141 126.28C279.268 126.142 279.422 126.032 279.594 125.956C279.766 125.881 279.951 125.842 280.139 125.842C280.326 125.842 280.512 125.881 280.683 125.956C280.855 126.032 281.009 126.142 281.136 126.28C281.263 126.418 281.36 126.581 281.42 126.758C281.481 126.936 281.504 127.124 281.488 127.311Z" fill="white"/>
<path d="M282.475 131.026V131.577C282.078 131.817 281.647 131.996 281.198 132.109C280.626 132.25 280.031 132.274 279.45 132.181C278.868 132.088 278.311 131.879 277.812 131.567V131.016C277.812 130.398 278.057 129.805 278.494 129.367C278.932 128.93 279.525 128.684 280.143 128.684C280.762 128.684 281.355 128.93 281.792 129.367C282.229 129.805 282.475 130.398 282.475 131.016V131.026Z" fill="white"/>
<path d="M290.225 151.952H120.364V165.419H290.225V151.952Z" fill="#EBEBEB"/>
<path d="M134.943 156.664H130.899V160.708H134.943V156.664Z" fill="white"/>
<path d="M152.136 160.708H148.082L149.736 158.686L148.082 156.664H152.136L153.78 158.686L152.136 160.708Z" fill="white"/>
<path d="M141.736 156.664L142.394 157.989L143.864 158.202L142.8 159.237L143.052 160.708L141.736 160.011L140.42 160.708L140.672 159.237L139.607 158.202L141.078 157.989L141.736 156.664Z" fill="#FFC727"/>
<path d="M188.91 157.864H156.684V159.508H188.91V157.864Z" fill="#263238"/>
<path d="M272.887 157.864H243.631V159.508H272.887V157.864Z" fill="#263238"/>
<path d="M231.334 157.864H198.749V159.508H231.334V157.864Z" fill="#455A64"/>
<path d="M134.943 170.131H130.899V174.175H134.943V170.131Z" fill="white"/>
<path d="M135.196 174.417H130.658V169.889H135.196V174.417ZM131.142 173.933H134.712V170.373H131.142V173.933Z" fill="#EBEBEB"/>
<path d="M152.136 174.175H148.082L149.736 172.153L148.082 170.121H152.136L153.78 172.153L152.136 174.175Z" fill="white"/>
<path d="M152.281 174.417H147.608L149.456 172.153L147.608 169.889H152.281L154.12 172.153L152.281 174.417ZM148.624 173.933H152.049L153.5 172.153L152.049 170.373H148.624L150.075 172.153L148.624 173.933Z" fill="#EBEBEB"/>
<path d="M141.736 170.121L142.394 171.456L143.864 171.669L142.8 172.705L143.052 174.175L141.736 173.478L140.42 174.175L140.672 172.705L139.607 171.669L141.078 171.456L141.736 170.121Z" fill="#FFC727"/>
<path d="M188.91 171.331H156.684V172.976H188.91V171.331Z" fill="#263238"/>
<path d="M272.887 171.331H243.631V172.976H272.887V171.331Z" fill="#263238"/>
<path d="M231.334 171.331H198.749V172.976H231.334V171.331Z" fill="#455A64"/>
<path d="M290.225 178.887H120.364V192.354H290.225V178.887Z" fill="#EBEBEB"/>
<path d="M134.943 183.589H130.899V187.633H134.943V183.589Z" fill="white"/>
<path d="M152.136 187.643H148.082L149.736 185.611L148.082 183.589H152.136L153.78 185.611L152.136 187.643Z" fill="white"/>
<path d="M141.736 183.589L142.394 184.924L143.864 185.137L142.8 186.172L143.052 187.643L141.736 186.946L140.42 187.643L140.672 186.172L139.607 185.137L141.078 184.924L141.736 183.589Z" fill="white"/>
<path d="M188.91 184.789H156.684V186.433H188.91V184.789Z" fill="#DBDBDB"/>
<path d="M272.887 184.789H243.631V186.433H272.887V184.789Z" fill="#DBDBDB"/>
<path d="M231.334 184.789H198.749V186.433H231.334V184.789Z" fill="#C7C7C7"/>
<path d="M134.943 197.056H130.899V201.1H134.943V197.056Z" fill="white"/>
<path d="M135.196 201.352H130.658V196.814H135.196V201.352ZM131.142 200.868H134.712V197.298H131.142V200.868Z" fill="#EBEBEB"/>
<path d="M152.136 201.11H148.082L149.736 199.078L148.082 197.056H152.136L153.78 199.078L152.136 201.11Z" fill="white"/>
<path d="M152.281 201.352H147.608L149.456 199.078L147.608 196.814H152.281L154.12 199.078L152.281 201.352ZM148.624 200.868H152.049L153.5 199.078L152.049 197.298H148.624L150.075 199.078L148.624 200.868Z" fill="#EBEBEB"/>
<path d="M141.736 197.056L142.394 198.391L143.864 198.604L142.8 199.639L143.052 201.11L141.736 200.413L140.42 201.11L140.672 199.639L139.607 198.604L141.078 198.391L141.736 197.056Z" fill="#FFC727"/>
<path d="M188.91 198.256H156.684V199.901H188.91V198.256Z" fill="#DBDBDB"/>
<path d="M272.887 198.256H243.631V199.901H272.887V198.256Z" fill="#DBDBDB"/>
<path d="M231.334 198.256H198.749V199.901H231.334V198.256Z" fill="#C7C7C7"/>
<path d="M290.225 205.812H120.364V219.279H290.225V205.812Z" fill="#EBEBEB"/>
<path d="M134.943 210.523H130.899V214.567H134.943V210.523Z" fill="white"/>
<path d="M152.136 214.567H148.082L149.736 212.545L148.082 210.523H152.136L153.78 212.545L152.136 214.567Z" fill="white"/>
<path d="M141.736 210.523L142.394 211.859L143.864 212.071L142.8 213.107L143.052 214.567L141.736 213.881L140.42 214.567L140.672 213.107L139.607 212.071L141.078 211.859L141.736 210.523Z" fill="#FFC727"/>
<path d="M188.91 211.723H156.684V213.368H188.91V211.723Z" fill="#DBDBDB"/>
<path d="M272.887 211.723H243.631V213.368H272.887V211.723Z" fill="#DBDBDB"/>
<path d="M231.334 211.723H198.749V213.368H231.334V211.723Z" fill="#C7C7C7"/>
<path d="M134.943 223.991H130.899V228.035H134.943V223.991Z" fill="white"/>
<path d="M135.196 228.325H130.658V223.797H135.196V228.325ZM131.142 227.841H134.712V224.281H131.142V227.841Z" fill="#EBEBEB"/>
<path d="M152.136 228.035H148.082L149.736 226.013L148.082 223.991H152.136L153.78 226.013L152.136 228.035Z" fill="white"/>
<path d="M152.281 228.325H147.608L149.456 226.061L147.608 223.797H152.281L154.12 226.061L152.281 228.325ZM148.624 227.841H152.049L153.5 226.061L152.049 224.281H148.624L150.075 226.061L148.624 227.841Z" fill="#EBEBEB"/>
<path d="M141.736 223.991L142.394 225.326L143.864 225.539L142.8 226.574L143.052 228.035L141.736 227.348L140.42 228.035L140.672 226.574L139.607 225.539L141.078 225.326L141.736 223.991Z" fill="white"/>
<path d="M143.371 228.48L141.736 227.619L140.101 228.48L140.41 226.661L139.095 225.423L140.923 225.152L141.736 223.497L142.558 225.152L144.387 225.423L143.061 226.709L143.371 228.48ZM141.736 227.077L142.703 227.599L142.51 226.487L143.313 225.703L142.21 225.548L141.707 224.581L141.214 225.548L140.101 225.703L140.904 226.487L140.72 227.599L141.736 227.077Z" fill="#EBEBEB"/>
<path d="M188.91 225.19H156.684V226.835H188.91V225.19Z" fill="#DBDBDB"/>
<path d="M272.887 225.19H243.631V226.835H272.887V225.19Z" fill="#DBDBDB"/>
<path d="M231.334 225.19H198.749V226.835H231.334V225.19Z" fill="#C7C7C7"/>
<path d="M290.225 232.746H120.364V246.214H290.225V232.746Z" fill="#EBEBEB"/>
<path d="M134.943 237.458H130.899V241.502H134.943V237.458Z" fill="white"/>
<path d="M152.136 241.502H148.082L149.736 239.48L148.082 237.458H152.136L153.78 239.48L152.136 241.502Z" fill="white"/>
<path d="M141.736 237.458L142.394 238.793L143.864 239.006L142.8 240.041L143.052 241.502L141.736 240.815L140.42 241.502L140.672 240.041L139.607 239.006L141.078 238.793L141.736 237.458Z" fill="#FFC727"/>
<path d="M188.91 238.658H156.684V240.302H188.91V238.658Z" fill="#DBDBDB"/>
<path d="M272.887 238.658H243.631V240.302H272.887V238.658Z" fill="#DBDBDB"/>
<path d="M231.334 238.658H198.749V240.302H231.334V238.658Z" fill="#C7C7C7"/>
<path d="M134.943 250.925H130.899V254.969H134.943V250.925Z" fill="white"/>
<path d="M135.196 255.211H130.658V250.683H135.196V255.211ZM131.142 254.727H134.712V251.167H131.142V254.727Z" fill="#EBEBEB"/>
<path d="M152.136 254.969H148.082L149.736 252.947L148.082 250.925H152.136L153.78 252.947L152.136 254.969Z" fill="white"/>
<path d="M152.281 255.211H147.608L149.456 252.947L147.608 250.683H152.281L154.12 252.947L152.281 255.211ZM148.624 254.727H152.049L153.5 252.947L152.049 251.167H148.624L150.075 252.947L148.624 254.727Z" fill="#EBEBEB"/>
<path d="M141.736 250.925L142.394 252.26L143.864 252.473L142.8 253.508L143.052 254.969L141.736 254.282L140.42 254.969L140.672 253.508L139.607 252.473L141.078 252.26L141.736 250.925Z" fill="white"/>
<path d="M143.371 255.414L141.736 254.553L140.101 255.414L140.41 253.596L139.095 252.299L140.923 252.038L141.736 250.384L142.558 252.038L144.387 252.299L143.061 253.596L143.371 255.414ZM141.736 254.012L142.703 254.524L142.51 253.421L143.313 252.638L142.21 252.483L141.707 251.516L141.214 252.483L140.101 252.638L140.904 253.421L140.72 254.524L141.736 254.012Z" fill="#EBEBEB"/>
<path d="M188.91 252.125H156.684V253.77H188.91V252.125Z" fill="#DBDBDB"/>
<path d="M272.887 252.125H243.631V253.77H272.887V252.125Z" fill="#DBDBDB"/>
<path d="M231.334 252.125H198.749V253.77H231.334V252.125Z" fill="#C7C7C7"/>
<path d="M290.225 259.681H120.364V273.148H290.225V259.681Z" fill="#EBEBEB"/>
<path d="M134.943 264.393H130.899V268.437H134.943V264.393Z" fill="white"/>
<path d="M152.136 268.437H148.082L149.736 266.415L148.082 264.393H152.136L153.78 266.415L152.136 268.437Z" fill="white"/>
<path d="M141.736 264.393L142.394 265.728L143.864 265.941L142.8 266.976L143.052 268.437L141.736 267.75L140.42 268.437L140.672 266.976L139.607 265.941L141.078 265.728L141.736 264.393Z" fill="white"/>
<path d="M188.91 265.592H156.684V267.237H188.91V265.592Z" fill="#DBDBDB"/>
<path d="M272.887 265.592H243.631V267.237H272.887V265.592Z" fill="#DBDBDB"/>
<path d="M231.334 265.592H198.749V267.237H231.334V265.592Z" fill="#C7C7C7"/>
<path d="M134.943 277.86H130.899V281.904H134.943V277.86Z" fill="white"/>
<path d="M135.196 282.146H130.658V277.667H135.196V282.146ZM131.142 281.662H134.712V278.102H131.142V281.662Z" fill="#EBEBEB"/>
<path d="M152.136 281.904H148.082L149.736 279.882L148.082 277.86H152.136L153.78 279.882L152.136 281.904Z" fill="white"/>
<path d="M152.281 282.146H147.608L149.456 279.882L147.579 277.667H152.281L154.119 279.93L152.281 282.146ZM148.624 281.662H152.049L153.5 279.882L152.049 278.102H148.624L150.075 279.882L148.624 281.662Z" fill="#EBEBEB"/>
<path d="M141.736 277.86L142.394 279.195L143.864 279.408L142.8 280.443L143.052 281.904L141.736 281.217L140.42 281.904L140.672 280.443L139.607 279.408L141.078 279.195L141.736 277.86Z" fill="white"/>
<path d="M143.371 282.349L141.736 281.536L140.101 282.397L140.41 280.578L139.095 279.282L140.923 279.021L141.736 277.357L142.558 279.021L144.387 279.282L143.061 280.569L143.371 282.349ZM141.736 280.936L142.703 281.459L142.51 280.356L143.313 279.572L142.21 279.408L141.707 278.44L141.214 279.408L140.101 279.572L140.904 280.356L140.72 281.459L141.736 280.936Z" fill="#EBEBEB"/>
<path d="M188.91 279.06H156.684V280.704H188.91V279.06Z" fill="#DBDBDB"/>
<path d="M272.887 279.06H243.631V280.704H272.887V279.06Z" fill="#DBDBDB"/>
<path d="M231.334 279.06H198.749V280.704H231.334V279.06Z" fill="#C7C7C7"/>
<path d="M290.225 286.615H120.364V300.083H290.225V286.615Z" fill="#EBEBEB"/>
<path d="M134.943 291.327H130.899V295.371H134.943V291.327Z" fill="white"/>
<path d="M152.136 295.371H148.082L149.736 293.349L148.082 291.327H152.136L153.78 293.349L152.136 295.371Z" fill="white"/>
<path d="M141.736 291.327L142.394 292.663L143.864 292.875L142.8 293.911L143.052 295.371L141.736 294.685L140.42 295.371L140.672 293.911L139.607 292.875L141.078 292.663L141.736 291.327Z" fill="white"/>
<path d="M143.371 295.816L141.736 294.955L140.101 295.816L140.41 293.988L139.095 292.701L140.923 292.44L141.736 290.776L142.558 292.44L144.387 292.701L143.061 293.988L143.371 295.816ZM141.736 294.404L142.703 294.926L142.51 293.823L143.313 293.04L142.21 292.875L141.707 291.908L141.214 292.875L140.101 293.04L140.904 293.823L140.72 294.926L141.736 294.404Z" fill="#EBEBEB"/>
<path d="M188.91 292.527H156.684V294.172H188.91V292.527Z" fill="#DBDBDB"/>
<path d="M272.887 292.527H243.631V294.172H272.887V292.527Z" fill="#DBDBDB"/>
<path d="M231.334 292.527H198.749V294.172H231.334V292.527Z" fill="#C7C7C7"/>
<path d="M134.943 304.794H130.899V308.838H134.943V304.794Z" fill="white"/>
<path d="M135.196 309.081H130.658V304.553H135.196V309.081ZM131.142 308.597H134.712V305.036H131.142V308.597Z" fill="#EBEBEB"/>
<path d="M152.136 308.838H148.082L149.736 306.816L148.082 304.794H152.136L153.78 306.816L152.136 308.838Z" fill="white"/>
<path d="M152.281 309.081H147.608L149.456 306.817L147.608 304.553H152.281L154.12 306.817L152.281 309.081ZM148.624 308.597H152.049L153.5 306.817L152.049 305.036H148.624L150.075 306.817L148.624 308.597Z" fill="#EBEBEB"/>
<path d="M141.736 304.794L142.394 306.12L143.864 306.333L142.8 307.378L143.052 308.838L141.736 308.142L140.42 308.838L140.672 307.378L139.607 306.333L141.078 306.12L141.736 304.794Z" fill="white"/>
<path d="M143.371 309.283L141.736 308.422L140.101 309.283L140.41 307.455L139.095 306.168L140.923 305.907L141.736 304.243L142.558 305.907L144.387 306.168L143.061 307.455L143.371 309.283ZM141.736 307.871L142.703 308.393L142.51 307.29L143.313 306.507L142.21 306.342L141.707 305.375L141.214 306.342L140.101 306.507L140.904 307.29L140.72 308.393L141.736 307.871Z" fill="#EBEBEB"/>
<path d="M188.91 305.994H156.684V307.639H188.91V305.994Z" fill="#DBDBDB"/>
<path d="M272.887 305.994H243.631V307.639H272.887V305.994Z" fill="#DBDBDB"/>
<path d="M231.334 305.994H198.749V307.639H231.334V305.994Z" fill="#C7C7C7"/>
<path d="M290.225 313.55H120.364V327.018H290.225V313.55Z" fill="#EBEBEB"/>
<path d="M134.943 318.262H130.899V322.306H134.943V318.262Z" fill="white"/>
<path d="M152.136 322.306H148.082L149.736 320.284L148.082 318.262H152.136L153.78 320.284L152.136 322.306Z" fill="white"/>
<path d="M141.736 318.262L142.394 319.587L143.864 319.81L142.8 320.845L143.052 322.306L141.736 321.609L140.42 322.306L140.672 320.845L139.607 319.81L141.078 319.587L141.736 318.262Z" fill="white"/>
<path d="M143.371 322.751L141.736 321.89L140.101 322.751L140.41 320.922L139.095 319.636L140.923 319.374L141.736 317.71L142.558 319.374L144.387 319.636L143.061 320.922L143.371 322.751ZM141.736 321.338L142.703 321.861L142.51 320.758L143.313 319.974L142.21 319.81L141.707 318.842L141.214 319.81L140.101 319.974L140.904 320.758L140.72 321.861L141.736 321.338Z" fill="#EBEBEB"/>
<path d="M188.91 319.461H156.684V321.106H188.91V319.461Z" fill="#DBDBDB"/>
<path d="M272.887 319.461H243.631V321.106H272.887V319.461Z" fill="#DBDBDB"/>
<path d="M231.334 319.461H198.749V321.106H231.334V319.461Z" fill="#C7C7C7"/>
<path d="M134.943 331.729H130.899V335.773H134.943V331.729Z" fill="white"/>
<path d="M135.196 336.015H130.658V331.487H135.196V336.015ZM131.142 335.531H134.712V331.971H131.142V335.531Z" fill="#EBEBEB"/>
<path d="M152.136 335.773H148.082L149.736 333.751L148.082 331.729H152.136L153.78 333.751L152.136 335.773Z" fill="white"/>
<path d="M152.281 336.015H147.608L149.456 333.751L147.608 331.487H152.281L154.12 333.751L152.281 336.015ZM148.624 335.531H152.049L153.5 333.751L152.049 331.971H148.624L150.075 333.751L148.624 335.531Z" fill="#EBEBEB"/>
<path d="M141.736 331.729L142.394 333.054L143.864 333.267L142.8 334.312L143.052 335.773L141.736 335.076L140.42 335.773L140.672 334.312L139.607 333.267L141.078 333.054L141.736 331.729Z" fill="white"/>
<path d="M143.371 336.209L141.736 335.357L140.101 336.209L140.41 334.39L139.095 333.103L140.923 332.832L141.736 331.178L142.607 332.813L144.435 333.084L143.11 334.37L143.371 336.209ZM141.736 334.806L142.703 335.328L142.51 334.225L143.313 333.442L142.21 333.277L141.707 332.31L141.214 333.277L140.101 333.442L140.904 334.225L140.72 335.328L141.736 334.806Z" fill="#EBEBEB"/>
<path d="M188.91 332.929H156.684V334.573H188.91V332.929Z" fill="#DBDBDB"/>
<path d="M272.887 332.929H243.631V334.573H272.887V332.929Z" fill="#DBDBDB"/>
<path d="M231.334 332.929H198.749V334.573H231.334V332.929Z" fill="#C7C7C7"/>
<path d="M290.225 340.485H120.364V353.952H290.225V340.485Z" fill="#EBEBEB"/>
<path d="M134.943 345.197H130.899V349.241H134.943V345.197Z" fill="white"/>
<path d="M152.136 349.241H148.082L149.736 347.219L148.082 345.197H152.136L153.78 347.219L152.136 349.241Z" fill="white"/>
<path d="M141.736 345.197L142.394 346.522L143.864 346.735L142.8 347.77L143.052 349.241L141.736 348.544L140.42 349.241L140.672 347.77L139.607 346.735L141.078 346.522L141.736 345.197Z" fill="#FFC727"/>
<path d="M188.91 346.396H156.684V348.041H188.91V346.396Z" fill="#DBDBDB"/>
<path d="M272.887 346.396H243.631V348.041H272.887V346.396Z" fill="#DBDBDB"/>
<path d="M231.334 346.396H198.749V348.041H231.334V346.396Z" fill="#C7C7C7"/>
<path d="M134.943 358.664H130.899V362.708H134.943V358.664Z" fill="white"/>
<path d="M135.196 362.95H130.658V358.412H135.196V362.95ZM131.142 362.466H134.712V358.935H131.142V362.466Z" fill="#EBEBEB"/>
<path d="M152.136 362.708H148.082L149.736 360.686L148.082 358.654H152.136L153.78 360.686L152.136 362.708Z" fill="white"/>
<path d="M152.281 362.95H147.608L149.456 360.686L147.608 358.412H152.281L154.12 360.686L152.281 362.95ZM148.624 362.466H152.049L153.5 360.686L152.049 358.896H148.624L150.075 360.686L148.624 362.466Z" fill="#EBEBEB"/>
<path d="M141.736 358.654L142.394 359.989L143.864 360.202L142.8 361.237L143.052 362.708L141.736 362.011L140.42 362.708L140.672 361.237L139.607 360.202L141.078 359.989L141.736 358.654Z" fill="white"/>
<path d="M143.371 363.143L141.736 362.282L140.101 363.143L140.41 361.324L139.095 360.038L140.923 359.767L141.736 358.112L142.558 359.767L144.387 360.038L143.061 361.324L143.371 363.143ZM141.736 361.74L142.703 362.263L142.51 361.16L143.313 360.376L142.21 360.212L141.707 359.244L141.214 360.212L140.101 360.376L140.904 361.16L140.72 362.263L141.736 361.74Z" fill="#EBEBEB"/>
<path d="M188.91 359.864H156.684V361.508H188.91V359.864Z" fill="#DBDBDB"/>
<path d="M272.887 359.864H243.631V361.508H272.887V359.864Z" fill="#DBDBDB"/>
<path d="M231.334 359.864H198.749V361.508H231.334V359.864Z" fill="#C7C7C7"/>
<path d="M290.225 367.419H120.364V380.887H290.225V367.419Z" fill="#EBEBEB"/>
<path d="M134.943 372.122H130.899V376.166H134.943V372.122Z" fill="white"/>
<path d="M152.136 376.175H148.082L149.736 374.153L148.082 372.122H152.136L153.78 374.153L152.136 376.175Z" fill="white"/>
<path d="M141.736 372.122L142.394 373.457L143.864 373.67L142.8 374.705L143.052 376.175L141.736 375.479L140.42 376.175L140.672 374.705L139.607 373.67L141.078 373.457L141.736 372.122Z" fill="#FFC727"/>
<path d="M188.91 373.321H156.684V374.966H188.91V373.321Z" fill="#DBDBDB"/>
<path d="M272.887 373.321H243.631V374.966H272.887V373.321Z" fill="#DBDBDB"/>
<path d="M231.334 373.321H198.749V374.966H231.334V373.321Z" fill="#C7C7C7"/>
<path d="M134.943 385.589H130.899V389.633H134.943V385.589Z" fill="white"/>
<path d="M135.196 389.894H130.658V385.347H135.196V389.894ZM131.142 389.41H134.712V385.831H131.142V389.41Z" fill="#EBEBEB"/>
<path d="M152.136 389.642H148.082L149.736 387.611L148.082 385.589H152.136L153.78 387.611L152.136 389.642Z" fill="white"/>
<path d="M152.281 389.894H147.608L149.456 387.62L147.608 385.356H152.281L154.12 387.62L152.281 389.894ZM148.624 389.41H152.049L153.5 387.62L152.049 385.84H148.624L150.075 387.62L148.624 389.41Z" fill="#EBEBEB"/>
<path d="M141.736 385.589L142.394 386.924L143.864 387.137L142.8 388.172L143.052 389.642L141.736 388.946L140.42 389.642L140.672 388.172L139.607 387.137L141.078 386.924L141.736 385.589Z" fill="white"/>
<path d="M143.371 390.078L141.736 389.217L140.101 390.078L140.41 388.259L139.095 386.991L140.923 386.721L141.736 385.066L142.558 386.721L144.387 386.991L143.061 388.278L143.371 390.078ZM141.736 388.675L142.703 389.197L142.51 388.085L143.313 387.311L142.21 387.146L141.707 386.179L141.214 387.146L140.101 387.311L140.904 388.085L140.72 389.197L141.736 388.675Z" fill="#EBEBEB"/>
<path d="M188.91 386.788H156.684V388.433H188.91V386.788Z" fill="#DBDBDB"/>
<path d="M272.887 386.788H243.631V388.433H272.887V386.788Z" fill="#DBDBDB"/>
<path d="M231.334 386.788H198.749V388.433H231.334V386.788Z" fill="#C7C7C7"/>
<path d="M290.195 394.344C290.126 397.155 289.292 399.894 287.784 402.267C286.275 404.639 284.149 406.556 281.633 407.812H128.955C126.432 406.561 124.298 404.647 122.783 402.274C121.267 399.901 120.428 397.159 120.354 394.344H290.195Z" fill="#EBEBEB"/>
<path d="M134.943 399.056H130.899V403.1H134.943V399.056Z" fill="white"/>
<path d="M152.136 403.1H148.082L149.736 401.078L148.082 399.056H152.136L153.78 401.078L152.136 403.1Z" fill="white"/>
<path d="M141.736 399.056L142.394 400.391L143.864 400.604L142.8 401.639L143.052 403.1L141.736 402.413L140.42 403.1L140.672 401.639L139.607 400.604L141.078 400.391L141.736 399.056Z" fill="#FFC727"/>
<path d="M188.91 400.256H156.684V401.9H188.91V400.256Z" fill="#DBDBDB"/>
<path d="M272.887 400.256H243.631V401.9H272.887V400.256Z" fill="#DBDBDB"/>
<path d="M231.334 400.256H198.749V401.9H231.334V400.256Z" fill="#C7C7C7"/>
<path opacity="0.7" d="M290.215 91.0398V393.638C290.215 402.191 283.81 409.118 275.915 409.118H134.663C126.749 409.118 120.345 402.191 120.345 393.638V91.0398C120.345 73.6252 126.749 72.7642 134.663 72.7642H162.962C164.607 72.7642 165.952 74.6314 165.952 76.9437V77.9111C165.952 83.329 168.922 83.3484 172.56 83.3484H238C241.676 83.3484 244.627 83.3484 244.627 77.9111V76.9437C244.627 74.6314 245.952 72.7642 247.626 72.7642H275.915C283.858 72.7642 290.215 75.0764 290.215 91.0398Z" fill="white"/>
<path d="M266.095 315.03H144.89V212.487L205.483 174.011L266.095 212.487V315.03Z" fill="#FFC727"/>
<path opacity="0.2" d="M266.095 315.03H144.89V212.487L205.483 174.011L266.095 212.487V315.03Z" fill="black"/>
<path d="M259.255 200.365H151.72V311.035H259.255V200.365Z" fill="#EBEBEB"/>
<path d="M162.207 218.544H249.812V215.003H162.207V218.544Z" fill="#DBDBDB"/>
<path d="M162.207 227.483H249.812V223.942H162.207V227.483Z" fill="#DBDBDB"/>
<path d="M162.207 236.433H249.812V232.892H162.207V236.433Z" fill="#DBDBDB"/>
<path d="M162.207 245.382H249.812V241.841H162.207V245.382Z" fill="#DBDBDB"/>
<path d="M162.207 254.331H249.812V250.79H162.207V254.331Z" fill="#DBDBDB"/>
<path d="M162.207 263.28H249.812V259.739H162.207V263.28Z" fill="#DBDBDB"/>
<path d="M162.207 272.219H249.812V268.679H162.207V272.219Z" fill="#DBDBDB"/>
<path d="M162.207 281.169H249.812V277.628H162.207V281.169Z" fill="#DBDBDB"/>
<path d="M162.207 290.118H249.812V286.577H162.207V290.118Z" fill="#DBDBDB"/>
<path d="M162.207 299.067H249.812V295.526H162.207V299.067Z" fill="#DBDBDB"/>
<path d="M266.095 238.155V315.03H144.89V238.155C150.095 241.105 155.213 244.201 160.369 247.22C165.526 250.238 170.634 253.373 175.733 256.508C181.383 259.965 187.052 263.47 192.741 267.024L192.925 266.918C192.867 266.918 192.828 267.005 192.78 267.043L205.493 274.996C209.711 272.345 213.958 269.665 218.196 267.043C218.147 267.043 218.108 266.956 218.05 266.918C218.106 266.958 218.168 266.988 218.234 267.005C223.891 263.47 229.563 259.965 235.252 256.488C240.354 253.373 245.469 250.283 250.596 247.22C255.801 244.201 260.89 241.105 266.095 238.155Z" fill="#FFC727"/>
<g opacity="0.2">
<path d="M266.095 238.155C261.2 241.599 256.217 244.927 251.283 248.274C246.349 251.622 241.328 254.902 236.316 258.181C231.092 261.606 225.858 264.999 220.614 268.359L220.14 268.678L206.179 277.589L205.483 278.005L204.806 277.589L190.864 268.669L190.371 268.359C185.114 264.992 179.874 261.593 174.649 258.162C169.657 254.905 164.675 251.609 159.702 248.274C154.768 244.888 149.785 241.599 144.89 238.155C150.095 241.105 155.213 244.201 160.369 247.22C165.526 250.238 170.634 253.373 175.733 256.508C181.383 259.965 187.052 263.47 192.741 267.024L205.493 274.996C209.711 272.345 213.958 269.665 218.196 267.043C223.852 263.509 229.525 260.003 235.213 256.527C240.315 253.412 245.43 250.322 250.558 247.259C255.801 244.201 260.89 241.105 266.095 238.155Z" fill="black"/>
<path d="M192.916 266.918C192.858 266.918 192.819 267.005 192.771 267.043L190.836 268.669C187.798 271.233 184.683 273.69 181.519 276.07C177.649 278.973 173.711 281.875 169.745 284.652C165.778 287.428 161.753 290.128 157.651 292.749C153.549 295.371 149.428 297.935 145.151 300.286C148.828 297.064 152.649 294.055 156.51 291.124C160.37 288.193 164.336 285.319 168.284 282.552C172.231 279.785 176.295 277.057 180.387 274.435C183.647 272.345 186.966 270.285 190.342 268.359C191.126 267.905 191.91 267.459 192.713 267.024L192.916 266.918Z" fill="black"/>
<path d="M265.806 300.286C261.529 297.935 257.379 295.371 253.306 292.749C249.233 290.128 245.198 287.399 241.193 284.652C237.188 281.904 233.279 279.021 229.419 276.07C226.274 273.69 223.159 271.233 220.141 268.679C219.483 268.137 218.844 267.595 218.206 267.043C218.157 267.043 218.119 266.956 218.061 266.918C218.116 266.958 218.178 266.988 218.244 267.005L220.615 268.359C223.991 270.294 227.29 272.345 230.57 274.435C234.663 277.057 238.668 279.785 242.654 282.552C246.64 285.319 250.568 288.183 254.428 291.124C258.288 294.065 262.129 297.064 265.806 300.286Z" fill="black"/>
</g>
<path d="M259.151 248.586C260.078 240.884 254.585 233.888 246.882 232.961C239.179 232.035 232.184 237.528 231.257 245.231C230.33 252.933 235.823 259.929 243.526 260.856C251.229 261.782 258.225 256.289 259.151 248.586Z" fill="#455A64"/>
<path d="M247.094 239.161V254.253C247.093 254.44 247.055 254.625 246.982 254.797C246.909 254.969 246.803 255.125 246.67 255.256C246.538 255.387 246.38 255.491 246.207 255.561C246.034 255.632 245.849 255.667 245.662 255.666C245.476 255.669 245.292 255.634 245.12 255.564C244.948 255.493 244.792 255.389 244.661 255.257C244.53 255.126 244.427 254.969 244.358 254.796C244.289 254.624 244.255 254.439 244.259 254.253V241.676L243.234 242.266C243.019 242.4 242.771 242.47 242.518 242.47C242.271 242.467 242.029 242.4 241.817 242.274C241.605 242.148 241.429 241.969 241.308 241.754C241.207 241.597 241.139 241.422 241.108 241.239C241.076 241.055 241.082 240.868 241.126 240.687C241.169 240.506 241.249 240.335 241.36 240.186C241.471 240.037 241.612 239.912 241.773 239.819L244.927 237.951C244.927 237.951 244.994 237.951 245.023 237.951C245.052 237.951 245.101 237.903 245.149 237.874C245.198 237.845 245.256 237.874 245.304 237.874C245.339 237.865 245.376 237.865 245.41 237.874C245.468 237.86 245.527 237.86 245.585 237.874H245.865C245.899 237.887 245.937 237.887 245.972 237.874C246.022 237.857 246.076 237.857 246.126 237.874C246.126 237.874 246.204 237.874 246.223 237.874C246.242 237.874 246.33 237.951 246.378 237.951C246.41 237.978 246.446 238.001 246.484 238.019L246.581 238.097C246.639 238.097 246.658 238.174 246.688 238.203C246.72 238.233 246.746 238.269 246.765 238.309L246.871 238.406C246.871 238.406 246.871 238.464 246.871 238.484C246.9 238.523 246.917 238.57 246.92 238.619C246.92 238.667 246.92 238.716 246.978 238.745C247.036 238.774 246.978 238.841 246.978 238.87C246.954 238.929 246.954 238.995 246.978 239.054L247.094 239.161Z" fill="white"/>
<path d="M87.5857 111.744C87.9759 115.69 89.4605 119.448 91.8721 122.595C94.2837 125.742 97.5265 128.153 101.235 129.556C104.943 130.96 108.97 131.299 112.861 130.536C116.752 129.774 120.352 127.939 123.257 125.24L133.899 126.807L128.558 117.578C129.782 114.574 130.304 111.33 130.085 108.094C129.866 104.857 128.912 101.714 127.296 98.9015C125.679 96.0894 123.443 93.6828 120.757 91.8649C118.07 90.047 115.005 88.8656 111.793 88.4106C108.582 87.9556 105.309 88.239 102.223 89.2391C99.1373 90.2393 96.3204 91.9299 93.9864 94.1824C91.6524 96.4349 89.8628 99.1899 88.7537 102.238C87.6445 105.286 87.2451 108.547 87.5857 111.773V111.744Z" fill="white"/>
<path d="M93.971 94.126C96.2943 91.8314 99.1144 90.1022 102.213 89.0721C105.312 88.0421 108.606 87.7387 111.84 88.1856C115.109 88.6217 118.233 89.8014 120.974 91.634C123.715 93.4666 126 95.9034 127.652 98.7569C129.304 101.61 130.279 104.805 130.503 108.094C130.728 111.384 130.195 114.681 128.945 117.732V117.374L134.257 126.614L134.654 127.301L133.88 127.185L123.237 125.54L123.489 125.463C120.525 128.15 116.869 129.957 112.934 130.677C111.96 130.858 110.973 130.962 109.983 130.987C108.996 131.035 108.007 131.016 107.022 130.929C103.056 130.565 99.2668 129.116 96.0704 126.74C95.2821 126.143 94.5324 125.497 93.8259 124.805C93.1322 124.107 92.4858 123.363 91.8909 122.58C88.6959 118.407 87.1429 113.208 87.5263 107.967C87.9097 102.726 90.2029 97.808 93.971 94.1453V94.126ZM91.949 122.512C93.1304 124.08 94.5466 125.458 96.1479 126.595C97.7174 127.769 99.4518 128.704 101.295 129.371C103.128 130.05 105.045 130.473 106.993 130.629C107.96 130.696 108.929 130.696 109.896 130.629C110.871 130.586 111.841 130.469 112.798 130.281C116.625 129.506 120.162 127.684 123.015 125.018L123.111 124.911H123.266L133.909 126.401L133.522 126.972L128.152 117.761L128.055 117.587L128.133 117.394C129.314 114.444 129.826 111.268 129.632 108.096C129.423 104.921 128.497 101.835 126.923 99.0698C125.325 96.3124 123.146 93.9355 120.538 92.1039C117.902 90.291 114.888 89.1031 111.724 88.6307C108.551 88.1482 105.31 88.3896 102.243 89.3369C98.9828 90.3528 96.018 92.1448 93.6029 94.559C91.1879 96.9731 89.3948 99.9373 88.3777 103.197C87.3606 106.457 87.1498 109.915 87.7634 113.274C88.377 116.633 89.7967 119.793 91.9006 122.483L91.949 122.512Z" fill="#263238"/>
<path d="M111.182 119.474C111.18 120.26 110.866 121.013 110.309 121.568C109.752 122.123 108.998 122.435 108.212 122.435C107.54 122.439 106.886 122.214 106.359 121.797C105.831 121.38 105.461 120.797 105.31 120.142C105.259 119.923 105.233 119.699 105.232 119.474C105.232 118.686 105.545 117.931 106.102 117.374C106.659 116.817 107.415 116.504 108.203 116.504C108.99 116.504 109.746 116.817 110.303 117.374C110.86 117.931 111.173 118.686 111.173 119.474H111.182Z" fill="#FFC727"/>
<path opacity="0.1" d="M111.182 119.474C111.182 119.699 111.156 119.923 111.105 120.142H105.3C105.249 119.923 105.223 119.699 105.223 119.474C105.223 118.686 105.536 117.931 106.093 117.374C106.65 116.817 107.405 116.504 108.193 116.504C108.981 116.504 109.736 116.817 110.293 117.374C110.85 117.931 111.163 118.686 111.163 119.474H111.182Z" fill="black"/>
<path d="M97.7539 118.932C97.913 118.334 98.1609 117.764 98.4892 117.239C99.4567 115.662 100.869 114.975 101.256 110.922C101.643 106.868 102.862 100.279 108.212 100.279C113.563 100.279 114.791 106.839 115.169 110.922C115.546 115.004 116.92 115.662 117.936 117.239C118.26 117.766 118.507 118.336 118.671 118.932H97.7539Z" fill="#FFC727"/>
<path d="M108.212 96.5833C107.699 96.5833 107.198 96.7353 106.771 97.0202C106.345 97.3051 106.013 97.7101 105.817 98.1839C105.62 98.6576 105.569 99.179 105.669 99.6819C105.769 100.185 106.016 100.647 106.379 101.01C106.741 101.372 107.203 101.619 107.706 101.719C108.209 101.819 108.73 101.768 109.204 101.572C109.678 101.375 110.083 101.043 110.368 100.617C110.653 100.19 110.805 99.6889 110.805 99.1761C110.805 98.4884 110.532 97.8289 110.045 97.3427C109.559 96.8564 108.9 96.5833 108.212 96.5833ZM108.212 100.347C107.98 100.349 107.753 100.282 107.559 100.154C107.365 100.027 107.214 99.8446 107.124 99.6308C107.033 99.4171 107.009 99.1814 107.053 98.9537C107.097 98.726 107.208 98.5165 107.371 98.3518C107.534 98.1871 107.743 98.0747 107.97 98.0287C108.198 97.9827 108.434 98.0053 108.648 98.0937C108.863 98.182 109.046 98.332 109.175 98.5247C109.304 98.7174 109.373 98.9442 109.373 99.1761C109.373 99.4849 109.251 99.7812 109.034 100C108.816 100.22 108.521 100.344 108.212 100.347Z" fill="#FFC727"/>
<path d="M118.08 102.862C118.08 103.498 117.892 104.119 117.539 104.647C117.186 105.175 116.684 105.587 116.097 105.83C115.511 106.073 114.865 106.137 114.242 106.013C113.619 105.889 113.046 105.583 112.597 105.134C112.148 104.684 111.842 104.112 111.718 103.489C111.594 102.866 111.658 102.22 111.901 101.633C112.144 101.046 112.556 100.545 113.084 100.192C113.612 99.8388 114.233 99.6504 114.868 99.6504C115.72 99.6504 116.537 99.9888 117.14 100.591C117.742 101.194 118.08 102.011 118.08 102.862Z" fill="#455A64"/>
<path d="M115.304 101.092V104.546C115.301 104.631 115.266 104.713 115.204 104.772C115.143 104.832 115.061 104.865 114.975 104.865C114.933 104.866 114.891 104.859 114.851 104.844C114.812 104.828 114.776 104.805 114.746 104.775C114.716 104.745 114.693 104.709 114.677 104.67C114.662 104.63 114.654 104.588 114.656 104.546V101.643L114.424 101.779C114.37 101.795 114.313 101.795 114.259 101.779C114.202 101.78 114.145 101.765 114.096 101.736C114.046 101.707 114.005 101.665 113.979 101.614C113.956 101.579 113.941 101.54 113.934 101.498C113.927 101.457 113.929 101.415 113.939 101.374C113.948 101.333 113.967 101.295 113.992 101.261C114.017 101.228 114.049 101.2 114.085 101.179L114.811 100.744H114.975L115.304 101.092Z" fill="white"/>
</svg>
