<svg width="237" height="445" viewBox="0 0 237 445" fill="none" xmlns="http://www.w3.org/2000/svg">
<path d="M216.164 0H19.8632C17.2301 0.0235859 14.6275 0.565795 12.204 1.59565C9.78052 2.6255 7.58375 4.1228 5.73918 6.002C3.89462 7.88119 2.43843 10.1054 1.45383 12.5476C0.469239 14.9898 -0.0244624 17.6021 0.000932152 20.2352V424.326C-0.0439476 429.641 2.02276 434.756 5.74702 438.548C9.47128 442.34 14.5485 444.498 19.8632 444.549H216.164C221.48 444.498 226.558 442.34 230.284 438.549C234.011 434.757 236.08 429.642 236.038 424.326V20.2352C236.062 17.6016 235.567 14.989 234.581 12.5467C233.595 10.1045 232.138 7.8803 230.292 6.00126C228.447 4.12223 226.249 2.62512 223.825 1.59542C221.401 0.565714 218.798 0.0235916 216.164 0ZM223.611 411.826C223.611 422.461 215.647 431.075 205.83 431.075H30.1853C20.3444 431.075 12.3803 422.461 12.3803 411.826V35.55C12.3803 13.8952 20.3444 12.8245 30.1853 12.8245H65.3744C67.4195 12.8245 69.0918 15.1463 69.0918 18.0216V19.2247C69.0918 25.9617 72.7851 25.9858 77.3086 25.9858H158.658C163.23 25.9858 166.899 25.9858 166.899 19.2247V18.0216C166.899 15.1463 168.547 12.8245 170.629 12.8245H205.806C215.623 12.8245 223.587 15.6997 223.587 35.55L223.611 411.826Z" fill="#263238"/>
<path d="M223.623 35.55V411.826C223.623 422.461 215.659 431.075 205.842 431.075H30.1976C20.3567 431.075 12.3926 422.461 12.3926 411.826V35.55C12.3926 13.8952 20.3567 12.8245 30.1976 12.8245H65.3867C67.4319 12.8245 69.1041 15.1463 69.1041 18.0216V19.2247C69.1041 25.9617 72.7975 25.9858 77.3209 25.9858H158.695C163.266 25.9858 166.936 25.9858 166.936 19.2247V18.0216C166.936 15.1463 168.584 12.8245 170.665 12.8245H205.842C215.719 12.8245 223.623 15.6997 223.623 35.55Z" fill="white"/>
<path d="M223.623 35.55V69.6924H12.4043V35.55C12.4043 13.8952 20.3685 12.8245 30.2094 12.8245H65.3984C67.4436 12.8245 69.1158 15.1463 69.1158 18.0336V19.2367C69.1158 25.9858 72.8092 26.0098 77.3326 26.0098H158.695C163.266 26.0098 166.935 26.0098 166.935 19.2367V18.0336C166.935 15.1463 168.584 12.8245 170.665 12.8245H205.842C215.719 12.8245 223.623 15.7118 223.623 35.55Z" fill="#FFC727"/>
<path d="M129.1 17.2758H106.916C106.557 17.2726 106.213 17.1284 105.958 16.8741C105.704 16.6199 105.56 16.2759 105.557 15.9163C105.557 15.5547 105.699 15.2076 105.954 14.9508C106.209 14.6939 106.554 14.548 106.916 14.5449H129.1C129.464 14.5449 129.813 14.6894 130.07 14.9466C130.327 15.2038 130.472 15.5526 130.472 15.9163C130.469 16.278 130.323 16.6237 130.066 16.8783C129.809 17.1329 129.462 17.2758 129.1 17.2758V17.2758Z" fill="white"/>
<path d="M59.323 20.9931L58.9861 21.3299L58.7936 21.5224C58.3634 21.0914 57.8524 20.7494 57.2899 20.5161C56.7274 20.2828 56.1244 20.1627 55.5153 20.1627C54.9063 20.1627 54.3033 20.2828 53.7408 20.5161C53.1782 20.7494 52.6673 21.0914 52.237 21.5224L52.0566 21.342L51.7197 20.9931L52.1528 20.6081C52.4571 20.3598 52.788 20.146 53.1393 19.9705C53.5589 19.7672 54.0041 19.6215 54.4627 19.5374C54.6792 19.5374 54.8958 19.5374 55.1243 19.4412H55.7138H56.159C56.5701 19.4888 56.974 19.5858 57.362 19.7299C57.6445 19.8363 57.9181 19.965 58.1801 20.1149C58.4573 20.2702 58.7191 20.4515 58.9621 20.6562L59.323 20.9811V20.9931Z" fill="white"/>
<path d="M53.308 22.5451L52.7666 22.0157C53.1246 21.6538 53.5508 21.3665 54.0206 21.1704C54.4904 20.9743 54.9944 20.8734 55.5035 20.8734C56.0126 20.8734 56.5166 20.9743 56.9864 21.1704C57.4562 21.3665 57.8824 21.6538 58.2405 22.0157L57.6991 22.5571C57.4116 22.2672 57.0696 22.0371 56.6928 21.8801C56.316 21.723 55.9118 21.6422 55.5035 21.6422C55.0953 21.6422 54.6911 21.723 54.3142 21.8801C53.9374 22.0371 53.5954 22.2672 53.308 22.5571V22.5451Z" fill="white"/>
<path d="M57.17 23.0746L56.6407 23.6159C56.4931 23.4679 56.3178 23.3504 56.1248 23.2703C55.9318 23.1901 55.7248 23.1489 55.5158 23.1489C55.3068 23.1489 55.0999 23.1901 54.9068 23.2703C54.7138 23.3504 54.5385 23.4679 54.391 23.6159L53.8496 23.0866C54.2955 22.6584 54.8892 22.4183 55.5074 22.416C56.1256 22.4138 56.721 22.6496 57.17 23.0746V23.0746Z" fill="white"/>
<path d="M56.003 24.0972C56.0054 24.1952 55.9785 24.2917 55.9257 24.3744C55.873 24.4571 55.7969 24.5222 55.707 24.5613C55.6171 24.6005 55.5175 24.612 55.4211 24.5944C55.3246 24.5767 55.2356 24.5307 55.1654 24.4622C55.0952 24.3938 55.047 24.3059 55.027 24.2099C55.007 24.1139 55.016 24.0141 55.053 23.9233C55.0899 23.8325 55.1531 23.7547 55.2345 23.7C55.3158 23.6452 55.4117 23.616 55.5097 23.6159C55.5739 23.6143 55.6378 23.6256 55.6976 23.6491C55.7573 23.6725 55.8118 23.7077 55.8578 23.7526C55.9037 23.7974 55.9403 23.851 55.9652 23.9102C55.9901 23.9694 56.003 24.0329 56.003 24.0972V24.0972Z" fill="white"/>
<path d="M26.1792 21.9676C26.1839 21.6897 26.2708 21.4195 26.4289 21.191C26.5869 20.9625 26.8091 20.7858 27.0674 20.6833C27.3257 20.5809 27.6085 20.5571 27.8802 20.6151C28.152 20.6731 28.4005 20.8102 28.5945 21.0092C28.7884 21.2081 28.9191 21.4601 28.9702 21.7332C29.0212 22.0063 28.9902 22.2885 28.8812 22.544C28.7721 22.7996 28.5899 23.0172 28.3574 23.1694C28.1249 23.3216 27.8526 23.4015 27.5747 23.3992C27.3884 23.3992 27.2039 23.362 27.0322 23.2896C26.8605 23.2172 26.705 23.1112 26.5749 22.9778C26.4449 22.8443 26.3428 22.6862 26.2749 22.5127C26.2069 22.3392 26.1744 22.1538 26.1792 21.9676V21.9676Z" fill="white"/>
<path d="M30.5942 21.9674C30.6013 21.6931 30.6892 21.4269 30.8468 21.2022C31.0043 20.9775 31.2247 20.8042 31.4802 20.7041C31.7358 20.604 32.0152 20.5815 32.2835 20.6393C32.5518 20.6972 32.797 20.8329 32.9886 21.0294C33.1802 21.2259 33.3095 21.4746 33.3605 21.7443C33.4115 22.0139 33.3818 22.2927 33.2752 22.5456C33.1686 22.7985 32.9898 23.0143 32.7612 23.1661C32.5325 23.3179 32.2642 23.3989 31.9898 23.399C31.8034 23.3991 31.6189 23.3618 31.4472 23.2895C31.2755 23.2171 31.12 23.111 30.99 22.9776C30.8599 22.8442 30.7579 22.6861 30.6899 22.5126C30.6219 22.339 30.5894 22.1537 30.5942 21.9674V21.9674Z" fill="white"/>
<path d="M34.9975 21.9676C35.0023 21.6897 35.0892 21.4195 35.2472 21.191C35.4053 20.9625 35.6275 20.7858 35.8857 20.6833C36.144 20.5809 36.4269 20.5571 36.6986 20.6151C36.9704 20.6731 37.2189 20.8102 37.4128 21.0092C37.6068 21.2081 37.7375 21.4601 37.7885 21.7332C37.8395 22.0063 37.8086 22.2885 37.6995 22.544C37.5905 22.7996 37.4082 23.0172 37.1757 23.1694C36.9433 23.3216 36.6709 23.4015 36.3931 23.3992C36.2067 23.3992 36.0223 23.362 35.8506 23.2896C35.6788 23.2172 35.5234 23.1112 35.3933 22.9778C35.2632 22.8443 35.1612 22.6862 35.0932 22.5127C35.0253 22.3392 34.9927 22.1538 34.9975 21.9676Z" fill="white"/>
<path d="M39.4006 21.9674C39.4053 21.6901 39.4919 21.4204 39.6494 21.1921C39.8069 20.9638 40.0284 20.7871 40.286 20.6843C40.5436 20.5814 40.8258 20.557 41.0972 20.614C41.3686 20.671 41.6172 20.8069 41.8116 21.0047C42.0061 21.2024 42.1378 21.4532 42.1902 21.7256C42.2426 21.998 42.2133 22.2797 42.1061 22.5355C41.9989 22.7913 41.8185 23.0098 41.5876 23.1634C41.3567 23.317 41.0855 23.399 40.8082 23.399C40.6213 23.3991 40.4363 23.3619 40.2639 23.2896C40.0915 23.2174 39.9353 23.1116 39.8042 22.9783C39.6732 22.8451 39.5701 22.687 39.5008 22.5135C39.4314 22.3399 39.3974 22.1543 39.4006 21.9674V21.9674Z" fill="white"/>
<path d="M43.8159 21.9676C43.8207 21.6897 43.9075 21.4195 44.0656 21.191C44.2237 20.9625 44.4458 20.7858 44.7041 20.6833C44.9624 20.5809 45.2452 20.5571 45.5169 20.6151C45.7887 20.6731 46.0372 20.8102 46.2312 21.0092C46.4251 21.2081 46.5559 21.4601 46.6069 21.7332C46.6579 22.0063 46.6269 22.2885 46.5179 22.544C46.4089 22.7996 46.2266 23.0172 45.9941 23.1694C45.7616 23.3216 45.4893 23.4015 45.2114 23.3992C45.0251 23.3992 44.8406 23.362 44.6689 23.2896C44.4972 23.2172 44.3417 23.1112 44.2117 22.9778C44.0816 22.8443 43.9796 22.6862 43.9116 22.5127C43.8436 22.3392 43.8111 22.1538 43.8159 21.9676V21.9676Z" fill="white"/>
<path d="M207.779 25.0233H196.386V19.7901H207.779V25.0233ZM196.951 24.4459H207.177V20.3315H196.951V24.4459Z" fill="white"/>
<path d="M204.675 20.6441H197.324V24.1329H204.675V20.6441Z" fill="white"/>
<path d="M208.789 20.9811H207.778V23.8082H208.789V20.9811Z" fill="white"/>
<path d="M32.4225 56.6273L26.1787 50.7805L32.4225 44.9337L33.385 45.9683L28.2479 50.7805L33.385 55.6047L32.4225 56.6273Z" fill="white"/>
<path d="M204.47 57.0845H200.259V55.6288C200.258 55.5672 200.241 55.5069 200.209 55.4541C200.178 55.4012 200.132 55.3577 200.078 55.328C199.917 55.2496 199.76 55.1612 199.609 55.0633C199.554 55.0317 199.492 55.015 199.429 55.015C199.365 55.015 199.303 55.0317 199.248 55.0633L197.985 55.7972L195.88 52.1881L197.155 51.4662C197.206 51.429 197.246 51.3799 197.274 51.3233C197.301 51.2666 197.314 51.2042 197.312 51.1414C197.312 51.0572 197.312 50.973 197.312 50.8767C197.312 50.7805 197.312 50.7083 197.312 50.6121C197.314 50.551 197.301 50.4902 197.274 50.4355C197.246 50.3808 197.206 50.3339 197.155 50.2993L195.88 49.5654L197.985 45.9563L199.248 46.6902C199.303 46.7231 199.365 46.7404 199.429 46.7404C199.492 46.7404 199.555 46.7231 199.609 46.6902C199.755 46.5346 199.912 46.3898 200.078 46.2571C200.132 46.2293 200.176 46.1879 200.208 46.1372C200.24 46.0864 200.257 46.0281 200.259 45.9683V44.5006H204.47V45.9683C204.471 46.0281 204.489 46.0864 204.521 46.1372C204.552 46.1879 204.597 46.2293 204.65 46.2571C204.812 46.3395 204.969 46.4319 205.119 46.5338C205.174 46.5667 205.236 46.584 205.3 46.584C205.363 46.584 205.426 46.5667 205.48 46.5338L206.743 45.7999L208.849 49.409L207.573 50.1429C207.519 50.1735 207.475 50.2197 207.447 50.2754C207.42 50.3311 207.409 50.3939 207.417 50.4557V51.0692C207.409 51.131 207.42 51.1938 207.447 51.2495C207.475 51.3053 207.519 51.3514 207.573 51.382L208.849 52.1159L206.743 55.725L205.468 54.9912C205.416 54.9593 205.355 54.9425 205.294 54.9425C205.232 54.9425 205.172 54.9593 205.119 54.9912C204.968 55.089 204.812 55.1774 204.65 55.2558C204.595 55.2846 204.549 55.3278 204.518 55.3809C204.486 55.4339 204.469 55.4947 204.47 55.5566V57.0845ZM201.161 56.1822H203.567V55.6288C203.562 55.3992 203.623 55.173 203.742 54.9769C203.862 54.7808 204.035 54.6229 204.241 54.522C204.376 54.4617 204.505 54.3893 204.626 54.3054C204.82 54.1811 205.045 54.1149 205.276 54.1149C205.506 54.1149 205.731 54.1811 205.925 54.3054L206.407 54.5942L207.61 52.5129L207.116 52.2242C206.908 52.1063 206.739 51.9289 206.632 51.7146C206.525 51.5002 206.484 51.2587 206.515 51.0211V50.588C206.485 50.3491 206.527 50.1068 206.637 49.8923C206.746 49.6778 206.917 49.5011 207.128 49.385L207.61 49.1083L206.407 47.027L205.925 47.3037C205.733 47.4256 205.51 47.4904 205.282 47.4904C205.054 47.4904 204.831 47.4256 204.638 47.3037L204.241 47.0751C204.037 46.975 203.865 46.819 203.746 46.6253C203.626 46.4315 203.565 46.2079 203.567 45.9804V45.4149H201.161V45.9804C201.163 46.2092 201.099 46.4337 200.978 46.6276C200.856 46.8215 200.682 46.9767 200.475 47.0751L200.091 47.3037C199.898 47.4256 199.675 47.4904 199.447 47.4904C199.219 47.4904 198.996 47.4256 198.803 47.3037L198.31 47.027L197.107 49.1083L197.588 49.385C197.799 49.5011 197.97 49.6778 198.08 49.8923C198.189 50.1068 198.232 50.3491 198.202 50.588V51.0692C198.232 51.3081 198.189 51.5505 198.08 51.765C197.97 51.9794 197.799 52.1562 197.588 52.2723L197.107 52.549L198.31 54.6302L198.803 54.3415C198.997 54.2171 199.223 54.151 199.453 54.151C199.683 54.151 199.909 54.2171 200.103 54.3415C200.224 54.4254 200.353 54.4978 200.488 54.5581C200.694 54.659 200.867 54.8169 200.986 55.013C201.105 55.2091 201.166 55.4353 201.161 55.6649V56.1822ZM202.364 53.9806C201.738 53.983 201.125 53.7994 200.603 53.4532C200.081 53.107 199.674 52.6137 199.433 52.0358C199.191 51.4578 199.127 50.8213 199.248 50.2067C199.368 49.5922 199.669 49.0273 200.111 48.5836C200.553 48.1399 201.116 47.8374 201.731 47.7143C202.345 47.5912 202.981 47.6532 203.56 47.8923C204.139 48.1314 204.634 48.537 204.982 49.0575C205.33 49.5781 205.516 50.1903 205.516 50.8166C205.51 51.6484 205.175 52.4439 204.585 53.0298C203.994 53.6158 203.196 53.9445 202.364 53.9445V53.9806ZM202.364 48.5669C201.916 48.5645 201.477 48.6954 201.103 48.9431C200.729 49.1907 200.438 49.5438 200.265 49.9575C200.092 50.3713 200.047 50.827 200.133 51.2669C200.22 51.7067 200.436 52.1108 200.753 52.4279C201.07 52.7449 201.474 52.9606 201.914 53.0474C202.354 53.1343 202.81 53.0885 203.223 52.9158C203.637 52.7432 203.99 52.4514 204.238 52.0776C204.485 51.7039 204.616 51.2649 204.614 50.8166C204.619 50.5181 204.564 50.2217 204.453 49.9446C204.342 49.6675 204.177 49.4152 203.968 49.2024C203.759 48.9897 203.509 48.8207 203.234 48.7054C202.958 48.5901 202.663 48.5308 202.364 48.5308V48.5669Z" fill="white"/>
<path d="M99.8419 47.2555C99.8403 47.165 99.8569 47.0751 99.8908 46.9912C99.9247 46.9073 99.9751 46.831 100.039 46.767C100.103 46.703 100.179 46.6526 100.263 46.6187C100.347 46.5848 100.437 46.5682 100.528 46.5698C100.711 46.5698 100.886 46.6416 101.017 46.7699C101.147 46.8982 101.222 47.0726 101.225 47.2555V54.558C101.222 54.741 101.147 54.9154 101.017 55.0437C100.886 55.1719 100.711 55.2438 100.528 55.2438C100.437 55.2454 100.347 55.2288 100.263 55.1949C100.179 55.161 100.103 55.1105 100.039 55.0465C99.9751 54.9825 99.9247 54.9063 99.8908 54.8224C99.8569 54.7384 99.8403 54.6485 99.8419 54.558V47.2555Z" fill="white"/>
<path d="M104.906 54.5579C104.919 54.6547 104.911 54.7532 104.883 54.8468C104.855 54.9403 104.807 55.0267 104.743 55.1002C104.678 55.1737 104.599 55.2326 104.51 55.273C104.421 55.3134 104.324 55.3342 104.227 55.3342C104.129 55.3342 104.032 55.3134 103.943 55.273C103.855 55.2326 103.775 55.1737 103.711 55.1002C103.646 55.0267 103.599 54.9403 103.57 54.8468C103.542 54.7532 103.534 54.6547 103.547 54.5579V47.3396C103.545 47.2301 103.569 47.1216 103.617 47.0233C103.665 46.9249 103.736 46.8395 103.824 46.7742C103.968 46.6695 104.147 46.6259 104.323 46.653C104.498 46.68 104.656 46.7755 104.762 46.9185L108.768 52.4526V47.3516C108.768 47.2648 108.785 47.1787 108.819 47.0984C108.852 47.0182 108.901 46.9452 108.962 46.8838C109.023 46.8223 109.096 46.7736 109.177 46.7403C109.257 46.7071 109.343 46.69 109.43 46.69C109.608 46.6899 109.779 46.7588 109.907 46.8822C110.034 47.0057 110.109 47.174 110.116 47.3516V54.5699C110.113 54.7508 110.039 54.9234 109.911 55.0514C109.783 55.1793 109.611 55.2526 109.43 55.2556C109.332 55.2543 109.236 55.2309 109.148 55.1871C109.061 55.1434 108.984 55.0804 108.925 55.003V54.9308L104.967 49.4329L104.906 54.5579Z" fill="white"/>
<path d="M113.087 54.5579V47.2554C113.087 47.0736 113.159 46.8991 113.288 46.7705C113.416 46.6419 113.591 46.5697 113.773 46.5697H115.529C115.959 46.5867 116.376 46.7186 116.738 46.9518C117.099 47.1849 117.392 47.5106 117.585 47.8951C117.777 48.2796 117.864 48.7088 117.834 49.1379C117.805 49.5671 117.661 49.9805 117.418 50.3352C117.905 50.6421 118.279 51.0987 118.485 51.6366C118.69 52.1744 118.715 52.7644 118.557 53.3178C118.398 53.8713 118.064 54.3582 117.605 54.7055C117.146 55.0528 116.586 55.2416 116.01 55.2437H113.821C113.727 55.2485 113.634 55.2345 113.545 55.2023C113.457 55.1702 113.377 55.1207 113.308 55.0567C113.24 54.9926 113.185 54.9155 113.147 54.8298C113.109 54.7441 113.088 54.6517 113.087 54.5579V54.5579ZM114.47 49.9262H115.529C115.792 49.923 116.043 49.8164 116.227 49.6295C116.412 49.4426 116.516 49.1904 116.516 48.9277C116.516 48.666 116.412 48.4151 116.227 48.2301C116.042 48.0451 115.791 47.9412 115.529 47.9412H114.47V49.9262ZM114.47 53.8722H116.01C116.352 53.8722 116.679 53.7366 116.921 53.4951C117.162 53.2537 117.298 52.9263 117.298 52.5849C117.298 52.2435 117.162 51.9161 116.921 51.6747C116.679 51.4333 116.352 51.2977 116.01 51.2977H114.47V53.8722Z" fill="white"/>
<path d="M127.283 47.6525C128.087 48.4978 128.535 49.6198 128.535 50.7864C128.535 51.953 128.087 53.075 127.283 53.9203C126.908 54.3338 126.452 54.6649 125.942 54.8927C125.433 55.1205 124.882 55.24 124.324 55.2437C123.755 55.2406 123.193 55.1216 122.672 54.8941C122.15 54.6666 121.681 54.3353 121.292 53.9203C120.504 53.0669 120.066 51.948 120.066 50.7864C120.066 49.6248 120.504 48.5059 121.292 47.6525C121.679 47.2353 122.148 46.9024 122.67 46.6747C123.191 46.447 123.754 46.3294 124.324 46.3291C124.882 46.3298 125.434 46.448 125.944 46.676C126.454 46.904 126.91 47.2367 127.283 47.6525V47.6525ZM127.127 50.7804C127.126 49.9788 126.826 49.2063 126.285 48.6149C126.034 48.3386 125.729 48.1178 125.388 47.9667C125.047 47.8156 124.678 47.7376 124.306 47.7376C123.933 47.7376 123.564 47.8156 123.223 47.9667C122.882 48.1178 122.577 48.3386 122.327 48.6149C121.776 49.2005 121.474 49.9767 121.484 50.7804C121.471 51.581 121.774 52.3547 122.327 52.9338C122.575 53.2135 122.88 53.4373 123.221 53.5906C123.562 53.7438 123.932 53.8231 124.306 53.8231C124.68 53.8231 125.049 53.7438 125.39 53.5906C125.732 53.4373 126.036 53.2135 126.285 52.9338C126.828 52.3486 127.129 51.579 127.127 50.7804V50.7804Z" fill="white"/>
<path d="M136.57 47.7487L134.164 50.9488L136.57 54.161C136.672 54.3058 136.714 54.4843 136.687 54.6592C136.66 54.8341 136.566 54.9918 136.426 55.0993C136.313 55.1888 136.173 55.2394 136.029 55.2437C135.919 55.2428 135.81 55.2162 135.712 55.1661C135.614 55.116 135.529 55.0437 135.464 54.955L133.382 52.0917L131.289 54.955C131.228 55.0425 131.147 55.1144 131.053 55.1645C130.959 55.2147 130.854 55.2419 130.748 55.2437C130.602 55.2452 130.461 55.1939 130.351 55.0993C130.278 55.049 130.215 54.9844 130.168 54.9095C130.12 54.8346 130.088 54.7509 130.073 54.6633C130.059 54.5758 130.062 54.4862 130.083 54.3999C130.104 54.3136 130.141 54.2323 130.194 54.161L132.54 50.9488L130.194 47.7487C130.141 47.6774 130.104 47.5961 130.083 47.5098C130.062 47.4235 130.059 47.3339 130.073 47.2464C130.088 47.1588 130.12 47.0751 130.168 47.0002C130.215 46.9253 130.278 46.8607 130.351 46.8104C130.419 46.7517 130.499 46.7085 130.586 46.6837C130.673 46.6589 130.764 46.6532 130.853 46.6669C130.942 46.6807 131.027 46.7135 131.102 46.7631C131.178 46.8128 131.241 46.8782 131.289 46.9547L133.382 49.8059L135.464 46.9547C135.515 46.879 135.581 46.8148 135.659 46.7661C135.736 46.7173 135.823 46.6852 135.913 46.6716C136.004 46.658 136.096 46.6634 136.184 46.6872C136.272 46.7111 136.355 46.7531 136.426 46.8104C136.569 46.916 136.665 47.074 136.692 47.2498C136.719 47.4256 136.675 47.6049 136.57 47.7487V47.7487Z" fill="white"/>
<path d="M162.689 90.108H33.2295V98.2166H162.689V90.108Z" fill="white"/>
<path d="M162.786 98.3007H33.1455V90.0237H162.786V98.3007Z" fill="#EBEBEB"/>
<path d="M162.772 90.0237H154.483V98.3127H162.772V90.0237Z" fill="#FFC727"/>
<path d="M161.209 96.436L160.451 97.0014L159.068 95.1728L158.562 94.4991C158.666 94.4566 158.763 94.4 158.851 94.3307C159.018 94.2004 159.15 94.031 159.236 93.8374L159.778 94.5472L161.209 96.436Z" fill="white"/>
<path d="M159.729 92.117C159.491 91.8083 159.17 91.5741 158.803 91.4419C158.437 91.3097 158.04 91.285 157.66 91.3707C157.28 91.4565 156.932 91.6491 156.657 91.9258C156.383 92.2026 156.193 92.552 156.111 92.933C156.028 93.3139 156.056 93.7105 156.192 94.076C156.327 94.4415 156.564 94.7607 156.875 94.9961C157.185 95.2314 157.557 95.3731 157.945 95.4044C158.334 95.4357 158.723 95.3553 159.068 95.1727C159.165 95.1156 159.257 95.0512 159.344 94.9803C159.509 94.8578 159.655 94.7119 159.777 94.5472C160.029 94.1895 160.159 93.7612 160.151 93.3242C160.142 92.8873 159.994 92.4644 159.729 92.117ZM158.851 94.3306C158.763 94.3999 158.666 94.4566 158.562 94.499C158.314 94.6027 158.037 94.6199 157.778 94.5479C157.518 94.4759 157.29 94.3189 157.131 94.102C157.031 93.9757 156.959 93.8307 156.916 93.6757C156.874 93.5207 156.863 93.3589 156.885 93.1996C156.906 93.0404 156.959 92.8871 157.04 92.7487C157.122 92.6102 157.23 92.4896 157.359 92.3937C157.568 92.2043 157.837 92.0944 158.119 92.083C158.4 92.0716 158.677 92.1596 158.901 92.3315C159.124 92.5034 159.28 92.7484 159.342 93.0236C159.403 93.2988 159.365 93.5869 159.236 93.8374C159.157 94.0484 159.025 94.2351 158.851 94.3787V94.3306Z" fill="white"/>
<path d="M35.3589 91.6959H34.9258V96.6164H35.3589V91.6959Z" fill="#C7C7C7"/>
<path d="M213.999 85.9575C213.505 86.2555 212.97 86.4785 212.411 86.6192C211.066 86.945 209.648 86.7518 208.44 86.0783C207.231 85.4049 206.321 84.3005 205.891 82.9857C205.461 81.6708 205.542 80.2421 206.118 78.9845C206.695 77.7269 207.724 76.733 209.002 76.2009C210.279 75.6688 211.709 75.6377 213.008 76.1138C214.307 76.5899 215.379 77.5382 216.01 78.7696C216.64 80.0009 216.783 81.4248 216.411 82.7571C216.038 84.0894 215.177 85.2322 213.999 85.9575Z" fill="#FFC727"/>
<path d="M212.772 80.6521C212.736 81.0727 212.544 81.4645 212.233 81.7501C211.922 82.0357 211.516 82.1942 211.093 82.1942C210.671 82.1942 210.265 82.0357 209.954 81.7501C209.643 81.4645 209.451 81.0727 209.415 80.6521C209.396 80.4198 209.424 80.1859 209.5 79.9652C209.575 79.7446 209.695 79.542 209.853 79.3703C210.011 79.1986 210.203 79.0616 210.416 78.9678C210.63 78.874 210.86 78.8256 211.093 78.8256C211.327 78.8256 211.557 78.874 211.771 78.9678C211.984 79.0616 212.176 79.1986 212.334 79.3703C212.491 79.542 212.612 79.7446 212.687 79.9652C212.763 80.1859 212.791 80.4198 212.772 80.6521V80.6521Z" fill="white"/>
<path d="M213.999 85.2718V85.9575C213.505 86.2555 212.97 86.4785 212.411 86.6192C211.7 86.7937 210.961 86.8239 210.237 86.7082C209.514 86.5925 208.822 86.3332 208.2 85.9455V85.2598C208.2 84.4908 208.506 83.7533 209.049 83.2096C209.593 82.6659 210.331 82.3604 211.1 82.3604C211.868 82.3604 212.606 82.6659 213.15 83.2096C213.693 83.7533 213.999 84.4908 213.999 85.2598V85.2718Z" fill="white"/>
<path d="M30.5453 117.152H25.5166V122.181H30.5453V117.152Z" fill="white"/>
<path d="M51.9236 122.181H46.8828L48.94 119.667L46.8828 117.152H51.9236L53.9687 119.667L51.9236 122.181Z" fill="white"/>
<path d="M38.9914 117.152L39.8095 118.801L41.6381 119.065L40.3148 120.353L40.6276 122.181L38.9914 121.315L37.3553 122.181L37.6681 120.353L36.3447 119.065L38.1734 118.801L38.9914 117.152Z" fill="#FFC727"/>
<path d="M97.6525 118.644H57.5791V120.689H97.6525V118.644Z" fill="#263238"/>
<path d="M202.076 118.644H165.696V120.689H202.076V118.644Z" fill="#263238"/>
<path d="M150.405 118.644H109.887V120.689H150.405V118.644Z" fill="#455A64"/>
<path d="M30.5453 133.899H25.5166V138.928H30.5453V133.899Z" fill="white"/>
<path d="M30.8591 139.228H25.2168V133.598H30.8591V139.228ZM25.8183 138.627H30.2576V134.199H25.8183V138.627Z" fill="#EBEBEB"/>
<path d="M51.9236 138.927H46.8828L48.94 136.413L46.8828 133.887H51.9236L53.9687 136.413L51.9236 138.927Z" fill="white"/>
<path d="M52.1047 139.228H46.2939L48.5918 136.413L46.2939 133.598H52.1047L54.3904 136.413L52.1047 139.228ZM47.5571 138.627H51.8159L53.6205 136.413L51.8159 134.199H47.5571L49.3617 136.413L47.5571 138.627Z" fill="#EBEBEB"/>
<path d="M38.9914 133.887L39.8095 135.547L41.6381 135.812L40.3148 137.099L40.6276 138.927L38.9914 138.061L37.3553 138.927L37.6681 137.099L36.3447 135.812L38.1734 135.547L38.9914 133.887Z" fill="#FFC727"/>
<path d="M97.6525 135.391H57.5791V137.436H97.6525V135.391Z" fill="#263238"/>
<path d="M202.076 135.391H165.696V137.436H202.076V135.391Z" fill="#263238"/>
<path d="M150.405 135.391H109.887V137.436H150.405V135.391Z" fill="#455A64"/>
<path d="M30.5453 150.633H25.5166V155.662H30.5453V150.633Z" fill="white"/>
<path d="M51.9236 155.674H46.8828L48.94 153.148L46.8828 150.633H51.9236L53.9687 153.148L51.9236 155.674Z" fill="white"/>
<path d="M38.9914 150.633L39.8095 152.293L41.6381 152.558L40.3148 153.845L40.6276 155.674L38.9914 154.808L37.3553 155.674L37.6681 153.845L36.3447 152.558L38.1734 152.293L38.9914 150.633Z" fill="white"/>
<path d="M97.6525 152.125H57.5791V154.17H97.6525V152.125Z" fill="#DBDBDB"/>
<path d="M202.076 152.125H165.696V154.17H202.076V152.125Z" fill="#DBDBDB"/>
<path d="M150.405 152.125H109.887V154.17H150.405V152.125Z" fill="#C7C7C7"/>
<path d="M30.5453 167.38H25.5166V172.408H30.5453V167.38Z" fill="white"/>
<path d="M30.8591 172.721H25.2168V167.079H30.8591V172.721ZM25.8183 172.119H30.2576V167.68H25.8183V172.119Z" fill="#EBEBEB"/>
<path d="M51.9236 172.42H46.8828L48.94 169.894L46.8828 167.38H51.9236L53.9687 169.894L51.9236 172.42Z" fill="white"/>
<path d="M52.1047 172.721H46.2939L48.5918 169.894L46.2939 167.079H52.1047L54.3904 169.894L52.1047 172.721ZM47.5571 172.119H51.8159L53.6205 169.894L51.8159 167.68H47.5571L49.3617 169.894L47.5571 172.119Z" fill="#EBEBEB"/>
<path d="M38.9914 167.38L39.8095 169.04L41.6381 169.304L40.3148 170.592L40.6276 172.42L38.9914 171.554L37.3553 172.42L37.6681 170.592L36.3447 169.304L38.1734 169.04L38.9914 167.38Z" fill="#FFC727"/>
<path d="M97.6525 168.871H57.5791V170.917H97.6525V168.871Z" fill="#DBDBDB"/>
<path d="M202.076 168.871H165.696V170.917H202.076V168.871Z" fill="#DBDBDB"/>
<path d="M150.405 168.871H109.887V170.917H150.405V168.871Z" fill="#C7C7C7"/>
<path d="M223.636 178.267H12.417V195.013H223.636V178.267Z" fill="#EBEBEB"/>
<path d="M30.5453 184.126H25.5166V189.155H30.5453V184.126Z" fill="white"/>
<path d="M51.9236 189.155H46.8828L48.94 186.64L46.8828 184.126H51.9236L53.9687 186.64L51.9236 189.155Z" fill="white"/>
<path d="M38.9914 184.126L39.8095 185.786L41.6381 186.051L40.3148 187.338L40.6276 189.155L38.9914 188.301L37.3553 189.155L37.6681 187.338L36.3447 186.051L38.1734 185.786L38.9914 184.126Z" fill="#FFC727"/>
<path d="M97.6525 185.618H57.5791V187.663H97.6525V185.618Z" fill="#DBDBDB"/>
<path d="M202.076 185.618H165.696V187.663H202.076V185.618Z" fill="#DBDBDB"/>
<path d="M30.5453 200.872H25.5166V205.901H30.5453V200.872Z" fill="white"/>
<path d="M30.8591 206.262H25.2168V200.631H30.8591V206.262ZM25.8183 205.66H30.2576V201.233H25.8183V205.66Z" fill="#EBEBEB"/>
<path d="M51.9236 205.901H46.8828L48.94 203.387L46.8828 200.872H51.9236L53.9687 203.387L51.9236 205.901Z" fill="white"/>
<path d="M52.1047 206.262H46.2939L48.5918 203.447L46.2939 200.631H52.1047L54.3904 203.447L52.1047 206.262ZM47.5571 205.66H51.8159L53.6205 203.447L51.8159 201.233H47.5571L49.3617 203.447L47.5571 205.66Z" fill="#EBEBEB"/>
<path d="M38.9914 200.872L39.8095 202.532L41.6381 202.797L40.3148 204.084L40.6276 205.901L38.9914 205.047L37.3553 205.901L37.6681 204.084L36.3447 202.797L38.1734 202.532L38.9914 200.872Z" fill="white"/>
<path d="M41.0255 206.454L38.9923 205.384L36.9592 206.454L37.3441 204.193L35.708 202.653L37.9818 202.316L38.9923 200.259L40.0149 202.316L42.2887 202.653L40.6405 204.253L41.0255 206.454ZM38.9923 204.71L40.1954 205.36L39.9548 203.976L40.9533 203.002L39.5818 202.809L38.9562 201.606L38.3427 202.809L36.9592 203.002L37.9577 203.976L37.7291 205.36L38.9923 204.71Z" fill="#EBEBEB"/>
<path d="M97.6525 202.364H57.5791V204.409H97.6525V202.364Z" fill="#DBDBDB"/>
<path d="M202.076 202.364H165.696V204.409H202.076V202.364Z" fill="#DBDBDB"/>
<path d="M150.405 202.364H109.887V204.409H150.405V202.364Z" fill="#C7C7C7"/>
<path d="M223.636 211.76H12.417V228.506H223.636V211.76Z" fill="#EBEBEB"/>
<path d="M30.5453 217.619H25.5166V222.647H30.5453V217.619Z" fill="white"/>
<path d="M51.9236 222.647H46.8828L48.94 220.133L46.8828 217.619H51.9236L53.9687 220.133L51.9236 222.647Z" fill="white"/>
<path d="M38.9914 217.619L39.8095 219.279L41.6381 219.543L40.3148 220.831L40.6276 222.647L38.9914 221.793L37.3553 222.647L37.6681 220.831L36.3447 219.543L38.1734 219.279L38.9914 217.619Z" fill="#FFC727"/>
<path d="M97.6525 219.11H57.5791V221.156H97.6525V219.11Z" fill="#DBDBDB"/>
<path d="M202.076 219.11H165.696V221.156H202.076V219.11Z" fill="#DBDBDB"/>
<path d="M30.5453 234.365H25.5166V239.394H30.5453V234.365Z" fill="white"/>
<path d="M30.8591 239.695H25.2168V234.064H30.8591V239.695ZM25.8183 239.093H30.2576V234.666H25.8183V239.093Z" fill="#EBEBEB"/>
<path d="M51.9236 239.394H46.8828L48.94 236.879L46.8828 234.365H51.9236L53.9687 236.879L51.9236 239.394Z" fill="white"/>
<path d="M52.1047 239.695H46.2939L48.5918 236.879L46.2939 234.064H52.1047L54.3904 236.879L52.1047 239.695ZM47.5571 239.093H51.8159L53.6205 236.879L51.8159 234.666H47.5571L49.3617 236.879L47.5571 239.093Z" fill="#EBEBEB"/>
<path d="M38.9914 234.365L39.8095 236.025L41.6381 236.29L40.3148 237.577L40.6276 239.394L38.9914 238.54L37.3553 239.394L37.6681 237.577L36.3447 236.29L38.1734 236.025L38.9914 234.365Z" fill="white"/>
<path d="M41.0255 239.947L38.9923 238.877L36.9592 239.947L37.3441 237.686L35.708 236.074L37.9818 235.749L38.9923 233.691L40.0149 235.749L42.2887 236.074L40.6405 237.686L41.0255 239.947ZM38.9923 238.203L40.1954 238.84L39.9548 237.469L40.9533 236.495L39.5818 236.302L38.9562 235.099L38.3427 236.302L36.9592 236.495L37.9577 237.469L37.7291 238.84L38.9923 238.203Z" fill="#EBEBEB"/>
<path d="M97.6525 235.857H57.5791V237.902H97.6525V235.857Z" fill="#DBDBDB"/>
<path d="M202.076 235.857H165.696V237.902H202.076V235.857Z" fill="#DBDBDB"/>
<path d="M150.405 235.857H109.887V237.902H150.405V235.857Z" fill="#C7C7C7"/>
<path d="M223.636 245.252H12.417V261.999H223.636V245.252Z" fill="#EBEBEB"/>
<path d="M30.5453 251.111H25.5166V256.14H30.5453V251.111Z" fill="white"/>
<path d="M51.9236 256.14H46.8828L48.94 253.626L46.8828 251.111H51.9236L53.9687 253.626L51.9236 256.14Z" fill="white"/>
<path d="M38.9914 251.111L39.8095 252.772L41.6381 253.036L40.3148 254.324L40.6276 256.14L38.9914 255.286L37.3553 256.14L37.6681 254.324L36.3447 253.036L38.1734 252.772L38.9914 251.111Z" fill="white"/>
<path d="M97.6525 252.603H57.5791V254.648H97.6525V252.603Z" fill="#DBDBDB"/>
<path d="M202.076 252.603H165.696V254.648H202.076V252.603Z" fill="#DBDBDB"/>
<path d="M30.5453 267.858H25.5166V272.887H30.5453V267.858Z" fill="white"/>
<path d="M30.8591 273.187H25.2168V267.617H30.8591V273.187ZM25.8183 272.586H30.2576V268.159H25.8183V272.586Z" fill="#EBEBEB"/>
<path d="M51.9236 272.887H46.8828L48.94 270.372L46.8828 267.858H51.9236L53.9687 270.372L51.9236 272.887Z" fill="white"/>
<path d="M52.1046 273.187H46.2939L48.5917 270.372L46.2578 267.617H52.1046L54.3904 270.432L52.1046 273.187ZM47.5571 272.586H51.8159L53.6204 270.372L51.8159 268.159H47.5571L49.3617 270.372L47.5571 272.586Z" fill="#EBEBEB"/>
<path d="M38.9914 267.858L39.8095 269.518L41.6381 269.783L40.3148 271.07L40.6276 272.887L38.9914 272.032L37.3553 272.887L37.6681 271.07L36.3447 269.783L38.1734 269.518L38.9914 267.858Z" fill="white"/>
<path d="M41.0255 273.44L38.9923 272.429L36.9592 273.5L37.3441 271.238L35.708 269.626L37.9818 269.301L38.9923 267.232L40.0149 269.301L42.2887 269.626L40.6405 271.226L41.0255 273.44ZM38.9923 271.683L40.1954 272.333L39.9548 270.962L40.9533 269.987L39.5818 269.783L38.9562 268.58L38.3427 269.783L36.9592 269.987L37.9577 270.962L37.7291 272.333L38.9923 271.683Z" fill="#EBEBEB"/>
<path d="M97.6525 269.35H57.5791V271.395H97.6525V269.35Z" fill="#DBDBDB"/>
<path d="M202.076 269.35H165.696V271.395H202.076V269.35Z" fill="#DBDBDB"/>
<path d="M150.405 269.35H109.887V271.395H150.405V269.35Z" fill="#C7C7C7"/>
<path d="M223.636 278.745H12.417V295.492H223.636V278.745Z" fill="#EBEBEB"/>
<path d="M30.5453 284.604H25.5166V289.633H30.5453V284.604Z" fill="white"/>
<path d="M51.9236 289.633H46.8828L48.94 287.119L46.8828 284.604H51.9236L53.9687 287.119L51.9236 289.633Z" fill="white"/>
<path d="M38.9914 284.604L39.8095 286.264L41.6381 286.529L40.3148 287.816L40.6276 289.633L38.9914 288.779L37.3553 289.633L37.6681 287.816L36.3447 286.529L38.1734 286.264L38.9914 284.604Z" fill="white"/>
<path d="M41.0255 290.186L38.9923 289.115L36.9592 290.186L37.3441 287.912L35.708 286.312L37.9818 285.988L38.9923 283.918L40.0149 285.988L42.2887 286.312L40.6405 287.912L41.0255 290.186ZM38.9923 288.43L40.1954 289.079L39.9548 287.708L40.9533 286.733L39.5818 286.529L38.9562 285.326L38.3427 286.529L36.9592 286.733L37.9577 287.708L37.7291 289.079L38.9923 288.43Z" fill="#EBEBEB"/>
<path d="M97.6525 286.096H57.5791V288.141H97.6525V286.096Z" fill="#DBDBDB"/>
<path d="M202.076 286.096H165.696V288.141H202.076V286.096Z" fill="#DBDBDB"/>
<path d="M150.405 286.096H109.887V288.141H150.405V286.096Z" fill="#C7C7C7"/>
<path d="M30.5453 301.35H25.5166V306.379H30.5453V301.35Z" fill="white"/>
<path d="M30.8591 306.68H25.2168V301.05H30.8591V306.68ZM25.8183 306.079H30.2576V301.651H25.8183V306.079Z" fill="#EBEBEB"/>
<path d="M51.9236 306.379H46.8828L48.94 303.865L46.8828 301.35H51.9236L53.9687 303.865L51.9236 306.379Z" fill="white"/>
<path d="M52.1047 306.68H46.2939L48.5918 303.865L46.2939 301.05H52.1047L54.3904 303.865L52.1047 306.68ZM47.5571 306.079H51.8159L53.6205 303.865L51.8159 301.651H47.5571L49.3617 303.865L47.5571 306.079Z" fill="#EBEBEB"/>
<path d="M38.9914 301.35L39.8095 302.999L41.6381 303.263L40.3148 304.562L40.6276 306.379L38.9914 305.513L37.3553 306.379L37.6681 304.562L36.3447 303.263L38.1734 302.999L38.9914 301.35Z" fill="white"/>
<path d="M41.0255 306.933L38.9923 305.862L36.9592 306.933L37.3441 304.659L35.708 303.059L37.9818 302.734L38.9923 300.665L40.0149 302.734L42.2887 303.059L40.6405 304.659L41.0255 306.933ZM38.9923 305.176L40.1954 305.826L39.9548 304.454L40.9533 303.48L39.5818 303.275L38.9562 302.072L38.3427 303.275L36.9592 303.48L37.9577 304.454L37.7291 305.826L38.9923 305.176Z" fill="#EBEBEB"/>
<path d="M97.6525 302.842H57.5791V304.887H97.6525V302.842Z" fill="#DBDBDB"/>
<path d="M202.076 302.842H165.696V304.887H202.076V302.842Z" fill="#DBDBDB"/>
<path d="M30.5453 318.097H25.5166V323.126H30.5453V318.097Z" fill="white"/>
<path d="M51.9236 323.126H46.8828L48.94 320.611L46.8828 318.097H51.9236L53.9687 320.611L51.9236 323.126Z" fill="white"/>
<path d="M38.9914 318.097L39.8095 319.745L41.6381 320.022L40.3148 321.309L40.6276 323.126L38.9914 322.259L37.3553 323.126L37.6681 321.309L36.3447 320.022L38.1734 319.745L38.9914 318.097Z" fill="white"/>
<path d="M41.0255 323.679L38.9923 322.608L36.9592 323.679L37.3441 321.405L35.708 319.805L37.9818 319.48L38.9923 317.411L40.0149 319.48L42.2887 319.805L40.6405 321.405L41.0255 323.679ZM38.9923 321.923L40.1954 322.572L39.9548 321.201L40.9533 320.226L39.5818 320.022L38.9562 318.819L38.3427 320.022L36.9592 320.226L37.9577 321.201L37.7291 322.572L38.9923 321.923Z" fill="#EBEBEB"/>
<path d="M97.6525 319.589H57.5791V321.634H97.6525V319.589Z" fill="#DBDBDB"/>
<path d="M202.076 319.589H165.696V321.634H202.076V319.589Z" fill="#DBDBDB"/>
<path d="M150.405 319.589H109.887V321.634H150.405V319.589Z" fill="#C7C7C7"/>
<path d="M30.5453 334.843H25.5166V339.872H30.5453V334.843Z" fill="white"/>
<path d="M30.8591 340.173H25.2168V334.542H30.8591V340.173ZM25.8183 339.571H30.2576V335.144H25.8183V339.571Z" fill="#EBEBEB"/>
<path d="M51.9236 339.872H46.8828L48.94 337.358L46.8828 334.843H51.9236L53.9687 337.358L51.9236 339.872Z" fill="white"/>
<path d="M52.1047 340.173H46.2939L48.5918 337.358L46.2939 334.542H52.1047L54.3904 337.358L52.1047 340.173ZM47.5571 339.571H51.8159L53.6205 337.358L51.8159 335.144H47.5571L49.3617 337.358L47.5571 339.571Z" fill="#EBEBEB"/>
<path d="M38.9914 334.843L39.8095 336.492L41.6381 336.756L40.3148 338.055L40.6276 339.872L38.9914 339.006L37.3553 339.872L37.6681 338.055L36.3447 336.756L38.1734 336.492L38.9914 334.843Z" fill="white"/>
<path d="M41.0255 340.413L38.9923 339.355L36.9592 340.413L37.3441 338.152L35.708 336.552L37.9818 336.215L38.9923 334.158L40.0751 336.191L42.3488 336.528L40.7007 338.128L41.0255 340.413ZM38.9923 338.669L40.1954 339.319L39.9548 337.947L40.9533 336.973L39.5818 336.768L38.9562 335.565L38.3427 336.768L36.9592 336.973L37.9577 337.947L37.7291 339.319L38.9923 338.669Z" fill="#EBEBEB"/>
<path d="M97.6525 336.335H57.5791V338.38H97.6525V336.335Z" fill="#DBDBDB"/>
<path d="M202.076 336.335H165.696V338.38H202.076V336.335Z" fill="#DBDBDB"/>
<path d="M150.405 336.335H109.887V338.38H150.405V336.335Z" fill="#C7C7C7"/>
<path d="M30.5453 351.59H25.5166V356.618H30.5453V351.59Z" fill="white"/>
<path d="M51.9236 356.618H46.8828L48.94 354.104L46.8828 351.59H51.9236L53.9687 354.104L51.9236 356.618Z" fill="white"/>
<path d="M38.9914 351.59L39.8095 353.238L41.6381 353.503L40.3148 354.79L40.6276 356.618L38.9914 355.752L37.3553 356.618L37.6681 354.79L36.3447 353.503L38.1734 353.238L38.9914 351.59Z" fill="#FFC727"/>
<path d="M97.6525 353.082H57.5791V355.127H97.6525V353.082Z" fill="#DBDBDB"/>
<path d="M202.076 353.082H165.696V355.127H202.076V353.082Z" fill="#DBDBDB"/>
<path d="M150.405 353.082H109.887V355.127H150.405V353.082Z" fill="#C7C7C7"/>
<path d="M30.5453 368.336H25.5166V373.365H30.5453V368.336Z" fill="white"/>
<path d="M30.8591 373.665H25.2168V368.023H30.8591V373.665ZM25.8183 373.064H30.2576V368.673H25.8183V373.064Z" fill="#EBEBEB"/>
<path d="M51.9236 373.365H46.8828L48.94 370.85L46.8828 368.324H51.9236L53.9687 370.85L51.9236 373.365Z" fill="white"/>
<path d="M52.1047 373.665H46.2939L48.5918 370.85L46.2939 368.023H52.1047L54.3904 370.85L52.1047 373.665ZM47.5571 373.064H51.8159L53.6205 370.85L51.8159 368.625H47.5571L49.3617 370.85L47.5571 373.064Z" fill="#EBEBEB"/>
<path d="M38.9914 368.324L39.8095 369.984L41.6381 370.249L40.3148 371.536L40.6276 373.365L38.9914 372.499L37.3553 373.365L37.6681 371.536L36.3447 370.249L38.1734 369.984L38.9914 368.324Z" fill="white"/>
<path d="M41.0255 373.906L38.9923 372.835L36.9592 373.906L37.3441 371.644L35.708 370.044L37.9818 369.707L38.9923 367.65L40.0149 369.707L42.2887 370.044L40.6405 371.644L41.0255 373.906ZM38.9923 372.162L40.1954 372.811L39.9548 371.44L40.9533 370.465L39.5818 370.261L38.9562 369.058L38.3427 370.261L36.9592 370.465L37.9577 371.44L37.7291 372.811L38.9923 372.162Z" fill="#EBEBEB"/>
<path d="M97.6525 369.828H57.5791V371.873H97.6525V369.828Z" fill="#DBDBDB"/>
<path d="M202.076 369.828H165.696V371.873H202.076V369.828Z" fill="#DBDBDB"/>
<path d="M150.405 369.828H109.887V371.873H150.405V369.828Z" fill="#C7C7C7"/>
<path d="M223.636 379.224H12.417V395.97H223.636V379.224Z" fill="#EBEBEB"/>
<path d="M30.5453 385.071H25.5166V390.099H30.5453V385.071Z" fill="white"/>
<path d="M51.9236 390.111H46.8828L48.94 387.597L46.8828 385.071H51.9236L53.9687 387.597L51.9236 390.111Z" fill="white"/>
<path d="M38.9914 385.071L39.8095 386.731L41.6381 386.995L40.3148 388.283L40.6276 390.111L38.9914 389.245L37.3553 390.111L37.6681 388.283L36.3447 386.995L38.1734 386.731L38.9914 385.071Z" fill="#FFC727"/>
<path d="M97.6525 386.562H57.5791V388.607H97.6525V386.562Z" fill="#DBDBDB"/>
<path d="M202.076 386.562H165.696V388.607H202.076V386.562Z" fill="#DBDBDB"/>
<path d="M30.5453 401.817H25.5166V406.845H30.5453V401.817Z" fill="white"/>
<path d="M30.8591 407.17H25.2168V401.516H30.8591V407.17ZM25.8183 406.569H30.2576V402.118H25.8183V406.569Z" fill="#EBEBEB"/>
<path d="M51.9236 406.857H46.8828L48.94 404.331L46.8828 401.817H51.9236L53.9687 404.331L51.9236 406.857Z" fill="white"/>
<path d="M52.1047 407.171H46.2939L48.5918 404.343L46.2939 401.528H52.1047L54.3904 404.343L52.1047 407.171ZM47.5571 406.569H51.8159L53.6205 404.343L51.8159 402.13H47.5571L49.3617 404.343L47.5571 406.569Z" fill="#EBEBEB"/>
<path d="M38.9914 401.817L39.8095 403.477L41.6381 403.742L40.3148 405.029L40.6276 406.857L38.9914 405.991L37.3553 406.857L37.6681 405.029L36.3447 403.742L38.1734 403.477L38.9914 401.817Z" fill="white"/>
<path d="M41.0255 407.399L38.9923 406.328L36.9592 407.399L37.3441 405.137L35.708 403.561L37.9818 403.224L38.9923 401.167L40.0149 403.224L42.2887 403.561L40.6405 405.161L41.0255 407.399ZM38.9923 405.654L40.1954 406.304L39.9548 404.921L40.9533 403.958L39.5818 403.754L38.9562 402.551L38.3427 403.754L36.9592 403.958L37.9577 404.921L37.7291 406.304L38.9923 405.654Z" fill="#EBEBEB"/>
<path d="M97.6525 403.308H57.5791V405.354H97.6525V403.308Z" fill="#DBDBDB"/>
<path d="M202.076 403.308H165.696V405.354H202.076V403.308Z" fill="#DBDBDB"/>
<path d="M223.599 412.704C223.512 416.2 222.475 419.605 220.6 422.555C218.724 425.506 216.08 427.89 212.952 429.451H23.0994C19.9622 427.896 17.3085 425.515 15.4239 422.564C13.5394 419.614 12.4954 416.205 12.4043 412.704H223.599Z" fill="#EBEBEB"/>
<path d="M30.5453 418.563H25.5166V423.592H30.5453V418.563Z" fill="white"/>
<path d="M51.9236 423.592H46.8828L48.94 421.078L46.8828 418.563H51.9236L53.9687 421.078L51.9236 423.592Z" fill="white"/>
<path d="M38.9914 418.563L39.8095 420.223L41.6381 420.488L40.3148 421.775L40.6276 423.592L38.9914 422.738L37.3553 423.592L37.6681 421.775L36.3447 420.488L38.1734 420.223L38.9914 418.563Z" fill="#FFC727"/>
<path d="M97.6525 420.055H57.5791V422.1H97.6525V420.055Z" fill="#DBDBDB"/>
<path d="M202.076 420.055H165.696V422.1H202.076V420.055Z" fill="#DBDBDB"/>
</svg>
