<svg width="120" height="128" viewBox="0 0 120 128" fill="none" xmlns="http://www.w3.org/2000/svg">
<path d="M28.7031 0.652087C31.6397 1.30553 34.4693 2.37089 37.1076 3.81654C39.634 5.17466 41.8981 6.97213 43.7938 9.12464C45.6076 11.1952 46.9538 13.6324 47.7408 16.2702C48.5437 19.0937 48.6023 22.077 47.911 24.9299C47.4547 27.1918 46.5587 29.3421 45.2739 31.2588C44.1009 32.8978 42.7035 34.3639 41.1227 35.6141C39.5702 36.8196 37.9134 37.8843 36.1719 38.7956L31.2721 41.3986C29.7961 42.1684 28.3949 43.074 27.0868 44.1037C25.9034 45.0115 24.9962 46.231 24.4668 47.6254C24.2076 48.2625 23.7779 48.8158 23.2249 49.2247C22.9632 49.428 22.6587 49.5689 22.3344 49.6367C22.0101 49.7045 21.6746 49.6974 21.3534 49.616L14.1398 48.0167C13.7925 47.9439 13.4631 47.8026 13.171 47.601C12.8789 47.3995 12.6299 47.1417 12.4385 46.8428C12.2349 46.565 12.0995 46.2431 12.0433 45.9032C11.9872 45.5633 12.0118 45.2149 12.1153 44.8863C12.6961 42.6523 13.7201 40.5579 15.1266 38.7276C16.4098 37.1085 17.8966 35.6618 19.55 34.4232C21.161 33.244 22.8683 32.2026 24.654 31.3098C26.3553 30.4421 28.0566 29.6085 29.5367 28.7748C30.9136 28.0348 32.2082 27.1508 33.3987 26.1378C34.4433 25.2633 35.1675 24.0663 35.4573 22.7352C35.728 21.5793 35.7146 20.375 35.4183 19.2254C35.122 18.0759 34.5516 17.0152 33.756 16.1341C31.7667 13.962 29.1074 12.5186 26.2022 12.0339C20.826 10.843 16.2892 12.652 12.5916 17.4611C12.2347 17.986 11.785 18.4415 11.2646 18.8051C10.6773 19.0962 9.99915 19.1451 9.37616 18.9412L1.7032 17.2399C1.15591 17.1342 0.672715 16.8161 0.359174 16.3552C0.191751 16.109 0.0792563 15.8296 0.0293521 15.5361C-0.0205521 15.2425 -0.00669402 14.9417 0.0699536 14.6539C0.722061 12.2899 1.93614 10.1185 3.60869 8.32503C5.49496 6.24509 7.73584 4.51691 10.2268 3.22108C12.9505 1.79605 15.886 0.819441 18.9205 0.328839C22.1714 -0.199947 25.4942 -0.0901534 28.7031 0.652087ZM20.5538 55.4005C21.2287 55.5589 21.8148 55.9751 22.1868 56.5601C22.5588 57.1451 22.6871 57.8525 22.5443 58.5309L20.7069 66.8673C20.6447 67.2164 20.5095 67.5484 20.3102 67.8415C20.1108 68.1347 19.8518 68.3825 19.55 68.5686C19.2653 68.765 18.9426 68.8997 18.6028 68.9642C18.2629 69.0286 17.9134 69.0214 17.5765 68.9429L9.34212 67.0545C8.99199 66.9954 8.65871 66.8615 8.36509 66.6618C8.07147 66.4622 7.82442 66.2015 7.64081 65.8976C7.45015 65.6102 7.32013 65.287 7.2587 64.9476C7.19727 64.6083 7.2057 64.26 7.28352 63.9241L9.13797 55.5876C9.29661 54.9118 9.71208 54.3243 10.2964 53.9496C10.8807 53.5748 11.588 53.4423 12.2684 53.58L20.5538 55.4005Z" fill="#DD0000"/>
<path d="M37.7884 80.4608C39.8369 80.1322 41.9214 80.0921 43.9811 80.3417C45.9486 80.5756 47.8601 81.1513 49.6295 82.043C51.3146 82.9172 52.7981 84.1342 53.9849 85.6158C55.0519 87.0658 55.803 88.7234 56.1898 90.4817C56.5766 92.2399 56.5905 94.0597 56.2306 95.8237C55.9064 97.1799 55.3848 98.4811 54.6824 99.6857C54.0055 100.857 53.2194 101.962 52.3346 102.986C51.4669 104.007 50.6333 104.977 49.8677 105.912C49.1183 106.784 48.4519 107.724 47.8771 108.72C47.338 109.592 47.066 110.604 47.0946 111.629C47.0796 112.108 46.9451 112.576 46.7032 112.99C46.5802 113.181 46.418 113.343 46.2273 113.466C46.0366 113.59 45.8219 113.671 45.5974 113.705L40.4934 114.521C40.2549 114.564 40.0102 114.56 39.7735 114.507C39.5369 114.454 39.3131 114.355 39.1154 114.215C38.9144 114.089 38.7463 113.916 38.625 113.712C38.5037 113.508 38.4327 113.278 38.4178 113.041C38.204 111.458 38.3198 109.848 38.7581 108.311C39.1582 106.951 39.7299 105.648 40.4594 104.432C41.1748 103.266 41.9949 102.167 42.9093 101.149C43.811 100.128 44.6106 99.1753 45.3932 98.2566C46.0919 97.4361 46.6968 96.5402 47.1966 95.5855C47.6394 94.7638 47.8008 93.8196 47.656 92.8974C47.528 92.0858 47.206 91.317 46.7173 90.6565C46.2285 89.996 45.5876 89.4632 44.8488 89.1035C43.0199 88.2199 40.9494 87.9686 38.9623 88.3889C37.163 88.652 35.4891 89.4653 34.1703 90.7171C32.8514 91.969 31.952 93.5982 31.5956 95.3813C31.4959 95.8102 31.3232 96.2188 31.0852 96.5893C30.7816 96.9122 30.3698 97.1121 29.9283 97.1507L24.5521 98.0184C24.1742 98.0907 23.783 98.0112 23.4633 97.7972C23.2995 97.6846 23.1616 97.5384 23.0589 97.3682C22.9562 97.198 22.891 97.0079 22.8678 96.8105C22.7078 95.1222 22.9709 93.4207 23.6334 91.8596C24.3062 90.0431 25.2971 88.3609 26.5597 86.8918C27.9435 85.2831 29.5745 83.9048 31.3914 82.8086C33.3518 81.6197 35.5243 80.8224 37.7884 80.4608ZM46.5672 117.635C46.8014 117.597 47.0407 117.607 47.2713 117.662C47.502 117.718 47.7194 117.818 47.9112 117.958C48.1117 118.09 48.282 118.262 48.411 118.465C48.5401 118.667 48.6248 118.894 48.6597 119.132L49.6125 124.967C49.6863 125.441 49.5705 125.924 49.2902 126.313C49.0099 126.701 48.5878 126.963 48.1154 127.043L42.4159 127.979C41.9429 128.052 41.46 127.936 41.0719 127.655C40.8745 127.522 40.7074 127.348 40.5814 127.146C40.4554 126.944 40.3733 126.717 40.3403 126.481L39.3876 120.646C39.3444 120.412 39.3509 120.171 39.4065 119.94C39.4622 119.708 39.5659 119.491 39.7109 119.302C39.8444 119.104 40.0179 118.937 40.2201 118.811C40.4223 118.685 40.6487 118.603 40.8847 118.57L46.5672 117.635Z" fill="#DD0000"/>
<g opacity="0.2">
<path d="M37.7884 80.4608C39.8369 80.1322 41.9214 80.0921 43.9811 80.3417C45.9486 80.5756 47.8601 81.1513 49.6295 82.043C51.3146 82.9172 52.7981 84.1342 53.9849 85.6158C55.0519 87.0658 55.803 88.7234 56.1898 90.4817C56.5766 92.2399 56.5905 94.0597 56.2306 95.8237C55.9064 97.1799 55.3848 98.4811 54.6824 99.6857C54.0055 100.857 53.2194 101.962 52.3346 102.986C51.4669 104.007 50.6333 104.977 49.8677 105.912C49.1183 106.784 48.4519 107.724 47.8771 108.72C47.338 109.592 47.066 110.604 47.0946 111.629C47.0796 112.108 46.9451 112.576 46.7032 112.99C46.5802 113.181 46.418 113.343 46.2273 113.466C46.0366 113.59 45.8219 113.671 45.5974 113.705L40.4934 114.521C40.2549 114.564 40.0102 114.56 39.7735 114.507C39.5369 114.454 39.3131 114.355 39.1154 114.215C38.9144 114.089 38.7463 113.916 38.625 113.712C38.5037 113.508 38.4327 113.278 38.4178 113.041C38.204 111.458 38.3198 109.848 38.7581 108.311C39.1582 106.951 39.7299 105.648 40.4594 104.432C41.1748 103.266 41.9949 102.167 42.9093 101.149C43.811 100.128 44.6106 99.1753 45.3932 98.2566C46.0919 97.4361 46.6968 96.5402 47.1966 95.5855C47.6394 94.7638 47.8008 93.8196 47.656 92.8974C47.528 92.0858 47.206 91.317 46.7173 90.6565C46.2285 89.996 45.5876 89.4632 44.8488 89.1035C43.0199 88.2199 40.9494 87.9686 38.9623 88.3889C37.163 88.652 35.4891 89.4653 34.1703 90.7171C32.8514 91.969 31.952 93.5982 31.5956 95.3813C31.4959 95.8102 31.3232 96.2188 31.0852 96.5893C30.7816 96.9122 30.3698 97.1121 29.9283 97.1507L24.5521 98.0184C24.1742 98.0907 23.783 98.0112 23.4633 97.7972C23.2995 97.6846 23.1616 97.5384 23.0589 97.3682C22.9562 97.198 22.891 97.0079 22.8678 96.8105C22.7078 95.1222 22.9709 93.4207 23.6334 91.8596C24.3062 90.0431 25.2971 88.3609 26.5597 86.8918C27.9435 85.2831 29.5745 83.9048 31.3914 82.8086C33.3518 81.6197 35.5243 80.8224 37.7884 80.4608ZM46.5672 117.635C46.8014 117.597 47.0407 117.607 47.2713 117.662C47.502 117.718 47.7194 117.818 47.9112 117.958C48.1117 118.09 48.282 118.262 48.411 118.465C48.5401 118.667 48.6248 118.894 48.6597 119.132L49.6125 124.967C49.6863 125.441 49.5705 125.924 49.2902 126.313C49.0099 126.701 48.5878 126.963 48.1154 127.043L42.4159 127.979C41.9429 128.052 41.46 127.936 41.0719 127.655C40.8745 127.522 40.7074 127.348 40.5814 127.146C40.4554 126.944 40.3733 126.717 40.3403 126.481L39.3876 120.646C39.3444 120.412 39.3509 120.171 39.4065 119.94C39.4622 119.708 39.5659 119.491 39.7109 119.302C39.8444 119.104 40.0179 118.937 40.2201 118.811C40.4223 118.685 40.6487 118.603 40.8847 118.57L46.5672 117.635Z" fill="black"/>
</g>
<path d="M85.9014 89.6309C86.1333 89.7922 86.3299 89.9991 86.4791 90.239C86.6283 90.4788 86.727 90.7467 86.7691 91.026C86.8232 91.3028 86.8194 91.5878 86.7579 91.863C86.6964 92.1383 86.5786 92.3978 86.4118 92.6252L82.3627 98.3246C82.2014 98.5566 81.9945 98.7532 81.7546 98.9024C81.5148 99.0516 81.2469 99.1502 80.9676 99.1923C80.6908 99.2464 80.4058 99.2427 80.1305 99.1812C79.8553 99.1197 79.5958 99.0018 79.3683 98.835L73.788 94.871C73.5556 94.7118 73.3596 94.5052 73.213 94.2647C73.0663 94.0242 72.9724 93.7554 72.9374 93.4759C72.8832 93.1991 72.887 92.9141 72.9485 92.6389C73.01 92.3636 73.1279 92.1041 73.2946 91.8767L77.3948 86.1772C77.7264 85.7153 78.2266 85.4026 78.7872 85.3071C79.3477 85.2116 79.9233 85.3408 80.3891 85.6668L85.9014 89.6309ZM109.448 51.028C111.482 52.454 113.294 54.1741 114.824 56.132C116.316 57.9533 117.468 60.0278 118.226 62.2567C118.933 64.3927 119.17 66.6557 118.924 68.8919C118.636 71.2765 117.733 73.5452 116.304 75.476C115.242 77.0371 113.877 78.3679 112.289 79.389C110.891 80.2651 109.372 80.9301 107.78 81.3625C106.23 81.7678 104.647 82.041 103.051 82.1791L98.5252 82.5875C97.1682 82.6959 95.8241 82.9294 94.5101 83.285C93.2979 83.5602 92.1888 84.1738 91.3116 85.0544C90.9156 85.4568 90.4145 85.7397 89.8654 85.871C89.6043 85.9459 89.329 85.9572 89.0627 85.9039C88.7963 85.8507 88.5465 85.7344 88.3343 85.5648L83.4005 82.0601C82.929 81.7233 82.6059 81.2174 82.4988 80.648C82.4352 80.372 82.4375 80.085 82.5055 79.8101C82.5734 79.5352 82.7052 79.2802 82.8901 79.0657C84.0426 77.5702 85.483 76.3207 87.1263 75.3909C88.606 74.5829 90.1844 73.971 91.822 73.5705C93.4026 73.187 95.0136 72.9422 96.6367 72.8389C98.2359 72.7368 99.7331 72.6178 101.128 72.4816C102.405 72.3689 103.666 72.1179 104.888 71.7331C105.957 71.377 106.878 70.6771 107.508 69.7425C108.077 68.9534 108.446 68.0386 108.586 67.0759C108.725 66.1132 108.63 65.1312 108.308 64.2132C107.503 61.9457 105.964 60.0117 103.935 58.718C100.261 56.098 96.2511 56.0129 91.907 58.4628C91.4699 58.7411 90.9856 58.9371 90.4779 59.0412C90.2136 59.0597 89.9482 59.0255 89.6971 58.9408C89.4459 58.8562 89.214 58.7226 89.0148 58.5479L83.7748 54.822C83.585 54.696 83.4225 54.5332 83.2968 54.3433C83.1712 54.1533 83.0849 53.94 83.0432 53.7161C83.0025 53.4846 83.0101 53.2472 83.0658 53.0188C83.1214 52.7904 83.2238 52.576 83.3665 52.3891C84.6028 50.805 86.2095 49.5489 88.0451 48.7313C90.1304 47.7865 92.364 47.2109 94.6462 47.03C97.1572 46.8201 99.6857 47.0212 102.132 47.6254C104.773 48.2617 107.26 49.4185 109.448 51.028Z" fill="#DD0000"/>
<g opacity="0.6">
<path d="M85.9014 89.6309C86.1333 89.7922 86.3299 89.9991 86.4791 90.239C86.6283 90.4788 86.727 90.7467 86.7691 91.026C86.8232 91.3028 86.8194 91.5878 86.7579 91.863C86.6964 92.1383 86.5786 92.3978 86.4118 92.6252L82.3627 98.3246C82.2014 98.5566 81.9945 98.7532 81.7546 98.9024C81.5148 99.0516 81.2469 99.1502 80.9676 99.1923C80.6908 99.2464 80.4058 99.2427 80.1305 99.1812C79.8553 99.1197 79.5958 99.0018 79.3683 98.835L73.788 94.871C73.5556 94.7118 73.3596 94.5052 73.213 94.2647C73.0663 94.0242 72.9724 93.7554 72.9374 93.4759C72.8832 93.1991 72.887 92.9141 72.9485 92.6389C73.01 92.3636 73.1279 92.1041 73.2946 91.8767L77.3948 86.1772C77.7264 85.7153 78.2266 85.4026 78.7872 85.3071C79.3477 85.2116 79.9233 85.3408 80.3891 85.6668L85.9014 89.6309ZM109.448 51.028C111.482 52.454 113.294 54.1741 114.824 56.132C116.316 57.9533 117.468 60.0278 118.226 62.2567C118.933 64.3927 119.17 66.6557 118.924 68.8919C118.636 71.2765 117.733 73.5452 116.304 75.476C115.242 77.0371 113.877 78.3679 112.289 79.389C110.891 80.2651 109.372 80.9301 107.78 81.3625C106.23 81.7678 104.647 82.041 103.051 82.1791L98.5252 82.5875C97.1682 82.6959 95.8241 82.9294 94.5101 83.285C93.2979 83.5602 92.1888 84.1738 91.3116 85.0544C90.9156 85.4568 90.4145 85.7397 89.8654 85.871C89.6043 85.9459 89.329 85.9572 89.0627 85.9039C88.7963 85.8507 88.5465 85.7344 88.3343 85.5648L83.4005 82.0601C82.929 81.7233 82.6059 81.2174 82.4988 80.648C82.4352 80.372 82.4375 80.085 82.5055 79.8101C82.5734 79.5352 82.7052 79.2802 82.8901 79.0657C84.0426 77.5702 85.483 76.3207 87.1263 75.3909C88.606 74.5829 90.1844 73.971 91.822 73.5705C93.4026 73.187 95.0136 72.9422 96.6367 72.8389C98.2359 72.7368 99.7331 72.6178 101.128 72.4816C102.405 72.3689 103.666 72.1179 104.888 71.7331C105.957 71.377 106.878 70.6771 107.508 69.7425C108.077 68.9534 108.446 68.0386 108.586 67.0759C108.725 66.1132 108.63 65.1312 108.308 64.2132C107.503 61.9457 105.964 60.0117 103.935 58.718C100.261 56.098 96.2511 56.0129 91.907 58.4628C91.4699 58.7411 90.9856 58.9371 90.4779 59.0412C90.2136 59.0597 89.9482 59.0255 89.6971 58.9408C89.4459 58.8562 89.214 58.7226 89.0148 58.5479L83.7748 54.822C83.585 54.696 83.4225 54.5332 83.2968 54.3433C83.1712 54.1533 83.0849 53.94 83.0432 53.7161C83.0025 53.4846 83.0101 53.2472 83.0658 53.0188C83.1214 52.7904 83.2238 52.576 83.3665 52.3891C84.6028 50.805 86.2095 49.5489 88.0451 48.7313C90.1304 47.7865 92.364 47.2109 94.6462 47.03C97.1572 46.8201 99.6857 47.0212 102.132 47.6254C104.773 48.2617 107.26 49.4185 109.448 51.028Z" fill="white"/>
</g>
</svg>
