<svg width="153" height="108" viewBox="0 0 153 108" fill="none" xmlns="http://www.w3.org/2000/svg">
<path d="M90.8973 78.7283C125.011 78.7283 152.665 61.1044 152.665 39.3641C152.665 17.6239 125.011 0 90.8973 0C56.7841 0 29.1299 17.6239 29.1299 39.3641C29.1299 61.1044 56.7841 78.7283 90.8973 78.7283Z" fill="#FFD736"/>
<path d="M68.6133 59.1832C64.5443 59.17 60.61 57.7233 57.5019 55.0972C54.3937 52.471 52.3105 48.8335 51.6183 44.8238C50.9375 40.4805 51.9172 36.0401 54.3624 32.3865C56.8076 28.733 60.539 26.1342 64.8138 25.1075C68.3218 24.2992 71.9949 24.6107 75.3166 25.9984C78.6383 27.386 81.4416 29.7799 83.3321 32.8434L122.987 24.6625C124.511 24.3287 126.105 24.5822 127.45 25.3722C128.795 26.1622 129.793 27.4306 130.244 28.9241C130.451 29.7093 130.497 30.5286 130.377 31.3319C130.257 32.1351 129.974 32.9055 129.547 33.5959C129.119 34.2864 128.555 34.8823 127.889 35.3473C127.223 35.8124 126.47 36.1367 125.674 36.3006L124.647 36.506C124.495 36.5334 124.351 36.5954 124.226 36.6874C124.101 36.7794 124 36.8989 123.928 37.0365C123.865 37.1763 123.832 37.3281 123.832 37.4815C123.832 37.635 123.865 37.7867 123.928 37.9265L124.63 39.7407C124.865 40.3287 124.888 40.9804 124.694 41.5833C124.501 42.1863 124.103 42.7028 123.569 43.0439C123.148 43.3038 122.793 43.6563 122.529 44.0744C122.265 44.4926 122.1 44.9655 122.046 45.457C121.995 46.0212 121.768 46.5551 121.396 46.9823C121.024 47.4096 120.527 47.7084 119.975 47.836L119.171 48.0072C118.613 48.1102 118.037 48.033 117.526 47.7869C117.015 47.5407 116.596 47.1383 116.329 46.638C115.974 46.041 115.442 45.5698 114.806 45.29C114.17 45.0102 113.463 44.9358 112.783 45.0771C112.103 45.2184 111.483 45.5683 111.012 46.0783C110.54 46.5882 110.239 47.2325 110.151 47.9216C110.103 48.4822 109.879 49.0131 109.51 49.4377C109.14 49.8622 108.646 50.1584 108.097 50.2834L107.293 50.4546C106.735 50.5549 106.161 50.4765 105.65 50.2306C105.14 49.9848 104.721 49.5839 104.452 49.0854C104.195 48.6609 103.85 48.2972 103.439 48.0194C103.028 47.7417 102.562 47.5564 102.073 47.4766C101.415 47.3974 100.808 47.0807 100.367 46.586C99.9257 46.0912 99.6803 45.4524 99.6767 44.7896V42.8385C99.6698 42.6858 99.63 42.5365 99.56 42.4007C99.49 42.2649 99.3915 42.1458 99.2713 42.0515C99.151 41.9572 99.0119 41.8901 98.8632 41.8546C98.7146 41.8191 98.5601 41.8161 98.4103 41.8458L85.7624 44.4473C85.2464 47.9513 83.6635 51.2113 81.229 53.7837C78.7944 56.356 75.6264 58.1159 72.1561 58.8237C70.9902 59.0621 69.8033 59.1825 68.6133 59.1832ZM65.1903 26.665C61.3084 27.5717 57.9143 29.9156 55.6913 33.2246C53.4683 36.5337 52.5817 40.562 53.2099 44.4986C53.883 48.161 55.8446 51.4615 58.7398 53.8032C61.6351 56.1448 65.2728 57.373 68.9949 57.2655C72.7171 57.1579 76.2779 55.7218 79.0331 53.2169C81.7883 50.712 83.5561 47.3037 84.0167 43.6086V42.9925L97.9652 40.1686C98.3654 40.0718 98.782 40.0653 99.185 40.1496C99.5879 40.2339 99.9671 40.4069 100.295 40.656C100.623 40.9051 100.891 41.2241 101.08 41.5897C101.269 41.9554 101.374 42.3586 101.388 42.77V44.7211C101.392 44.9534 101.476 45.1773 101.625 45.355C101.775 45.5327 101.981 45.6534 102.21 45.6967C102.958 45.8038 103.672 46.0799 104.298 46.5039C104.923 46.928 105.444 47.4889 105.821 48.1441C105.912 48.3288 106.058 48.4807 106.239 48.5788C106.419 48.6769 106.626 48.7164 106.831 48.6918L107.618 48.5206C107.818 48.4693 107.995 48.3549 108.125 48.1946C108.254 48.0343 108.329 47.8365 108.337 47.6306C108.445 46.5652 108.889 45.5617 109.604 44.765C110.32 43.9684 111.27 43.42 112.318 43.199C113.366 42.978 114.457 43.0959 115.433 43.5356C116.41 43.9754 117.221 44.7142 117.75 45.6453C117.838 45.8286 117.981 45.98 118.159 46.0781C118.337 46.1763 118.541 46.2165 118.743 46.193L119.564 46.0218C119.761 45.9674 119.934 45.8517 120.061 45.6917C120.187 45.5316 120.259 45.3355 120.266 45.1319C120.351 44.3804 120.606 43.6583 121.012 43.0206C121.419 42.3828 121.965 41.8464 122.611 41.4522C122.799 41.3161 122.937 41.121 123.002 40.8978C123.067 40.6746 123.056 40.436 122.97 40.2199L122.268 38.4057C122.123 38.0317 122.062 37.6306 122.088 37.2302C122.114 36.8299 122.227 36.4401 122.419 36.0881C122.611 35.736 122.878 35.4302 123.201 35.192C123.524 34.9538 123.895 34.7889 124.288 34.7089L125.332 34.4864C125.897 34.366 126.432 34.1328 126.905 33.8008C127.377 33.4688 127.778 33.0449 128.084 32.5544C128.389 32.0638 128.592 31.5168 128.681 30.946C128.77 30.3752 128.742 29.7923 128.601 29.2322C128.267 28.1551 127.538 27.2442 126.56 26.6823C125.582 26.1205 124.428 25.9492 123.329 26.2028L82.5619 34.6747L82.2538 34.1441C80.6158 31.2282 78.0732 28.9247 75.0103 27.5816C71.9473 26.2384 68.5304 25.9287 65.2759 26.6992L65.1903 26.665ZM68.6133 52.8164C66.4873 52.8401 64.4003 52.2455 62.606 51.105C60.4837 49.7116 58.9103 47.6253 58.1541 45.2018C57.3979 42.7782 57.5057 40.1674 58.4591 37.8144C59.4125 35.4614 61.1524 33.5119 63.3824 32.2982C65.6123 31.0845 68.1941 30.6819 70.6877 31.1588C73.1813 31.6358 75.4324 32.9628 77.057 34.9137C78.6817 36.8646 79.5794 39.3186 79.5971 41.8574C79.6149 44.3961 78.7515 46.8625 77.1543 48.8359C75.5571 50.8094 73.3249 52.1677 70.8382 52.6795C70.11 52.8114 69.3702 52.8687 68.6304 52.8507L68.6133 52.8164ZM68.6133 32.6038C67.9756 32.6074 67.3396 32.6705 66.7135 32.7921C65.5212 33.046 64.3906 33.5324 63.3862 34.2233C62.3818 34.9142 61.5234 35.7962 60.8599 36.8189C60.1963 37.8416 59.7408 38.9849 59.5191 40.1837C59.2975 41.3825 59.3141 42.6131 59.5681 43.8055C59.8221 44.9978 60.3084 46.1284 60.9993 47.1328C61.6902 48.1372 62.5722 48.9956 63.5949 49.6591C64.6176 50.3227 65.761 50.7782 66.9597 50.9999C68.1585 51.2215 69.3892 51.2049 70.5815 50.9509C72.3714 50.5783 74.011 49.6841 75.2935 48.3811C76.5759 47.078 77.4439 45.4245 77.788 43.6288C78.1321 41.8332 77.937 39.9759 77.2271 38.2911C76.5172 36.6062 75.3244 35.1692 73.7991 34.1613C72.2839 33.1536 70.5014 32.623 68.6818 32.638L68.6133 32.6038Z" fill="white"/>
<path opacity="0.6" d="M40.6302 101.816C51.8406 101.816 60.9284 96.0233 60.9284 88.8774C60.9284 81.7315 51.8406 75.9385 40.6302 75.9385C29.4198 75.9385 20.332 81.7315 20.332 88.8774C20.332 96.0233 29.4198 101.816 40.6302 101.816Z" fill="#FFD736"/>
<path opacity="0.3" d="M8.33492 107.122C12.9382 107.122 16.6698 104.746 16.6698 101.816C16.6698 98.886 12.9382 96.5106 8.33492 96.5106C3.73167 96.5106 0 98.886 0 101.816C0 104.746 3.73167 107.122 8.33492 107.122Z" fill="#FFD736"/>
</svg>
