<svg width="55" height="57" viewBox="0 0 55 57" fill="none" xmlns="http://www.w3.org/2000/svg">
<path d="M23.4226 44.5862V40.3958H25.516V38.2878H23.43C23.43 37.5875 23.43 36.8836 23.43 36.1834H27.6277V34.09H29.7248V36.1724H31.8291V31.9636H38.1349V34.057H40.221V31.9636H38.1276V29.8519H33.9225V25.6798H27.613V27.7769H23.43V31.982H25.5123V34.079H23.419V36.1797H21.3219V34.0754H15.0198V31.982H21.3219V15.1616H23.43C23.43 17.1853 23.43 19.2091 23.43 21.2328V21.4601H25.5307V17.2697H27.624V21.4674H29.7358V23.5608H40.243V25.6578H42.3474V27.7732H40.254V29.8813H42.34V34.09H44.4481V38.2914H42.362V42.4855H44.4187V44.5862H48.6165V46.6833H42.34V50.8811H40.243V48.784H36.0269V46.6833H33.9299V44.5862H38.1129V42.4855H27.6314V44.5752H23.4226V44.5862ZM36.0269 38.2805V36.1907H33.9409V38.2768H36.0342V40.3702H40.221V38.2805H36.0269ZM31.8181 38.2805H29.7541V40.3592H31.8328L31.8181 38.2805ZM36.0379 27.7476H38.1166V25.6652H36.0379V27.7476Z" fill="#EFE8E8"/>
<path d="M4.50806 21.4526V6.75861H19.1984V21.4526H4.50806ZM6.6161 8.86665V19.3555H17.1013V8.86665H6.6161Z" fill="#EFE8E8"/>
<path d="M48.6285 21.4565H33.9382V6.76617H48.6285V21.4565ZM46.5315 8.86688H36.0463V19.3521H46.5315V8.86688Z" fill="#EFE8E8"/>
<path d="M4.51465 36.1834H19.2086V50.8774H4.51465V36.1834ZM17.1079 38.2915H6.61903V48.7803H17.1079V38.2915Z" fill="#EFE8E8"/>
<path d="M23.423 15.1618V10.9567H21.3259V6.76257H31.8148V10.9493H29.7581V13.0537H31.8368V17.2478H29.7434V15.1618H27.6317V13.0647H25.5347V15.1544H23.4193L23.423 15.1618ZM25.531 10.942H27.6134V8.86695H25.531V10.942Z" fill="#EFE8E8"/>
<path d="M15.0094 25.665V27.7657H19.2072V29.8627H12.9124V34.0642H4.51685V29.8847H6.59556V31.9634H10.8116V25.665H15.0131H15.0094Z" fill="#EFE8E8"/>
<path d="M23.4193 44.5828V46.6835H25.52V48.7805H27.6134V50.8812H21.3259V44.5864H23.412L23.4193 44.5828Z" fill="#EFE8E8"/>
<path d="M10.8116 25.6653H6.61022V27.7586H4.51685V23.5792H10.8043V25.6689L10.8116 25.6653Z" fill="#EFE8E8"/>
<path d="M48.6294 29.8627H46.547V25.6723H44.45V23.5753H48.6294V29.8627Z" fill="#EFE8E8"/>
<path d="M15.0125 25.6726V23.5792H19.2029V25.6653H15.0088L15.0125 25.6726Z" fill="#EFE8E8"/>
<path d="M44.4412 34.0792V31.9858H46.5272V34.0719H44.4192L44.4412 34.0792Z" fill="#EFE8E8"/>
<path d="M46.5505 36.1869H48.6293V38.2692H46.5505V36.1869Z" fill="#EFE8E8"/>
<path d="M29.7232 21.4676V19.3742H31.8129V21.4603H29.7195L29.7232 21.4676Z" fill="#EFE8E8"/>
<path d="M23.4266 40.3958H21.3259V38.2987H23.412V40.3958H23.4266Z" fill="#EFE8E8"/>
<path d="M44.4412 42.4856V40.3959H46.5272V42.4819H44.4412V42.4856Z" fill="#EFE8E8"/>
<path d="M42.3362 27.7733H44.4222V29.8703H42.3362V27.7623V27.7733Z" fill="#EFE8E8"/>
<path d="M31.8172 48.7803H29.7349V46.7016H31.8172V48.7803Z" fill="#EFE8E8"/>
<path d="M36.0265 48.7842V50.8776H33.9404V48.7915H36.0338L36.0265 48.7842Z" fill="#EFE8E8"/>
<path d="M48.6293 50.8846H46.5505V48.8022H48.6293V50.8846Z" fill="#EFE8E8"/>
<path d="M31.8297 31.9637H29.7546V29.8777H31.8444V31.9637H31.8297Z" fill="#EFE8E8"/>
<path d="M14.9996 17.2513H8.71582V10.9675H14.9996V17.2513Z" fill="#EFE8E8"/>
<path d="M38.1394 17.2477V10.9639H44.4195V17.2477H38.1394Z" fill="#EFE8E8"/>
<path d="M8.71582 46.676V40.3959H14.9996V46.6797L8.71582 46.676Z" fill="#EFE8E8"/>
<path d="M10.6142 1.78015H1.41211V11.9318" fill="#EFE8E8"/>
<path d="M10.6142 1.78015H1.41211V11.9318" stroke="#92E3A9" stroke-width="2" stroke-miterlimit="10"/>
<path d="M44.0786 1.78015H53.277V11.9318" fill="#EFE8E8"/>
<path d="M44.0786 1.78015H53.277V11.9318" stroke="#92E3A9" stroke-width="2" stroke-miterlimit="10"/>
<path d="M10.6142 55.2401H1.41211V45.0885" fill="#EFE8E8"/>
<path d="M10.6142 55.2401H1.41211V45.0885" stroke="#92E3A9" stroke-width="2" stroke-miterlimit="10"/>
<path d="M44.0786 55.2401H53.277V45.0885" fill="#EFE8E8"/>
<path d="M44.0786 55.2401H53.277V45.0885" stroke="#92E3A9" stroke-width="2" stroke-miterlimit="10"/>
</svg>
