<svg width="183" height="183" viewBox="0 0 183 183" fill="none" xmlns="http://www.w3.org/2000/svg">
<path d="M78.5834 156.157V138.912H87.1982V130.237H78.6136C78.6136 127.355 78.6136 124.459 78.6136 121.577H95.8883V112.962H104.518V121.532H113.178V104.212H139.128V112.827H147.713V104.212H139.098V95.5216H121.793V78.3525H95.828V86.9823H78.6136V104.287H87.1831V112.917H78.5683V121.562H69.9385V112.902H44.0038V104.287H69.9385V35.0676H78.6136C78.6136 43.3957 78.6136 51.7238 78.6136 60.0519V60.9873H87.2585V43.7427H95.8732V61.0174H104.563V69.6322H147.803V78.262H156.463V86.9673H147.848V95.6423H156.433V112.962H165.108V130.252H156.523V147.512H164.987V156.157H182.262V164.786H156.433V182.061H147.803V173.431H130.453V164.786H121.823V156.157H139.037V147.512H95.9034V156.111H78.5834V156.157ZM130.453 130.207V121.607H121.868V130.192H130.483V138.807H147.713V130.207H130.453ZM113.133 130.207H104.639V138.761H113.193L113.133 130.207ZM130.498 86.8616H139.053V78.2922H130.498V86.8616Z" fill="#EFE8E8"/>
<path d="M0.748047 60.9571V0.488037H61.2021V60.9571H0.748047ZM9.42313 9.16312V52.3273H52.5722V9.16312H9.42313Z" fill="#EFE8E8"/>
<path d="M182.308 60.9722H121.854V0.51825H182.308V60.9722ZM173.678 9.16315H130.529V52.3123H173.678V9.16315Z" fill="#EFE8E8"/>
<path d="M0.765503 121.578H61.2346V182.047H0.765503V121.578ZM52.5897 130.253H9.42551V173.417H52.5897V130.253Z" fill="#EFE8E8"/>
<path d="M78.5681 35.0678V17.7629H69.9382V0.503235H113.102V17.7327H104.639V26.3927H113.193V43.6524H104.578V35.0678H95.8881V26.438H87.2582V35.0376H78.553L78.5681 35.0678ZM87.2431 17.7025H95.8126V9.16324H87.2431V17.7025Z" fill="#EFE8E8"/>
<path d="M43.9604 78.2927V86.9376H61.2352V95.5674H35.3306V112.857H0.781128V95.6579H9.33551V104.212H26.6857V78.2927H43.9755H43.9604Z" fill="#EFE8E8"/>
<path d="M78.553 156.142V164.787H87.1979V173.417H95.8126V182.062H69.9382V156.157H78.5228L78.553 156.142Z" fill="#EFE8E8"/>
<path d="M26.6857 78.2924H9.39585V86.9071H0.781128V69.7078H26.6555V78.3075L26.6857 78.2924Z" fill="#EFE8E8"/>
<path d="M182.307 95.5671H173.738V78.3226H165.108V69.6927H182.307V95.5671Z" fill="#EFE8E8"/>
<path d="M43.972 78.3225V69.7078H61.2166V78.2924H43.9569L43.972 78.3225Z" fill="#EFE8E8"/>
<path d="M165.077 112.917V104.303H173.661V112.887H164.986L165.077 112.917Z" fill="#EFE8E8"/>
<path d="M173.754 121.592H182.308V130.162H173.754V121.592Z" fill="#EFE8E8"/>
<path d="M104.518 61.0177V52.403H113.118V60.9876H104.503L104.518 61.0177Z" fill="#EFE8E8"/>
<path d="M78.5832 138.912H69.9382V130.282H78.5228V138.912H78.5832Z" fill="#EFE8E8"/>
<path d="M165.078 147.512V138.912H173.663V147.497H165.078V147.512Z" fill="#EFE8E8"/>
<path d="M156.403 86.9676H164.987V95.5974H156.403V86.9223V86.9676Z" fill="#EFE8E8"/>
<path d="M113.117 173.417H104.548V164.862H113.117V173.417Z" fill="#EFE8E8"/>
<path d="M130.45 173.432V182.047H121.866V173.462H130.481L130.45 173.432Z" fill="#EFE8E8"/>
<path d="M182.308 182.077H173.754V173.507H182.308V182.077Z" fill="#EFE8E8"/>
<path d="M113.178 104.212H104.638V95.6276H113.238V104.212H113.178Z" fill="#EFE8E8"/>
<path d="M43.9114 43.6675H18.0521V17.8082H43.9114V43.6675Z" fill="#EFE8E8"/>
<path d="M139.143 43.6526V17.7933H164.987V43.6526H139.143Z" fill="#EFE8E8"/>
<path d="M18.0521 164.757V138.912H43.9114V164.772L18.0521 164.757Z" fill="#EFE8E8"/>
</svg>
