<svg width="208" height="185" viewBox="0 0 208 185" fill="none" xmlns="http://www.w3.org/2000/svg">
<g filter="url(#filter0_f_34721_139550)">
<path d="M55.7056 44.7155L46.4419 47.8491L49.4834 56.8406L58.7471 53.707L68.0258 50.5683L64.9844 41.5769L55.7056 44.7155Z" fill="#F5D14E"/>
<path d="M114.344 34.9002L111.302 25.9088L102.038 29.0423L105.08 38.0338L114.344 34.9002Z" fill="#F5D14E"/>
<path d="M31.1391 124.98L28.0977 115.989L18.8339 119.122L21.8754 128.114L31.1391 124.98Z" fill="#F5D14E"/>
<path d="M95.8178 41.167L86.554 44.3006L83.5125 35.3091L74.2488 38.4427L77.2903 47.4342L68.0265 50.5677L71.068 59.5592L74.1144 68.5652L64.8357 71.7039L67.8772 80.6954L77.1559 77.5567L80.1974 86.5482L89.4611 83.4146L98.7248 80.2811L95.6834 71.2896L86.4196 74.4231L83.3781 65.4317L80.3317 56.4256L89.5955 53.2921L98.8592 50.1585L108.123 47.0249L105.082 38.0334L95.8178 41.167Z" fill="#F5D14E"/>
<path d="M120.432 52.8987L117.386 43.8926L108.122 47.0262L111.168 56.0322L114.21 65.0237L123.474 61.8901L120.432 52.8987Z" fill="#F5D14E"/>
<path d="M59.6381 118.561L61.2694 123.383L70.5331 120.25L68.9018 115.427L67.2656 110.59L58.0019 113.724L59.6381 118.561Z" fill="#F5D14E"/>
<path d="M117.253 74.0142L114.212 65.0228L104.948 68.1563L107.99 77.1478L117.253 74.0142Z" fill="#F5D14E"/>
<path d="M101.491 149.504L98.4492 140.512L89.1855 143.646L92.2269 152.637L101.491 149.504Z" fill="#F5D14E"/>
<path d="M114.071 95.1305L123.334 91.9969L126.376 100.988L135.639 97.8548L132.598 88.8633L141.862 85.7297L138.82 76.7382L129.557 79.8718L126.515 70.8803L117.251 74.0139L120.293 83.0054L111.029 86.139L101.765 89.2725L92.5016 92.4061L83.2378 95.5397L86.2793 104.531L95.543 101.398L104.807 98.264L107.848 107.256L117.112 104.122L114.071 95.1305Z" fill="#F5D14E"/>
<path d="M123.309 121.959L132.352 118.9L130.386 113.086L139.429 110.027L137.463 104.213L128.419 107.272L119.376 110.331L117.409 104.518L108.366 107.577L110.332 113.39L112.299 119.204L121.342 116.145L123.309 121.959Z" fill="#F5D14E"/>
<path d="M83.3266 95.8012L80.2852 86.8098L71.0214 89.9433L74.0629 98.9348L83.3266 95.8012Z" fill="#F5D14E"/>
<path d="M145.406 112.718L154.669 109.585L157.711 118.576L166.99 115.438L170.031 124.429L173.073 133.421L182.336 130.287L179.295 121.296L188.559 118.162L185.517 109.171L176.253 112.304L173.212 103.313L163.948 106.446L160.902 97.4402L151.623 100.579L148.581 91.5874L139.318 94.7209L142.359 103.712L145.406 112.718Z" fill="#F5D14E"/>
<path d="M86.1299 134.658L95.4086 131.52L98.4501 140.511L107.714 137.378L104.672 128.386L101.626 119.38L92.3622 122.514L89.3207 113.522L80.042 116.661L83.0835 125.652L86.1299 134.658Z" fill="#F5D14E"/>
<path d="M179.428 91.1732L188.691 88.0397L185.65 79.0482L182.608 70.0567L173.345 73.1903L170.303 64.1988L161.039 67.3324L164.081 76.3239L167.122 85.3154L176.386 82.1818L179.428 91.1732Z" fill="#F5D14E"/>
<path d="M175.751 94.3064L172.71 85.3149L163.446 88.4485L166.488 97.4399L175.751 94.3064Z" fill="#F5D14E"/>
<path d="M146.287 129.333L143.246 120.341L133.982 123.475L124.718 126.608L115.455 129.742L118.496 138.734L121.538 147.725L130.801 144.591L127.76 135.6L137.024 132.466L140.065 141.458L149.329 138.324L152.37 147.316L161.634 144.182L158.593 135.191L167.856 132.057L164.815 123.066L155.551 126.199L146.287 129.333Z" fill="#F5D14E"/>
<path d="M163.446 88.4482L160.405 79.4567L151.141 82.5903L154.183 91.5818L163.446 88.4482Z" fill="#F5D14E"/>
<path d="M113.797 155.361L110.755 146.369L101.492 149.503L104.533 158.494L113.797 155.361Z" fill="#F5D14E"/>
<path d="M20.9989 83.744L30.1283 110.733L67.3778 98.1329L55.148 61.9781L45.8693 65.1168L42.8868 56.2996L33.6231 59.4332L36.6056 68.2503L27.3418 71.3839L24.3593 62.5667L15.0956 65.7003L18.0781 74.5175L17.8985 74.5782L17.9575 74.7525L8.8733 77.8254L14.916 65.7611L11.9543 66.7629L10.6355 77.2293L12.1827 81.803L11.9148 86.8168L20.9989 83.744ZM57.9104 93.6137L34.7436 101.45L27.1374 78.9642L50.3042 71.1278L57.9104 93.6137Z" fill="#F5D14E"/>
<path d="M73.5801 129.257L70.5337 120.251L61.2699 123.384L52.0062 126.518L55.0526 135.524L64.3163 132.39L73.5801 129.257Z" fill="#F5D14E"/>
<path d="M166.866 7L120.472 22.6932L135.67 67.6215L182.063 51.9283L166.866 7ZM172.849 47.5663L140.419 58.5364L129.771 27.0589L162.202 16.0889L172.849 47.5663Z" fill="#F5D14E"/>
<path d="M163.607 43.1674L157.524 25.1844L138.996 31.4516L145.079 49.4346L163.607 43.1674Z" fill="#F5D14E"/>
</g>
<defs>
<filter id="filter0_f_34721_139550" x="1.87354" y="0" width="193.818" height="165.495" filterUnits="userSpaceOnUse" color-interpolation-filters="sRGB">
<feFlood flood-opacity="0" result="BackgroundImageFix"/>
<feBlend mode="normal" in="SourceGraphic" in2="BackgroundImageFix" result="shape"/>
<feGaussianBlur stdDeviation="3.5" result="effect1_foregroundBlur_34721_139550"/>
</filter>
</defs>
</svg>
