<svg width="180" height="156" viewBox="0 0 201 176" fill="none" xmlns="http://www.w3.org/2000/svg">
<g filter="url(#filter0_f_34703_136505)">
<path d="M59.0202 47.002L49.2054 50.322L52.4277 59.8482L62.2425 56.5283L72.0732 53.2029L68.8508 43.6766L59.0202 47.002Z" fill="#F5D14E"/>
<path d="M121.147 36.6027L117.925 27.0764L108.11 30.3964L111.332 39.9227L121.147 36.6027Z" fill="#F5D14E"/>
<path d="M32.9922 132.041L29.7698 122.515L19.955 125.835L23.1774 135.361L32.9922 132.041Z" fill="#F5D14E"/>
<path d="M101.518 43.2424L91.7036 46.5624L88.4812 37.0361L78.6664 40.356L81.8888 49.8823L72.074 53.2023L75.2964 62.7286L78.524 72.2704L68.6934 75.5957L71.9158 85.1221L81.7465 81.7967L84.9688 91.3231L94.7836 88.0031L104.598 84.6831L101.376 75.1568L91.5612 78.4768L88.3388 68.9504L85.1112 59.4087L94.926 56.0887L104.741 52.7687L114.556 49.4488L111.333 39.9224L101.518 43.2424Z" fill="#F5D14E"/>
<path d="M127.597 55.6718L124.37 46.13L114.555 49.45L117.782 58.9917L121.005 68.5181L130.82 65.1981L127.597 55.6718Z" fill="#F5D14E"/>
<path d="M63.1868 125.24L64.9151 130.349L74.7299 127.029L73.0016 121.92L71.2681 116.795L61.4533 120.115L63.1868 125.24Z" fill="#F5D14E"/>
<path d="M124.228 78.0434L121.006 68.5171L111.191 71.8371L114.413 81.3634L124.228 78.0434Z" fill="#F5D14E"/>
<path d="M107.529 158.023L104.307 148.497L94.492 151.817L97.7144 161.343L107.529 158.023Z" fill="#F5D14E"/>
<path d="M120.856 100.416L130.671 97.0958L133.893 106.622L143.708 103.302L140.486 93.7759L150.301 90.4559L147.078 80.9295L137.263 84.2495L134.041 74.7232L124.226 78.0431L127.449 87.5695L117.634 90.8895L107.819 94.2094L98.0042 97.5294L88.1895 100.849L91.4119 110.376L101.227 107.056L111.041 103.736L114.264 113.262L124.079 109.942L120.856 100.416Z" fill="#F5D14E"/>
<path d="M130.644 128.84L140.226 125.599L138.142 119.439L147.723 116.198L145.64 110.039L136.058 113.28L126.477 116.521L124.394 110.361L114.812 113.602L116.896 119.762L118.979 125.921L128.561 122.68L130.644 128.84Z" fill="#F5D14E"/>
<path d="M88.2837 101.126L85.0613 91.6001L75.2465 94.9201L78.4689 104.446L88.2837 101.126Z" fill="#F5D14E"/>
<path d="M154.055 119.05L163.87 115.73L167.092 125.256L176.923 121.931L180.145 131.457L183.368 140.984L193.183 137.664L189.96 128.137L199.775 124.818L196.553 115.291L186.738 118.611L183.515 109.085L173.701 112.405L170.473 102.863L160.642 106.188L157.42 96.6621L147.605 99.982L150.828 109.508L154.055 119.05Z" fill="#F5D14E"/>
<path d="M91.2541 142.295L101.085 138.97L104.307 148.496L114.122 145.176L110.9 135.65L107.672 126.108L97.8572 129.428L94.6348 119.902L84.8041 123.227L88.0265 132.753L91.2541 142.295Z" fill="#F5D14E"/>
<path d="M190.101 96.2232L199.916 92.9032L196.694 83.3769L193.471 73.8506L183.657 77.1705L180.434 67.6442L170.619 70.9642L173.842 80.4905L177.064 90.0169L186.879 86.6969L190.101 96.2232Z" fill="#F5D14E"/>
<path d="M186.207 99.5428L182.985 90.0165L173.17 93.3364L176.393 102.863L186.207 99.5428Z" fill="#F5D14E"/>
<path d="M154.99 136.653L151.768 127.126L141.953 130.446L132.138 133.766L122.323 137.086L125.546 146.613L128.768 156.139L138.583 152.819L135.361 143.293L145.175 139.973L148.398 149.499L158.213 146.179L161.435 155.705L171.25 152.385L168.027 142.859L177.842 139.539L174.62 130.013L164.805 133.333L154.99 136.653Z" fill="#F5D14E"/>
<path d="M173.17 93.336L169.947 83.8097L160.132 87.1297L163.355 96.656L173.17 93.336Z" fill="#F5D14E"/>
<path d="M120.567 164.229L117.345 154.703L107.53 158.023L110.752 167.549L120.567 164.229Z" fill="#F5D14E"/>
<path d="M22.2488 88.352L31.9212 116.946L71.3865 103.597L58.4292 65.2914L48.5985 68.6167L45.4386 59.2751L35.6238 62.595L38.7838 71.9367L28.969 75.2567L25.809 65.915L15.9942 69.235L19.1542 78.5766L18.9639 78.641L19.0264 78.8257L9.40183 82.0813L15.804 69.2993L12.6661 70.3607L11.2689 81.4497L12.908 86.2955L12.6242 91.6076L22.2488 88.352ZM61.3559 98.8088L36.811 107.111L28.7524 83.2879L53.2973 74.9853L61.3559 98.8088Z" fill="#F5D14E"/>
<path d="M77.9573 136.572L74.7297 127.03L64.9149 130.35L55.1001 133.67L58.3277 143.212L68.1425 139.892L77.9573 136.572Z" fill="#F5D14E"/>
<path d="M176.793 7.04297L127.64 23.6697L143.741 71.2706L192.895 54.6439L176.793 7.04297ZM183.132 50.0224L148.773 61.645L137.492 28.2951L171.851 16.6725L183.132 50.0224Z" fill="#F5D14E"/>
<path d="M173.34 45.3618L166.895 26.3091L147.265 32.949L153.71 52.0017L173.34 45.3618Z" fill="#F5D14E"/>
</g>
<defs>
<filter id="filter0_f_34703_136505" x="2.40186" y="0.0429688" width="204.514" height="174.506" filterUnits="userSpaceOnUse" color-interpolation-filters="sRGB">
<feFlood flood-opacity="0" result="BackgroundImageFix"/>
<feBlend mode="normal" in="SourceGraphic" in2="BackgroundImageFix" result="shape"/>
<feGaussianBlur stdDeviation="3.5" result="effect1_foregroundBlur_34703_136505"/>
</filter>
</defs>
</svg>
