        <svg  width="618" height="652" class=" tw-absolute -tw-z-10 tw-right-0 tw-top-0 " viewBox="0 0 618 652"
            fill="none" xmlns="http://www.w3.org/2000/svg">
            <path fill-rule="evenodd" clip-rule="evenodd"
                d="M620.087 242.356C678.519 170.167 723.5 86.0854 723.5 34.6077C723.5 -70.1097 636.867 -155 530 -155C485.234 -155 460.513 -116.953 424.848 -62.0615C379.086 8.36948 315.306 106.531 168.045 187.633C73.2083 199.845 0 279.352 0 375.615C0 467.588 158.627 597.689 269.643 627.993C312.741 648.988 367.773 657.604 435.5 647C474 647 715 550 723 418.122C723 347.541 682.999 284.409 620.087 242.356Z"
                fill="url(#paint0_linear_32561_122443)" fill-opacity="0.8" />
            <defs>
                <linearGradient id="paint0_linear_32561_122443" x1="-645.5" y1="395.773" x2="930.999" y2="400.997"
                    gradientUnits="userSpaceOnUse">
                    <stop offset="0.651676" stop-color="#FFCE00" stop-opacity="0.98" />
                    <stop offset="0.932324" stop-color="#FFCE00" stop-opacity="0" />
                </linearGradient>
            </defs>
        </svg>