<svg width="103" height="100" viewBox="0 0 223 219" fill="none" xmlns="http://www.w3.org/2000/svg">
<g filter="url(#filter0_f_34574_135064)">
<path d="M70.2363 51.5517L58.5565 55.5026L62.3912 66.8391L74.071 62.8882L85.7698 58.931L81.9351 47.5945L70.2363 51.5517Z" fill="#D90C0D" fill-opacity="0.6"/>
<path d="M144.169 39.1766L140.334 27.8401L128.654 31.7909L132.489 43.1275L144.169 39.1766Z" fill="#D90C0D" fill-opacity="0.6"/>
<path d="M39.2605 152.751L35.4258 141.415L23.746 145.366L27.5807 156.702L39.2605 152.751Z" fill="#D90C0D" fill-opacity="0.6"/>
<path d="M120.809 47.0784L109.129 51.0292L105.295 39.6927L93.6147 43.6436L97.4495 54.9801L85.7696 58.9309L89.6044 70.2675L93.4453 81.6224L81.7466 85.5797L85.5813 96.9162L97.28 92.959L101.115 104.296L112.795 100.345L124.474 96.3939L120.64 85.0573L108.96 89.0082L105.125 77.6716L101.284 66.3167L112.964 62.3658L124.644 58.415L136.324 54.4641L132.489 43.1275L120.809 47.0784Z" fill="#D90C0D" fill-opacity="0.6"/>
<path d="M151.844 61.8693L148.003 50.5144L136.324 54.4653L140.165 65.8202L143.999 77.1567L155.679 73.2059L151.844 61.8693Z" fill="#D90C0D" fill-opacity="0.6"/>
<path d="M75.1932 144.657L77.2499 150.737L88.9298 146.786L86.873 140.706L84.8101 134.607L73.1302 138.558L75.1932 144.657Z" fill="#D90C0D" fill-opacity="0.6"/>
<path d="M147.834 88.4926L144 77.156L132.32 81.1069L136.154 92.4434L147.834 88.4926Z" fill="#D90C0D" fill-opacity="0.6"/>
<path d="M127.965 183.67L124.13 172.334L112.45 176.285L116.285 187.621L127.965 183.67Z" fill="#D90C0D" fill-opacity="0.6"/>
<path d="M143.823 115.116L155.503 111.165L159.338 122.502L171.018 118.551L167.183 107.214L178.863 103.263L175.028 91.9269L163.348 95.8778L159.514 84.5412L147.834 88.492L151.668 99.8286L139.989 103.779L128.309 107.73L116.629 111.681L104.949 115.632L108.784 126.969L120.464 123.018L132.143 119.067L135.978 130.403L147.658 126.453L143.823 115.116Z" fill="#D90C0D" fill-opacity="0.6"/>
<path d="M155.47 148.942L166.873 145.085L164.393 137.755L175.795 133.898L173.316 126.568L161.914 130.425L150.512 134.282L148.032 126.952L136.63 130.809L139.109 138.139L141.589 145.469L152.991 141.612L155.47 148.942Z" fill="#D90C0D" fill-opacity="0.6"/>
<path d="M105.061 115.961L101.227 104.625L89.5467 108.576L93.3814 119.912L105.061 115.961Z" fill="#D90C0D" fill-opacity="0.6"/>
<path d="M183.33 137.291L195.01 133.34L198.845 144.677L210.543 140.72L214.378 152.056L218.213 163.393L229.893 159.442L226.058 148.105L237.738 144.155L233.903 132.818L222.223 136.769L218.388 125.432L206.709 129.383L202.868 118.028L191.169 121.985L187.334 110.649L175.654 114.6L179.489 125.936L183.33 137.291Z" fill="#D90C0D" fill-opacity="0.6"/>
<path d="M108.595 164.953L120.294 160.996L124.129 172.333L135.809 168.382L131.974 157.045L128.133 145.69L116.453 149.641L112.619 138.305L100.92 142.262L104.754 153.598L108.595 164.953Z" fill="#D90C0D" fill-opacity="0.6"/>
<path d="M226.227 110.127L237.907 106.176L234.072 94.8394L230.238 83.5028L218.558 87.4537L214.723 76.1171L203.043 80.068L206.878 91.4045L210.713 102.741L222.392 98.7903L226.227 110.127Z" fill="#D90C0D" fill-opacity="0.6"/>
<path d="M221.591 114.077L217.756 102.741L206.076 106.692L209.911 118.028L221.591 114.077Z" fill="#D90C0D" fill-opacity="0.6"/>
<path d="M184.444 158.239L180.609 146.902L168.929 150.853L157.249 154.804L145.57 158.755L149.404 170.091L153.239 181.428L164.919 177.477L161.084 166.14L172.764 162.19L176.599 173.526L188.279 169.575L192.113 180.912L203.793 176.961L199.958 165.624L211.638 161.674L207.803 150.337L196.124 154.288L184.444 158.239Z" fill="#D90C0D" fill-opacity="0.6"/>
<path d="M206.076 106.691L202.242 95.3542L190.562 99.3051L194.397 110.642L206.076 106.691Z" fill="#D90C0D" fill-opacity="0.6"/>
<path d="M143.479 191.056L139.644 179.719L127.964 183.67L131.799 195.006L143.479 191.056Z" fill="#D90C0D" fill-opacity="0.6"/>
<path d="M26.4772 100.76L37.9876 134.788L84.9523 118.901L69.5329 73.317L57.8341 77.2742L54.0737 66.1574L42.3939 70.1083L46.1543 81.2251L34.4744 85.1759L30.714 74.0591L19.0342 78.01L22.7946 89.1268L22.5682 89.2034L22.6425 89.4231L11.1891 93.2974L18.8078 78.0866L15.0737 79.3497L13.4109 92.5458L15.3616 98.3125L15.0238 104.634L26.4772 100.76ZM73.0157 113.204L43.8066 123.084L34.2167 94.7333L63.4257 84.853L73.0157 113.204Z" fill="#D90C0D" fill-opacity="0.6"/>
<path d="M92.7706 158.143L88.9297 146.788L77.2498 150.739L65.57 154.69L69.4109 166.045L81.0908 162.094L92.7706 158.143Z" fill="#D90C0D" fill-opacity="0.6"/>
<path d="M210.389 4L151.895 23.7862L171.056 80.4324L229.55 60.6462L210.389 4ZM217.933 55.1465L177.044 68.9777L163.619 29.2905L204.508 15.4594L217.933 55.1465Z" fill="#D90C0D" fill-opacity="0.6"/>
<path d="M206.278 49.5999L198.608 26.9268L175.249 34.8285L182.918 57.5016L206.278 49.5999Z" fill="#D90C0D" fill-opacity="0.6"/>
</g>
<defs>
<filter id="filter0_f_34574_135064" x="7.18896" y="0" width="234.718" height="199.006" filterUnits="userSpaceOnUse" color-interpolation-filters="sRGB">
<feFlood flood-opacity="0" result="BackgroundImageFix"/>
<feBlend mode="normal" in="SourceGraphic" in2="BackgroundImageFix" result="shape"/>
<feGaussianBlur stdDeviation="2" result="effect1_foregroundBlur_34574_135064"/>
</filter>
</defs>
</svg>
