<svg width="53" height="182" viewBox="0 0 53 182" fill="none" xmlns="http://www.w3.org/2000/svg">
<ellipse cx="-149.5" cy="-30" rx="202.5" ry="212" fill="#DD0000" fill-opacity="0.76"/>
<path d="M22.6283 15.6893H13.3486V25.25H22.6283V15.6893Z" fill="white" fill-opacity="0.18"/>
<path d="M-27.4277 82.6293V92.1899H-18.1481H-8.86841V82.6293H0.411257H9.69092V73.0686H0.411257H-8.86841H-18.1481V82.6293H-27.4277Z" fill="white" fill-opacity="0.18"/>
<path d="M22.6283 44.3709H13.3486V53.9316H22.6283V44.3709Z" fill="white" fill-opacity="0.18"/>
<path d="M14.338 25.2495H5.05834H-4.23633V34.8102H5.05834V44.3708H14.338V34.8102V25.2495Z" fill="white" fill-opacity="0.18"/>
<path d="M9.68982 53.9319H0.410156V63.4926H9.68982V53.9319Z" fill="white" fill-opacity="0.18"/>
<path d="M46.8248 6.12853V-41.752H0.351562V6.12853H46.8248ZM7.36752 -1.05353V-34.5235H39.8538V-1.05353H7.36752Z" fill="white" fill-opacity="0.18"/>
</svg>
