<svg width="339" height="344" viewBox="0 0 339 344" fill="none" xmlns="http://www.w3.org/2000/svg">
<path d="M147.755 271.505V242.536H162.226V227.963H147.805C147.805 223.122 147.805 218.256 147.805 213.415H176.825V198.944H191.322V213.339H205.87V184.244H249.462V198.716H263.883V184.244H249.412V169.645H220.341V140.803H176.723V155.3H147.805V184.371H162.201V198.868H147.729V213.39H133.232V198.842H89.6648V184.371H133.232V68.0897H147.805C147.805 82.0799 147.805 96.07 147.805 110.06V111.632H162.328V82.6628H176.799V111.682H191.398V126.154H264.035V140.651H278.583V155.275H264.111V169.848H278.532V198.944H293.106V227.989H278.685V256.983H292.903V271.505H321.922V286.002H278.532V315.022H264.035V300.525H234.889V286.002H220.392V271.505H249.31V256.983H176.85V271.429H147.755V271.505ZM234.889 227.912V213.466H220.468V227.887H234.94V242.359H263.883V227.912H234.889ZM205.794 227.912H191.525V242.283H205.895L205.794 227.912ZM234.965 155.098H249.336V140.702H234.965V155.098Z" fill="#EFE8E8"/>
<path d="M17 111.581V10H118.556V111.581H17ZM31.5731 24.5731V97.0839H104.059V24.5731H31.5731Z" fill="#EFE8E8"/>
<path d="M322 111.606H220.444V10.0507H322V111.606ZM307.503 24.5731H235.017V97.0586H307.503V24.5731Z" fill="#EFE8E8"/>
<path d="M17.0294 213.416H118.61V314.997H17.0294V213.416ZM104.088 227.989H31.5772V300.5H104.088V227.989Z" fill="#EFE8E8"/>
<path d="M147.728 68.09V39.0198H133.231V10.0256H205.742V38.9691H191.523V53.5169H205.894V82.511H191.422V68.09H176.824V53.5929H162.327V68.0393H147.703L147.728 68.09ZM162.301 38.9184H176.697V24.5734H162.301V38.9184Z" fill="#EFE8E8"/>
<path d="M89.5918 140.703V155.225H118.611V169.722H75.0947V198.767H17.0557V169.874H31.426V184.245H60.5723V140.703H89.6172H89.5918Z" fill="#EFE8E8"/>
<path d="M147.703 271.48V286.003H162.225V300.5H176.697V315.022H133.231V271.506H147.652L147.703 271.48Z" fill="#EFE8E8"/>
<path d="M60.5723 140.702H31.5274V155.174H17.0557V126.281H60.5216V140.728L60.5723 140.702Z" fill="#EFE8E8"/>
<path d="M321.998 169.722H307.602V140.753H293.105V126.256H321.998V169.722Z" fill="#EFE8E8"/>
<path d="M89.6112 140.753V126.281H118.58V140.702H89.5858L89.6112 140.753Z" fill="#EFE8E8"/>
<path d="M293.053 198.868V184.397H307.474V198.818H292.901L293.053 198.868Z" fill="#EFE8E8"/>
<path d="M307.63 213.441H322V227.837H307.63V213.441Z" fill="#EFE8E8"/>
<path d="M191.321 111.683V97.2111H205.768V111.632H191.296L191.321 111.683Z" fill="#EFE8E8"/>
<path d="M147.753 242.536H133.231V228.039H147.652V242.536H147.753Z" fill="#EFE8E8"/>
<path d="M293.056 256.983V242.537H307.477V256.958H293.056V256.983Z" fill="#EFE8E8"/>
<path d="M278.482 155.276H292.903V169.773H278.482V155.199V155.276Z" fill="#EFE8E8"/>
<path d="M205.768 300.5H191.372V286.129H205.768V300.5Z" fill="#EFE8E8"/>
<path d="M234.885 300.525V314.997H220.464V300.576H234.936L234.885 300.525Z" fill="#EFE8E8"/>
<path d="M322 315.048H307.63V300.652H322V315.048Z" fill="#EFE8E8"/>
<path d="M205.869 184.244H191.524V169.823H205.971V184.244H205.869Z" fill="#EFE8E8"/>
<path d="M89.5098 82.5363H46.0692V39.0958H89.5098V82.5363Z" fill="#EFE8E8"/>
<path d="M249.486 82.5113V39.0707H292.902V82.5113H249.486Z" fill="#EFE8E8"/>
<path d="M46.0692 285.952V242.537H89.5098V285.977L46.0692 285.952Z" fill="#EFE8E8"/>
<g filter="url(#filter0_b_1274_66292)">
<rect width="339" height="344" rx="4" fill="white" fill-opacity="0.89"/>
</g>
<path d="M172.5 239C191.579 239 207 254.459 207 273.5C207 292.547 191.579 308 172.5 308C153.456 308 138 292.547 138 273.5C138 254.459 153.456 239 172.5 239ZM172.5 283.612C170.844 283.612 169.499 284.957 169.499 286.613C169.499 288.269 170.844 289.649 172.535 289.649C174.191 289.649 175.536 288.269 175.536 286.613C175.536 284.957 174.191 283.612 172.5 283.612ZM172.5 257.389C170.844 257.389 169.464 258.772 169.464 260.424V275.674C169.464 277.333 170.844 278.675 172.5 278.675C174.156 278.675 175.501 277.333 175.501 275.674V260.424C175.501 258.772 174.156 257.389 172.5 257.389Z" fill="#FFCE00"/>
<defs>
<filter id="filter0_b_1274_66292" x="-4" y="-4" width="347" height="352" filterUnits="userSpaceOnUse" color-interpolation-filters="sRGB">
<feFlood flood-opacity="0" result="BackgroundImageFix"/>
<feGaussianBlur in="BackgroundImageFix" stdDeviation="2"/>
<feComposite in2="SourceAlpha" operator="in" result="effect1_backgroundBlur_1274_66292"/>
<feBlend mode="normal" in="SourceGraphic" in2="effect1_backgroundBlur_1274_66292" result="shape"/>
</filter>
</defs>
</svg>
