<svg width="30" height="24" viewBox="0 0 30 24" fill="dark" xmlns="http://www.w3.org/2000/svg">
<path fill="dark" d="M28.5002 10.5001H5.12132L13.0607 2.56068C13.6465 1.9749 13.6465 1.02511 13.0607 0.439334C12.4749 -0.146445 11.5252 -0.146445 10.9394 0.439334L0.439316 10.9394C0.404371 10.9743 0.371323 11.0111 0.339964 11.0493C0.32576 11.0666 0.313385 11.0849 0.300026 11.1027C0.283994 11.124 0.267471 11.1449 0.252635 11.1671C0.238362 11.1884 0.225986 11.2106 0.212978 11.2325C0.200955 11.2526 0.188298 11.2723 0.177189 11.293C0.165306 11.3153 0.155181 11.3382 0.144493 11.3609C0.134298 11.3826 0.12347 11.4039 0.114259 11.426C0.105118 11.4481 0.0977352 11.4707 0.0897196 11.493C0.0811414 11.5168 0.0720708 11.5403 0.0646879 11.5646C0.0579378 11.587 0.0529455 11.6098 0.0472502 11.6323C0.0409923 11.6572 0.0340317 11.6817 0.0290394 11.7069C0.0238363 11.7331 0.0208124 11.7595 0.0170155 11.7858C0.0138514 11.8079 0.00963309 11.8296 0.00745338 11.852C0.00267209 11.9007 7.02745e-05 11.9496 7.02745e-05 11.9985C7.02745e-05 11.9989 0 11.9995 0 12C0 12.0005 7.02745e-05 12.0011 7.02745e-05 12.0015C0.000140588 12.0504 0.00267209 12.0993 0.00745338 12.148C0.00963309 12.1704 0.0138514 12.1921 0.0170155 12.2142C0.0208124 12.2405 0.0238363 12.2669 0.0290394 12.2931C0.0340317 12.3184 0.0409923 12.3428 0.0472502 12.3677C0.0529455 12.3903 0.0578675 12.413 0.0646879 12.4354C0.0720708 12.4597 0.0811414 12.4832 0.0897196 12.507C0.0977352 12.5293 0.105118 12.5519 0.114259 12.574C0.12347 12.5962 0.134228 12.6174 0.144493 12.6391C0.155181 12.6618 0.165306 12.6847 0.177189 12.707C0.188298 12.7277 0.200955 12.7474 0.212978 12.7675C0.226057 12.7894 0.238362 12.8116 0.252635 12.8329C0.267471 12.8551 0.284065 12.876 0.300026 12.8973C0.313385 12.9151 0.32569 12.9334 0.339964 12.9507C0.371323 12.989 0.404371 13.0257 0.439316 13.0606L10.9394 23.5607C11.5252 24.1464 12.4749 24.1464 13.0607 23.5607C13.6465 22.9749 13.6465 22.0251 13.0607 21.4393L5.12132 13.5001H28.5002C29.3286 13.5001 30.0002 12.8285 30.0002 12.0001C30.0002 11.1716 29.3286 10.5001 28.5002 10.5001Z" />
</svg>
