<svg xmlns="http://www.w3.org/2000/svg" viewBox="0 0 175 175"><defs><style>.cls-1{fill:#fff;}.cls-2{fill:#220e27;}.cls-3{fill:#263238;}.cls-4{fill:#ccc;}</style></defs><g id="Layer_2" data-name="Layer 2"><g id="Layer_1-2" data-name="Layer 1"><circle class="cls-1" cx="87.5" cy="87.5" r="87.5"/><path class="cls-2" d="M139.85,95.65H33.46v18H139.85Z"/><path class="cls-3" d="M139.86,114.15H33.46a.48.48,0,0,1-.46-.46v-18a.47.47,0,0,1,.14-.33.52.52,0,0,1,.32-.14h106.4a.52.52,0,0,1,.32.14.47.47,0,0,1,.14.33v18a.48.48,0,0,1-.46.46Zm-105.94-.92H139.4V96.11H33.92Z"/><path class="cls-1" d="M139.85,129.24H33.46v18H139.85Z"/><path class="cls-3" d="M139.86,143H33.46a.46.46,0,0,1-.32-.13.47.47,0,0,1-.14-.33v-18a.48.48,0,0,1,.46-.46h106.4a.48.48,0,0,1,.46.46v18a.47.47,0,0,1-.14.33A.46.46,0,0,1,139.86,143Zm-105.94-.92H139.4V124.92H33.92Z"/><path class="cls-1" d="M104.93,38.77a18.22,18.22,0,1,1-1.36-7A18.22,18.22,0,0,1,104.93,38.77Z"/><path class="cls-3" d="M86.64,57.52a18.77,18.77,0,1,1,11.57-4,18.68,18.68,0,0,1-11.57,4Zm0-36.59a17.83,17.83,0,0,0-11,31.86,17.61,17.61,0,0,0,11,3.81,17.84,17.84,0,0,0,0-35.67Z"/><path class="cls-3" d="M92,41.32a7.64,7.64,0,1,0-10.81,0A7.65,7.65,0,0,0,92,41.32Z"/><path class="cls-3" d="M86.63,44a8,8,0,0,1-4.5-1.37A8.09,8.09,0,0,1,85.05,28a8.11,8.11,0,0,1,8.32,3.44,8.1,8.1,0,0,1-1,10.24,7.92,7.92,0,0,1-2.63,1.75,8,8,0,0,1-3.1.62Zm0-15.28A7.16,7.16,0,0,0,80,33.17a7.11,7.11,0,0,0-.41,4.15,7.18,7.18,0,0,0,13,2.58,7.08,7.08,0,0,0,1.2-4,7.17,7.17,0,0,0-7.18-7.15Z"/><path class="cls-3" d="M97.94,53.15a18.25,18.25,0,0,1-22.6,0,11.58,11.58,0,0,1,22.6,0Z"/><path class="cls-3" d="M86.64,57.52a18.76,18.76,0,0,1-11.59-4,.42.42,0,0,1-.16-.45,12,12,0,0,1,23.49,0,.53.53,0,0,1,0,.25.43.43,0,0,1-.15.2,18.71,18.71,0,0,1-11.58,4ZM75.85,53A17.59,17.59,0,0,0,86.64,56.6,17.86,17.86,0,0,0,97.42,53a11.09,11.09,0,0,0-21.57,0Z"/><path class="cls-3" d="M75.63,78.15v-8h1.46v7H79v1Z"/><path class="cls-3" d="M81.89,78.26A2.69,2.69,0,0,1,80.53,78a1.78,1.78,0,0,1-.71-.93,3.91,3.91,0,0,1-.22-1.4v-3a3.8,3.8,0,0,1,.22-1.38,1.69,1.69,0,0,1,.71-.93,3.23,3.23,0,0,1,2.72,0,1.76,1.76,0,0,1,.72.93,3.8,3.8,0,0,1,.22,1.38v3A3.8,3.8,0,0,1,84,77a1.85,1.85,0,0,1-.72.93,2.47,2.47,0,0,1-1.36.32Zm0-1.07a.82.82,0,0,0,.54-.16,1,1,0,0,0,.23-.43,3,3,0,0,0,0-.6V72.3a2.43,2.43,0,0,0,0-.6.88.88,0,0,0-.23-.41.77.77,0,0,0-.54-.16.79.79,0,0,0-.53.16.78.78,0,0,0-.24.41,3,3,0,0,0-.05.6V76a4,4,0,0,0,.05.6.79.79,0,0,0,.23.43.82.82,0,0,0,.54.16Z"/><path class="cls-3" d="M87.27,78.26A2.1,2.1,0,0,1,86,77.93a2,2,0,0,1-.66-.92,5.22,5.22,0,0,1-.21-1.47V72.85a4.65,4.65,0,0,1,.21-1.48,1.69,1.69,0,0,1,.69-.93,2.48,2.48,0,0,1,1.38-.33,2.62,2.62,0,0,1,1.29.28,1.49,1.49,0,0,1,.69.79,3.19,3.19,0,0,1,.22,1.26v.41H88.23v-.46a3.49,3.49,0,0,0,0-.65.75.75,0,0,0-.22-.42,1,1,0,0,0-1.09,0,.93.93,0,0,0-.21.5,4.91,4.91,0,0,0,0,.67v3.34a3.36,3.36,0,0,0,.08.71.83.83,0,0,0,.25.47A.92.92,0,0,0,88,77a1.06,1.06,0,0,0,.26-.49,3.81,3.81,0,0,0,.07-.75V75h-.86v-.93h2.17v4h-.92l-.1-.78a1.69,1.69,0,0,1-.48.64,1.36,1.36,0,0,1-.89.27Z"/><path class="cls-3" d="M90.81,78.15v-8h1.46v8Z"/><path class="cls-3" d="M93.48,78.15v-8h1l1.94,4.54V70.18h1.2v8h-.92l-2-4.77v4.77Z"/><path class="cls-4" d="M69.49,109.27a2.12,2.12,0,0,1-1.32-.35,1.61,1.61,0,0,1-.64-.93,5.46,5.46,0,0,1-.17-1.46v-5.28h1.07v5.33a5.82,5.82,0,0,0,.07.93,1.27,1.27,0,0,0,.29.66,1.12,1.12,0,0,0,.33.2.9.9,0,0,0,.37,0,1,1,0,0,0,.38,0,.83.83,0,0,0,.32-.2,1.37,1.37,0,0,0,.3-.66,7.28,7.28,0,0,0,.07-.93v-5.33h1v5.28a5.45,5.45,0,0,1-.16,1.46,1.71,1.71,0,0,1-.63.93,2.17,2.17,0,0,1-1.33.35Z"/><path class="cls-4" d="M74.71,109.27a2.13,2.13,0,0,1-1.15-.3,1.84,1.84,0,0,1-.69-.82,3.34,3.34,0,0,1-.28-1.21l1-.27a4.38,4.38,0,0,0,.13.82,1.5,1.5,0,0,0,.34.65,1,1,0,0,0,1.32,0,1.06,1.06,0,0,0,.22-.69,1.46,1.46,0,0,0-.25-.93,4.29,4.29,0,0,0-.62-.66l-1.34-1.18a2.48,2.48,0,0,1-.58-.75,2.52,2.52,0,0,1-.19-1,1.84,1.84,0,0,1,.5-1.37,2,2,0,0,1,1.38-.48,2.62,2.62,0,0,1,.83.13,1.31,1.31,0,0,1,.6.38,1.73,1.73,0,0,1,.38.64,3.68,3.68,0,0,1,.19.92l-.92.26a4.45,4.45,0,0,0-.12-.73.93.93,0,0,0-1-.74,1.11,1.11,0,0,0-.64.21,1,1,0,0,0-.19.31.82.82,0,0,0,0,.35,1.24,1.24,0,0,0,.12.6,1.68,1.68,0,0,0,.4.48l1.35,1.19a3.93,3.93,0,0,1,.8.92,2.44,2.44,0,0,1,.34,1.29,2,2,0,0,1-.25,1,1.64,1.64,0,0,1-.67.66A2,2,0,0,1,74.71,109.27Z"/><path class="cls-4" d="M77.48,109.17v-8h3.09V102h-2v2.65H80.2v.81H78.59v2.93h2v.77Z"/><path class="cls-4" d="M81.46,109.17v-8H83a3.69,3.69,0,0,1,1.32.21,1.53,1.53,0,0,1,.78.68,2.71,2.71,0,0,1,.25,1.23,3.4,3.4,0,0,1-.11.84,1.59,1.59,0,0,1-.31.64,1.22,1.22,0,0,1-.57.38l1.13,4H84.45l-1-3.7h-.87v3.7Zm1.11-4.54H83a2,2,0,0,0,.76-.12.8.8,0,0,0,.44-.41,1.94,1.94,0,0,0,.14-.79,1.57,1.57,0,0,0-.26-1,1.47,1.47,0,0,0-.47-.27,1.29,1.29,0,0,0-.55,0H82.6Z"/><path class="cls-4" d="M86.57,109.17v-8h.76l2.26,5.3v-5.3h.92v8h-.7l-2.3-5.44v5.44Z"/><path class="cls-4" d="M91.35,109.17l1.69-8h1.08l1.71,8H94.77l-.37-2H92.78l-.38,2Zm1.57-2.77h1.33l-.67-3.6Z"/><path class="cls-4" d="M96.6,109.17l.14-8h1.08l1.41,6.47,1.41-6.47h1.08l.15,8H101l-.09-5.8-1.3,5.8h-.63l-1.34-5.8-.09,5.8Z"/><path class="cls-4" d="M103.12,109.17v-8h3.09V102h-2v2.65h1.61v.81h-1.61v2.93h2v.77Z"/><path class="cls-3" d="M58.8,136l-1.12-.67,1.41-2L57,132.59l.45-1.21,2,1.06L59.25,130h1.43l-.23,2.44,2-1.06.45,1.21-2.09.81,1.41,1.94-1.15.68L60,133.81Z"/><path class="cls-3" d="M65.84,136l-1.11-.67,1.39-2L64,132.59l.47-1.2,2,1.06L66.31,130h1.43l-.23,2.44,2-1.06L70,132.6l-2.09.81,1.41,1.94-1.14.68L67,133.82Z"/><path class="cls-3" d="M72.89,136l-1.12-.67,1.39-2-2.08-.81.46-1.21,2,1.06L73.32,130h1.44l-.23,2.44,2-1.05.46,1.2-2.09.81,1.42,1.94-1.15.68L74,133.81Z"/><path class="cls-3" d="M79.93,136l-1.12-.67,1.42-2-2.11-.8.46-1.21,2,1.06L80.36,130H81.8l-.23,2.44,2-1.06.44,1.21-2.09.81,1.42,1.94L82.2,136l-1.12-2.21Z"/><path class="cls-3" d="M87,136l-1.11-.68,1.4-2-2.09-.8.46-1.21,2,1.07L87.41,130h1.43l-.23,2.44,2-1.06.44,1.21-2.08.81,1.4,2-1.15.68-1.13-2.21Z"/><path class="cls-3" d="M94,136l-1.11-.68,1.39-2-2.05-.8.46-1.21,2,1.06L94.49,130h1.43l-.23,2.44,2-1.06.44,1.21-2.09.81,1.42,1.94-1.15.68-1.13-2.21Z"/><path class="cls-3" d="M101.05,136l-1.12-.67,1.4-2-2.08-.81.46-1.21,2,1.06-.22-2.43h1.44l-.24,2.44,2-1.06.48,1.2-2.09.81,1.41,1.94-1.14.68-1.13-2.21Z"/><path class="cls-3" d="M108.09,136l-1.12-.67,1.41-2-2.09-.81.45-1.21,2,1.06-.22-2.44H110l-.23,2.44,2-1.06.44,1.21-2.08.81,1.41,1.94-1.15.68-1.13-2.21Z"/><path class="cls-3" d="M115.13,136l-1.12-.68,1.4-2-2.08-.79.45-1.21,2,1.06-.21-2.44H117l-.23,2.44,2-1.06.45,1.21-2.09.81,1.41,1.94-1.14.68-1.15-2.21Z"/></g></g></svg>