  <svg
            width="97"
            height="111"
            viewBox="0 0 97 111"
            fill="none"
            xmlns="http://www.w3.org/2000/svg"
          >
            <path
              d="M96.4942 90.2889C96.4942 112.057 75.0829 110.808 48.4971 110.808C21.9113 110.808 0.5 111.879 0.5 90.2889C0.5 68.5207 21.9113 32.2998 48.4971 32.2998C75.0829 32.4782 96.4942 68.6991 96.4942 90.2889Z"
              fill="#F2B233"
            />
            <path
              d="M48.498 32.4785C75.0838 32.4785 96.4952 68.6994 96.4952 90.4676C96.4952 112.236 75.0838 110.987 48.498 110.987"
              fill="#DD981D"
            />
            <path
              d="M25.123 9.99652C25.123 -0.530723 35.6503 0.004561 48.4971 0.004561C61.3439 0.004561 71.8712 -0.530723 71.8712 9.99652C71.8712 20.5238 61.3439 38.1881 48.4971 38.1881C35.6503 38.1881 25.123 20.5238 25.123 9.99652Z"
              fill="#F2B233"
            />
            <path
              d="M48.498 0.004561C61.3449 0.004561 71.8721 -0.530723 71.8721 9.99652C71.8721 20.5238 61.3449 38.1881 48.498 38.1881"
              fill="#DD981D"
            />
            <path
              d="M69.0169 34.4408C69.0169 36.225 67.5895 37.6525 65.8052 37.6525H31.1902C29.4059 37.6525 27.9785 36.225 27.9785 34.4408V33.5486C27.9785 31.7643 29.4059 30.3369 31.1902 30.3369H65.9837C67.7679 30.3369 69.1954 31.7643 69.1954 33.5486V34.4408H69.0169Z"
              fill="#04AF76"
            />
            <path
              d="M30.6543 30.5156H65.983C67.7673 30.5156 69.1947 31.943 69.1947 33.7273V34.6195C69.1947 36.4037 67.4104 37.8312 65.6262 37.8312"
              fill="#008C61"
            />
            <path
              d="M48.4973 97.0688C60.3225 97.0688 69.9086 87.4826 69.9086 75.6574C69.9086 63.8323 60.3225 54.2461 48.4973 54.2461C36.6721 54.2461 27.0859 63.8323 27.0859 75.6574C27.0859 87.4826 36.6721 97.0688 48.4973 97.0688Z"
              fill="#04AF76"
            />
            <path
              d="M33.332 60.4917C41.7181 52.1056 55.2787 52.1056 63.6648 60.4917C72.0509 68.8778 72.0509 82.4384 63.6648 90.8245"
              fill="#008C61"
            />
            <path
              d="M46.7133 92.9658V88.5051C43.1447 88.3266 41.182 87.6129 39.5762 86.7208L40.6467 81.9032C42.431 82.7954 44.7506 83.6875 47.427 83.6875C49.7466 83.6875 51.3524 82.7954 51.3524 81.1895C51.3524 79.5837 50.1034 78.6915 46.8917 77.621C42.431 76.1935 39.5762 74.0524 39.5762 70.127C39.5762 66.5584 41.182 63.7036 46.5349 62.8114V59.0645H50.1034V62.633C53.672 62.8114 54.921 63.3467 56.17 64.0604L55.0994 68.6996C54.0288 68.1643 52.2446 67.2721 49.2113 67.2721C46.5349 67.2721 45.6427 68.3427 45.6427 69.5917C45.6427 71.0191 47.0701 71.7328 50.6387 73.1603C55.4563 74.9445 57.419 77.0857 57.419 80.8327C57.419 84.5796 55.4563 87.6129 50.1034 88.5051V92.9658H46.7133Z"
              fill="#FFF6E1"
            />
            <path
              d="M48.498 59.0645V67.2721C48.498 67.2721 49.0333 67.2721 49.3902 67.2721C52.4235 67.2721 54.2077 68.1643 55.2783 68.6996L56.3489 64.0604C54.9215 63.3467 53.8509 62.633 50.2823 62.633V59.0645H48.498Z"
              fill="#FFEEBD"
            />
            <path
              d="M50.8176 72.982C49.9255 72.6251 49.0333 72.2683 48.498 72.0898V78.1564C50.2823 79.0485 51.3529 79.9407 51.3529 81.1897C51.3529 82.6171 50.2823 83.3308 48.498 83.6877V92.9659H50.2823V88.3268C55.6352 87.4346 57.5979 84.4014 57.5979 80.6544C57.5979 76.9074 55.6352 74.7663 50.8176 72.982Z"
              fill="#FFEEBD"
            />
          </svg>