<svg width="330" height="419" viewBox="0 0 330 419" fill="none" xmlns="http://www.w3.org/2000/svg">
<path d="M6.73777 371.811H-3.3457V382.2H6.73777V371.811Z" fill="white" fill-opacity="0.17"/>
<path d="M9.97824 340.947H15.3865V330.558H9.97824H4.55371V340.947H9.97824Z" fill="white" fill-opacity="0.17"/>
<path d="M55.3637 309.361H45.2803V319.749H55.3637V309.361Z" fill="white" fill-opacity="0.17"/>
<path d="M65.4468 195.067H55.3633V205.456H65.4468V195.067Z" fill="white" fill-opacity="0.17"/>
<path d="M4.92964 278.194V267.806H15.0131V257.417H4.92964V247.028H-5.15383V257.417H-15.2373V267.806H-5.15383V278.194V288.583V298.972V309.361H4.92964V298.972V288.583H15.0131V278.194H4.92964Z" fill="white" fill-opacity="0.17"/>
<path d="M55.3637 382.099H65.4472V371.71H55.3637H45.2803V382.099H55.3637Z" fill="white" fill-opacity="0.17"/>
<path d="M45.2798 195.067H35.1963V205.456H45.2798V195.067Z" fill="white" fill-opacity="0.17"/>
<path d="M35.0719 278.031V267.889H28.5521V257.747H22.0324V267.889V278.031H15.5127V288.173H22.0324H28.5521V278.031H35.0719Z" fill="white" fill-opacity="0.17"/>
<path d="M99.6723 257.417H89.5889V267.806H99.6723V257.417Z" fill="white" fill-opacity="0.17"/>
<path d="M35.1969 247.028V236.639H45.2803V226.234H55.3638H65.4473V215.845H55.3638V205.456H45.2803V215.845H35.1969V226.234H25.0971V236.639H15.0137V247.028H25.0971H35.1969Z" fill="white" fill-opacity="0.17"/>
<path d="M35.1969 319.767V309.361H45.2803V298.972H35.1969H25.0971V309.361H15.0137V319.767H25.0971H35.1969Z" fill="white" fill-opacity="0.17"/>
<path d="M65.4458 361.321V350.916H55.3623H45.2788V340.527H35.1954V350.916H25.0956V361.321H15.0122H4.92871V371.71H15.0122H25.0956H35.1954V361.321H45.2788V371.71H55.3623V361.321H65.4458Z" fill="white" fill-opacity="0.17"/>
<path d="M25.0961 205.456V195.067H15.0126H4.92917V205.456H-5.1543V215.845H4.92917H15.0126V205.456H25.0961Z" fill="white" fill-opacity="0.17"/>
<path d="M25.0971 215.845H15.0137V226.234H25.0971V215.845Z" fill="white" fill-opacity="0.17"/>
<path d="M50.3139 257.416H40.2305V267.805V278.194V288.583H50.3139H60.3974V278.194H50.3139V267.805H60.3974V257.416H70.4809V247.028H60.3974V236.639H50.3139V247.028V257.416Z" fill="white" fill-opacity="0.17"/>
<path d="M15.0122 226.234H4.92871V236.622H15.0122V226.234Z" fill="white" fill-opacity="0.17"/>
<path d="M45.2803 330.155V340.544H55.3637H65.4472V330.155H75.5307H85.6142V319.766H75.5307H65.4472H55.3637V330.155H45.2803Z" fill="white" fill-opacity="0.17"/>
<path d="M99.6723 288.583H89.5889V298.972H99.6723V288.583Z" fill="white" fill-opacity="0.17"/>
<path d="M65.4468 298.972H55.3633V309.361H65.4468V298.972Z" fill="white" fill-opacity="0.17"/>
<path d="M90.6637 267.805H80.5802H70.4805V278.194H80.5802V288.583H90.6637V278.194V267.805Z" fill="white" fill-opacity="0.17"/>
<path d="M85.6128 298.972H75.5293V309.361H85.6128V298.972Z" fill="white" fill-opacity="0.17"/>
<path d="M105.782 319.766H115.866V309.361H105.782H95.6987H85.6152V319.766H95.6987H105.782Z" fill="white" fill-opacity="0.17"/>
<path d="M105.781 278.195H115.865V267.806V257.417H105.781V267.806V278.195Z" fill="white" fill-opacity="0.17"/>
<path d="M25.4875 330.558H15.3877V340.947V351.336H25.4875V340.947V330.558Z" fill="white" fill-opacity="0.17"/>
<path d="M125.949 319.766H115.865V330.155H125.949V319.766Z" fill="white" fill-opacity="0.17"/>
<path d="M125.965 298.972V288.583H115.865V298.972V309.361H125.965V298.972Z" fill="white" fill-opacity="0.17"/>
<path d="M125.965 247.028V195H75.4658V247.028H125.965ZM83.0895 239.224V202.855H118.39V239.224H83.0895Z" fill="white" fill-opacity="0.17"/>
<path d="M110.83 210.659H90.6631V231.436H110.83V210.659Z" fill="white" fill-opacity="0.17"/>
<path d="M131.492 355.792H80.9932V407.736H131.492V355.792ZM88.6168 399.949V363.579H123.917V399.949H88.6168Z" fill="white" fill-opacity="0.17"/>
<path d="M116.357 371.367H96.1904V392.145H116.357V371.367Z" fill="white" fill-opacity="0.17"/>
<path d="M137.853 355.699V366.088H147.936V355.699V345.293H137.853V355.699Z" fill="white" fill-opacity="0.17"/>
<path d="M147.936 293.35H137.853V303.739H147.936V293.35Z" fill="white" fill-opacity="0.17"/>
<path d="M210.261 407.744H200.178V418.132H210.261V407.744Z" fill="white" fill-opacity="0.17"/>
<path d="M147.936 314.127V324.516H137.853V334.905H147.936V345.293H158.019H168.119V355.699H178.203V345.293H188.286V334.905V324.516H178.203V334.905H168.119H158.019V324.516V314.127V303.738H147.936V314.127Z" fill="white" fill-opacity="0.17"/>
<path d="M168.12 293.35H158.021V303.739H168.12H178.204V293.35H168.12Z" fill="white" fill-opacity="0.17"/>
<path d="M213.502 376.88H218.91V366.491H213.502H208.077V376.88H213.502Z" fill="white" fill-opacity="0.17"/>
<path d="M188.287 303.738H178.203V314.127H188.287V303.738Z" fill="white" fill-opacity="0.17"/>
<path d="M258.887 345.293H248.804V355.682H258.887V345.293Z" fill="white" fill-opacity="0.17"/>
<path d="M268.97 231H258.887V241.389H268.97V231Z" fill="white" fill-opacity="0.17"/>
<path d="M208.453 314.127V303.738H218.537V293.35H208.453V282.961H198.37V293.35H188.286V303.738H198.37V314.127V324.516V334.905V345.294H208.453V334.905V324.516H218.537V314.127H208.453Z" fill="white" fill-opacity="0.17"/>
<path d="M258.887 418.032H268.971V407.643H258.887H248.804V418.032H258.887Z" fill="white" fill-opacity="0.17"/>
<path d="M248.803 231H238.72V241.389H248.803V231Z" fill="white" fill-opacity="0.17"/>
<path d="M238.595 313.963V303.822H232.076V293.68H225.556V303.822V313.963H219.036V324.105H225.556H232.076V313.963H238.595Z" fill="white" fill-opacity="0.17"/>
<path d="M198.663 345.293H188.579V355.682H198.663V345.293Z" fill="white" fill-opacity="0.17"/>
<path d="M238.719 282.961V272.572H248.803V262.167H258.886H268.97V251.778H258.886V241.389H248.803V251.778H238.719V262.167H228.62V272.572H218.536V282.961H228.62H238.719Z" fill="white" fill-opacity="0.17"/>
<path d="M238.719 355.699V345.294H248.803V334.905H238.719H228.62V345.294H218.536V355.699H228.62H238.719Z" fill="white" fill-opacity="0.17"/>
<path d="M268.969 397.254V386.849H258.886H248.802V376.46H238.719V386.849H228.619V397.254H218.536H208.452V407.643H218.536H228.619H238.719V397.254H248.802V407.643H258.886V397.254H268.969Z" fill="white" fill-opacity="0.17"/>
<path d="M228.62 241.389V231H218.536H208.453V241.389H198.369V251.778H208.453H218.536V241.389H228.62Z" fill="white" fill-opacity="0.17"/>
<path d="M228.62 251.778H218.536V262.167H228.62V251.778Z" fill="white" fill-opacity="0.17"/>
<path d="M253.837 293.349H243.754V303.738V314.127V324.516H253.837H263.921V314.127H253.837V303.738H263.921V293.349H274.004V282.96H263.921V272.572H253.837V282.96V293.349Z" fill="white" fill-opacity="0.17"/>
<path d="M218.536 262.166H208.452V272.555H218.536V262.166Z" fill="white" fill-opacity="0.17"/>
<path d="M248.804 366.088V376.477H258.887H268.971V366.088H279.054H289.138V355.699H279.054H268.971H258.887V366.088H248.804Z" fill="white" fill-opacity="0.17"/>
<path d="M303.196 324.516H293.112V334.905H303.196V324.516Z" fill="white" fill-opacity="0.17"/>
<path d="M268.97 334.905H258.887V345.294H268.97V334.905Z" fill="white" fill-opacity="0.17"/>
<path d="M289.136 334.905H279.053V345.294H289.136V334.905Z" fill="white" fill-opacity="0.17"/>
<path d="M165.313 403.91H195.58V362.137H155.034V372.543H145.146V382.931H155.034V393.32H145.146V403.709H155.034V403.91H155.23V414.098L145.146 403.91V407.232L155.23 412.121H160.359L165.313 414.098V403.91ZM187.81 370.126V396.106H162.593V370.126H187.81Z" fill="white" fill-opacity="0.17"/>
<path d="M309.306 355.699H319.389V345.293H309.306H299.222H289.139V355.699H299.222H309.306Z" fill="white" fill-opacity="0.17"/>
<path d="M229.011 366.491H218.911V376.88V387.268H229.011V376.88V366.491Z" fill="white" fill-opacity="0.17"/>
<path d="M329.472 355.699H319.389V366.088H329.472V355.699Z" fill="white" fill-opacity="0.17"/>
<path d="M314.353 392.052H294.187V412.829H314.353V392.052Z" fill="white" fill-opacity="0.17"/>
<path d="M137.738 231V283.028H188.123V231H137.738ZM180.597 238.787V275.157H145.297V238.787H180.597Z" fill="white" fill-opacity="0.17"/>
<path d="M173.023 246.592H152.856V267.369H173.023V246.592Z" fill="white" fill-opacity="0.17"/>
<path d="M20.6377 124.699V135.088H30.7211V124.699V114.293H20.6377V124.699Z" fill="white" fill-opacity="0.17"/>
<path d="M30.7211 62.3497H20.6377V72.7385H30.7211V62.3497Z" fill="white" fill-opacity="0.17"/>
<path d="M93.0464 176.744H82.9629V187.132H93.0464V176.744Z" fill="white" fill-opacity="0.17"/>
<path d="M30.7211 83.1269V93.5157H20.6377V103.904H30.7211V114.293H40.8046H50.9044V124.699H60.9878V114.293H71.0713V103.904V93.5157H60.9878V103.904H50.9044H40.8046V93.5157V83.1269V72.7381H30.7211V83.1269Z" fill="white" fill-opacity="0.17"/>
<path d="M50.9054 62.3497H40.8057V72.7385H50.9054H60.9889V62.3497H50.9054Z" fill="white" fill-opacity="0.17"/>
<path d="M96.2868 145.88H101.695V135.491H96.2868H90.8623V145.88H96.2868Z" fill="white" fill-opacity="0.17"/>
<path d="M71.0718 72.7381H60.9883V83.1269H71.0718V72.7381Z" fill="white" fill-opacity="0.17"/>
<path d="M141.672 114.293H131.589V124.682H141.672V114.293Z" fill="white" fill-opacity="0.17"/>
<path d="M151.755 0H141.672V10.3888H151.755V0Z" fill="white" fill-opacity="0.17"/>
<path d="M91.2382 83.1272V72.7384H101.322V62.3496H91.2382V51.9608H81.1548V62.3496H71.0713V72.7384H81.1548V83.1272V93.516V103.905V114.294H91.2382V103.905V93.516H101.322V83.1272H91.2382Z" fill="white" fill-opacity="0.17"/>
<path d="M141.672 187.032H151.756V176.643H141.672H131.589V187.032H141.672Z" fill="white" fill-opacity="0.17"/>
<path d="M131.588 0H121.505V10.3888H131.588V0Z" fill="white" fill-opacity="0.17"/>
<path d="M121.38 82.9635V72.8217H114.861V62.6799H108.341V72.8217V82.9635H101.821V93.1053H108.341H114.861V82.9635H121.38Z" fill="white" fill-opacity="0.17"/>
<path d="M81.4477 114.293H71.3643V124.682H81.4477V114.293Z" fill="white" fill-opacity="0.17"/>
<path d="M121.504 51.9609V41.5721H131.588V31.1665H141.671H151.755V20.7777H141.671V10.3889H131.588V20.7777H121.504V31.1665H111.405V41.5721H101.321V51.9609H111.405H121.504Z" fill="white" fill-opacity="0.17"/>
<path d="M121.504 124.699V114.294H131.588V103.905H121.504H111.405V114.294H101.321V124.699H111.405H121.504Z" fill="white" fill-opacity="0.17"/>
<path d="M151.754 166.254V155.849H141.671H131.587V145.46H121.504V155.849H111.404V166.254H101.321H91.2373V176.643H101.321H111.404H121.504V166.254H131.587V176.643H141.671V166.254H151.754Z" fill="white" fill-opacity="0.17"/>
<path d="M111.405 10.3888V0H101.321H91.2378V10.3888H81.1543V20.7776H91.2378H101.321V10.3888H111.405Z" fill="white" fill-opacity="0.17"/>
<path d="M111.405 20.7779H101.321V31.1666H111.405V20.7779Z" fill="white" fill-opacity="0.17"/>
<path d="M136.623 62.3492H126.539V72.738V83.1268V93.5156H136.623H146.706V83.1268H136.623V72.738H146.706V62.3492H156.789V51.9604H146.706V41.5716H136.623V51.9604V62.3492Z" fill="white" fill-opacity="0.17"/>
<path d="M101.321 31.1663H91.2373V41.5551H101.321V31.1663Z" fill="white" fill-opacity="0.17"/>
<path d="M131.589 135.088V145.477H141.672H151.756V135.088H161.839H171.923V124.699H161.839H151.756H141.672V135.088H131.589Z" fill="white" fill-opacity="0.17"/>
<path d="M185.981 93.5157H175.897V103.905H185.981V93.5157Z" fill="white" fill-opacity="0.17"/>
<path d="M151.755 103.905H141.672V114.294H151.755V103.905Z" fill="white" fill-opacity="0.17"/>
<path d="M171.921 103.905H161.838V114.294H171.921V103.905Z" fill="white" fill-opacity="0.17"/>
<path d="M48.0986 172.91H78.3653V131.137H37.8196V141.543H27.9316V151.931H37.8196V162.32H27.9316V172.709H37.8196V172.91H38.0151V183.098L27.9316 172.91V176.232L38.0151 181.122H43.1443L48.0986 183.098V172.91ZM70.595 139.126V165.106H45.3781V139.126H70.595Z" fill="white" fill-opacity="0.17"/>
<path d="M192.091 124.699H202.174V114.293H192.091H182.007H171.924V124.699H182.007H192.091Z" fill="white" fill-opacity="0.17"/>
<path d="M111.796 135.491H101.696V145.88V156.268H111.796V145.88V135.491Z" fill="white" fill-opacity="0.17"/>
<path d="M212.257 124.699H202.174V135.088H212.257V124.699Z" fill="white" fill-opacity="0.17"/>
<path d="M197.139 161.052H176.972V181.829H197.139V161.052Z" fill="white" fill-opacity="0.17"/>
<path d="M20.5234 0V52.0279H70.9082V0H20.5234ZM63.3822 7.7874V44.1566H28.0819V7.7874H63.3822Z" fill="white" fill-opacity="0.17"/>
<path d="M55.8085 15.5916H35.6416V36.3692H55.8085V15.5916Z" fill="white" fill-opacity="0.17"/>
</svg>
