<svg width="139" height="139" viewBox="0 0 139 139" fill="none" xmlns="http://www.w3.org/2000/svg">
<path d="M0.0820312 87.4504V94.7321H7.36365V87.4504V80.157H0.0820312V87.4504Z" fill="#263238"/>
<path d="M7.36366 43.7488H0.0820312V51.0304H7.36366V43.7488Z" fill="#263238"/>
<path d="M52.3715 123.929H45.0898V131.211H52.3715V123.929Z" fill="#263238"/>
<path d="M7.36366 58.3121V65.5937H0.0820312V72.8754H7.36366V80.157H14.6453H21.9388V87.4505H29.2204V80.157H36.5021V72.8754V65.5937H29.2204V72.8754H21.9388H14.6453V65.5937V58.3121V51.0304H7.36366V58.3121Z" fill="#263238"/>
<path d="M21.9389 43.7488H14.6455V51.0304H21.9389H29.2206V43.7488H21.9389Z" fill="#263238"/>
<path d="M54.7122 102.296H58.6177V95.0144H54.7122H50.7949V102.296H54.7122Z" fill="#263238"/>
<path d="M36.5024 51.0304H29.2207V58.3121H36.5024V51.0304Z" fill="#263238"/>
<path d="M87.4858 80.157H80.2041V87.4386H87.4858V80.157Z" fill="#263238"/>
<path d="M94.767 0.0469971H87.4854V7.32866H94.767V0.0469971Z" fill="#263238"/>
<path d="M51.0653 58.3121V51.0305H58.3469V43.7488H51.0653V36.4672H43.7836V43.7488H36.502V51.0305H43.7836V58.3121V65.5938V72.8755V80.1571H51.0653V72.8755V65.5938H58.3469V58.3121H51.0653Z" fill="#263238"/>
<path d="M87.4858 131.14H94.7674V123.859H87.4858H80.2041V131.14H87.4858Z" fill="#263238"/>
<path d="M80.2035 0.0469971H72.9219V7.32866H80.2035V0.0469971Z" fill="#263238"/>
<path d="M78.3811 58.3121V51.0304H71.0995V43.7488H63.8178V51.0304V58.3121H56.5361V65.5938H63.8178H71.0995V58.3121H78.3811Z" fill="#263238"/>
<path d="M119.483 43.7488H112.201V51.0304H119.483V43.7488Z" fill="#263238"/>
<path d="M43.9955 80.157H36.7139V87.4386H43.9955V80.157Z" fill="#263238"/>
<path d="M72.9227 36.4671V29.1855H80.2044V21.892H87.486H94.7677V14.6104H87.486V7.32874H80.2044V14.6104H72.9227V21.892H65.6293V29.1855H58.3477V36.4671H65.6293H72.9227Z" fill="#263238"/>
<path d="M72.9227 87.4504V80.157H80.2044V72.8754H72.9227H65.6293V80.157H58.3477V87.4504H65.6293H72.9227Z" fill="#263238"/>
<path d="M94.7671 116.577V109.284H87.4855H80.2038V102.002H72.9221V109.284H65.6287V116.577H58.3471H51.0654V123.859H58.3471H65.6287H72.9221V116.577H80.2038V123.859H87.4855V116.577H94.7671Z" fill="#263238"/>
<path d="M65.6291 7.32866V0.0469971H58.3475H51.0658V7.32866H43.7842V14.6103H51.0658H58.3475V7.32866H65.6291Z" fill="#263238"/>
<path d="M65.6293 14.6104H58.3477V21.892H65.6293V14.6104Z" fill="#263238"/>
<path d="M83.8393 43.7487H76.5576V51.0304V58.312V65.5937H83.8393H91.1209V58.312H83.8393V51.0304H91.1209V43.7487H98.4026V36.4671H91.1209V29.1854H83.8393V36.4671V43.7487Z" fill="#263238"/>
<path d="M58.3471 21.892H51.0654V29.1736H58.3471V21.892Z" fill="#263238"/>
<path d="M80.2041 94.7321V102.014H87.4858H94.7674V94.7321H102.049H109.331V87.4504H102.049H94.7674H87.4858V94.7321H80.2041Z" fill="#263238"/>
<path d="M119.483 65.5938H112.201V72.8754H119.483V65.5938Z" fill="#263238"/>
<path d="M94.767 72.8754H87.4854V80.157H94.767V72.8754Z" fill="#263238"/>
<path d="M112.977 51.0304H105.696H98.4023V58.3121H105.696V65.5937H112.977V58.3121V51.0304Z" fill="#263238"/>
<path d="M109.33 72.8754H102.049V80.157H109.33V72.8754Z" fill="#263238"/>
<path d="M29.2205 116.718H51.0773V87.4387H21.7977V94.7321H14.6572V102.014H21.7977V109.295H14.6572V116.577H21.7977V116.718H21.9389V123.859H14.6572V138.422H21.9389V131.117H29.2205V116.718ZM45.4661 93.0381V111.248H27.256V93.0381H45.4661Z" fill="#263238"/>
<path d="M123.893 87.4504H131.175V80.157H123.893H116.612H109.33V87.4504H116.612H123.893Z" fill="#263238"/>
<path d="M123.894 58.3121H131.175V51.0304V43.7488H123.894V51.0304V58.3121Z" fill="#263238"/>
<path d="M65.9116 95.0144H58.6182V102.296V109.578H65.9116V102.296V95.0144Z" fill="#263238"/>
<path d="M138.457 87.4504H131.176V94.7321H138.457V87.4504Z" fill="#263238"/>
<path d="M138.469 72.8754V65.5938H131.176V72.8754V80.1571H138.469V72.8754Z" fill="#263238"/>
<path d="M7.36365 123.859H0.0820312V131.14V138.422H7.36365V131.14V123.859Z" fill="#263238"/>
<path d="M138.469 36.4671V0H102.002V36.4671H138.469ZM107.507 30.997V5.50537H132.999V30.997H107.507Z" fill="#263238"/>
<path d="M127.541 10.9755H112.978V25.5388H127.541V10.9755Z" fill="#263238"/>
<path d="M138.469 102.014H102.002V138.422H138.469V102.014ZM107.507 132.964V107.472H132.999V132.964H107.507Z" fill="#263238"/>
<path d="M127.541 112.93H112.978V127.494H127.541V112.93Z" fill="#263238"/>
<path d="M0 0.0469971V36.5141H36.3848V0.0469971H0ZM30.95 5.5053V30.997H5.45828V5.5053H30.95Z" fill="#263238"/>
<path d="M25.4803 10.9755H10.917V25.5388H25.4803V10.9755Z" fill="#263238"/>
</svg>
