<svg width="394" height="800" viewBox="0 0 394 800" fill="none" xmlns="http://www.w3.org/2000/svg">
<path d="M52.3412 7H340.977C364.293 7 383.671 26.7614 383.671 51.738V748.262C383.671 773.239 364.293 793 340.977 793H52.3412C29.0249 793 9.64672 773.239 9.64672 748.262V51.738C9.64672 26.7614 29.0249 7 52.3412 7Z" stroke="#0B0707" stroke-width="14"/>
<path d="M380.573 51.7376L380.573 748.241C380.573 771.252 362.695 789.629 340.978 789.629H52.3617C30.6442 789.629 12.7663 771.252 12.7663 748.241L12.7663 51.7376C12.7663 28.7261 30.6441 10.3494 52.3617 10.3494L340.978 10.3494C362.695 10.3494 380.573 28.7261 380.573 51.7376Z" stroke="#1B2124" stroke-width="8"/>
<path d="M168.813 31.5664C167.669 31.5664 166.571 31.0932 165.762 30.2508C164.953 29.4084 164.498 28.2659 164.498 27.0745C164.498 25.8832 164.953 24.7407 165.762 23.8983C166.571 23.0559 167.669 22.5827 168.813 22.5827H224.293C225.437 22.5827 226.534 23.0559 227.343 23.8983C228.152 24.7407 228.607 25.8832 228.607 27.0745C228.607 28.2659 228.152 29.4084 227.343 30.2508C226.534 31.0932 225.437 31.5664 224.293 31.5664H168.813Z" fill="#455A64"/>
<path d="M139.044 31.5646C138.19 31.5646 137.356 31.3012 136.647 30.8076C135.937 30.3141 135.384 29.6125 135.058 28.7918C134.731 27.971 134.646 27.0678 134.812 26.1965C134.978 25.3251 135.389 24.5248 135.993 23.8966C136.596 23.2684 137.365 22.8406 138.202 22.6672C139.039 22.4939 139.906 22.5829 140.695 22.9229C141.483 23.2628 142.157 23.8386 142.631 24.5773C143.105 25.3159 143.358 26.1844 143.358 27.0728C143.353 28.2625 142.897 29.4019 142.089 30.2431C141.281 31.0843 140.186 31.5593 139.044 31.5646Z" fill="#455A64"/>
<path d="M154.926 31.5646C154.073 31.5646 153.239 31.3012 152.529 30.8076C151.82 30.3141 151.267 29.6125 150.94 28.7918C150.614 27.971 150.528 27.0678 150.695 26.1965C150.861 25.3251 151.272 24.5248 151.875 23.8966C152.479 23.2684 153.247 22.8406 154.084 22.6672C154.921 22.4939 155.789 22.5829 156.577 22.9229C157.366 23.2628 158.039 23.8386 158.513 24.5773C158.987 25.3159 159.241 26.1844 159.241 27.0728C159.235 28.2625 158.779 29.4019 157.971 30.2431C157.163 31.0843 156.069 31.5593 154.926 31.5646Z" fill="#455A64"/>
<path d="M254.296 31.5646C253.443 31.5646 252.609 31.3012 251.899 30.8076C251.19 30.3141 250.637 29.6125 250.31 28.7918C249.984 27.971 249.898 27.0678 250.065 26.1965C250.231 25.3251 250.642 24.5248 251.246 23.8966C251.849 23.2684 252.618 22.8406 253.455 22.6672C254.292 22.4939 255.159 22.5829 255.947 22.9229C256.736 23.2628 257.41 23.8386 257.884 24.5773C258.358 25.3159 258.611 26.1844 258.611 27.0728C258.606 28.2625 258.149 29.4019 257.342 30.2431C256.534 31.0843 255.439 31.5593 254.296 31.5646Z" fill="#455A64"/>
<path d="M238.412 31.5646C237.558 31.5646 236.724 31.3012 236.015 30.8076C235.305 30.3141 234.752 29.6125 234.426 28.7918C234.099 27.971 234.014 27.0678 234.18 26.1965C234.347 25.3251 234.757 24.5248 235.361 23.8966C235.964 23.2684 236.733 22.8406 237.57 22.6672C238.407 22.4939 239.274 22.5829 240.063 22.9229C240.851 23.2628 241.525 23.8386 241.999 24.5773C242.473 25.3159 242.726 26.1844 242.726 27.0728C242.721 28.2625 242.265 29.4019 241.457 30.2431C240.649 31.0843 239.554 31.5593 238.412 31.5646Z" fill="#455A64"/>
<path d="M391.181 265.816H390.73V173.937H391.181C391.738 173.937 392.271 174.167 392.665 174.577C393.058 174.986 393.28 175.542 393.28 176.121V263.713C393.259 264.278 393.029 264.813 392.638 265.205C392.247 265.597 391.724 265.816 391.181 265.816Z" fill="#455A64"/>
<path d="M2.09837 230.534H2.64748V288.744H2.09837C1.54184 288.744 1.0081 288.514 0.614581 288.105C0.221058 287.695 0 287.139 0 286.56V232.719C0 232.139 0.221058 231.584 0.614581 231.174C1.0081 230.764 1.54184 230.534 2.09837 230.534Z" fill="#455A64"/>
<path d="M2.09837 154.48H2.64748V212.69H2.09837C1.54184 212.69 1.0081 212.46 0.614581 212.05C0.221058 211.641 0 211.085 0 210.506V156.664C0 156.085 0.221058 155.529 0.614581 155.12C1.0081 154.71 1.54184 154.48 2.09837 154.48Z" fill="#455A64"/>
<path d="M2.23602 97.3915H2.64783V124.465H2.23602C1.7419 124.465 1.26803 124.261 0.918636 123.897C0.569246 123.533 0.37294 123.04 0.37294 122.526V99.3312C0.37294 98.8168 0.569246 98.3234 0.918636 97.9597C1.26803 97.5959 1.7419 97.3915 2.23602 97.3915Z" fill="#455A64"/>
<path d="M291.518 37.793H288.851V41.6927H291.518V37.793Z" fill="#263238"/>
<path d="M295.853 36.0569H293.186V41.6717H295.853V36.0569Z" fill="#263238"/>
<path d="M300.186 34.7509H297.519V41.6725H300.186V34.7509Z" fill="#263238"/>
<path d="M304.521 32.2389H301.854V41.6718H304.521V32.2389Z" fill="#263238"/>
<path d="M343.881 41.8763H330.487C330.36 41.8763 330.235 41.8504 330.119 41.8001C330.002 41.7498 329.896 41.6761 329.807 41.5832C329.718 41.4903 329.647 41.38 329.599 41.2587C329.551 41.1373 329.526 41.0072 329.526 40.8758V33.9543C329.526 33.8229 329.551 33.6928 329.599 33.5714C329.647 33.45 329.718 33.3397 329.807 33.2468C329.896 33.1539 330.002 33.0802 330.119 33.0299C330.235 32.9797 330.36 32.9538 330.487 32.9538H343.881C343.931 32.9333 343.987 32.9333 344.038 32.9538C344.061 33.0127 344.061 33.0786 344.038 33.1375V35.4856H345.47C345.534 35.4854 345.596 35.5105 345.643 35.5559C345.69 35.6014 345.72 35.6638 345.724 35.7306V39.079C345.725 39.113 345.718 39.1466 345.705 39.1778C345.692 39.2089 345.673 39.2369 345.649 39.2599C345.625 39.283 345.596 39.3006 345.566 39.3116C345.535 39.3227 345.502 39.3269 345.47 39.3241H344.038V41.6108C344.042 41.6666 344.029 41.7224 344.001 41.77C343.973 41.8177 343.931 41.8549 343.881 41.8763ZM343.705 33.4642H330.565C330.44 33.4642 330.321 33.5159 330.232 33.6077C330.144 33.6996 330.094 33.8243 330.094 33.9543V40.8758C330.094 41.0058 330.144 41.1304 330.232 41.2223C330.321 41.3142 330.44 41.3658 330.565 41.3658H343.705V39.079C343.705 39.0086 343.731 38.9411 343.779 38.8914C343.827 38.8416 343.892 38.8136 343.959 38.8136H345.391V35.996H343.959C343.892 35.996 343.827 35.968 343.779 35.9183C343.731 35.8685 343.705 35.801 343.705 35.7306V33.4642Z" fill="#263238"/>
<path d="M331.112 40.2226V34.5874H342.526V37.1396V37.6908V40.2226H331.112Z" fill="#263238"/>
<path d="M317.288 41.3452C317.288 41.0745 317.185 40.8148 317.001 40.6234C316.817 40.4319 316.568 40.3244 316.308 40.3244C316.114 40.3244 315.924 40.3842 315.763 40.4964C315.602 40.6086 315.476 40.768 315.402 40.9546C315.327 41.1411 315.308 41.3464 315.346 41.5444C315.384 41.7424 315.477 41.9243 315.614 42.0671C315.751 42.2099 315.926 42.3071 316.116 42.3465C316.307 42.3859 316.504 42.3657 316.683 42.2884C316.862 42.2112 317.015 42.0803 317.123 41.9124C317.231 41.7445 317.288 41.5472 317.288 41.3452Z" fill="#263238"/>
<path d="M312.974 38.8757L314.21 40.1825C314.769 39.6086 315.523 39.2861 316.308 39.2841C317.088 39.287 317.834 39.6098 318.387 40.1825L319.642 38.8757C318.753 37.9631 317.556 37.45 316.308 37.4465C315.689 37.4438 315.076 37.5687 314.504 37.814C313.932 38.0593 313.412 38.4202 312.974 38.8757Z" fill="#263238"/>
<path d="M316.248 34.5462C314.255 34.5465 312.344 35.3688 310.933 36.833L312.188 38.1397C312.719 37.5835 313.35 37.1421 314.045 36.8408C314.74 36.5396 315.485 36.3845 316.238 36.3845C316.991 36.3845 317.736 36.5396 318.431 36.8408C319.126 37.1421 319.757 37.5835 320.288 38.1397L321.543 36.833C320.139 35.37 318.234 34.5475 316.248 34.5462Z" fill="#263238"/>
<path d="M308.971 34.73L310.226 36.0163C311.84 34.3406 314.027 33.3996 316.306 33.3996C318.585 33.3996 320.771 34.3406 322.385 36.0163L323.64 34.73C321.695 32.7052 319.057 31.5677 316.306 31.5677C313.555 31.5677 310.917 32.7052 308.971 34.73Z" fill="#263238"/>
<path d="M217.329 275.678C217.065 276.24 216.771 276.785 216.447 277.312C216.153 277.864 215.825 278.395 215.466 278.904C215.713 278.327 216.009 277.774 216.349 277.25C216.637 276.702 216.965 276.176 217.329 275.678Z" fill="#263238"/>
<path d="M220.252 275.678C219.988 276.24 219.693 276.785 219.369 277.312C219.075 277.864 218.748 278.395 218.389 278.904C218.633 278.33 218.922 277.777 219.252 277.25C219.551 276.704 219.885 276.178 220.252 275.678Z" fill="#263238"/>
<path d="M223.154 275.678C222.911 276.247 222.623 276.794 222.291 277.312C221.995 277.867 221.66 278.399 221.291 278.904C221.557 278.337 221.851 277.785 222.173 277.25C222.47 276.707 222.798 276.182 223.154 275.678Z" fill="#263238"/>
<path d="M213.957 280.19C213.691 280.757 213.397 281.309 213.075 281.844C212.783 282.391 212.456 282.916 212.094 283.416C212.341 282.849 212.63 282.303 212.957 281.782C213.259 281.231 213.593 280.699 213.957 280.19Z" fill="#263238"/>
<path d="M219.782 280.19C219.232 281.308 218.61 282.386 217.919 283.416C217.919 283.416 218.291 282.66 218.801 281.782C219.101 281.234 219.428 280.703 219.782 280.19Z" fill="#263238"/>
<path d="M222.82 280.272C222.577 280.841 222.289 281.387 221.957 281.905C221.428 282.803 220.996 283.518 220.977 283.498C221.221 282.923 221.51 282.37 221.839 281.844C222.136 281.3 222.464 280.775 222.82 280.272Z" fill="#263238"/>
</svg>
