<svg width="53" height="53" viewBox="0 0 53 53" fill="none" xmlns="http://www.w3.org/2000/svg">
<path d="M0.03125 33.4723V36.2594H2.81834V33.4723V30.6807H0.03125V33.4723Z" fill="white"/>
<path d="M2.81834 16.7451H0.03125V19.5322H2.81834V16.7451Z" fill="white"/>
<path d="M20.0459 47.4348H17.2588V50.2219H20.0459V47.4348Z" fill="white"/>
<path d="M2.81834 22.3193V25.1064H0.03125V27.8935H2.81834V30.6806H5.60545H8.39706V33.4723H11.1842V30.6806H13.9713V27.8935V25.1064H11.1842V27.8935H8.39706H5.60545V25.1064V22.3193V19.5322H2.81834V22.3193Z" fill="white"/>
<path d="M8.39708 16.7451H5.60547V19.5322H8.39708H11.1842V16.7451H8.39708Z" fill="white"/>
<path d="M20.9417 39.1545H22.4366V36.3674H20.9417H19.4424V39.1545H20.9417Z" fill="white"/>
<path d="M13.9717 19.5322H11.1846V22.3193H13.9717V19.5322Z" fill="white"/>
<path d="M33.4853 30.6807H30.6982V33.4678H33.4853V30.6807Z" fill="white"/>
<path d="M36.2725 0.0178223H33.4854V2.80493H36.2725V0.0178223Z" fill="white"/>
<path d="M19.5459 22.3193V19.5322H22.333V16.7451H19.5459V13.958H16.7588V16.7451H13.9717V19.5322H16.7588V22.3193V25.1064V27.8935V30.6806H19.5459V27.8935V25.1064H22.333V22.3193H19.5459Z" fill="white"/>
<path d="M33.4853 50.1951H36.2725V47.408H33.4853H30.6982V50.1951H33.4853Z" fill="white"/>
<path d="M30.6982 0.0178223H27.9111V2.80493H30.6982V0.0178223Z" fill="white"/>
<path d="M30.001 22.3193V19.5322H27.2139V16.7451H24.4268V19.5322V22.3193H21.6396V25.1064H24.4268H27.2139V22.3193H30.001Z" fill="white"/>
<path d="M45.7324 16.7451H42.9453V19.5322H45.7324V16.7451Z" fill="white"/>
<path d="M16.8398 30.6807H14.0527V33.4678H16.8398V30.6807Z" fill="white"/>
<path d="M27.9117 13.9581V11.171H30.6988V8.37938H33.4859H36.273V5.59228H33.4859V2.80518H30.6988V5.59228H27.9117V8.37938H25.1201V11.171H22.333V13.9581H25.1201H27.9117Z" fill="white"/>
<path d="M27.9117 33.4723V30.6807H30.6988V27.8936H27.9117H25.1201V30.6807H22.333V33.4723H25.1201H27.9117Z" fill="white"/>
<path d="M36.273 44.6207V41.8291H33.4859H30.6988V39.042H27.9117V41.8291H25.1201V44.6207H22.333H19.5459V47.4078H22.333H25.1201H27.9117V44.6207H30.6988V47.4078H33.4859V44.6207H36.273Z" fill="white"/>
<path d="M25.1201 2.80493V0.0178223H22.333H19.5459V2.80493H16.7588V5.59203H19.5459H22.333V2.80493H25.1201Z" fill="white"/>
<path d="M25.1201 5.59229H22.333V8.37938H25.1201V5.59229Z" fill="white"/>
<path d="M32.0898 16.7451H29.3027V19.5322V22.3193V25.1064H32.0898H34.8769V22.3193H32.0898V19.5322H34.8769V16.7451H37.6641V13.958H34.8769V11.1709H32.0898V13.958V16.7451Z" fill="white"/>
<path d="M22.333 8.37939H19.5459V11.1665H22.333V8.37939Z" fill="white"/>
<path d="M30.6982 36.2593V39.0464H33.4853H36.2725V36.2593H39.0596H41.8467V33.4722H39.0596H36.2725H33.4853V36.2593H30.6982Z" fill="white"/>
<path d="M45.7324 25.1064H42.9453V27.8936H45.7324V25.1064Z" fill="white"/>
<path d="M36.2725 27.8936H33.4854V30.6807H36.2725V27.8936Z" fill="white"/>
<path d="M43.2428 19.5322H40.4557H37.6641V22.3193H40.4557V25.1064H43.2428V22.3193V19.5322Z" fill="white"/>
<path d="M41.8467 27.8936H39.0596V30.6807H41.8467V27.8936Z" fill="white"/>
<path d="M11.1846 44.6747H19.5504V33.4678H8.34343V36.2594H5.61035V39.0465H8.34343V41.8336H5.61035V44.6207H8.34343V44.6747H8.39746V47.4078H5.61035V52.982H8.39746V50.1859H11.1846V44.6747ZM17.4026 35.611V42.581H10.4326V35.611H17.4026Z" fill="white"/>
<path d="M47.4209 33.4723H50.208V30.6807H47.4209H44.6338H41.8467V33.4723H44.6338H47.4209Z" fill="white"/>
<path d="M47.4209 22.3193H50.208V19.5322V16.7451H47.4209V19.5322V22.3193Z" fill="white"/>
<path d="M25.2281 36.3674H22.4365V39.1545V41.9416H25.2281V39.1545V36.3674Z" fill="white"/>
<path d="M52.9951 33.4722H50.208V36.2593H52.9951V33.4722Z" fill="white"/>
<path d="M52.9996 27.8936V25.1064H50.208V27.8936V30.6807H52.9996V27.8936Z" fill="white"/>
<path d="M2.81834 47.408H0.03125V50.1951V52.9822H2.81834V50.1951V47.408Z" fill="white"/>
<path d="M53 13.958V0H39.042V13.958H53ZM41.1492 11.8643V2.10722H50.9063V11.8643H41.1492Z" fill="white"/>
<path d="M48.8174 4.20093H43.2432V9.77514H48.8174V4.20093Z" fill="white"/>
<path d="M53 39.0464H39.042V52.9819H53V39.0464ZM41.1492 50.8927V41.1356H50.9063V50.8927H41.1492Z" fill="white"/>
<path d="M48.8174 43.2249H43.2432V48.7991H48.8174V43.2249Z" fill="white"/>
<path d="M0 0.0180664V13.9761H13.9265V0.0180664H0ZM11.8463 2.10727V11.8644H2.0892V2.10727H11.8463Z" fill="white"/>
<path d="M9.75292 4.20093H4.17871V9.77514H9.75292V4.20093Z" fill="white"/>
</svg>
