<svg width="351" height="164" viewBox="0 0 351 164" fill="none" xmlns="http://www.w3.org/2000/svg">
<path d="M216.089 -4.38251L212.888 -12.5924L203.493 -8.92944L206.694 -0.719505L209.9 7.5037L219.295 3.8407L216.089 -4.38251Z" fill="white" fill-opacity="0.17"/>
<path d="M225.906 48.5531L235.301 44.8901L232.1 36.6802L222.705 40.3432L225.906 48.5531Z" fill="white" fill-opacity="0.17"/>
<path d="M219.504 32.1336L216.303 23.9237L225.697 20.2607L222.496 12.0507L213.102 15.7137L209.901 7.50384L200.506 11.1669L191.096 14.8358L187.89 6.6126L178.495 10.2756L181.702 18.4988L172.307 22.1619L175.508 30.3718L178.709 38.5817L188.104 34.9187L184.903 26.7087L194.297 23.0457L203.707 19.3768L206.908 27.5867L210.109 35.7966L213.31 44.0066L222.705 40.3435L219.504 32.1336Z" fill="white" fill-opacity="0.17"/>
<path d="M207.101 55.8853L216.511 52.2163L213.31 44.0064L203.9 47.6753L194.505 51.3383L197.706 59.5483L207.101 55.8853Z" fill="white" fill-opacity="0.17"/>
<path d="M139.082 6.36025L134.043 8.32491L137.244 16.5348L142.283 14.5702L147.337 12.5996L144.136 4.38968L139.082 6.36025Z" fill="white" fill-opacity="0.17"/>
<path d="M185.111 55.0018L194.506 51.3387L191.305 43.1288L181.91 46.7918L185.111 55.0018Z" fill="white" fill-opacity="0.17"/>
<path d="M106.53 47.8089L115.925 44.1459L112.724 35.9359L103.329 39.599L106.53 47.8089Z" fill="white" fill-opacity="0.17"/>
<path d="M132.352 141.794L141.747 138.131L138.546 129.921L129.151 133.584L132.352 141.794Z" fill="white" fill-opacity="0.17"/>
<path d="M163.121 54.1173L166.322 62.3272L156.928 65.9902L160.129 74.2002L169.523 70.5371L172.724 78.7471L182.119 75.084L178.918 66.8741L188.313 63.2111L185.111 55.0012L175.717 58.6642L172.516 50.4542L169.315 42.2443L166.114 34.0344L162.912 25.8245L153.518 29.4875L156.719 37.6974L159.92 45.9073L150.525 49.5704L153.727 57.7803L163.121 54.1173Z" fill="white" fill-opacity="0.17"/>
<path d="M84.1172 -9.67384L74.7226 -6.01082L77.9237 2.19909L87.3183 -1.46393L96.7129 -5.12695L93.5118 -13.3369L84.1172 -9.67384Z" fill="white" fill-opacity="0.17"/>
<path d="M151.143 134.468L160.537 130.805L157.336 122.595L147.941 126.258L151.143 134.468Z" fill="white" fill-opacity="0.17"/>
<path d="M135.089 65.1964L138.214 73.2111L144.288 70.8427L147.413 78.8574L153.487 76.489L150.362 68.4743L147.237 60.4596L153.312 58.0912L150.187 50.0764L144.112 52.4448L138.038 54.8133L141.163 62.828L135.089 65.1964Z" fill="white" fill-opacity="0.17"/>
<path d="M162.64 25.9312L172.034 22.2682L168.833 14.0583L159.438 17.7213L162.64 25.9312Z" fill="white" fill-opacity="0.17"/>
<path d="M144.526 89.7419L147.727 97.9518L138.332 101.615L141.538 109.838L132.144 113.501L122.749 117.164L125.95 125.374L135.345 121.711L138.546 129.921L147.941 126.258L144.74 118.048L154.134 114.385L150.933 106.175L160.343 102.506L157.137 94.2829L166.531 90.6199L163.33 82.41L153.935 86.073L144.526 89.7419Z" fill="white" fill-opacity="0.17"/>
<path d="M122.113 32.2591L125.32 40.4823L115.925 44.1453L119.126 52.3552L128.521 48.6922L137.931 45.0232L134.73 36.8133L144.124 33.1503L140.918 24.9271L131.523 28.5901L122.113 32.2591Z" fill="white" fill-opacity="0.17"/>
<path d="M81.1258 10.4083L84.3321 18.6315L93.7267 14.9685L103.121 11.3055L106.322 19.5154L115.717 15.8524L112.516 7.64246L121.926 3.97352L118.719 -4.24967L128.114 -7.91267L137.509 -11.5757L134.308 -19.7856L124.913 -16.1226L115.518 -12.4596L106.109 -8.79066L109.31 -0.580725L99.9151 3.0823L96.7139 -5.12764L87.3193 -1.46461L90.5205 6.74532L81.1258 10.4083Z" fill="white" fill-opacity="0.17"/>
<path d="M166.745 118.926L169.946 127.136L179.341 123.473L188.735 119.81L185.534 111.6L194.929 107.937L191.728 99.7271L182.333 103.39L172.938 107.053L176.14 115.263L166.745 118.926Z" fill="white" fill-opacity="0.17"/>
<path d="M163.544 110.716L172.938 107.053L169.737 98.8429L160.343 102.506L163.544 110.716Z" fill="white" fill-opacity="0.17"/>
<path d="M127.24 87.0242L136.635 83.3612L133.434 75.1512L130.233 66.9413L127.032 58.7314L117.637 62.3944L108.242 66.0574L111.443 74.2673L120.838 70.6043L124.039 78.8142L114.645 82.4773L117.846 90.6872L108.451 94.3502L111.652 102.56L121.047 98.8971L124.248 107.107L133.643 103.444L130.441 95.2341L127.24 87.0242Z" fill="white" fill-opacity="0.17"/>
<path d="M169.738 98.8431L179.133 95.1801L175.932 86.9701L166.537 90.6331L169.738 98.8431Z" fill="white" fill-opacity="0.17"/>
<path d="M109.517 27.7126L106.316 19.5026L96.921 23.1657L87.5263 26.8287L90.7275 35.0386L81.3328 38.7016L71.9382 42.3646L75.1393 50.5746L84.534 46.9116L93.9286 43.2485L103.323 39.5855L100.122 31.3756L109.517 27.7126Z" fill="white" fill-opacity="0.17"/>
<path d="M71.6503 80.3248L81.0449 76.6617L77.8438 68.4518L68.4492 72.1148L71.6503 80.3248Z" fill="white" fill-opacity="0.17"/>
<path d="M100.336 59.6815L109.73 56.0184L106.529 47.8085L97.1348 51.4715L100.336 59.6815Z" fill="white" fill-opacity="0.17"/>
<path d="M81.5478 67.0071L90.9424 63.3441L87.7413 55.1342L78.3467 58.7972L81.5478 67.0071Z" fill="white" fill-opacity="0.17"/>
<path d="M175.649 -32.5068L147.45 -21.5118L160.321 11.5003L198.097 -3.22866L194.891 -11.4519L204.103 -15.0439L200.902 -23.2538L191.69 -19.6618L188.489 -27.8717L197.701 -31.4637L194.5 -39.6737L185.287 -36.0817L185.225 -36.2408L185.043 -36.1698L181.904 -44.2206L194.438 -39.8328L193.414 -42.4576L182.513 -42.6588L177.734 -40.7955L172.51 -40.5576L175.649 -32.5068ZM165.099 2.36433L157.094 -18.1671L180.588 -27.3276L188.593 -6.79619L165.099 2.36433Z" fill="white" fill-opacity="0.17"/>
<path d="M56.3492 57.9011L46.9547 61.5641L50.161 69.7873L59.5555 66.1243L68.9501 62.4612L78.3447 58.7982L75.1384 50.575L65.7438 54.238L56.3492 57.9011Z" fill="white" fill-opacity="0.17"/>
<path d="M127.833 20.2042L137.243 16.5353L134.042 8.32535L130.841 0.115416L121.431 3.78436L124.632 11.9943L127.833 20.2042Z" fill="white" fill-opacity="0.17"/>
<path d="M37.5605 65.2269L46.9551 61.5638L43.754 53.3539L34.3594 57.0169L37.5605 65.2269Z" fill="white" fill-opacity="0.17"/>
<path d="M40.4442 31.0066L59.2334 23.6805L52.8312 7.26068L34.042 14.5867L40.4442 31.0066Z" fill="white" fill-opacity="0.17"/>
<path d="M254.619 94.1215L238.588 53.0055L191.645 71.3088L207.676 112.425L254.619 94.1215ZM212.289 103.537L201.082 74.7953L233.971 61.9717L245.177 90.7131L212.289 103.537Z" fill="white" fill-opacity="0.17"/>
<path d="M216.94 94.6179L235.729 87.2919L229.327 70.872L210.538 78.1981L216.94 94.6179Z" fill="white" fill-opacity="0.17"/>
</svg>
