 <svg
          class="mt-12"
          width="580"
          height="250"
          viewBox="0 0 337 300"
          fill="none"
          xmlns="http://www.w3.org/2000/svg"
        >
          <path d="M191 135L166.09 172L144 135" stroke="#858585" />
          <rect
            x="117.5"
            y="190.5"
            width="83"
            height="83"
            rx="15.5"
            stroke="#263238"
            stroke-opacity="0.68"
            stroke-width="3"
          />
          <path
            d="M219.5 244.499C223.834 243.332 233 239.599 235 233.999C235 231.999 234 227.999 232.5 227.499C231 226.999 252.5 206.999 224.5 222.499C224 222.999 232.5 232.499 218.5 227.499C215.5 228.499 210.1 232.599 212.5 240.999"
            stroke="#263238"
            stroke-opacity="0.68"
            stroke-width="3"
          />
          <path
            d="M122.5 242.693C121.7 246.693 114.833 251.693 111.5 253.693L110.5 257.193C120.5 271.193 131.333 264.36 135.5 259.193C146 242.693 128.5 247.193 126.5 248.193C131.3 240.993 125.833 241.526 122.5 242.693Z"
            fill="white"
            stroke="#263238"
            stroke-opacity="0.68"
            stroke-width="3"
          />
          <path
            d="M186 286.5V278V276H133.5V286.5H151.5C158.7 275.3 164.167 282.833 166 288L186 286.5Z"
            fill="white"
            stroke="#263238"
            stroke-opacity="0.68"
            stroke-width="3"
          />
          <path
            d="M180 227.5C174 227.9 172.5 222.666 172.5 220C169.3 218.4 167.5 220.666 167 222V233.5H180V227.5Z"
            fill="#7B7B7B"
            stroke="#7B7B7B"
            stroke-width="2"
          />
          <path
            d="M150 227.5C144 227.9 142.5 222.666 142.5 220C139.3 218.4 137.5 220.666 137 222V233.5H150V227.5Z"
            fill="#7B7B7B"
            stroke="#7B7B7B"
            stroke-width="2"
          />
          <mask id="path-8-inside-1_1274_66292" fill="white">
            <rect x="161" y="286" width="31" height="10" rx="2" />
          </mask>
          <rect
            x="161"
            y="286"
            width="31"
            height="10"
            rx="2"
            fill="white"
            stroke="#263238"
            stroke-opacity="0.68"
            stroke-width="6"
            mask="url(#path-8-inside-1_1274_66292)"
          />
          <rect x="125" y="286" width="31" height="10" rx="2" fill="white" />
          <rect
            x="126"
            y="287"
            width="29"
            height="8"
            rx="1"
            stroke="#263238"
            stroke-opacity="0.68"
            stroke-width="2"
          />
          <path
            d="M149.5 242H167C164.5 252.333 157.5 266.8 149.5 242Z"
            fill="#7B7B7B"
            stroke="#7B7B7B"
            stroke-width="2"
          />
          <rect
            x="171.399"
            y="207"
            width="17.4911"
            height="3"
            rx="1.5"
            transform="rotate(30.8358 171.399 207)"
            fill="#D9D9D9"
          />
          <rect
            x="146.052"
            y="209.898"
            width="16.8807"
            height="3"
            rx="1.5"
            transform="rotate(149.351 146.052 209.898)"
            fill="#D9D9D9"
          />
          <rect
            x="171.399"
            y="204.723"
            width="17.4911"
            height="3"
            rx="1.5"
            transform="rotate(30.8358 171.399 204.723)"
            fill="#7B7B7B"
          />
          <rect
            x="146.052"
            y="207.621"
            width="16.8807"
            height="3"
            rx="1.5"
            transform="rotate(149.351 146.052 207.621)"
            fill="#7B7B7B"
          />
          <ellipse cx="158.5" cy="298" rx="53.5" ry="2" fill="#7B7B7B" />
          <rect x="132" y="200" width="3" height="3" rx="1" fill="#D9D9D9" />
          <rect x="185" y="200" width="3" height="3" rx="1" fill="#D9D9D9" />
          <rect x="189" y="246" width="8" height="8" rx="1" fill="#D9D9D9" />
          <rect x="185" y="262" width="8" height="8" rx="1" fill="#D9D9D9" />
          <rect x="170" y="262" width="8" height="8" rx="1" fill="#D9D9D9" />
          <rect x="155" y="262" width="8" height="8" rx="1" fill="#D9D9D9" />
          <rect x="139" y="262" width="8" height="8" rx="1" fill="#D9D9D9" />
          <rect x="120" y="231" width="8" height="8" rx="1" fill="#D9D9D9" />
          <rect x="120" y="217" width="8" height="8" rx="1" fill="#D9D9D9" />
          <rect x="189" y="217" width="8" height="8" rx="1" fill="#D9D9D9" />
          <rect x="189" y="230" width="8" height="8" rx="1" fill="#D9D9D9" />
          <rect
            x="128.5"
            y="197.5"
            width="10"
            height="8"
            rx="1.5"
            stroke="#D9D9D9"
          />
          <rect
            x="181.5"
            y="197.5"
            width="10"
            height="8"
            rx="1.5"
            stroke="#D9D9D9"
          />
          <rect
            x="0.5"
            y="0.5"
            width="336"
            height="135"
            rx="3.5"
            stroke="black"
            stroke-opacity="0.48"
          />
          <path d="M191 135L144 135" stroke="white" stroke-width="2" />
          <path
            d="M31.2685 30.5625C31.2154 30.0663 30.992 29.6799 30.598 29.4034C30.2079 29.1269 29.7003 28.9886 29.0753 28.9886C28.6359 28.9886 28.259 29.0549 27.9446 29.1875C27.6302 29.3201 27.3897 29.5 27.223 29.7273C27.0563 29.9545 26.9711 30.214 26.9673 30.5057C26.9673 30.7481 27.0223 30.9583 27.1321 31.1364C27.2457 31.3144 27.3991 31.4659 27.5923 31.5909C27.7855 31.7121 27.9995 31.8144 28.2344 31.8977C28.4692 31.9811 28.706 32.0511 28.9446 32.108L30.0355 32.3807C30.4749 32.483 30.8973 32.6212 31.3026 32.7955C31.7116 32.9697 32.0772 33.1894 32.3991 33.4545C32.7249 33.7197 32.9825 34.0398 33.1719 34.4148C33.3613 34.7898 33.456 35.2292 33.456 35.733C33.456 36.4148 33.2817 37.0152 32.9332 37.5341C32.5848 38.0492 32.081 38.4527 31.4219 38.7443C30.7666 39.0322 29.973 39.1761 29.0412 39.1761C28.1359 39.1761 27.3499 39.036 26.6832 38.7557C26.0204 38.4754 25.5014 38.0663 25.1264 37.5284C24.7552 36.9905 24.5545 36.3352 24.5241 35.5625H26.598C26.6283 35.9678 26.7533 36.3049 26.973 36.5739C27.1927 36.8428 27.4787 37.0436 27.831 37.1761C28.187 37.3087 28.5848 37.375 29.0241 37.375C29.4825 37.375 29.884 37.3068 30.2287 37.1705C30.5772 37.0303 30.8499 36.8371 31.0469 36.5909C31.2438 36.3409 31.3442 36.0492 31.348 35.7159C31.3442 35.4129 31.2552 35.1629 31.081 34.9659C30.9067 34.7652 30.6624 34.5985 30.348 34.4659C30.0374 34.3295 29.6738 34.2083 29.2571 34.1023L27.9332 33.7614C26.9749 33.5152 26.2173 33.142 25.6605 32.642C25.1075 32.1383 24.831 31.4697 24.831 30.6364C24.831 29.9508 25.0166 29.3504 25.3878 28.8352C25.7628 28.3201 26.2723 27.9205 26.9162 27.6364C27.5601 27.3485 28.2893 27.2045 29.1037 27.2045C29.9295 27.2045 30.6529 27.3485 31.2741 27.6364C31.8991 27.9205 32.3897 28.3163 32.7457 28.8239C33.1018 29.3277 33.2855 29.9072 33.2969 30.5625H31.2685ZM39.0511 39.1705C38.1989 39.1705 37.4602 38.983 36.8352 38.608C36.2102 38.233 35.7254 37.7083 35.3807 37.0341C35.0398 36.3598 34.8693 35.572 34.8693 34.6705C34.8693 33.7689 35.0398 32.9792 35.3807 32.3011C35.7254 31.6231 36.2102 31.0966 36.8352 30.7216C37.4602 30.3466 38.1989 30.1591 39.0511 30.1591C39.9034 30.1591 40.642 30.3466 41.267 30.7216C41.892 31.0966 42.375 31.6231 42.7159 32.3011C43.0606 32.9792 43.233 33.7689 43.233 34.6705C43.233 35.572 43.0606 36.3598 42.7159 37.0341C42.375 37.7083 41.892 38.233 41.267 38.608C40.642 38.983 39.9034 39.1705 39.0511 39.1705ZM39.0625 37.5227C39.5246 37.5227 39.911 37.3958 40.2216 37.142C40.5322 36.8845 40.7633 36.5398 40.9148 36.108C41.0701 35.6761 41.1477 35.1951 41.1477 34.6648C41.1477 34.1307 41.0701 33.6477 40.9148 33.2159C40.7633 32.7803 40.5322 32.4337 40.2216 32.1761C39.911 31.9186 39.5246 31.7898 39.0625 31.7898C38.589 31.7898 38.1951 31.9186 37.8807 32.1761C37.5701 32.4337 37.3371 32.7803 37.1818 33.2159C37.0303 33.6477 36.9545 34.1307 36.9545 34.6648C36.9545 35.1951 37.0303 35.6761 37.1818 36.108C37.3371 36.5398 37.5701 36.8845 37.8807 37.142C38.1951 37.3958 38.589 37.5227 39.0625 37.5227ZM44.9787 39V30.2727H46.9446V31.7557H47.0469C47.2287 31.2557 47.5298 30.8655 47.9503 30.5852C48.3707 30.3011 48.8726 30.1591 49.456 30.1591C50.0469 30.1591 50.545 30.303 50.9503 30.5909C51.3594 30.875 51.6473 31.2633 51.8139 31.7557H51.9048C52.098 31.2708 52.4238 30.8845 52.8821 30.5966C53.3442 30.3049 53.8916 30.1591 54.5241 30.1591C55.3272 30.1591 55.9825 30.4129 56.4901 30.9205C56.9976 31.428 57.2514 32.1686 57.2514 33.142V39H55.1889V33.4602C55.1889 32.9186 55.045 32.5227 54.7571 32.2727C54.4692 32.0189 54.117 31.892 53.7003 31.892C53.2041 31.892 52.8158 32.0473 52.5355 32.358C52.259 32.6648 52.1207 33.0644 52.1207 33.5568V39H50.1037V33.375C50.1037 32.9242 49.9673 32.5644 49.6946 32.2955C49.4257 32.0265 49.0734 31.892 48.6378 31.892C48.3423 31.892 48.0734 31.9678 47.831 32.1193C47.5885 32.267 47.3954 32.4773 47.2514 32.75C47.1075 33.0189 47.0355 33.3333 47.0355 33.6932V39H44.9787ZM63.2017 39.1705C62.3267 39.1705 61.571 38.9886 60.9347 38.625C60.3021 38.2576 59.8153 37.7386 59.4744 37.0682C59.1335 36.3939 58.9631 35.6004 58.9631 34.6875C58.9631 33.7898 59.1335 33.0019 59.4744 32.3239C59.8191 31.642 60.3002 31.1117 60.9176 30.733C61.535 30.3504 62.2604 30.1591 63.0938 30.1591C63.6316 30.1591 64.1392 30.2462 64.6165 30.4205C65.0975 30.5909 65.5218 30.8561 65.8892 31.2159C66.2604 31.5758 66.5521 32.0341 66.7642 32.5909C66.9763 33.1439 67.0824 33.803 67.0824 34.5682V35.1989H59.929V33.8125H65.1108C65.107 33.4186 65.0218 33.0682 64.8551 32.7614C64.6884 32.4508 64.4555 32.2064 64.1562 32.0284C63.8608 31.8504 63.5161 31.7614 63.1222 31.7614C62.7017 31.7614 62.3324 31.8636 62.0142 32.0682C61.696 32.2689 61.4479 32.5341 61.2699 32.8636C61.0956 33.1894 61.0066 33.5473 61.0028 33.9375V35.1477C61.0028 35.6553 61.0956 36.0909 61.2812 36.4545C61.4669 36.8144 61.7263 37.0909 62.0597 37.2841C62.393 37.4735 62.7831 37.5682 63.2301 37.5682C63.5294 37.5682 63.8002 37.5265 64.0426 37.4432C64.285 37.3561 64.4953 37.2292 64.6733 37.0625C64.8513 36.8958 64.9858 36.6894 65.0767 36.4432L66.9972 36.6591C66.8759 37.1667 66.6449 37.6098 66.304 37.9886C65.9669 38.3636 65.535 38.6553 65.0085 38.8636C64.482 39.0682 63.8797 39.1705 63.2017 39.1705ZM77.2173 35.0909H79.1264L80.2571 36.5568L81.0639 37.5114L83.0014 40H80.956L79.6378 38.3295L79.0753 37.5341L77.2173 35.0909ZM83.2798 33.1818C83.2798 34.4356 83.045 35.5095 82.5753 36.4034C82.1094 37.2936 81.473 37.9754 80.6662 38.4489C79.8632 38.9223 78.9522 39.1591 77.9332 39.1591C76.9143 39.1591 76.0014 38.9223 75.1946 38.4489C74.3916 37.9716 73.7552 37.2879 73.2855 36.3977C72.8196 35.5038 72.5866 34.4318 72.5866 33.1818C72.5866 31.928 72.8196 30.8561 73.2855 29.9659C73.7552 29.072 74.3916 28.3883 75.1946 27.9148C76.0014 27.4413 76.9143 27.2045 77.9332 27.2045C78.9522 27.2045 79.8632 27.4413 80.6662 27.9148C81.473 28.3883 82.1094 29.072 82.5753 29.9659C83.045 30.8561 83.2798 31.928 83.2798 33.1818ZM81.1605 33.1818C81.1605 32.2992 81.0223 31.5549 80.7457 30.9489C80.473 30.339 80.0942 29.8788 79.6094 29.5682C79.1245 29.2538 78.5658 29.0966 77.9332 29.0966C77.3007 29.0966 76.742 29.2538 76.2571 29.5682C75.7723 29.8788 75.3916 30.339 75.1151 30.9489C74.8423 31.5549 74.706 32.2992 74.706 33.1818C74.706 34.0644 74.8423 34.8106 75.1151 35.4205C75.3916 36.0265 75.7723 36.4867 76.2571 36.8011C76.742 37.1117 77.3007 37.267 77.9332 37.267C78.5658 37.267 79.1245 37.1117 79.6094 36.8011C80.0942 36.4867 80.473 36.0265 80.7457 35.4205C81.0223 34.8106 81.1605 34.0644 81.1605 33.1818ZM85.2884 39V27.3636H89.652C90.5459 27.3636 91.2959 27.5189 91.902 27.8295C92.5118 28.1402 92.9721 28.5758 93.2827 29.1364C93.5971 29.6932 93.7543 30.3428 93.7543 31.0852C93.7543 31.8314 93.5952 32.4792 93.277 33.0284C92.9626 33.5739 92.4986 33.9962 91.8849 34.2955C91.2713 34.5909 90.5175 34.7386 89.6236 34.7386H86.5156V32.9886H89.3395C89.8622 32.9886 90.2902 32.9167 90.6236 32.7727C90.9569 32.625 91.2031 32.411 91.3622 32.1307C91.5251 31.8466 91.6065 31.4981 91.6065 31.0852C91.6065 30.6723 91.5251 30.3201 91.3622 30.0284C91.1993 29.733 90.9512 29.5095 90.6179 29.358C90.2846 29.2027 89.8546 29.125 89.3281 29.125H87.3963V39H85.2884ZM91.2997 33.7273L94.1804 39H91.8281L88.9986 33.7273H91.2997ZM109.624 31.2898H107.499C107.438 30.9413 107.326 30.6326 107.163 30.3636C107 30.0909 106.798 29.8598 106.555 29.6705C106.313 29.4811 106.036 29.339 105.726 29.2443C105.419 29.1458 105.088 29.0966 104.732 29.0966C104.099 29.0966 103.538 29.2557 103.05 29.5739C102.561 29.8883 102.179 30.3504 101.902 30.9602C101.625 31.5663 101.487 32.3068 101.487 33.1818C101.487 34.072 101.625 34.822 101.902 35.4318C102.182 36.0379 102.565 36.4962 103.05 36.8068C103.538 37.1136 104.097 37.267 104.726 37.267C105.074 37.267 105.4 37.2216 105.703 37.1307C106.01 37.036 106.285 36.8977 106.527 36.7159C106.773 36.5341 106.98 36.3106 107.146 36.0455C107.317 35.7803 107.434 35.4773 107.499 35.1364L109.624 35.1477C109.544 35.7008 109.372 36.2197 109.107 36.7045C108.845 37.1894 108.502 37.6174 108.078 37.9886C107.654 38.3561 107.158 38.6439 106.589 38.8523C106.021 39.0568 105.391 39.1591 104.697 39.1591C103.675 39.1591 102.762 38.9223 101.959 38.4489C101.156 37.9754 100.523 37.2917 100.061 36.3977C99.599 35.5038 99.3679 34.4318 99.3679 33.1818C99.3679 31.928 99.6009 30.8561 100.067 29.9659C100.533 29.072 101.167 28.3883 101.97 27.9148C102.773 27.4413 103.682 27.2045 104.697 27.2045C105.345 27.2045 105.947 27.2955 106.504 27.4773C107.061 27.6591 107.557 27.9261 107.993 28.2784C108.429 28.6269 108.786 29.0549 109.067 29.5625C109.351 30.0663 109.536 30.642 109.624 31.2898ZM115.27 39.1705C114.418 39.1705 113.679 38.983 113.054 38.608C112.429 38.233 111.944 37.7083 111.599 37.0341C111.259 36.3598 111.088 35.572 111.088 34.6705C111.088 33.7689 111.259 32.9792 111.599 32.3011C111.944 31.6231 112.429 31.0966 113.054 30.7216C113.679 30.3466 114.418 30.1591 115.27 30.1591C116.122 30.1591 116.861 30.3466 117.486 30.7216C118.111 31.0966 118.594 31.6231 118.935 32.3011C119.279 32.9792 119.452 33.7689 119.452 34.6705C119.452 35.572 119.279 36.3598 118.935 37.0341C118.594 37.7083 118.111 38.233 117.486 38.608C116.861 38.983 116.122 39.1705 115.27 39.1705ZM115.281 37.5227C115.743 37.5227 116.13 37.3958 116.44 37.142C116.751 36.8845 116.982 36.5398 117.134 36.108C117.289 35.6761 117.366 35.1951 117.366 34.6648C117.366 34.1307 117.289 33.6477 117.134 33.2159C116.982 32.7803 116.751 32.4337 116.44 32.1761C116.13 31.9186 115.743 31.7898 115.281 31.7898C114.808 31.7898 114.414 31.9186 114.099 32.1761C113.789 32.4337 113.556 32.7803 113.401 33.2159C113.249 33.6477 113.173 34.1307 113.173 34.6648C113.173 35.1951 113.249 35.6761 113.401 36.108C113.556 36.5398 113.789 36.8845 114.099 37.142C114.414 37.3958 114.808 37.5227 115.281 37.5227ZM124.436 39.1534C123.75 39.1534 123.137 38.9773 122.595 38.625C122.054 38.2727 121.625 37.7614 121.311 37.0909C120.997 36.4205 120.839 35.6061 120.839 34.6477C120.839 33.678 120.999 32.8598 121.317 32.1932C121.639 31.5227 122.072 31.017 122.618 30.6761C123.163 30.3314 123.771 30.1591 124.442 30.1591C124.953 30.1591 125.374 30.2462 125.703 30.4205C126.033 30.5909 126.294 30.7973 126.487 31.0398C126.68 31.2784 126.83 31.5038 126.936 31.7159H127.021V27.3636H129.084V39H127.061V37.625H126.936C126.83 37.8371 126.677 38.0625 126.476 38.3011C126.275 38.536 126.01 38.7367 125.68 38.9034C125.351 39.0701 124.936 39.1534 124.436 39.1534ZM125.01 37.4659C125.446 37.4659 125.817 37.3485 126.124 37.1136C126.43 36.875 126.663 36.5436 126.822 36.1193C126.982 35.6951 127.061 35.2008 127.061 34.6364C127.061 34.072 126.982 33.5814 126.822 33.1648C126.667 32.7481 126.436 32.4242 126.129 32.1932C125.826 31.9621 125.453 31.8466 125.01 31.8466C124.552 31.8466 124.169 31.9659 123.862 32.2045C123.555 32.4432 123.324 32.7727 123.169 33.1932C123.014 33.6136 122.936 34.0947 122.936 34.6364C122.936 35.1818 123.014 35.6686 123.169 36.0966C123.328 36.5208 123.561 36.8561 123.868 37.1023C124.179 37.3447 124.559 37.4659 125.01 37.4659ZM135.139 39.1705C134.264 39.1705 133.509 38.9886 132.872 38.625C132.24 38.2576 131.753 37.7386 131.412 37.0682C131.071 36.3939 130.901 35.6004 130.901 34.6875C130.901 33.7898 131.071 33.0019 131.412 32.3239C131.757 31.642 132.238 31.1117 132.855 30.733C133.473 30.3504 134.198 30.1591 135.031 30.1591C135.569 30.1591 136.077 30.2462 136.554 30.4205C137.035 30.5909 137.459 30.8561 137.827 31.2159C138.198 31.5758 138.49 32.0341 138.702 32.5909C138.914 33.1439 139.02 33.803 139.02 34.5682V35.1989H131.866V33.8125H137.048C137.045 33.4186 136.959 33.0682 136.793 32.7614C136.626 32.4508 136.393 32.2064 136.094 32.0284C135.798 31.8504 135.454 31.7614 135.06 31.7614C134.639 31.7614 134.27 31.8636 133.952 32.0682C133.634 32.2689 133.385 32.5341 133.207 32.8636C133.033 33.1894 132.944 33.5473 132.94 33.9375V35.1477C132.94 35.6553 133.033 36.0909 133.219 36.4545C133.404 36.8144 133.664 37.0909 133.997 37.2841C134.33 37.4735 134.721 37.5682 135.168 37.5682C135.467 37.5682 135.738 37.5265 135.98 37.4432C136.223 37.3561 136.433 37.2292 136.611 37.0625C136.789 36.8958 136.923 36.6894 137.014 36.4432L138.935 36.6591C138.813 37.1667 138.582 37.6098 138.241 37.9886C137.904 38.3636 137.473 38.6553 136.946 38.8636C136.42 39.0682 135.817 39.1705 135.139 39.1705ZM147.658 32.5795L145.783 32.7841C145.73 32.5947 145.637 32.4167 145.504 32.25C145.375 32.0833 145.201 31.9489 144.982 31.8466C144.762 31.7443 144.493 31.6932 144.175 31.6932C143.747 31.6932 143.387 31.786 143.095 31.9716C142.807 32.1572 142.665 32.3977 142.669 32.6932C142.665 32.947 142.758 33.1534 142.947 33.3125C143.141 33.4716 143.459 33.6023 143.902 33.7045L145.391 34.0227C146.216 34.2008 146.83 34.483 147.232 34.8693C147.637 35.2557 147.841 35.7614 147.845 36.3864C147.841 36.9356 147.68 37.4205 147.362 37.8409C147.048 38.2576 146.61 38.5833 146.05 38.8182C145.489 39.053 144.845 39.1705 144.118 39.1705C143.05 39.1705 142.19 38.947 141.538 38.5C140.887 38.0492 140.499 37.4223 140.374 36.6193L142.379 36.4261C142.47 36.8201 142.663 37.1174 142.959 37.3182C143.254 37.5189 143.639 37.6193 144.112 37.6193C144.601 37.6193 144.993 37.5189 145.288 37.3182C145.588 37.1174 145.737 36.8693 145.737 36.5739C145.737 36.3239 145.641 36.1174 145.447 35.9545C145.258 35.7917 144.963 35.6667 144.561 35.5795L143.072 35.267C142.235 35.0928 141.616 34.7992 141.214 34.3864C140.813 33.9697 140.614 33.4432 140.618 32.8068C140.614 32.2689 140.76 31.803 141.055 31.4091C141.355 31.0114 141.769 30.7045 142.3 30.4886C142.834 30.2689 143.449 30.1591 144.146 30.1591C145.169 30.1591 145.974 30.3769 146.561 30.8125C147.152 31.2481 147.518 31.8371 147.658 32.5795ZM157.868 30.2727V31.8636H152.851V30.2727H157.868ZM154.089 28.1818H156.146V36.375C156.146 36.6515 156.188 36.8636 156.271 37.0114C156.358 37.1553 156.472 37.2538 156.612 37.3068C156.752 37.3598 156.908 37.3864 157.078 37.3864C157.207 37.3864 157.324 37.3769 157.43 37.358C157.54 37.339 157.624 37.322 157.68 37.3068L158.027 38.9148C157.917 38.9527 157.76 38.9943 157.555 39.0398C157.355 39.0852 157.108 39.1117 156.817 39.1193C156.302 39.1345 155.838 39.0568 155.425 38.8864C155.012 38.7121 154.684 38.4432 154.442 38.0795C154.203 37.7159 154.086 37.2614 154.089 36.7159V28.1818ZM160.866 42.2727C160.586 42.2727 160.327 42.25 160.088 42.2045C159.853 42.1629 159.666 42.1136 159.526 42.0568L160.003 40.4545C160.302 40.5417 160.569 40.5833 160.804 40.5795C161.039 40.5758 161.245 40.5019 161.423 40.358C161.605 40.2178 161.759 39.983 161.884 39.6534L162.06 39.1818L158.895 30.2727H161.077L163.088 36.8636H163.179L165.196 30.2727H167.384L163.889 40.0568C163.726 40.5189 163.51 40.9148 163.241 41.2443C162.973 41.5777 162.643 41.8314 162.253 42.0057C161.866 42.1837 161.404 42.2727 160.866 42.2727ZM168.807 42.2727V30.2727H170.83V31.7159H170.949C171.055 31.5038 171.205 31.2784 171.398 31.0398C171.591 30.7973 171.852 30.5909 172.182 30.4205C172.511 30.2462 172.932 30.1591 173.443 30.1591C174.117 30.1591 174.725 30.3314 175.267 30.6761C175.813 31.017 176.244 31.5227 176.562 32.1932C176.884 32.8598 177.045 33.678 177.045 34.6477C177.045 35.6061 176.888 36.4205 176.574 37.0909C176.259 37.7614 175.831 38.2727 175.29 38.625C174.748 38.9773 174.134 39.1534 173.449 39.1534C172.949 39.1534 172.534 39.0701 172.205 38.9034C171.875 38.7367 171.61 38.536 171.409 38.3011C171.212 38.0625 171.059 37.8371 170.949 37.625H170.864V42.2727H168.807ZM170.824 34.6364C170.824 35.2008 170.903 35.6951 171.062 36.1193C171.225 36.5436 171.458 36.875 171.761 37.1136C172.068 37.3485 172.439 37.4659 172.875 37.4659C173.33 37.4659 173.71 37.3447 174.017 37.1023C174.324 36.8561 174.555 36.5208 174.71 36.0966C174.869 35.6686 174.949 35.1818 174.949 34.6364C174.949 34.0947 174.871 33.6136 174.716 33.1932C174.561 32.7727 174.33 32.4432 174.023 32.2045C173.716 31.9659 173.333 31.8466 172.875 31.8466C172.436 31.8466 172.062 31.9621 171.756 32.1932C171.449 32.4242 171.216 32.7481 171.057 33.1648C170.902 33.5814 170.824 34.072 170.824 34.6364ZM182.67 39.1705C181.795 39.1705 181.04 38.9886 180.403 38.625C179.771 38.2576 179.284 37.7386 178.943 37.0682C178.602 36.3939 178.432 35.6004 178.432 34.6875C178.432 33.7898 178.602 33.0019 178.943 32.3239C179.288 31.642 179.769 31.1117 180.386 30.733C181.004 30.3504 181.729 30.1591 182.562 30.1591C183.1 30.1591 183.608 30.2462 184.085 30.4205C184.566 30.5909 184.991 30.8561 185.358 31.2159C185.729 31.5758 186.021 32.0341 186.233 32.5909C186.445 33.1439 186.551 33.803 186.551 34.5682V35.1989H179.398V33.8125H184.58C184.576 33.4186 184.491 33.0682 184.324 32.7614C184.157 32.4508 183.924 32.2064 183.625 32.0284C183.33 31.8504 182.985 31.7614 182.591 31.7614C182.17 31.7614 181.801 31.8636 181.483 32.0682C181.165 32.2689 180.917 32.5341 180.739 32.8636C180.564 33.1894 180.475 33.5473 180.472 33.9375V35.1477C180.472 35.6553 180.564 36.0909 180.75 36.4545C180.936 36.8144 181.195 37.0909 181.528 37.2841C181.862 37.4735 182.252 37.5682 182.699 37.5682C182.998 37.5682 183.269 37.5265 183.511 37.4432C183.754 37.3561 183.964 37.2292 184.142 37.0625C184.32 36.8958 184.455 36.6894 184.545 36.4432L186.466 36.6591C186.345 37.1667 186.114 37.6098 185.773 37.9886C185.436 38.3636 185.004 38.6553 184.477 38.8636C183.951 39.0682 183.348 39.1705 182.67 39.1705ZM195.189 32.5795L193.314 32.7841C193.261 32.5947 193.168 32.4167 193.036 32.25C192.907 32.0833 192.732 31.9489 192.513 31.8466C192.293 31.7443 192.024 31.6932 191.706 31.6932C191.278 31.6932 190.918 31.786 190.626 31.9716C190.339 32.1572 190.196 32.3977 190.2 32.6932C190.196 32.947 190.289 33.1534 190.479 33.3125C190.672 33.4716 190.99 33.6023 191.433 33.7045L192.922 34.0227C193.748 34.2008 194.361 34.483 194.763 34.8693C195.168 35.2557 195.373 35.7614 195.376 36.3864C195.373 36.9356 195.212 37.4205 194.893 37.8409C194.579 38.2576 194.142 38.5833 193.581 38.8182C193.02 39.053 192.376 39.1705 191.649 39.1705C190.581 39.1705 189.721 38.947 189.07 38.5C188.418 38.0492 188.03 37.4223 187.905 36.6193L189.911 36.4261C190.001 36.8201 190.195 37.1174 190.49 37.3182C190.786 37.5189 191.17 37.6193 191.643 37.6193C192.132 37.6193 192.524 37.5189 192.82 37.3182C193.119 37.1174 193.268 36.8693 193.268 36.5739C193.268 36.3239 193.172 36.1174 192.979 35.9545C192.789 35.7917 192.494 35.6667 192.092 35.5795L190.604 35.267C189.767 35.0928 189.147 34.7992 188.746 34.3864C188.344 33.9697 188.145 33.4432 188.149 32.8068C188.145 32.2689 188.291 31.803 188.587 31.4091C188.886 31.0114 189.301 30.7045 189.831 30.4886C190.365 30.2689 190.981 30.1591 191.678 30.1591C192.7 30.1591 193.505 30.3769 194.092 30.8125C194.683 31.2481 195.049 31.8371 195.189 32.5795ZM202.842 39L200.376 30.2727H202.473L204.007 36.4091H204.087L205.655 30.2727H207.729L209.297 36.375H209.382L210.893 30.2727H212.996L210.524 39H208.382L206.746 33.1023H206.626L204.99 39H202.842ZM214.432 39V30.2727H216.489V39H214.432ZM215.466 29.0341C215.14 29.0341 214.86 28.9261 214.625 28.7102C214.39 28.4905 214.273 28.2273 214.273 27.9205C214.273 27.6098 214.39 27.3466 214.625 27.1307C214.86 26.911 215.14 26.8011 215.466 26.8011C215.795 26.8011 216.076 26.911 216.307 27.1307C216.542 27.3466 216.659 27.6098 216.659 27.9205C216.659 28.2273 216.542 28.4905 216.307 28.7102C216.076 28.9261 215.795 29.0341 215.466 29.0341ZM220.661 27.3636V39H218.604V27.3636H220.661ZM224.832 27.3636V39H222.776V27.3636H224.832ZM237.814 32.5795L235.939 32.7841C235.886 32.5947 235.793 32.4167 235.661 32.25C235.532 32.0833 235.357 31.9489 235.138 31.8466C234.918 31.7443 234.649 31.6932 234.331 31.6932C233.903 31.6932 233.543 31.786 233.251 31.9716C232.964 32.1572 232.821 32.3977 232.825 32.6932C232.821 32.947 232.914 33.1534 233.104 33.3125C233.297 33.4716 233.615 33.6023 234.058 33.7045L235.547 34.0227C236.373 34.2008 236.986 34.483 237.388 34.8693C237.793 35.2557 237.998 35.7614 238.001 36.3864C237.998 36.9356 237.837 37.4205 237.518 37.8409C237.204 38.2576 236.767 38.5833 236.206 38.8182C235.645 39.053 235.001 39.1705 234.274 39.1705C233.206 39.1705 232.346 38.947 231.695 38.5C231.043 38.0492 230.655 37.4223 230.53 36.6193L232.536 36.4261C232.626 36.8201 232.82 37.1174 233.115 37.3182C233.411 37.5189 233.795 37.6193 234.268 37.6193C234.757 37.6193 235.149 37.5189 235.445 37.3182C235.744 37.1174 235.893 36.8693 235.893 36.5739C235.893 36.3239 235.797 36.1174 235.604 35.9545C235.414 35.7917 235.119 35.6667 234.717 35.5795L233.229 35.267C232.392 35.0928 231.772 34.7992 231.371 34.3864C230.969 33.9697 230.77 33.4432 230.774 32.8068C230.77 32.2689 230.916 31.803 231.212 31.4091C231.511 31.0114 231.926 30.7045 232.456 30.4886C232.99 30.2689 233.606 30.1591 234.303 30.1591C235.325 30.1591 236.13 30.3769 236.717 30.8125C237.308 31.2481 237.674 31.8371 237.814 32.5795ZM241.754 33.8864V39H239.697V27.3636H241.709V31.7557H241.811C242.016 31.2633 242.332 30.875 242.76 30.5909C243.192 30.303 243.741 30.1591 244.408 30.1591C245.014 30.1591 245.542 30.286 245.993 30.5398C246.444 30.7936 246.792 31.1648 247.038 31.6534C247.288 32.142 247.413 32.7386 247.413 33.4432V39H245.357V33.7614C245.357 33.1742 245.205 32.7178 244.902 32.392C244.603 32.0625 244.182 31.8977 243.641 31.8977C243.277 31.8977 242.951 31.9773 242.663 32.1364C242.379 32.2917 242.156 32.517 241.993 32.8125C241.834 33.108 241.754 33.4659 241.754 33.8864ZM253.317 39.1705C252.464 39.1705 251.726 38.983 251.101 38.608C250.476 38.233 249.991 37.7083 249.646 37.0341C249.305 36.3598 249.135 35.572 249.135 34.6705C249.135 33.7689 249.305 32.9792 249.646 32.3011C249.991 31.6231 250.476 31.0966 251.101 30.7216C251.726 30.3466 252.464 30.1591 253.317 30.1591C254.169 30.1591 254.908 30.3466 255.533 30.7216C256.158 31.0966 256.641 31.6231 256.982 32.3011C257.326 32.9792 257.499 33.7689 257.499 34.6705C257.499 35.572 257.326 36.3598 256.982 37.0341C256.641 37.7083 256.158 38.233 255.533 38.608C254.908 38.983 254.169 39.1705 253.317 39.1705ZM253.328 37.5227C253.79 37.5227 254.177 37.3958 254.487 37.142C254.798 36.8845 255.029 36.5398 255.18 36.108C255.336 35.6761 255.413 35.1951 255.413 34.6648C255.413 34.1307 255.336 33.6477 255.18 33.2159C255.029 32.7803 254.798 32.4337 254.487 32.1761C254.177 31.9186 253.79 31.7898 253.328 31.7898C252.855 31.7898 252.461 31.9186 252.146 32.1761C251.836 32.4337 251.603 32.7803 251.447 33.2159C251.296 33.6477 251.22 34.1307 251.22 34.6648C251.22 35.1951 251.296 35.6761 251.447 36.108C251.603 36.5398 251.836 36.8845 252.146 37.142C252.461 37.3958 252.855 37.5227 253.328 37.5227ZM260.795 39L258.33 30.2727H260.426L261.96 36.4091H262.04L263.608 30.2727H265.682L267.25 36.375H267.335L268.847 30.2727H270.949L268.477 39H266.335L264.699 33.1023H264.58L262.943 39H260.795ZM278.865 39.1761C278.312 39.1761 277.814 39.0777 277.371 38.8807C276.931 38.6799 276.583 38.3845 276.325 37.9943C276.071 37.6042 275.945 37.1231 275.945 36.5511C275.945 36.0587 276.036 35.6515 276.217 35.3295C276.399 35.0076 276.647 34.75 276.962 34.5568C277.276 34.3636 277.63 34.2178 278.024 34.1193C278.422 34.017 278.833 33.9432 279.257 33.8977C279.768 33.8447 280.183 33.7973 280.501 33.7557C280.82 33.7102 281.051 33.642 281.195 33.5511C281.342 33.4564 281.416 33.3106 281.416 33.1136V33.0795C281.416 32.6515 281.289 32.3201 281.036 32.0852C280.782 31.8504 280.416 31.733 279.939 31.733C279.435 31.733 279.036 31.8428 278.74 32.0625C278.448 32.2822 278.251 32.5417 278.149 32.8409L276.229 32.5682C276.38 32.0379 276.63 31.5947 276.979 31.2386C277.327 30.8788 277.753 30.6098 278.257 30.4318C278.761 30.25 279.318 30.1591 279.928 30.1591C280.348 30.1591 280.767 30.2083 281.183 30.3068C281.6 30.4053 281.981 30.5682 282.325 30.7955C282.67 31.0189 282.946 31.3239 283.155 31.7102C283.367 32.0966 283.473 32.5795 283.473 33.1591V39H281.496V37.8011H281.428C281.303 38.0436 281.126 38.2708 280.899 38.483C280.676 38.6913 280.393 38.8598 280.053 38.9886C279.715 39.1136 279.32 39.1761 278.865 39.1761ZM279.399 37.6648C279.812 37.6648 280.17 37.5833 280.473 37.4205C280.776 37.2538 281.009 37.0341 281.172 36.7614C281.339 36.4886 281.422 36.1913 281.422 35.8693V34.8409C281.357 34.8939 281.248 34.9432 281.092 34.9886C280.941 35.0341 280.77 35.0739 280.581 35.108C280.392 35.142 280.204 35.1723 280.018 35.1989C279.833 35.2254 279.672 35.2481 279.536 35.267C279.229 35.3087 278.954 35.3769 278.712 35.4716C278.469 35.5663 278.278 35.6989 278.138 35.8693C277.998 36.036 277.928 36.2519 277.928 36.517C277.928 36.8958 278.066 37.1818 278.342 37.375C278.619 37.5682 278.971 37.6648 279.399 37.6648ZM291.567 27.3636V39H289.51V27.3636H291.567ZM293.682 39V30.2727H295.739V39H293.682ZM294.716 29.0341C294.39 29.0341 294.11 28.9261 293.875 28.7102C293.64 28.4905 293.523 28.2273 293.523 27.9205C293.523 27.6098 293.64 27.3466 293.875 27.1307C294.11 26.911 294.39 26.8011 294.716 26.8011C295.045 26.8011 295.326 26.911 295.557 27.1307C295.792 27.3466 295.909 27.6098 295.909 27.9205C295.909 28.2273 295.792 28.4905 295.557 28.7102C295.326 28.9261 295.045 29.0341 294.716 29.0341ZM305.649 30.2727L302.541 39H300.268L297.161 30.2727H299.354L301.359 36.7557H301.45L303.462 30.2727H305.649ZM310.639 39.1705C309.764 39.1705 309.009 38.9886 308.372 38.625C307.74 38.2576 307.253 37.7386 306.912 37.0682C306.571 36.3939 306.401 35.6004 306.401 34.6875C306.401 33.7898 306.571 33.0019 306.912 32.3239C307.257 31.642 307.738 31.1117 308.355 30.733C308.973 30.3504 309.698 30.1591 310.531 30.1591C311.069 30.1591 311.577 30.2462 312.054 30.4205C312.535 30.5909 312.959 30.8561 313.327 31.2159C313.698 31.5758 313.99 32.0341 314.202 32.5909C314.414 33.1439 314.52 33.803 314.52 34.5682V35.1989H307.366V33.8125H312.548C312.545 33.4186 312.459 33.0682 312.293 32.7614C312.126 32.4508 311.893 32.2064 311.594 32.0284C311.298 31.8504 310.954 31.7614 310.56 31.7614C310.139 31.7614 309.77 31.8636 309.452 32.0682C309.134 32.2689 308.885 32.5341 308.707 32.8636C308.533 33.1894 308.444 33.5473 308.44 33.9375V35.1477C308.44 35.6553 308.533 36.0909 308.719 36.4545C308.904 36.8144 309.164 37.0909 309.497 37.2841C309.83 37.4735 310.221 37.5682 310.668 37.5682C310.967 37.5682 311.238 37.5265 311.48 37.4432C311.723 37.3561 311.933 37.2292 312.111 37.0625C312.289 36.8958 312.423 36.6894 312.514 36.4432L314.435 36.6591C314.313 37.1667 314.082 37.6098 313.741 37.9886C313.404 38.3636 312.973 38.6553 312.446 38.8636C311.92 39.0682 311.317 39.1705 310.639 39.1705ZM34.3928 61.2727V49.2727H36.4155V50.7159H36.5348C36.6409 50.5038 36.7905 50.2784 36.9837 50.0398C37.1768 49.7973 37.4382 49.5909 37.7678 49.4205C38.0973 49.2462 38.5178 49.1591 39.0291 49.1591C39.7034 49.1591 40.3113 49.3314 40.853 49.6761C41.3984 50.017 41.8303 50.5227 42.1484 51.1932C42.4704 51.8598 42.6314 52.678 42.6314 53.6477C42.6314 54.6061 42.4742 55.4205 42.1598 56.0909C41.8454 56.7614 41.4174 57.2727 40.8757 57.625C40.334 57.9773 39.7204 58.1534 39.0348 58.1534C38.5348 58.1534 38.12 58.0701 37.7905 57.9034C37.4609 57.7367 37.1958 57.536 36.995 57.3011C36.7981 57.0625 36.6446 56.8371 36.5348 56.625H36.4496V61.2727H34.3928ZM36.4098 53.6364C36.4098 54.2008 36.4893 54.6951 36.6484 55.1193C36.8113 55.5436 37.0443 55.875 37.3473 56.1136C37.6541 56.3485 38.0253 56.4659 38.4609 56.4659C38.9155 56.4659 39.2962 56.3447 39.603 56.1023C39.9098 55.8561 40.1409 55.5208 40.2962 55.0966C40.4553 54.6686 40.5348 54.1818 40.5348 53.6364C40.5348 53.0947 40.4571 52.6136 40.3018 52.1932C40.1465 51.7727 39.9155 51.4432 39.6087 51.2045C39.3018 50.9659 38.9193 50.8466 38.4609 50.8466C38.0215 50.8466 37.6484 50.9621 37.3416 51.1932C37.0348 51.4242 36.8018 51.7481 36.6428 52.1648C36.4875 52.5814 36.4098 53.072 36.4098 53.6364ZM44.3928 58V49.2727H46.3871V50.7273H46.478C46.6371 50.2235 46.9098 49.8352 47.2962 49.5625C47.6863 49.286 48.1314 49.1477 48.6314 49.1477C48.745 49.1477 48.8719 49.1534 49.0121 49.1648C49.156 49.1723 49.2753 49.1856 49.37 49.2045V51.0966C49.2829 51.0663 49.1446 51.0398 48.9553 51.017C48.7696 50.9905 48.5897 50.9773 48.4155 50.9773C48.0405 50.9773 47.7034 51.0587 47.4041 51.2216C47.1087 51.3807 46.8757 51.6023 46.7053 51.8864C46.5348 52.1705 46.4496 52.4981 46.4496 52.8693V58H44.3928ZM54.2408 58.1705C53.3658 58.1705 52.6101 57.9886 51.9737 57.625C51.3411 57.2576 50.8544 56.7386 50.5135 56.0682C50.1726 55.3939 50.0021 54.6004 50.0021 53.6875C50.0021 52.7898 50.1726 52.0019 50.5135 51.3239C50.8582 50.642 51.3393 50.1117 51.9567 49.733C52.5741 49.3504 53.2995 49.1591 54.1328 49.1591C54.6707 49.1591 55.1783 49.2462 55.6555 49.4205C56.1366 49.5909 56.5608 49.8561 56.9283 50.2159C57.2995 50.5758 57.5911 51.0341 57.8033 51.5909C58.0154 52.1439 58.1214 52.803 58.1214 53.5682V54.1989H50.968V52.8125H56.1499C56.1461 52.4186 56.0608 52.0682 55.8942 51.7614C55.7275 51.4508 55.4946 51.2064 55.1953 51.0284C54.8999 50.8504 54.5552 50.7614 54.1612 50.7614C53.7408 50.7614 53.3714 50.8636 53.0533 51.0682C52.7351 51.2689 52.487 51.5341 52.3089 51.8636C52.1347 52.1894 52.0457 52.5473 52.0419 52.9375V54.1477C52.0419 54.6553 52.1347 55.0909 52.3203 55.4545C52.5059 55.8144 52.7654 56.0909 53.0987 56.2841C53.4321 56.4735 53.8222 56.5682 54.2692 56.5682C54.5684 56.5682 54.8393 56.5265 55.0817 56.4432C55.3241 56.3561 55.5343 56.2292 55.7124 56.0625C55.8904 55.8958 56.0249 55.6894 56.1158 55.4432L58.0362 55.6591C57.915 56.1667 57.6839 56.6098 57.343 56.9886C57.0059 57.3636 56.5741 57.6553 56.0476 57.8636C55.5211 58.0682 54.9188 58.1705 54.2408 58.1705ZM67.407 49.2727L64.299 58H62.0263L58.9183 49.2727H61.1115L63.1172 55.7557H63.2081L65.2195 49.2727H67.407ZM68.8303 58V49.2727H70.8871V58H68.8303ZM69.8643 48.0341C69.5386 48.0341 69.2583 47.9261 69.0234 47.7102C68.7886 47.4905 68.6712 47.2273 68.6712 46.9205C68.6712 46.6098 68.7886 46.3466 69.0234 46.1307C69.2583 45.911 69.5386 45.8011 69.8643 45.8011C70.1939 45.8011 70.4742 45.911 70.7053 46.1307C70.9401 46.3466 71.0575 46.6098 71.0575 46.9205C71.0575 47.2273 70.9401 47.4905 70.7053 47.7102C70.4742 47.9261 70.1939 48.0341 69.8643 48.0341ZM76.8658 58.1705C75.9908 58.1705 75.2351 57.9886 74.5987 57.625C73.9661 57.2576 73.4794 56.7386 73.1385 56.0682C72.7976 55.3939 72.6271 54.6004 72.6271 53.6875C72.6271 52.7898 72.7976 52.0019 73.1385 51.3239C73.4832 50.642 73.9643 50.1117 74.5817 49.733C75.1991 49.3504 75.9245 49.1591 76.7578 49.1591C77.2957 49.1591 77.8033 49.2462 78.2805 49.4205C78.7616 49.5909 79.1858 49.8561 79.5533 50.2159C79.9245 50.5758 80.2161 51.0341 80.4283 51.5909C80.6404 52.1439 80.7464 52.803 80.7464 53.5682V54.1989H73.593V52.8125H78.7749C78.7711 52.4186 78.6858 52.0682 78.5192 51.7614C78.3525 51.4508 78.1196 51.2064 77.8203 51.0284C77.5249 50.8504 77.1802 50.7614 76.7862 50.7614C76.3658 50.7614 75.9964 50.8636 75.6783 51.0682C75.3601 51.2689 75.112 51.5341 74.9339 51.8636C74.7597 52.1894 74.6707 52.5473 74.6669 52.9375V54.1477C74.6669 54.6553 74.7597 55.0909 74.9453 55.4545C75.1309 55.8144 75.3904 56.0909 75.7237 56.2841C76.0571 56.4735 76.4472 56.5682 76.8942 56.5682C77.1934 56.5682 77.4643 56.5265 77.7067 56.4432C77.9491 56.3561 78.1593 56.2292 78.3374 56.0625C78.5154 55.8958 78.6499 55.6894 78.7408 55.4432L80.6612 55.6591C80.54 56.1667 80.3089 56.6098 79.968 56.9886C79.6309 57.3636 79.1991 57.6553 78.6726 57.8636C78.1461 58.0682 77.5438 58.1705 76.8658 58.1705ZM84.2408 58L81.7749 49.2727H83.8714L85.4055 55.4091H85.4851L87.0533 49.2727H89.1271L90.6953 55.375H90.7805L92.2919 49.2727H94.3942L91.9226 58H89.7805L88.1442 52.1023H88.0249L86.3885 58H84.2408ZM101.856 52.8864V58H99.799V46.3636H101.81V50.7557H101.913C102.117 50.2633 102.433 49.875 102.862 49.5909C103.293 49.303 103.843 49.1591 104.509 49.1591C105.115 49.1591 105.644 49.286 106.094 49.5398C106.545 49.7936 106.894 50.1648 107.14 50.6534C107.39 51.142 107.515 51.7386 107.515 52.4432V58H105.458V52.7614C105.458 52.1742 105.307 51.7178 105.004 51.392C104.704 51.0625 104.284 50.8977 103.742 50.8977C103.379 50.8977 103.053 50.9773 102.765 51.1364C102.481 51.2917 102.257 51.517 102.094 51.8125C101.935 52.108 101.856 52.4659 101.856 52.8864ZM113.475 58.1705C112.6 58.1705 111.844 57.9886 111.208 57.625C110.576 57.2576 110.089 56.7386 109.748 56.0682C109.407 55.3939 109.237 54.6004 109.237 53.6875C109.237 52.7898 109.407 52.0019 109.748 51.3239C110.093 50.642 110.574 50.1117 111.191 49.733C111.808 49.3504 112.534 49.1591 113.367 49.1591C113.905 49.1591 114.413 49.2462 114.89 49.4205C115.371 49.5909 115.795 49.8561 116.163 50.2159C116.534 50.5758 116.826 51.0341 117.038 51.5909C117.25 52.1439 117.356 52.803 117.356 53.5682V54.1989H110.202V52.8125H115.384C115.38 52.4186 115.295 52.0682 115.129 51.7614C114.962 51.4508 114.729 51.2064 114.43 51.0284C114.134 50.8504 113.79 50.7614 113.396 50.7614C112.975 50.7614 112.606 50.8636 112.288 51.0682C111.969 51.2689 111.721 51.5341 111.543 51.8636C111.369 52.1894 111.28 52.5473 111.276 52.9375V54.1477C111.276 54.6553 111.369 55.0909 111.555 55.4545C111.74 55.8144 112 56.0909 112.333 56.2841C112.666 56.4735 113.057 56.5682 113.504 56.5682C113.803 56.5682 114.074 56.5265 114.316 56.4432C114.558 56.3561 114.769 56.2292 114.947 56.0625C115.125 55.8958 115.259 55.6894 115.35 55.4432L117.271 55.6591C117.149 56.1667 116.918 56.6098 116.577 56.9886C116.24 57.3636 115.808 57.6553 115.282 57.8636C114.755 58.0682 114.153 58.1705 113.475 58.1705ZM119.096 58V49.2727H121.09V50.7273H121.181C121.34 50.2235 121.613 49.8352 121.999 49.5625C122.389 49.286 122.835 49.1477 123.335 49.1477C123.448 49.1477 123.575 49.1534 123.715 49.1648C123.859 49.1723 123.978 49.1856 124.073 49.2045V51.0966C123.986 51.0663 123.848 51.0398 123.658 51.017C123.473 50.9905 123.293 50.9773 123.119 50.9773C122.744 50.9773 122.406 51.0587 122.107 51.2216C121.812 51.3807 121.579 51.6023 121.408 51.8864C121.238 52.1705 121.153 52.4981 121.153 52.8693V58H119.096ZM128.944 58.1705C128.069 58.1705 127.313 57.9886 126.677 57.625C126.044 57.2576 125.558 56.7386 125.217 56.0682C124.876 55.3939 124.705 54.6004 124.705 53.6875C124.705 52.7898 124.876 52.0019 125.217 51.3239C125.561 50.642 126.042 50.1117 126.66 49.733C127.277 49.3504 128.003 49.1591 128.836 49.1591C129.374 49.1591 129.881 49.2462 130.359 49.4205C130.84 49.5909 131.264 49.8561 131.631 50.2159C132.003 50.5758 132.294 51.0341 132.506 51.5909C132.719 52.1439 132.825 52.803 132.825 53.5682V54.1989H125.671V52.8125H130.853C130.849 52.4186 130.764 52.0682 130.597 51.7614C130.431 51.4508 130.198 51.2064 129.898 51.0284C129.603 50.8504 129.258 50.7614 128.864 50.7614C128.444 50.7614 128.075 50.8636 127.756 51.0682C127.438 51.2689 127.19 51.5341 127.012 51.8636C126.838 52.1894 126.749 52.5473 126.745 52.9375V54.1477C126.745 54.6553 126.838 55.0909 127.023 55.4545C127.209 55.8144 127.469 56.0909 127.802 56.2841C128.135 56.4735 128.525 56.5682 128.972 56.5682C129.272 56.5682 129.542 56.5265 129.785 56.4432C130.027 56.3561 130.237 56.2292 130.415 56.0625C130.594 55.8958 130.728 55.6894 130.819 55.4432L132.739 55.6591C132.618 56.1667 132.387 56.6098 132.046 56.9886C131.709 57.3636 131.277 57.6553 130.751 57.8636C130.224 58.0682 129.622 58.1705 128.944 58.1705ZM138.624 58V46.3636H140.681V50.7159H140.766C140.872 50.5038 141.022 50.2784 141.215 50.0398C141.408 49.7973 141.67 49.5909 141.999 49.4205C142.329 49.2462 142.749 49.1591 143.261 49.1591C143.935 49.1591 144.543 49.3314 145.085 49.6761C145.63 50.017 146.062 50.5227 146.38 51.1932C146.702 51.8598 146.863 52.678 146.863 53.6477C146.863 54.6061 146.706 55.4205 146.391 56.0909C146.077 56.7614 145.649 57.2727 145.107 57.625C144.566 57.9773 143.952 58.1534 143.266 58.1534C142.766 58.1534 142.352 58.0701 142.022 57.9034C141.692 57.7367 141.427 57.536 141.227 57.3011C141.03 57.0625 140.876 56.8371 140.766 56.625H140.647V58H138.624ZM140.641 53.6364C140.641 54.2008 140.721 54.6951 140.88 55.1193C141.043 55.5436 141.276 55.875 141.579 56.1136C141.886 56.3485 142.257 56.4659 142.692 56.4659C143.147 56.4659 143.528 56.3447 143.835 56.1023C144.141 55.8561 144.372 55.5208 144.528 55.0966C144.687 54.6686 144.766 54.1818 144.766 53.6364C144.766 53.0947 144.689 52.6136 144.533 52.1932C144.378 51.7727 144.147 51.4432 143.84 51.2045C143.533 50.9659 143.151 50.8466 142.692 50.8466C142.253 50.8466 141.88 50.9621 141.573 51.1932C141.266 51.4242 141.033 51.7481 140.874 52.1648C140.719 52.5814 140.641 53.072 140.641 53.6364ZM154.174 54.3295V49.2727H156.231V58H154.237V56.4489H154.146C153.949 56.9375 153.625 57.3371 153.174 57.6477C152.727 57.9583 152.176 58.1136 151.521 58.1136C150.949 58.1136 150.443 57.9867 150.004 57.733C149.568 57.4754 149.227 57.1023 148.981 56.6136C148.735 56.1212 148.612 55.5265 148.612 54.8295V49.2727H150.668V54.5114C150.668 55.0644 150.82 55.5038 151.123 55.8295C151.426 56.1553 151.824 56.3182 152.316 56.3182C152.619 56.3182 152.913 56.2443 153.197 56.0966C153.481 55.9489 153.714 55.7292 153.896 55.4375C154.081 55.142 154.174 54.7727 154.174 54.3295ZM162.704 49.2727V50.8636H157.687V49.2727H162.704ZM158.925 47.1818H160.982V55.375C160.982 55.6515 161.024 55.8636 161.107 56.0114C161.194 56.1553 161.308 56.2538 161.448 56.3068C161.588 56.3598 161.744 56.3864 161.914 56.3864C162.043 56.3864 162.16 56.3769 162.266 56.358C162.376 56.339 162.46 56.322 162.516 56.3068L162.863 57.9148C162.753 57.9527 162.596 57.9943 162.391 58.0398C162.191 58.0852 161.944 58.1117 161.653 58.1193C161.138 58.1345 160.674 58.0568 160.261 57.8864C159.848 57.7121 159.52 57.4432 159.278 57.0795C159.039 56.7159 158.922 56.2614 158.925 55.7159V47.1818ZM170.45 52.8864V58H168.393V49.2727H170.359V50.7557H170.461C170.662 50.267 170.982 49.8788 171.421 49.5909C171.864 49.303 172.412 49.1591 173.063 49.1591C173.665 49.1591 174.19 49.2879 174.637 49.5455C175.088 49.803 175.436 50.1761 175.683 50.6648C175.933 51.1534 176.056 51.7462 176.052 52.4432V58H173.995V52.7614C173.995 52.178 173.844 51.7216 173.54 51.392C173.241 51.0625 172.826 50.8977 172.296 50.8977C171.936 50.8977 171.616 50.9773 171.336 51.1364C171.059 51.2917 170.842 51.517 170.683 51.8125C170.527 52.108 170.45 52.4659 170.45 52.8864ZM181.95 58.1705C181.097 58.1705 180.359 57.983 179.734 57.608C179.109 57.233 178.624 56.7083 178.279 56.0341C177.938 55.3598 177.768 54.572 177.768 53.6705C177.768 52.7689 177.938 51.9792 178.279 51.3011C178.624 50.6231 179.109 50.0966 179.734 49.7216C180.359 49.3466 181.097 49.1591 181.95 49.1591C182.802 49.1591 183.54 49.3466 184.165 49.7216C184.79 50.0966 185.273 50.6231 185.614 51.3011C185.959 51.9792 186.131 52.7689 186.131 53.6705C186.131 54.572 185.959 55.3598 185.614 56.0341C185.273 56.7083 184.79 57.233 184.165 57.608C183.54 57.983 182.802 58.1705 181.95 58.1705ZM181.961 56.5227C182.423 56.5227 182.809 56.3958 183.12 56.142C183.431 55.8845 183.662 55.5398 183.813 55.108C183.969 54.6761 184.046 54.1951 184.046 53.6648C184.046 53.1307 183.969 52.6477 183.813 52.2159C183.662 51.7803 183.431 51.4337 183.12 51.1761C182.809 50.9186 182.423 50.7898 181.961 50.7898C181.487 50.7898 181.094 50.9186 180.779 51.1761C180.469 51.4337 180.236 51.7803 180.08 52.2159C179.929 52.6477 179.853 53.1307 179.853 53.6648C179.853 54.1951 179.929 54.6761 180.08 55.108C180.236 55.5398 180.469 55.8845 180.779 56.142C181.094 56.3958 181.487 56.5227 181.961 56.5227ZM192.235 49.2727V50.8636H187.218V49.2727H192.235ZM188.457 47.1818H190.513V55.375C190.513 55.6515 190.555 55.8636 190.638 56.0114C190.726 56.1553 190.839 56.2538 190.979 56.3068C191.12 56.3598 191.275 56.3864 191.445 56.3864C191.574 56.3864 191.692 56.3769 191.798 56.358C191.907 56.339 191.991 56.322 192.048 56.3068L192.394 57.9148C192.284 57.9527 192.127 57.9943 191.923 58.0398C191.722 58.0852 191.476 58.1117 191.184 58.1193C190.669 58.1345 190.205 58.0568 189.792 57.8864C189.379 57.7121 189.051 57.4432 188.809 57.0795C188.57 56.7159 188.453 56.2614 188.457 55.7159V47.1818ZM202.282 49.2727V50.8636H197.265V49.2727H202.282ZM198.504 47.1818H200.56V55.375C200.56 55.6515 200.602 55.8636 200.685 56.0114C200.772 56.1553 200.886 56.2538 201.026 56.3068C201.166 56.3598 201.322 56.3864 201.492 56.3864C201.621 56.3864 201.738 56.3769 201.844 56.358C201.954 56.339 202.038 56.322 202.094 56.3068L202.441 57.9148C202.331 57.9527 202.174 57.9943 201.969 58.0398C201.769 58.0852 201.522 58.1117 201.231 58.1193C200.716 58.1345 200.252 58.0568 199.839 57.8864C199.426 57.7121 199.098 57.4432 198.856 57.0795C198.617 56.7159 198.5 56.2614 198.504 55.7159V47.1818ZM206.246 52.8864V58H204.19V46.3636H206.201V50.7557H206.303C206.508 50.2633 206.824 49.875 207.252 49.5909C207.684 49.303 208.233 49.1591 208.9 49.1591C209.506 49.1591 210.034 49.286 210.485 49.5398C210.936 49.7936 211.284 50.1648 211.531 50.6534C211.781 51.142 211.906 51.7386 211.906 52.4432V58H209.849V52.7614C209.849 52.1742 209.697 51.7178 209.394 51.392C209.095 51.0625 208.674 50.8977 208.133 50.8977C207.769 50.8977 207.443 50.9773 207.156 51.1364C206.871 51.2917 206.648 51.517 206.485 51.8125C206.326 52.108 206.246 52.4659 206.246 52.8864ZM214.002 58V49.2727H216.059V58H214.002ZM215.036 48.0341C214.71 48.0341 214.43 47.9261 214.195 47.7102C213.96 47.4905 213.843 47.2273 213.843 46.9205C213.843 46.6098 213.96 46.3466 214.195 46.1307C214.43 45.911 214.71 45.8011 215.036 45.8011C215.366 45.8011 215.646 45.911 215.877 46.1307C216.112 46.3466 216.229 46.6098 216.229 46.9205C216.229 47.2273 216.112 47.4905 215.877 47.7102C215.646 47.9261 215.366 48.0341 215.036 48.0341ZM225.072 51.5795L223.197 51.7841C223.144 51.5947 223.051 51.4167 222.918 51.25C222.79 51.0833 222.615 50.9489 222.396 50.8466C222.176 50.7443 221.907 50.6932 221.589 50.6932C221.161 50.6932 220.801 50.786 220.509 50.9716C220.221 51.1572 220.079 51.3977 220.083 51.6932C220.079 51.947 220.172 52.1534 220.362 52.3125C220.555 52.4716 220.873 52.6023 221.316 52.7045L222.805 53.0227C223.63 53.2008 224.244 53.483 224.646 53.8693C225.051 54.2557 225.255 54.7614 225.259 55.3864C225.255 55.9356 225.094 56.4205 224.776 56.8409C224.462 57.2576 224.024 57.5833 223.464 57.8182C222.903 58.053 222.259 58.1705 221.532 58.1705C220.464 58.1705 219.604 57.947 218.952 57.5C218.301 57.0492 217.913 56.4223 217.788 55.6193L219.793 55.4261C219.884 55.8201 220.077 56.1174 220.373 56.3182C220.668 56.5189 221.053 56.6193 221.526 56.6193C222.015 56.6193 222.407 56.5189 222.702 56.3182C223.002 56.1174 223.151 55.8693 223.151 55.5739C223.151 55.3239 223.055 55.1174 222.862 54.9545C222.672 54.7917 222.377 54.6667 221.975 54.5795L220.487 54.267C219.649 54.0928 219.03 53.7992 218.629 53.3864C218.227 52.9697 218.028 52.4432 218.032 51.8068C218.028 51.2689 218.174 50.803 218.469 50.4091C218.769 50.0114 219.183 49.7045 219.714 49.4886C220.248 49.2689 220.863 49.1591 221.56 49.1591C222.583 49.1591 223.388 49.3769 223.975 49.8125C224.566 50.2481 224.932 50.8371 225.072 51.5795ZM234.731 58.1705C233.879 58.1705 233.14 57.983 232.515 57.608C231.89 57.233 231.405 56.7083 231.06 56.0341C230.719 55.3598 230.549 54.572 230.549 53.6705C230.549 52.7689 230.719 51.9792 231.06 51.3011C231.405 50.6231 231.89 50.0966 232.515 49.7216C233.14 49.3466 233.879 49.1591 234.731 49.1591C235.583 49.1591 236.322 49.3466 236.947 49.7216C237.572 50.0966 238.055 50.6231 238.396 51.3011C238.74 51.9792 238.913 52.7689 238.913 53.6705C238.913 54.572 238.74 55.3598 238.396 56.0341C238.055 56.7083 237.572 57.233 236.947 57.608C236.322 57.983 235.583 58.1705 234.731 58.1705ZM234.742 56.5227C235.204 56.5227 235.591 56.3958 235.901 56.142C236.212 55.8845 236.443 55.5398 236.594 55.108C236.75 54.6761 236.827 54.1951 236.827 53.6648C236.827 53.1307 236.75 52.6477 236.594 52.2159C236.443 51.7803 236.212 51.4337 235.901 51.1761C235.591 50.9186 235.204 50.7898 234.742 50.7898C234.269 50.7898 233.875 50.9186 233.56 51.1761C233.25 51.4337 233.017 51.7803 232.862 52.2159C232.71 52.6477 232.634 53.1307 232.634 53.6648C232.634 54.1951 232.71 54.6761 232.862 55.108C233.017 55.5398 233.25 55.8845 233.56 56.142C233.875 56.3958 234.269 56.5227 234.742 56.5227ZM242.715 52.8864V58H240.658V49.2727H242.624V50.7557H242.727C242.927 50.267 243.247 49.8788 243.687 49.5909C244.13 49.303 244.677 49.1591 245.329 49.1591C245.931 49.1591 246.456 49.2879 246.903 49.5455C247.353 49.803 247.702 50.1761 247.948 50.6648C248.198 51.1534 248.321 51.7462 248.317 52.4432V58H246.261V52.7614C246.261 52.178 246.109 51.7216 245.806 51.392C245.507 51.0625 245.092 50.8977 244.562 50.8977C244.202 50.8977 243.882 50.9773 243.602 51.1364C243.325 51.2917 243.107 51.517 242.948 51.8125C242.793 52.108 242.715 52.4659 242.715 52.8864ZM254.272 58.1705C253.397 58.1705 252.641 57.9886 252.005 57.625C251.372 57.2576 250.886 56.7386 250.545 56.0682C250.204 55.3939 250.033 54.6004 250.033 53.6875C250.033 52.7898 250.204 52.0019 250.545 51.3239C250.889 50.642 251.371 50.1117 251.988 49.733C252.605 49.3504 253.331 49.1591 254.164 49.1591C254.702 49.1591 255.21 49.2462 255.687 49.4205C256.168 49.5909 256.592 49.8561 256.96 50.2159C257.331 50.5758 257.622 51.0341 257.835 51.5909C258.047 52.1439 258.153 52.803 258.153 53.5682V54.1989H250.999V52.8125H256.181C256.177 52.4186 256.092 52.0682 255.925 51.7614C255.759 51.4508 255.526 51.2064 255.227 51.0284C254.931 50.8504 254.586 50.7614 254.192 50.7614C253.772 50.7614 253.403 50.8636 253.085 51.0682C252.766 51.2689 252.518 51.5341 252.34 51.8636C252.166 52.1894 252.077 52.5473 252.073 52.9375V54.1477C252.073 54.6553 252.166 55.0909 252.352 55.4545C252.537 55.8144 252.797 56.0909 253.13 56.2841C253.463 56.4735 253.853 56.5682 254.3 56.5682C254.6 56.5682 254.871 56.5265 255.113 56.4432C255.355 56.3561 255.566 56.2292 255.744 56.0625C255.922 55.8958 256.056 55.6894 256.147 55.4432L258.067 55.6591C257.946 56.1667 257.715 56.6098 257.374 56.9886C257.037 57.3636 256.605 57.6553 256.079 57.8636C255.552 58.0682 254.95 58.1705 254.272 58.1705ZM261.16 58.125C260.815 58.125 260.52 58.0038 260.273 57.7614C260.027 57.5189 259.906 57.2235 259.91 56.875C259.906 56.5341 260.027 56.2424 260.273 56C260.52 55.7576 260.815 55.6364 261.16 55.6364C261.493 55.6364 261.783 55.7576 262.029 56C262.279 56.2424 262.406 56.5341 262.41 56.875C262.406 57.1061 262.345 57.3163 262.228 57.5057C262.114 57.6951 261.963 57.8466 261.773 57.9602C261.588 58.0701 261.383 58.125 261.16 58.125ZM269.79 46.3636L272.819 55.5227H272.938L275.961 46.3636H278.279L274.177 58H271.575L267.478 46.3636H269.79ZM279.721 58V49.2727H281.778V58H279.721ZM280.755 48.0341C280.429 48.0341 280.149 47.9261 279.914 47.7102C279.679 47.4905 279.562 47.2273 279.562 46.9205C279.562 46.6098 279.679 46.3466 279.914 46.1307C280.149 45.911 280.429 45.8011 280.755 45.8011C281.085 45.8011 281.365 45.911 281.596 46.1307C281.831 46.3466 281.948 46.6098 281.948 46.9205C281.948 47.2273 281.831 47.4905 281.596 47.7102C281.365 47.9261 281.085 48.0341 280.755 48.0341ZM287.756 58.1705C286.881 58.1705 286.126 57.9886 285.489 57.625C284.857 57.2576 284.37 56.7386 284.029 56.0682C283.688 55.3939 283.518 54.6004 283.518 53.6875C283.518 52.7898 283.688 52.0019 284.029 51.3239C284.374 50.642 284.855 50.1117 285.472 49.733C286.09 49.3504 286.815 49.1591 287.648 49.1591C288.186 49.1591 288.694 49.2462 289.171 49.4205C289.652 49.5909 290.076 49.8561 290.444 50.2159C290.815 50.5758 291.107 51.0341 291.319 51.5909C291.531 52.1439 291.637 52.803 291.637 53.5682V54.1989H284.484V52.8125H289.665C289.662 52.4186 289.576 52.0682 289.41 51.7614C289.243 51.4508 289.01 51.2064 288.711 51.0284C288.415 50.8504 288.071 50.7614 287.677 50.7614C287.256 50.7614 286.887 50.8636 286.569 51.0682C286.251 51.2689 286.003 51.5341 285.825 51.8636C285.65 52.1894 285.561 52.5473 285.558 52.9375V54.1477C285.558 54.6553 285.65 55.0909 285.836 55.4545C286.022 55.8144 286.281 56.0909 286.614 56.2841C286.948 56.4735 287.338 56.5682 287.785 56.5682C288.084 56.5682 288.355 56.5265 288.597 56.4432C288.84 56.3561 289.05 56.2292 289.228 56.0625C289.406 55.8958 289.54 55.6894 289.631 55.4432L291.552 55.6591C291.431 56.1667 291.2 56.6098 290.859 56.9886C290.522 57.3636 290.09 57.6553 289.563 57.8636C289.037 58.0682 288.434 58.1705 287.756 58.1705ZM295.131 58L292.665 49.2727H294.762L296.296 55.4091H296.376L297.944 49.2727H300.018L301.586 55.375H301.671L303.183 49.2727H305.285L302.813 58H300.671L299.035 52.1023H298.915L297.279 58H295.131ZM43.3338 77.1761C42.7808 77.1761 42.2827 77.0777 41.8395 76.8807C41.4001 76.6799 41.0516 76.3845 40.794 75.9943C40.5402 75.6042 40.4134 75.1231 40.4134 74.5511C40.4134 74.0587 40.5043 73.6515 40.6861 73.3295C40.8679 73.0076 41.116 72.75 41.4304 72.5568C41.7448 72.3636 42.099 72.2178 42.4929 72.1193C42.8906 72.017 43.3016 71.9432 43.7259 71.8977C44.2372 71.8447 44.652 71.7973 44.9702 71.7557C45.2884 71.7102 45.5194 71.642 45.6634 71.5511C45.8111 71.4564 45.8849 71.3106 45.8849 71.1136V71.0795C45.8849 70.6515 45.758 70.3201 45.5043 70.0852C45.2505 69.8504 44.8849 69.733 44.4077 69.733C43.9039 69.733 43.5043 69.8428 43.2088 70.0625C42.9171 70.2822 42.7202 70.5417 42.6179 70.8409L40.6974 70.5682C40.849 70.0379 41.099 69.5947 41.4474 69.2386C41.7959 68.8788 42.2221 68.6098 42.7259 68.4318C43.2296 68.25 43.7865 68.1591 44.3963 68.1591C44.8168 68.1591 45.2353 68.2083 45.652 68.3068C46.0687 68.4053 46.4493 68.5682 46.794 68.7955C47.1387 69.0189 47.4152 69.3239 47.6236 69.7102C47.8357 70.0966 47.9418 70.5795 47.9418 71.1591V77H45.9645V75.8011H45.8963C45.7713 76.0436 45.5952 76.2708 45.3679 76.483C45.1444 76.6913 44.8622 76.8598 44.5213 76.9886C44.1842 77.1136 43.7884 77.1761 43.3338 77.1761ZM43.8679 75.6648C44.2808 75.6648 44.6387 75.5833 44.9418 75.4205C45.2448 75.2538 45.4777 75.0341 45.6406 74.7614C45.8073 74.4886 45.8906 74.1913 45.8906 73.8693V72.8409C45.8262 72.8939 45.7164 72.9432 45.5611 72.9886C45.4096 73.0341 45.2391 73.0739 45.0497 73.108C44.8603 73.142 44.6728 73.1723 44.4872 73.1989C44.3016 73.2254 44.1406 73.2481 44.0043 73.267C43.6974 73.3087 43.4228 73.3769 43.1804 73.4716C42.938 73.5663 42.7467 73.6989 42.6065 73.8693C42.4664 74.036 42.3963 74.2519 42.3963 74.517C42.3963 74.8958 42.5346 75.1818 42.8111 75.375C43.0876 75.5682 43.4399 75.6648 43.8679 75.6648ZM52.0668 71.8864V77H50.0099V68.2727H51.9759V69.7557H52.0781C52.2789 69.267 52.599 68.8788 53.0384 68.5909C53.4815 68.303 54.0289 68.1591 54.6804 68.1591C55.2827 68.1591 55.8073 68.2879 56.2543 68.5455C56.705 68.803 57.0535 69.1761 57.2997 69.6648C57.5497 70.1534 57.6728 70.7462 57.669 71.4432V77H55.6122V71.7614C55.6122 71.178 55.4607 70.7216 55.1577 70.392C54.8584 70.0625 54.4437 69.8977 53.9134 69.8977C53.5535 69.8977 53.2334 69.9773 52.9531 70.1364C52.6766 70.2917 52.4588 70.517 52.2997 70.8125C52.1444 71.108 52.0668 71.4659 52.0668 71.8864ZM62.9986 77.1534C62.313 77.1534 61.6993 76.9773 61.1577 76.625C60.616 76.2727 60.188 75.7614 59.8736 75.0909C59.5592 74.4205 59.402 73.6061 59.402 72.6477C59.402 71.678 59.5611 70.8598 59.8793 70.1932C60.2012 69.5227 60.6349 69.017 61.1804 68.6761C61.7259 68.3314 62.3338 68.1591 63.0043 68.1591C63.5156 68.1591 63.9361 68.2462 64.2656 68.4205C64.5952 68.5909 64.8565 68.7973 65.0497 69.0398C65.2429 69.2784 65.3925 69.5038 65.4986 69.7159H65.5838V65.3636H67.6463V77H65.6236V75.625H65.4986C65.3925 75.8371 65.2391 76.0625 65.0384 76.3011C64.8376 76.536 64.5724 76.7367 64.2429 76.9034C63.9134 77.0701 63.4986 77.1534 62.9986 77.1534ZM63.5724 75.4659C64.008 75.4659 64.3793 75.3485 64.6861 75.1136C64.9929 74.875 65.2259 74.5436 65.3849 74.1193C65.544 73.6951 65.6236 73.2008 65.6236 72.6364C65.6236 72.072 65.544 71.5814 65.3849 71.1648C65.2296 70.7481 64.9986 70.4242 64.6918 70.1932C64.3887 69.9621 64.0156 69.8466 63.5724 69.8466C63.1141 69.8466 62.7315 69.9659 62.4247 70.2045C62.1179 70.4432 61.8868 70.7727 61.7315 71.1932C61.5762 71.6136 61.4986 72.0947 61.4986 72.6364C61.4986 73.1818 61.5762 73.6686 61.7315 74.0966C61.8906 74.5208 62.1236 74.8561 62.4304 75.1023C62.741 75.3447 63.1217 75.4659 63.5724 75.4659ZM78.1648 68.2727V69.8636H73.1477V68.2727H78.1648ZM74.3864 66.1818H76.4432V74.375C76.4432 74.6515 76.4848 74.8636 76.5682 75.0114C76.6553 75.1553 76.7689 75.2538 76.9091 75.3068C77.0492 75.3598 77.2045 75.3864 77.375 75.3864C77.5038 75.3864 77.6212 75.3769 77.7273 75.358C77.8371 75.339 77.9205 75.322 77.9773 75.3068L78.3239 76.9148C78.214 76.9527 78.0568 76.9943 77.8523 77.0398C77.6515 77.0852 77.4053 77.1117 77.1136 77.1193C76.5985 77.1345 76.1345 77.0568 75.7216 76.8864C75.3087 76.7121 74.9811 76.4432 74.7386 76.0795C74.5 75.7159 74.3826 75.2614 74.3864 74.7159V66.1818ZM83.6548 77.1705C82.7798 77.1705 82.0241 76.9886 81.3878 76.625C80.7552 76.2576 80.2685 75.7386 79.9276 75.0682C79.5866 74.3939 79.4162 73.6004 79.4162 72.6875C79.4162 71.7898 79.5866 71.0019 79.9276 70.3239C80.2723 69.642 80.7533 69.1117 81.3707 68.733C81.9882 68.3504 82.7135 68.1591 83.5469 68.1591C84.0848 68.1591 84.5923 68.2462 85.0696 68.4205C85.5507 68.5909 85.9749 68.8561 86.3423 69.2159C86.7135 69.5758 87.0052 70.0341 87.2173 70.5909C87.4295 71.1439 87.5355 71.803 87.5355 72.5682V73.1989H80.3821V71.8125H85.5639C85.5601 71.4186 85.4749 71.0682 85.3082 70.7614C85.1416 70.4508 84.9086 70.2064 84.6094 70.0284C84.3139 69.8504 83.9692 69.7614 83.5753 69.7614C83.1548 69.7614 82.7855 69.8636 82.4673 70.0682C82.1491 70.2689 81.901 70.5341 81.723 70.8636C81.5488 71.1894 81.4598 71.5473 81.456 71.9375V73.1477C81.456 73.6553 81.5488 74.0909 81.7344 74.4545C81.92 74.8144 82.1795 75.0909 82.5128 75.2841C82.8461 75.4735 83.2363 75.5682 83.6832 75.5682C83.9825 75.5682 84.2533 75.5265 84.4957 75.4432C84.7382 75.3561 84.9484 75.2292 85.1264 75.0625C85.3045 74.8958 85.4389 74.6894 85.5298 74.4432L87.4503 74.6591C87.3291 75.1667 87.098 75.6098 86.7571 75.9886C86.42 76.3636 85.9882 76.6553 85.4616 76.8636C84.9351 77.0682 84.3329 77.1705 83.6548 77.1705ZM96.1733 70.5795L94.2983 70.7841C94.2453 70.5947 94.1525 70.4167 94.0199 70.25C93.8911 70.0833 93.7169 69.9489 93.4972 69.8466C93.2775 69.7443 93.0085 69.6932 92.6903 69.6932C92.2623 69.6932 91.9025 69.786 91.6108 69.9716C91.3229 70.1572 91.1809 70.3977 91.1847 70.6932C91.1809 70.947 91.2737 71.1534 91.4631 71.3125C91.6563 71.4716 91.9744 71.6023 92.4176 71.7045L93.9062 72.0227C94.732 72.2008 95.3456 72.483 95.7472 72.8693C96.1525 73.2557 96.357 73.7614 96.3608 74.3864C96.357 74.9356 96.196 75.4205 95.8778 75.8409C95.5634 76.2576 95.1259 76.5833 94.5653 76.8182C94.0047 77.053 93.3608 77.1705 92.6335 77.1705C91.5653 77.1705 90.7055 76.947 90.054 76.5C89.4025 76.0492 89.0142 75.4223 88.8892 74.6193L90.8949 74.4261C90.9858 74.8201 91.179 75.1174 91.4744 75.3182C91.7699 75.5189 92.1544 75.6193 92.6278 75.6193C93.1165 75.6193 93.5085 75.5189 93.804 75.3182C94.1032 75.1174 94.2528 74.8693 94.2528 74.5739C94.2528 74.3239 94.1563 74.1174 93.9631 73.9545C93.7737 73.7917 93.4782 73.6667 93.0767 73.5795L91.5881 73.267C90.7509 73.0928 90.1316 72.7992 89.7301 72.3864C89.3286 71.9697 89.1297 71.4432 89.1335 70.8068C89.1297 70.2689 89.2756 69.803 89.571 69.4091C89.8703 69.0114 90.285 68.7045 90.8153 68.4886C91.3494 68.2689 91.965 68.1591 92.6619 68.1591C93.6847 68.1591 94.4896 68.3769 95.0767 68.8125C95.6676 69.2481 96.0331 69.8371 96.1733 70.5795ZM102.415 68.2727V69.8636H97.3977V68.2727H102.415ZM98.6364 66.1818H100.693V74.375C100.693 74.6515 100.735 74.8636 100.818 75.0114C100.905 75.1553 101.019 75.2538 101.159 75.3068C101.299 75.3598 101.455 75.3864 101.625 75.3864C101.754 75.3864 101.871 75.3769 101.977 75.358C102.087 75.339 102.17 75.322 102.227 75.3068L102.574 76.9148C102.464 76.9527 102.307 76.9943 102.102 77.0398C101.902 77.0852 101.655 77.1117 101.364 77.1193C100.848 77.1345 100.384 77.0568 99.9716 76.8864C99.5587 76.7121 99.2311 76.4432 98.9886 76.0795C98.75 75.7159 98.6326 75.2614 98.6364 74.7159V66.1818ZM109.382 80.2727C109.102 80.2727 108.842 80.25 108.604 80.2045C108.369 80.1629 108.181 80.1136 108.041 80.0568L108.518 78.4545C108.818 78.5417 109.085 78.5833 109.32 78.5795C109.554 78.5758 109.761 78.5019 109.939 78.358C110.121 78.2178 110.274 77.983 110.399 77.6534L110.575 77.1818L107.411 68.2727H109.592L111.604 74.8636H111.695L113.712 68.2727H115.899L112.405 78.0568C112.242 78.5189 112.026 78.9148 111.757 79.2443C111.488 79.5777 111.159 79.8314 110.768 80.0057C110.382 80.1837 109.92 80.2727 109.382 80.2727ZM120.832 77.1705C119.98 77.1705 119.241 76.983 118.616 76.608C117.991 76.233 117.507 75.7083 117.162 75.0341C116.821 74.3598 116.651 73.572 116.651 72.6705C116.651 71.7689 116.821 70.9792 117.162 70.3011C117.507 69.6231 117.991 69.0966 118.616 68.7216C119.241 68.3466 119.98 68.1591 120.832 68.1591C121.685 68.1591 122.423 68.3466 123.048 68.7216C123.673 69.0966 124.156 69.6231 124.497 70.3011C124.842 70.9792 125.014 71.7689 125.014 72.6705C125.014 73.572 124.842 74.3598 124.497 75.0341C124.156 75.7083 123.673 76.233 123.048 76.608C122.423 76.983 121.685 77.1705 120.832 77.1705ZM120.844 75.5227C121.306 75.5227 121.692 75.3958 122.003 75.142C122.313 74.8845 122.545 74.5398 122.696 74.108C122.851 73.6761 122.929 73.1951 122.929 72.6648C122.929 72.1307 122.851 71.6477 122.696 71.2159C122.545 70.7803 122.313 70.4337 122.003 70.1761C121.692 69.9186 121.306 69.7898 120.844 69.7898C120.37 69.7898 119.976 69.9186 119.662 70.1761C119.351 70.4337 119.118 70.7803 118.963 71.2159C118.812 71.6477 118.736 72.1307 118.736 72.6648C118.736 73.1951 118.812 73.6761 118.963 74.108C119.118 74.5398 119.351 74.8845 119.662 75.142C119.976 75.3958 120.37 75.5227 120.844 75.5227ZM132.322 73.3295V68.2727H134.379V77H132.385V75.4489H132.294C132.097 75.9375 131.773 76.3371 131.322 76.6477C130.875 76.9583 130.324 77.1136 129.669 77.1136C129.097 77.1136 128.591 76.9867 128.152 76.733C127.716 76.4754 127.375 76.1023 127.129 75.6136C126.883 75.1212 126.76 74.5265 126.76 73.8295V68.2727H128.817V73.5114C128.817 74.0644 128.968 74.5038 129.271 74.8295C129.574 75.1553 129.972 75.3182 130.464 75.3182C130.768 75.3182 131.061 75.2443 131.345 75.0966C131.629 74.9489 131.862 74.7292 132.044 74.4375C132.23 74.142 132.322 73.7727 132.322 73.3295ZM136.494 77V68.2727H138.489V69.7273H138.58C138.739 69.2235 139.011 68.8352 139.398 68.5625C139.788 68.286 140.233 68.1477 140.733 68.1477C140.847 68.1477 140.973 68.1534 141.114 68.1648C141.258 68.1723 141.377 68.1856 141.472 68.2045V70.0966C141.384 70.0663 141.246 70.0398 141.057 70.017C140.871 69.9905 140.691 69.9773 140.517 69.9773C140.142 69.9773 139.805 70.0587 139.506 70.2216C139.21 70.3807 138.977 70.6023 138.807 70.8864C138.636 71.1705 138.551 71.4981 138.551 71.8693V77H136.494ZM151.233 73.0909H153.142L154.273 74.5568L155.08 75.5114L157.017 78H154.972L153.653 76.3295L153.091 75.5341L151.233 73.0909ZM157.295 71.1818C157.295 72.4356 157.061 73.5095 156.591 74.4034C156.125 75.2936 155.489 75.9754 154.682 76.4489C153.879 76.9223 152.968 77.1591 151.949 77.1591C150.93 77.1591 150.017 76.9223 149.21 76.4489C148.407 75.9716 147.771 75.2879 147.301 74.3977C146.835 73.5038 146.602 72.4318 146.602 71.1818C146.602 69.928 146.835 68.8561 147.301 67.9659C147.771 67.072 148.407 66.3883 149.21 65.9148C150.017 65.4413 150.93 65.2045 151.949 65.2045C152.968 65.2045 153.879 65.4413 154.682 65.9148C155.489 66.3883 156.125 67.072 156.591 67.9659C157.061 68.8561 157.295 69.928 157.295 71.1818ZM155.176 71.1818C155.176 70.2992 155.038 69.5549 154.761 68.9489C154.489 68.339 154.11 67.8788 153.625 67.5682C153.14 67.2538 152.581 67.0966 151.949 67.0966C151.316 67.0966 150.758 67.2538 150.273 67.5682C149.788 67.8788 149.407 68.339 149.131 68.9489C148.858 69.5549 148.722 70.2992 148.722 71.1818C148.722 72.0644 148.858 72.8106 149.131 73.4205C149.407 74.0265 149.788 74.4867 150.273 74.8011C150.758 75.1117 151.316 75.267 151.949 75.267C152.581 75.267 153.14 75.1117 153.625 74.8011C154.11 74.4867 154.489 74.0265 154.761 73.4205C155.038 72.8106 155.176 72.0644 155.176 71.1818ZM159.304 77V65.3636H163.668C164.562 65.3636 165.312 65.5189 165.918 65.8295C166.527 66.1402 166.988 66.5758 167.298 67.1364C167.613 67.6932 167.77 68.3428 167.77 69.0852C167.77 69.8314 167.611 70.4792 167.293 71.0284C166.978 71.5739 166.514 71.9962 165.901 72.2955C165.287 72.5909 164.533 72.7386 163.639 72.7386H160.531V70.9886H163.355C163.878 70.9886 164.306 70.9167 164.639 70.7727C164.973 70.625 165.219 70.411 165.378 70.1307C165.541 69.8466 165.622 69.4981 165.622 69.0852C165.622 68.6723 165.541 68.3201 165.378 68.0284C165.215 67.733 164.967 67.5095 164.634 67.358C164.3 67.2027 163.87 67.125 163.344 67.125H161.412V77H159.304ZM165.315 71.7273L168.196 77H165.844L163.014 71.7273H165.315ZM183.639 69.2898H181.514C181.454 68.9413 181.342 68.6326 181.179 68.3636C181.016 68.0909 180.813 67.8598 180.571 67.6705C180.329 67.4811 180.052 67.339 179.741 67.2443C179.435 67.1458 179.103 67.0966 178.747 67.0966C178.115 67.0966 177.554 67.2557 177.065 67.5739C176.577 67.8883 176.194 68.3504 175.918 68.9602C175.641 69.5663 175.503 70.3068 175.503 71.1818C175.503 72.072 175.641 72.822 175.918 73.4318C176.198 74.0379 176.58 74.4962 177.065 74.8068C177.554 75.1136 178.113 75.267 178.741 75.267C179.09 75.267 179.416 75.2216 179.719 75.1307C180.026 75.036 180.3 74.8977 180.543 74.7159C180.789 74.5341 180.995 74.3106 181.162 74.0455C181.332 73.7803 181.45 73.4773 181.514 73.1364L183.639 73.1477C183.56 73.7008 183.387 74.2197 183.122 74.7045C182.861 75.1894 182.518 75.6174 182.094 75.9886C181.67 76.3561 181.173 76.6439 180.605 76.8523C180.037 77.0568 179.406 77.1591 178.713 77.1591C177.69 77.1591 176.777 76.9223 175.974 76.4489C175.171 75.9754 174.539 75.2917 174.077 74.3977C173.615 73.5038 173.384 72.4318 173.384 71.1818C173.384 69.928 173.616 68.8561 174.082 67.9659C174.548 67.072 175.183 66.3883 175.986 65.9148C176.789 65.4413 177.698 65.2045 178.713 65.2045C179.361 65.2045 179.963 65.2955 180.52 65.4773C181.077 65.6591 181.573 65.9261 182.009 66.2784C182.444 66.6269 182.802 67.0549 183.082 67.5625C183.366 68.0663 183.552 68.642 183.639 69.2898ZM189.286 77.1705C188.433 77.1705 187.695 76.983 187.07 76.608C186.445 76.233 185.96 75.7083 185.615 75.0341C185.274 74.3598 185.104 73.572 185.104 72.6705C185.104 71.7689 185.274 70.9792 185.615 70.3011C185.96 69.6231 186.445 69.0966 187.07 68.7216C187.695 68.3466 188.433 68.1591 189.286 68.1591C190.138 68.1591 190.876 68.3466 191.501 68.7216C192.126 69.0966 192.609 69.6231 192.95 70.3011C193.295 70.9792 193.467 71.7689 193.467 72.6705C193.467 73.572 193.295 74.3598 192.95 75.0341C192.609 75.7083 192.126 76.233 191.501 76.608C190.876 76.983 190.138 77.1705 189.286 77.1705ZM189.297 75.5227C189.759 75.5227 190.145 75.3958 190.456 75.142C190.767 74.8845 190.998 74.5398 191.149 74.108C191.304 73.6761 191.382 73.1951 191.382 72.6648C191.382 72.1307 191.304 71.6477 191.149 71.2159C190.998 70.7803 190.767 70.4337 190.456 70.1761C190.145 69.9186 189.759 69.7898 189.297 69.7898C188.823 69.7898 188.429 69.9186 188.115 70.1761C187.804 70.4337 187.571 70.7803 187.416 71.2159C187.265 71.6477 187.189 72.1307 187.189 72.6648C187.189 73.1951 187.265 73.6761 187.416 74.108C187.571 74.5398 187.804 74.8845 188.115 75.142C188.429 75.3958 188.823 75.5227 189.297 75.5227ZM198.452 77.1534C197.766 77.1534 197.152 76.9773 196.611 76.625C196.069 76.2727 195.641 75.7614 195.327 75.0909C195.012 74.4205 194.855 73.6061 194.855 72.6477C194.855 71.678 195.014 70.8598 195.332 70.1932C195.654 69.5227 196.088 69.017 196.634 68.6761C197.179 68.3314 197.787 68.1591 198.457 68.1591C198.969 68.1591 199.389 68.2462 199.719 68.4205C200.048 68.5909 200.31 68.7973 200.503 69.0398C200.696 69.2784 200.846 69.5038 200.952 69.7159H201.037V65.3636H203.099V77H201.077V75.625H200.952C200.846 75.8371 200.692 76.0625 200.491 76.3011C200.291 76.536 200.026 76.7367 199.696 76.9034C199.366 77.0701 198.952 77.1534 198.452 77.1534ZM199.026 75.4659C199.461 75.4659 199.832 75.3485 200.139 75.1136C200.446 74.875 200.679 74.5436 200.838 74.1193C200.997 73.6951 201.077 73.2008 201.077 72.6364C201.077 72.072 200.997 71.5814 200.838 71.1648C200.683 70.7481 200.452 70.4242 200.145 70.1932C199.842 69.9621 199.469 69.8466 199.026 69.8466C198.567 69.8466 198.185 69.9659 197.878 70.2045C197.571 70.4432 197.34 70.7727 197.185 71.1932C197.029 71.6136 196.952 72.0947 196.952 72.6364C196.952 73.1818 197.029 73.6686 197.185 74.0966C197.344 74.5208 197.577 74.8561 197.884 75.1023C198.194 75.3447 198.575 75.4659 199.026 75.4659ZM209.155 77.1705C208.28 77.1705 207.524 76.9886 206.888 76.625C206.255 76.2576 205.768 75.7386 205.428 75.0682C205.087 74.3939 204.916 73.6004 204.916 72.6875C204.916 71.7898 205.087 71.0019 205.428 70.3239C205.772 69.642 206.253 69.1117 206.871 68.733C207.488 68.3504 208.214 68.1591 209.047 68.1591C209.585 68.1591 210.092 68.2462 210.57 68.4205C211.051 68.5909 211.475 68.8561 211.842 69.2159C212.214 69.5758 212.505 70.0341 212.717 70.5909C212.929 71.1439 213.036 71.803 213.036 72.5682V73.1989H205.882V71.8125H211.064C211.06 71.4186 210.975 71.0682 210.808 70.7614C210.642 70.4508 210.409 70.2064 210.109 70.0284C209.814 69.8504 209.469 69.7614 209.075 69.7614C208.655 69.7614 208.286 69.8636 207.967 70.0682C207.649 70.2689 207.401 70.5341 207.223 70.8636C207.049 71.1894 206.96 71.5473 206.956 71.9375V73.1477C206.956 73.6553 207.049 74.0909 207.234 74.4545C207.42 74.8144 207.679 75.0909 208.013 75.2841C208.346 75.4735 208.736 75.5682 209.183 75.5682C209.482 75.5682 209.753 75.5265 209.996 75.4432C210.238 75.3561 210.448 75.2292 210.626 75.0625C210.804 74.8958 210.939 74.6894 211.03 74.4432L212.95 74.6591C212.829 75.1667 212.598 75.6098 212.257 75.9886C211.92 76.3636 211.488 76.6553 210.962 76.8636C210.435 77.0682 209.833 77.1705 209.155 77.1705ZM218.744 77V68.2727H220.801V77H218.744ZM219.778 67.0341C219.453 67.0341 219.172 66.9261 218.938 66.7102C218.703 66.4905 218.585 66.2273 218.585 65.9205C218.585 65.6098 218.703 65.3466 218.938 65.1307C219.172 64.911 219.453 64.8011 219.778 64.8011C220.108 64.8011 220.388 64.911 220.619 65.1307C220.854 65.3466 220.972 65.6098 220.972 65.9205C220.972 66.2273 220.854 66.4905 220.619 66.7102C220.388 66.9261 220.108 67.0341 219.778 67.0341ZM224.973 71.8864V77H222.916V68.2727H224.882V69.7557H224.984C225.185 69.267 225.505 68.8788 225.945 68.5909C226.388 68.303 226.935 68.1591 227.587 68.1591C228.189 68.1591 228.714 68.2879 229.161 68.5455C229.611 68.803 229.96 69.1761 230.206 69.6648C230.456 70.1534 230.579 70.7462 230.575 71.4432V77H228.518V71.7614C228.518 71.178 228.367 70.7216 228.064 70.392C227.765 70.0625 227.35 69.8977 226.82 69.8977C226.46 69.8977 226.14 69.9773 225.859 70.1364C225.583 70.2917 225.365 70.517 225.206 70.8125C225.051 71.108 224.973 71.4659 224.973 71.8864ZM240.993 68.2727V69.8636H235.976V68.2727H240.993ZM237.214 66.1818H239.271V74.375C239.271 74.6515 239.313 74.8636 239.396 75.0114C239.483 75.1553 239.597 75.2538 239.737 75.3068C239.877 75.3598 240.033 75.3864 240.203 75.3864C240.332 75.3864 240.449 75.3769 240.555 75.358C240.665 75.339 240.749 75.322 240.805 75.3068L241.152 76.9148C241.042 76.9527 240.885 76.9943 240.68 77.0398C240.48 77.0852 240.233 77.1117 239.942 77.1193C239.427 77.1345 238.963 77.0568 238.55 76.8864C238.137 76.7121 237.809 76.4432 237.567 76.0795C237.328 75.7159 237.211 75.2614 237.214 74.7159V66.1818ZM244.957 71.8864V77H242.901V65.3636H244.912V69.7557H245.014C245.219 69.2633 245.535 68.875 245.963 68.5909C246.395 68.303 246.944 68.1591 247.611 68.1591C248.217 68.1591 248.745 68.286 249.196 68.5398C249.647 68.7936 249.995 69.1648 250.241 69.6534C250.491 70.142 250.616 70.7386 250.616 71.4432V77H248.56V71.7614C248.56 71.1742 248.408 70.7178 248.105 70.392C247.806 70.0625 247.385 69.8977 246.844 69.8977C246.48 69.8977 246.154 69.9773 245.866 70.1364C245.582 70.2917 245.359 70.517 245.196 70.8125C245.037 71.108 244.957 71.4659 244.957 71.8864ZM256.577 77.1705C255.702 77.1705 254.946 76.9886 254.31 76.625C253.677 76.2576 253.19 75.7386 252.849 75.0682C252.509 74.3939 252.338 73.6004 252.338 72.6875C252.338 71.7898 252.509 71.0019 252.849 70.3239C253.194 69.642 253.675 69.1117 254.293 68.733C254.91 68.3504 255.635 68.1591 256.469 68.1591C257.007 68.1591 257.514 68.2462 257.991 68.4205C258.473 68.5909 258.897 68.8561 259.264 69.2159C259.635 69.5758 259.927 70.0341 260.139 70.5909C260.351 71.1439 260.457 71.803 260.457 72.5682V73.1989H253.304V71.8125H258.486C258.482 71.4186 258.397 71.0682 258.23 70.7614C258.063 70.4508 257.83 70.2064 257.531 70.0284C257.236 69.8504 256.891 69.7614 256.497 69.7614C256.077 69.7614 255.707 69.8636 255.389 70.0682C255.071 70.2689 254.823 70.5341 254.645 70.8636C254.471 71.1894 254.382 71.5473 254.378 71.9375V73.1477C254.378 73.6553 254.471 74.0909 254.656 74.4545C254.842 74.8144 255.101 75.0909 255.435 75.2841C255.768 75.4735 256.158 75.5682 256.605 75.5682C256.904 75.5682 257.175 75.5265 257.418 75.4432C257.66 75.3561 257.87 75.2292 258.048 75.0625C258.226 74.8958 258.361 74.6894 258.452 74.4432L260.372 74.6591C260.251 75.1667 260.02 75.6098 259.679 75.9886C259.342 76.3636 258.91 76.6553 258.384 76.8636C257.857 77.0682 257.255 77.1705 256.577 77.1705ZM268.223 71.8864V77H266.166V68.2727H268.132V69.7557H268.234C268.435 69.267 268.755 68.8788 269.195 68.5909C269.638 68.303 270.185 68.1591 270.837 68.1591C271.439 68.1591 271.964 68.2879 272.411 68.5455C272.861 68.803 273.21 69.1761 273.456 69.6648C273.706 70.1534 273.829 70.7462 273.825 71.4432V77H271.768V71.7614C271.768 71.178 271.617 70.7216 271.314 70.392C271.015 70.0625 270.6 69.8977 270.07 69.8977C269.71 69.8977 269.39 69.9773 269.109 70.1364C268.833 70.2917 268.615 70.517 268.456 70.8125C268.301 71.108 268.223 71.4659 268.223 71.8864ZM279.78 77.1705C278.905 77.1705 278.149 76.9886 277.513 76.625C276.88 76.2576 276.393 75.7386 276.053 75.0682C275.712 74.3939 275.541 73.6004 275.541 72.6875C275.541 71.7898 275.712 71.0019 276.053 70.3239C276.397 69.642 276.878 69.1117 277.496 68.733C278.113 68.3504 278.839 68.1591 279.672 68.1591C280.21 68.1591 280.717 68.2462 281.195 68.4205C281.676 68.5909 282.1 68.8561 282.467 69.2159C282.839 69.5758 283.13 70.0341 283.342 70.5909C283.554 71.1439 283.661 71.803 283.661 72.5682V73.1989H276.507V71.8125H281.689C281.685 71.4186 281.6 71.0682 281.433 70.7614C281.267 70.4508 281.034 70.2064 280.734 70.0284C280.439 69.8504 280.094 69.7614 279.7 69.7614C279.28 69.7614 278.911 69.8636 278.592 70.0682C278.274 70.2689 278.026 70.5341 277.848 70.8636C277.674 71.1894 277.585 71.5473 277.581 71.9375V73.1477C277.581 73.6553 277.674 74.0909 277.859 74.4545C278.045 74.8144 278.304 75.0909 278.638 75.2841C278.971 75.4735 279.361 75.5682 279.808 75.5682C280.107 75.5682 280.378 75.5265 280.621 75.4432C280.863 75.3561 281.073 75.2292 281.251 75.0625C281.429 74.8958 281.564 74.6894 281.655 74.4432L283.575 74.6591C283.454 75.1667 283.223 75.6098 282.882 75.9886C282.545 76.3636 282.113 76.6553 281.587 76.8636C281.06 77.0682 280.458 77.1705 279.78 77.1705ZM286.895 68.2727L288.656 71.4943L290.446 68.2727H292.622L289.991 72.6364L292.668 77H290.503L288.656 73.858L286.827 77H284.645L287.304 72.6364L284.713 68.2727H286.895ZM298.571 68.2727V69.8636H293.554V68.2727H298.571ZM294.793 66.1818H296.849V74.375C296.849 74.6515 296.891 74.8636 296.974 75.0114C297.062 75.1553 297.175 75.2538 297.315 75.3068C297.455 75.3598 297.611 75.3864 297.781 75.3864C297.91 75.3864 298.027 75.3769 298.134 75.358C298.243 75.339 298.327 75.322 298.384 75.3068L298.73 76.9148C298.62 76.9527 298.463 76.9943 298.259 77.0398C298.058 77.0852 297.812 77.1117 297.52 77.1193C297.005 77.1345 296.541 77.0568 296.128 76.8864C295.715 76.7121 295.387 76.4432 295.145 76.0795C294.906 75.7159 294.789 75.2614 294.793 74.7159V66.1818ZM155.783 89.5795L153.908 89.7841C153.855 89.5947 153.762 89.4167 153.629 89.25C153.5 89.0833 153.326 88.9489 153.107 88.8466C152.887 88.7443 152.618 88.6932 152.3 88.6932C151.872 88.6932 151.512 88.786 151.22 88.9716C150.932 89.1572 150.79 89.3977 150.794 89.6932C150.79 89.947 150.883 90.1534 151.072 90.3125C151.266 90.4716 151.584 90.6023 152.027 90.7045L153.516 91.0227C154.341 91.2008 154.955 91.483 155.357 91.8693C155.762 92.2557 155.966 92.7614 155.97 93.3864C155.966 93.9356 155.805 94.4205 155.487 94.8409C155.173 95.2576 154.735 95.5833 154.175 95.8182C153.614 96.053 152.97 96.1705 152.243 96.1705C151.175 96.1705 150.315 95.947 149.663 95.5C149.012 95.0492 148.624 94.4223 148.499 93.6193L150.504 93.4261C150.595 93.8201 150.788 94.1174 151.084 94.3182C151.379 94.5189 151.764 94.6193 152.237 94.6193C152.726 94.6193 153.118 94.5189 153.413 94.3182C153.713 94.1174 153.862 93.8693 153.862 93.5739C153.862 93.3239 153.766 93.1174 153.572 92.9545C153.383 92.7917 153.088 92.6667 152.686 92.5795L151.197 92.267C150.36 92.0928 149.741 91.7992 149.339 91.3864C148.938 90.9697 148.739 90.4432 148.743 89.8068C148.739 89.2689 148.885 88.803 149.18 88.4091C149.48 88.0114 149.894 87.7045 150.425 87.4886C150.959 87.2689 151.574 87.1591 152.271 87.1591C153.294 87.1591 154.099 87.3769 154.686 87.8125C155.277 88.2481 155.643 88.8371 155.783 89.5795ZM162.024 87.2727V88.8636H157.007V87.2727H162.024ZM158.246 85.1818H160.303V93.375C160.303 93.6515 160.344 93.8636 160.428 94.0114C160.515 94.1553 160.628 94.2538 160.768 94.3068C160.909 94.3598 161.064 94.3864 161.234 94.3864C161.363 94.3864 161.481 94.3769 161.587 94.358C161.696 94.339 161.78 94.322 161.837 94.3068L162.183 95.9148C162.073 95.9527 161.916 95.9943 161.712 96.0398C161.511 96.0852 161.265 96.1117 160.973 96.1193C160.458 96.1345 159.994 96.0568 159.581 95.8864C159.168 95.7121 158.84 95.4432 158.598 95.0795C158.359 94.7159 158.242 94.2614 158.246 93.7159V85.1818ZM167.514 96.1705C166.639 96.1705 165.884 95.9886 165.247 95.625C164.615 95.2576 164.128 94.7386 163.787 94.0682C163.446 93.3939 163.276 92.6004 163.276 91.6875C163.276 90.7898 163.446 90.0019 163.787 89.3239C164.132 88.642 164.613 88.1117 165.23 87.733C165.848 87.3504 166.573 87.1591 167.406 87.1591C167.944 87.1591 168.452 87.2462 168.929 87.4205C169.41 87.5909 169.834 87.8561 170.202 88.2159C170.573 88.5758 170.865 89.0341 171.077 89.5909C171.289 90.1439 171.395 90.803 171.395 91.5682V92.1989H164.241V90.8125H169.423C169.42 90.4186 169.334 90.0682 169.168 89.7614C169.001 89.4508 168.768 89.2064 168.469 89.0284C168.173 88.8504 167.829 88.7614 167.435 88.7614C167.014 88.7614 166.645 88.8636 166.327 89.0682C166.009 89.2689 165.76 89.5341 165.582 89.8636C165.408 90.1894 165.319 90.5473 165.315 90.9375V92.1477C165.315 92.6553 165.408 93.0909 165.594 93.4545C165.779 93.8144 166.039 94.0909 166.372 94.2841C166.705 94.4735 167.096 94.5682 167.543 94.5682C167.842 94.5682 168.113 94.5265 168.355 94.4432C168.598 94.3561 168.808 94.2292 168.986 94.0625C169.164 93.8958 169.298 93.6894 169.389 93.4432L171.31 93.6591C171.188 94.1667 170.957 94.6098 170.616 94.9886C170.279 95.3636 169.848 95.6553 169.321 95.8636C168.795 96.0682 168.192 96.1705 167.514 96.1705ZM173.135 99.2727V87.2727H175.158V88.7159H175.277C175.383 88.5038 175.533 88.2784 175.726 88.0398C175.919 87.7973 176.18 87.5909 176.51 87.4205C176.839 87.2462 177.26 87.1591 177.771 87.1591C178.446 87.1591 179.054 87.3314 179.595 87.6761C180.141 88.017 180.572 88.5227 180.891 89.1932C181.213 89.8598 181.374 90.678 181.374 91.6477C181.374 92.6061 181.216 93.4205 180.902 94.0909C180.588 94.7614 180.16 95.2727 179.618 95.625C179.076 95.9773 178.463 96.1534 177.777 96.1534C177.277 96.1534 176.862 96.0701 176.533 95.9034C176.203 95.7367 175.938 95.536 175.737 95.3011C175.54 95.0625 175.387 94.8371 175.277 94.625H175.192V99.2727H173.135ZM175.152 91.6364C175.152 92.2008 175.232 92.6951 175.391 93.1193C175.554 93.5436 175.786 93.875 176.089 94.1136C176.396 94.3485 176.768 94.4659 177.203 94.4659C177.658 94.4659 178.038 94.3447 178.345 94.1023C178.652 93.8561 178.883 93.5208 179.038 93.0966C179.197 92.6686 179.277 92.1818 179.277 91.6364C179.277 91.0947 179.199 90.6136 179.044 90.1932C178.889 89.7727 178.658 89.4432 178.351 89.2045C178.044 88.9659 177.661 88.8466 177.203 88.8466C176.764 88.8466 176.391 88.9621 176.084 89.1932C175.777 89.4242 175.544 89.7481 175.385 90.1648C175.23 90.5814 175.152 91.072 175.152 91.6364ZM185.652 84.3636L185.464 92.5795H183.635L183.453 84.3636H185.652ZM184.55 96.125C184.205 96.125 183.91 96.0038 183.663 95.7614C183.421 95.5189 183.3 95.2235 183.3 94.875C183.3 94.5341 183.421 94.2424 183.663 94C183.91 93.7576 184.205 93.6364 184.55 93.6364C184.887 93.6364 185.179 93.7576 185.425 94C185.675 94.2424 185.8 94.5341 185.8 94.875C185.8 95.1061 185.741 95.3163 185.624 95.5057C185.51 95.6951 185.358 95.8466 185.169 95.9602C184.983 96.0701 184.777 96.125 184.55 96.125Z"
            fill="#5E5873"
          />
        </svg>