<svg width="197" height="175" viewBox="0 0 197 175" fill="none" xmlns="http://www.w3.org/2000/svg">
<circle cx="98.5" cy="87.5" r="87.5" fill="white"/>
<rect x="53" y="43" width="96" height="94" rx="2" fill="#263238"/>
<rect x="128.5" y="31.5" width="68" height="32" rx="1.5" fill="white" stroke="black"/>
<rect x="128.5" y="115.5" width="68" height="32" rx="1.5" fill="white" stroke="black"/>
<rect x="0.5" y="82.5" width="68" height="32" rx="1.5" fill="white" stroke="black"/>
<path d="M140 139H184.5" stroke="black" stroke-width="7"/>
<rect x="64" y="52" width="31" height="27" fill="white"/>
<rect x="105.5" y="52.5" width="30" height="26" stroke="white"/>
<rect x="74" y="61" width="11" height="9" fill="#263238"/>
<rect x="6.5" y="97.5" width="10" height="8" stroke="black"/>
<rect x="24.5" y="97.5" width="10" height="8" fill="#263238" stroke="black"/>
<rect x="42.5" y="97.5" width="10" height="8" fill="#263238" stroke="black"/>
<rect x="114" y="61" width="11" height="9" fill="white"/>
<rect x="159" y="46" width="14" height="12" fill="black"/>
<rect x="177.5" y="46.5" width="13" height="11" stroke="black"/>
<rect x="163" y="50" width="5" height="4" fill="#263238"/>
<rect x="181" y="50" width="5" height="4" fill="black"/>
<rect x="64.5" y="97.5" width="30" height="26" stroke="white"/>
<rect x="73" y="106" width="11" height="9" fill="white"/>
<rect x="111" y="97" width="9" height="7" fill="white"/>
<rect x="127" y="97" width="9" height="7" fill="white"/>
<rect x="118" y="108" width="9" height="7" fill="white"/>
<rect x="111" y="117" width="9" height="7" fill="white"/>
<rect x="138" y="40" width="5" height="4" fill="#263238"/>
<rect x="146" y="40" width="5" height="4" fill="#263238"/>
<rect x="142" y="46" width="5" height="4" fill="#263238"/>
<rect x="147" y="51" width="5" height="4" fill="#263238"/>
<rect x="138" y="51" width="5" height="4" fill="#263238"/>
<rect x="131" y="117" width="9" height="7" fill="white"/>
<path d="M9 90H29" stroke="black" stroke-width="2"/>
<path d="M142.5 123.5H179.5" stroke="black" stroke-width="3"/>
</svg>
