<svg width="175" height="175" viewBox="0 0 175 175" fill="none" xmlns="http://www.w3.org/2000/svg">
<circle cx="87.5" cy="87.5" r="87.5" fill="white"/>
<rect x="39" y="34" width="94" height="29" fill="#263238"/>
<rect x="39.5" y="69.5" width="93" height="28" fill="white" stroke="#DD0000"/>
<path d="M74.5241 86.38V84.8H76.9841V86.34C76.9841 87.0467 77.1641 87.5533 77.5241 87.86C77.8975 88.1667 78.4108 88.32 79.0641 88.32C79.4908 88.32 79.8508 88.28 80.1441 88.2C80.4375 88.12 80.6575 88.0333 80.8041 87.94V84.8H83.2641V88.14C83.2641 88.4467 83.2108 88.7067 83.1041 88.92C83.0108 89.12 82.8241 89.3067 82.5441 89.48C82.1575 89.7067 81.6641 89.8933 81.0641 90.04C80.4775 90.2 79.8041 90.28 79.0441 90.28C78.1241 90.28 77.3241 90.1467 76.6441 89.88C75.9641 89.6133 75.4375 89.1933 75.0641 88.62C74.7041 88.0333 74.5241 87.2867 74.5241 86.38ZM83.2641 85.76H80.8041V80.56C80.9108 80.5333 81.0641 80.5067 81.2641 80.48C81.4775 80.44 81.6975 80.42 81.9241 80.42C82.3908 80.42 82.7308 80.5 82.9441 80.66C83.1575 80.82 83.2641 81.12 83.2641 81.56V85.76ZM76.9841 85.76H74.5241V80.56C74.6308 80.5333 74.7841 80.5067 74.9841 80.48C75.1841 80.44 75.4041 80.42 75.6441 80.42C76.1108 80.42 76.4508 80.5 76.6641 80.66C76.8775 80.82 76.9841 81.12 76.9841 81.56V85.76ZM88.2927 82.8V85.54H85.8327V82.6C85.8327 82.2667 85.9127 81.9867 86.0727 81.76C86.2327 81.52 86.4594 81.3 86.7527 81.1C87.1527 80.86 87.6594 80.66 88.2727 80.5C88.8861 80.34 89.5461 80.26 90.2527 80.26C91.5061 80.26 92.1327 80.6467 92.1327 81.42C92.1327 81.6067 92.1061 81.78 92.0527 81.94C91.9994 82.0867 91.9327 82.22 91.8527 82.34C91.7194 82.3133 91.5527 82.2933 91.3527 82.28C91.1527 82.2533 90.9394 82.24 90.7127 82.24C90.2327 82.24 89.7794 82.2933 89.3527 82.4C88.9394 82.4933 88.5861 82.6267 88.2927 82.8ZM85.8327 84.72L88.2927 84.84V89.96C88.1861 90 88.0327 90.0333 87.8327 90.06C87.6327 90.1 87.4127 90.12 87.1727 90.12C86.7194 90.12 86.3794 90.04 86.1527 89.88C85.9394 89.7067 85.8327 89.4067 85.8327 88.98V84.72ZM93.9024 84.72L96.3624 84.84V89.96C96.2558 90 96.1024 90.0333 95.9024 90.06C95.7024 90.1 95.4824 90.12 95.2424 90.12C94.7891 90.12 94.4491 90.04 94.2224 89.88C94.0091 89.7067 93.9024 89.4067 93.9024 88.98V84.72ZM96.3624 86.1L93.9024 85.98V77C93.9958 76.9733 94.1424 76.94 94.3424 76.9C94.5558 76.86 94.7758 76.84 95.0024 76.84C95.4824 76.84 95.8291 76.9267 96.0424 77.1C96.2558 77.26 96.3624 77.5533 96.3624 77.98V86.1Z" fill="black"/>
<rect x="39" y="104" width="94" height="29" fill="#263238"/>
<path d="M133.513 156.39L155.513 142.89L140.014 110.39C136.414 106.531 132.514 106.782 131.014 107.39L114.357 115.212L105.013 99.8895C98.213 95.0895 96.8464 100.556 97.013 103.89L109.513 126.89H108.513L107.513 127.39C105.513 128.39 105.835 137.89 105.513 137.39C107.113 140.19 112.18 142.89 114.513 143.89C119.713 145.49 129.346 152.89 133.513 156.39Z" fill="white"/>
<path d="M109.513 126.89H108.513L107.513 127.39C105.513 128.39 105.835 137.89 105.513 137.39C107.113 140.19 112.18 142.89 114.513 143.89C119.713 145.49 129.346 152.89 133.513 156.39L155.513 142.89L140.014 110.39C136.414 106.531 132.514 106.782 131.014 107.39L114.357 115.212M109.513 126.89L116.513 137.39M109.513 126.89L97.013 103.89C96.8464 100.556 98.213 95.0895 105.013 99.8895L114.357 115.212M117.514 120.39L114.357 115.212" stroke="black" stroke-width="2"/>
<path d="M122.014 111.89L125.514 117.39M129.014 108.39L133.014 113.39" stroke="black" stroke-width="2"/>
<path d="M69.724 50.8C69.5507 51.5333 69.344 52.28 69.104 53.04C68.864 53.7867 68.6373 54.4933 68.424 55.16C68.2107 55.8133 68.024 56.3533 67.864 56.78C67.7307 56.9 67.5507 56.9933 67.324 57.06C67.0973 57.1267 66.8173 57.16 66.484 57.16C66.124 57.16 65.7973 57.1067 65.504 57C65.224 56.88 65.0307 56.7133 64.924 56.5C64.804 56.2333 64.664 55.8533 64.504 55.36C64.344 54.8533 64.1773 54.28 64.004 53.64C63.844 53 63.6773 52.3333 63.504 51.64C63.344 50.9467 63.1907 50.2733 63.044 49.62C62.9107 48.9667 62.7973 48.3867 62.704 47.88C62.8507 47.7333 63.0307 47.6067 63.244 47.5C63.4707 47.3933 63.724 47.34 64.004 47.34C64.364 47.34 64.6507 47.4267 64.864 47.6C65.0773 47.7733 65.2107 48.06 65.264 48.46C65.3973 49.2333 65.524 49.9667 65.644 50.66C65.764 51.34 65.884 51.96 66.004 52.52C66.124 53.08 66.224 53.56 66.304 53.96C66.3973 54.3467 66.464 54.64 66.504 54.84H66.584C66.6773 54.5333 66.8173 54.0467 67.004 53.38C67.1907 52.7133 67.4107 51.9533 67.664 51.1C67.9307 50.2333 68.1907 49.3533 68.444 48.46C68.6307 48.3667 68.824 48.2933 69.024 48.24C69.2373 48.1733 69.4773 48.14 69.744 48.14C70.0907 48.14 70.384 48.2 70.624 48.32C70.864 48.4267 71.024 48.6 71.104 48.84C71.3707 49.6933 71.6173 50.5267 71.844 51.34C72.084 52.14 72.2907 52.8533 72.464 53.48C72.6507 54.0933 72.784 54.5533 72.864 54.86H72.964C73.1907 53.7533 73.4307 52.58 73.684 51.34C73.9373 50.1 74.1507 48.8667 74.324 47.64C74.6573 47.44 75.024 47.34 75.424 47.34C75.7707 47.34 76.0507 47.42 76.264 47.58C76.4773 47.7267 76.584 47.9733 76.584 48.32C76.584 48.5067 76.544 48.8067 76.464 49.22C76.3973 49.6333 76.2973 50.1133 76.164 50.66C76.044 51.2067 75.904 51.7867 75.744 52.4C75.584 53.0133 75.4173 53.6067 75.244 54.18C75.084 54.7533 74.9307 55.2667 74.784 55.72C74.6373 56.1733 74.5107 56.5267 74.404 56.78C74.284 56.8867 74.0907 56.9733 73.824 57.04C73.5573 57.12 73.264 57.16 72.944 57.16C72.1173 57.16 71.6373 56.96 71.504 56.56C71.344 56.16 71.1573 55.6467 70.944 55.02C70.744 54.3933 70.5373 53.7133 70.324 52.98C70.124 52.2467 69.924 51.52 69.724 50.8ZM78.4198 44.72C78.4198 44.3333 78.5531 44.0067 78.8198 43.74C79.0998 43.4733 79.4464 43.34 79.8598 43.34C80.2864 43.34 80.6264 43.4733 80.8798 43.74C81.1464 44.0067 81.2798 44.3333 81.2798 44.72C81.2798 45.0933 81.1464 45.42 80.8798 45.7C80.6264 45.9667 80.2864 46.1 79.8598 46.1C79.4464 46.1 79.0998 45.9667 78.8198 45.7C78.5531 45.42 78.4198 45.0933 78.4198 44.72ZM78.6198 51.72H81.0998V56.96C80.9931 57 80.8398 57.0333 80.6398 57.06C80.4398 57.1 80.2198 57.12 79.9798 57.12C79.5264 57.12 79.1864 57.04 78.9598 56.88C78.7331 56.7067 78.6198 56.4067 78.6198 55.98V51.72ZM81.0998 52.98H78.6198V47.62C78.7264 47.58 78.8798 47.5467 79.0798 47.52C79.2931 47.48 79.5198 47.46 79.7598 47.46C80.2264 47.46 80.5664 47.5467 80.7798 47.72C80.9931 47.88 81.0998 48.18 81.0998 48.62V52.98ZM89.7785 50.08V48.16H93.7985C93.8518 48.2533 93.9052 48.3867 93.9585 48.56C94.0252 48.72 94.0585 48.9067 94.0585 49.12C94.0585 49.4533 93.9785 49.7 93.8185 49.86C93.6718 50.0067 93.4585 50.08 93.1785 50.08H89.7785ZM90.1585 47.2V49.78H87.7985V47.1C87.7985 46.26 87.9652 45.58 88.2985 45.06C88.6452 44.5267 89.1185 44.14 89.7185 43.9C90.3318 43.6467 91.0252 43.52 91.7985 43.52C92.6652 43.52 93.3252 43.6333 93.7785 43.86C94.2318 44.0867 94.4585 44.4267 94.4585 44.88C94.4585 45.08 94.4118 45.2667 94.3185 45.44C94.2385 45.6 94.1385 45.7333 94.0185 45.84C93.7652 45.7333 93.4785 45.6467 93.1585 45.58C92.8518 45.5133 92.5252 45.48 92.1785 45.48C91.4718 45.48 90.9585 45.6133 90.6385 45.88C90.3185 46.1467 90.1585 46.5867 90.1585 47.2ZM87.7985 49.08H90.2585V56.96C90.1518 57 89.9985 57.0333 89.7985 57.06C89.5985 57.1 89.3785 57.12 89.1385 57.12C88.6852 57.12 88.3452 57.04 88.1185 56.88C87.9052 56.7067 87.7985 56.4067 87.7985 55.98V49.08ZM95.8612 44.72C95.8612 44.3333 95.9945 44.0067 96.2612 43.74C96.5412 43.4733 96.8878 43.34 97.3012 43.34C97.7278 43.34 98.0678 43.4733 98.3212 43.74C98.5878 44.0067 98.7212 44.3333 98.7212 44.72C98.7212 45.0933 98.5878 45.42 98.3212 45.7C98.0678 45.9667 97.7278 46.1 97.3012 46.1C96.8878 46.1 96.5412 45.9667 96.2612 45.7C95.9945 45.42 95.8612 45.0933 95.8612 44.72ZM96.0612 51.72H98.5412V56.96C98.4345 57 98.2812 57.0333 98.0812 57.06C97.8812 57.1 97.6612 57.12 97.4212 57.12C96.9678 57.12 96.6278 57.04 96.4012 56.88C96.1745 56.7067 96.0612 56.4067 96.0612 55.98V51.72ZM98.5412 52.98H96.0612V47.62C96.1678 47.58 96.3212 47.5467 96.5212 47.52C96.7345 47.48 96.9612 47.46 97.2012 47.46C97.6678 47.46 98.0078 47.5467 98.2212 47.72C98.4345 47.88 98.5412 48.18 98.5412 48.62V52.98Z" fill="white"/>
<path d="M70.4179 123.24C71.1912 123.24 71.7646 123.087 72.1379 122.78C72.5112 122.46 72.6979 122.067 72.6979 121.6C72.6979 121.187 72.5512 120.853 72.2579 120.6C71.9779 120.333 71.5446 120.113 70.9579 119.94L69.6579 119.54C68.9912 119.313 68.4046 119.06 67.8979 118.78C67.4046 118.5 67.0179 118.14 66.7379 117.7C66.4712 117.247 66.3379 116.693 66.3379 116.04C66.3379 114.96 66.7379 114.107 67.5379 113.48C68.3512 112.853 69.4579 112.54 70.8579 112.54C71.6046 112.54 72.2646 112.62 72.8379 112.78C73.4246 112.927 73.8846 113.133 74.2179 113.4C74.5646 113.667 74.7379 113.98 74.7379 114.34C74.7379 114.593 74.6712 114.82 74.5379 115.02C74.4179 115.207 74.2646 115.36 74.0779 115.48C73.7712 115.253 73.3512 115.06 72.8179 114.9C72.2846 114.727 71.7046 114.64 71.0779 114.64C70.3846 114.64 69.8512 114.767 69.4779 115.02C69.1046 115.273 68.9179 115.613 68.9179 116.04C68.9179 116.387 69.0446 116.667 69.2979 116.88C69.5646 117.093 69.9646 117.28 70.4979 117.44L71.6579 117.78C72.8046 118.127 73.6979 118.6 74.3379 119.2C74.9779 119.787 75.2979 120.593 75.2979 121.62C75.2979 122.713 74.8779 123.6 74.0379 124.28C73.2112 124.96 72.0246 125.3 70.4779 125.3C69.6646 125.3 68.9446 125.213 68.3179 125.04C67.6912 124.867 67.1912 124.627 66.8179 124.32C66.4579 124.013 66.2779 123.667 66.2779 123.28C66.2779 122.987 66.3712 122.733 66.5579 122.52C66.7446 122.307 66.9446 122.147 67.1579 122.04C67.5046 122.333 67.9512 122.607 68.4979 122.86C69.0446 123.113 69.6846 123.24 70.4179 123.24ZM85.3577 121.92C85.2244 122.027 85.0511 122.12 84.8377 122.2C84.6244 122.267 84.3844 122.3 84.1177 122.3C83.7711 122.3 83.4777 122.253 83.2377 122.16C83.0111 122.067 82.8577 121.907 82.7777 121.68C82.2311 120.347 81.7577 119.187 81.3577 118.2C80.9711 117.2 80.6644 116.36 80.4377 115.68H80.3577C80.3177 116.573 80.2777 117.4 80.2377 118.16C80.1977 118.92 80.1644 119.66 80.1377 120.38C80.1111 121.087 80.0777 121.813 80.0377 122.56C80.0111 123.293 79.9711 124.093 79.9177 124.96C79.7844 125 79.6177 125.04 79.4177 125.08C79.2177 125.12 79.0111 125.14 78.7977 125.14C78.3711 125.14 78.0444 125.067 77.8177 124.92C77.6044 124.76 77.4977 124.507 77.4977 124.16C77.4977 123.907 77.5111 123.493 77.5377 122.92C77.5777 122.333 77.6177 121.647 77.6577 120.86C77.7111 120.073 77.7644 119.247 77.8177 118.38C77.8711 117.5 77.9311 116.633 77.9977 115.78C78.0644 114.913 78.1244 114.12 78.1777 113.4C78.2844 113.267 78.4711 113.133 78.7377 113C79.0177 112.853 79.3844 112.78 79.8377 112.78C80.3311 112.78 80.7311 112.867 81.0377 113.04C81.3444 113.213 81.5711 113.48 81.7177 113.84C81.9711 114.4 82.2311 115.027 82.4977 115.72C82.7777 116.413 83.0444 117.113 83.2977 117.82C83.5644 118.513 83.8111 119.16 84.0377 119.76H84.1377C84.5911 118.493 85.0444 117.267 85.4977 116.08C85.9644 114.893 86.3644 113.893 86.6977 113.08C86.8577 112.987 87.0577 112.913 87.2977 112.86C87.5511 112.807 87.8111 112.78 88.0777 112.78C88.5444 112.78 88.9244 112.853 89.2177 113C89.5111 113.147 89.6911 113.367 89.7577 113.66C89.8111 113.9 89.8644 114.293 89.9177 114.84C89.9844 115.387 90.0511 116.027 90.1177 116.76C90.1844 117.48 90.2511 118.24 90.3177 119.04C90.3844 119.827 90.4444 120.6 90.4977 121.36C90.5511 122.107 90.5977 122.787 90.6377 123.4C90.6911 124 90.7244 124.48 90.7377 124.84C90.5644 124.947 90.3844 125.02 90.1977 125.06C90.0111 125.113 89.7777 125.14 89.4977 125.14C89.1511 125.14 88.8511 125.073 88.5977 124.94C88.3577 124.807 88.2244 124.547 88.1977 124.16C88.1311 123.027 88.0711 121.933 88.0177 120.88C87.9644 119.813 87.9177 118.84 87.8777 117.96C87.8511 117.08 87.8244 116.34 87.7977 115.74H87.6977C87.4844 116.367 87.1844 117.173 86.7977 118.16C86.4111 119.133 85.9311 120.387 85.3577 121.92ZM97.0195 123.24C97.7928 123.24 98.3661 123.087 98.7395 122.78C99.1128 122.46 99.2995 122.067 99.2995 121.6C99.2995 121.187 99.1528 120.853 98.8595 120.6C98.5795 120.333 98.1461 120.113 97.5595 119.94L96.2595 119.54C95.5928 119.313 95.0061 119.06 94.4995 118.78C94.0061 118.5 93.6195 118.14 93.3395 117.7C93.0728 117.247 92.9395 116.693 92.9395 116.04C92.9395 114.96 93.3395 114.107 94.1395 113.48C94.9528 112.853 96.0595 112.54 97.4595 112.54C98.2061 112.54 98.8661 112.62 99.4395 112.78C100.026 112.927 100.486 113.133 100.819 113.4C101.166 113.667 101.339 113.98 101.339 114.34C101.339 114.593 101.273 114.82 101.139 115.02C101.019 115.207 100.866 115.36 100.679 115.48C100.373 115.253 99.9528 115.06 99.4195 114.9C98.8861 114.727 98.3061 114.64 97.6795 114.64C96.9861 114.64 96.4528 114.767 96.0795 115.02C95.7061 115.273 95.5195 115.613 95.5195 116.04C95.5195 116.387 95.6461 116.667 95.8995 116.88C96.1661 117.093 96.5661 117.28 97.0995 117.44L98.2595 117.78C99.4061 118.127 100.299 118.6 100.939 119.2C101.579 119.787 101.899 120.593 101.899 121.62C101.899 122.713 101.479 123.6 100.639 124.28C99.8128 124.96 98.6261 125.3 97.0795 125.3C96.2661 125.3 95.5461 125.213 94.9195 125.04C94.2928 124.867 93.7928 124.627 93.4195 124.32C93.0595 124.013 92.8795 123.667 92.8795 123.28C92.8795 122.987 92.9728 122.733 93.1595 122.52C93.3461 122.307 93.5461 122.147 93.7595 122.04C94.1061 122.333 94.5528 122.607 95.0995 122.86C95.6461 123.113 96.2861 123.24 97.0195 123.24Z" fill="white"/>
</svg>
