<svg xmlns="http://www.w3.org/2000/svg" xmlns:xlink="http://www.w3.org/1999/xlink" viewBox="0 0 100.88 29.89"><defs><style>.cls-1{fill:#fff;}.cls-2{fill:#a6a6a6;}.cls-3{fill:url(#linear-gradient);}</style><linearGradient id="linear-gradient" x1="-477.02" y1="127.24" x2="-477.02" y2="163.28" gradientTransform="matrix(2.99, 0, 0, -2.99, 1501.42, 410.51)" gradientUnits="userSpaceOnUse"><stop offset="0" stop-color="#1a1a1a" stop-opacity="0.1"/><stop offset="0.12" stop-color="#212121" stop-opacity="0.15"/><stop offset="0.31" stop-color="#353535" stop-opacity="0.23"/><stop offset="0.53" stop-color="#575757" stop-opacity="0.32"/><stop offset="0.78" stop-color="#858585" stop-opacity="0.42"/><stop offset="1" stop-color="#b3b3b3" stop-opacity="0.51"/></linearGradient></defs><g id="Layer_2" data-name="Layer 2"><g id="Layer_1-2" data-name="Layer 1"><path class="cls-1" d="M100.21,26.36a2.87,2.87,0,0,1-2.86,2.87H3.54A2.86,2.86,0,0,1,.67,26.36V3.53A2.86,2.86,0,0,1,3.54.67H97.35a2.86,2.86,0,0,1,2.86,2.86h0V26.36Z"/><path class="cls-2" d="M97.35,29.89H3.54A3.54,3.54,0,0,1,0,26.36V3.53A3.53,3.53,0,0,1,3.54,0H97.35a3.53,3.53,0,0,1,3.53,3.53V26.36a3.54,3.54,0,0,1-3.53,3.53Z"/><path d="M100.21,26.36a2.87,2.87,0,0,1-2.86,2.87H3.54A2.86,2.86,0,0,1,.67,26.36V3.53A2.86,2.86,0,0,1,3.54.67H97.35a2.86,2.86,0,0,1,2.86,2.86h0V26.36Z"/><path class="cls-1" d="M22.53,14.79a4.34,4.34,0,0,1,2.06-3.64,4.47,4.47,0,0,0-3.5-1.89c-1.47-.15-2.89.88-3.64.88s-1.92-.86-3.16-.84a4.67,4.67,0,0,0-3.92,2.39c-1.7,2.93-.43,7.24,1.19,9.61.81,1.17,1.76,2.46,3,2.42s1.67-.78,3.14-.78,1.88.78,3.14.75,2.13-1.17,2.91-2.34a9.34,9.34,0,0,0,1.33-2.71A4.17,4.17,0,0,1,22.53,14.79ZM20.13,7.7a4.23,4.23,0,0,0,1-3A4.32,4.32,0,0,0,18.3,6.1,4.06,4.06,0,0,0,17.3,9,3.56,3.56,0,0,0,20.13,7.7Z"/><path class="cls-3" d="M97.35,0H47.1L66.78,29.89H97.35a3.53,3.53,0,0,0,3.53-3.53V3.53A3.53,3.53,0,0,0,97.35,0Z"/><path class="cls-1" d="M40.12,23.55H38.43l-.93-2.92H34.26l-.88,2.92H31.72l3.21-10h2Zm-2.9-4.15-.85-2.6c-.08-.26-.25-.89-.5-1.87h0c-.1.42-.25,1.05-.47,1.87l-.83,2.6Zm11.13.47a4.06,4.06,0,0,1-1,2.9,2.9,2.9,0,0,1-2.21.94,2.22,2.22,0,0,1-2-1v3.77H41.5V18.73c0-.76,0-1.55-.06-2.35h1.4l.09,1.13h0a2.84,2.84,0,0,1,4.54-.28A4,4,0,0,1,48.35,19.87Zm-1.63.06a2.89,2.89,0,0,0-.47-1.72,1.61,1.61,0,0,0-1.39-.71,1.66,1.66,0,0,0-1.07.39,1.75,1.75,0,0,0-.62,1,2.09,2.09,0,0,0-.08.49v1.2a1.92,1.92,0,0,0,.48,1.32,1.6,1.6,0,0,0,1.25.54,1.63,1.63,0,0,0,1.4-.7A3,3,0,0,0,46.72,19.93Zm9.88-.06a4.1,4.1,0,0,1-1,2.9,2.94,2.94,0,0,1-2.22.94,2.22,2.22,0,0,1-2-1v3.77H49.75V18.73c0-.76,0-1.55-.06-2.35h1.4l.09,1.13h0a2.84,2.84,0,0,1,4.54-.28A3.93,3.93,0,0,1,56.6,19.87ZM55,19.93a2.89,2.89,0,0,0-.47-1.72,1.6,1.6,0,0,0-1.38-.71,1.67,1.67,0,0,0-1.08.39,1.8,1.8,0,0,0-.62,1,2.14,2.14,0,0,0-.08.49v1.2a1.92,1.92,0,0,0,.48,1.32,1.6,1.6,0,0,0,1.25.54,1.63,1.63,0,0,0,1.4-.7A3,3,0,0,0,55,19.93Zm10.86.83a2.67,2.67,0,0,1-.89,2.07,3.92,3.92,0,0,1-2.71.87,4.78,4.78,0,0,1-2.58-.62L60,21.75a4.49,4.49,0,0,0,2.31.62,2.18,2.18,0,0,0,1.4-.41,1.33,1.33,0,0,0,.5-1.08,1.4,1.4,0,0,0-.41-1,3.83,3.83,0,0,0-1.38-.77q-2.61-1-2.61-2.85a2.52,2.52,0,0,1,.92-2,3.63,3.63,0,0,1,2.45-.79,4.79,4.79,0,0,1,2.26.48l-.4,1.3a3.92,3.92,0,0,0-1.92-.46,2,2,0,0,0-1.32.41,1.21,1.21,0,0,0-.4.9,1.24,1.24,0,0,0,.46,1,5.29,5.29,0,0,0,1.45.76A4.93,4.93,0,0,1,65.22,19a2.57,2.57,0,0,1,.61,1.73Zm5.28-3.19H69.35v3.48c0,.89.31,1.33.93,1.33a2.83,2.83,0,0,0,.71-.07L71,23.52a3.6,3.6,0,0,1-1.24.17,1.92,1.92,0,0,1-1.48-.57,2.87,2.87,0,0,1-.53-1.94V17.57H66.74v-1.2h1.05V15.06l1.56-.47v1.78h1.76ZM79,19.9a3.93,3.93,0,0,1-.94,2.72,3.37,3.37,0,0,1-2.63,1.09,3.22,3.22,0,0,1-2.52-1.05A3.81,3.81,0,0,1,72,20a3.93,3.93,0,0,1,1-2.73,3.36,3.36,0,0,1,2.61-1.06,3.28,3.28,0,0,1,2.54,1.05A3.77,3.77,0,0,1,79,19.9Zm-1.65,0a3.15,3.15,0,0,0-.43-1.69,1.57,1.57,0,0,0-1.43-.86,1.6,1.6,0,0,0-1.46.86A3.21,3.21,0,0,0,73.62,20a3.15,3.15,0,0,0,.43,1.69,1.63,1.63,0,0,0,2.88,0A3.25,3.25,0,0,0,77.37,19.94Zm6.84-2.16a2.94,2.94,0,0,0-.51-.05,1.5,1.5,0,0,0-1.3.64A2.41,2.41,0,0,0,82,19.79v3.76h-1.6V18.63c0-.75,0-1.5,0-2.25h1.38l.06,1.37h0a2.53,2.53,0,0,1,.79-1.14,1.94,1.94,0,0,1,1.16-.38,2.29,2.29,0,0,1,.39,0Zm7.12,1.84a3.54,3.54,0,0,1,0,.73H86.49a2.07,2.07,0,0,0,.7,1.62,2.37,2.37,0,0,0,1.56.5,5.23,5.23,0,0,0,1.94-.34l.25,1.11a6.1,6.1,0,0,1-2.41.44,3.51,3.51,0,0,1-2.62-1,3.63,3.63,0,0,1-1-2.63,4.07,4.07,0,0,1,.89-2.7,3,3,0,0,1,2.5-1.15,2.66,2.66,0,0,1,2.35,1.15A3.85,3.85,0,0,1,91.33,19.62Zm-1.52-.41a2.17,2.17,0,0,0-.3-1.23,1.41,1.41,0,0,0-1.27-.66A1.51,1.51,0,0,0,87,18a2.26,2.26,0,0,0-.47,1.24Z"/><path class="cls-1" d="M33.8,10.08c-.44,0-.82,0-1.14-.05V5.22A7.6,7.6,0,0,1,34,5.12c1.83,0,2.67.89,2.67,2.36C36.68,9.17,35.68,10.08,33.8,10.08Zm.27-4.35a3.65,3.65,0,0,0-.63,0V9.44l.53,0a1.73,1.73,0,0,0,1.88-2A1.6,1.6,0,0,0,34.07,5.73Zm5.23,4.39a1.68,1.68,0,0,1-1.7-1.81,1.72,1.72,0,0,1,1.76-1.87,1.67,1.67,0,0,1,1.7,1.81A1.73,1.73,0,0,1,39.3,10.12Zm0-3.1c-.57,0-.93.53-.93,1.27s.37,1.25.92,1.25.92-.57.92-1.27S39.88,7,39.33,7Zm7.6-.5L45.83,10h-.72l-.46-1.53c-.11-.37-.2-.75-.28-1.14h0a7.32,7.32,0,0,1-.29,1.14L43.59,10h-.73l-1-3.52h.81L43,8.19c.09.4.17.78.24,1.13h0c.06-.29.15-.66.29-1.12l.5-1.68h.64l.48,1.64a11.42,11.42,0,0,1,.28,1.16h0c0-.36.13-.74.23-1.16l.43-1.64ZM51,10h-.78V8c0-.63-.24-.94-.71-.94a.81.81,0,0,0-.79.86V10h-.78V7.52c0-.31,0-.64,0-1h.69l0,.54h0a1.27,1.27,0,0,1,1.12-.62C50.51,6.44,51,7,51,7.93V10Zm2.16,0h-.78V4.9h.78Zm2.86.08a1.68,1.68,0,0,1-1.7-1.81,1.72,1.72,0,0,1,1.76-1.87,1.67,1.67,0,0,1,1.7,1.81A1.73,1.73,0,0,1,56,10.12ZM56,7c-.57,0-.93.53-.93,1.27s.37,1.25.92,1.25S57,9,57,8.27,56.59,7,56,7Zm4.81,3-.05-.4h0a1.22,1.22,0,0,1-1,.48,1,1,0,0,1-1.08-1c0-.87.75-1.32,2.06-1.32V7.7c0-.47-.25-.7-.74-.7a1.7,1.7,0,0,0-.92.26l-.16-.51a2.22,2.22,0,0,1,1.21-.31c.93,0,1.39.49,1.39,1.46V9.2a6,6,0,0,0,.05.84Zm-.1-1.75c-.87,0-1.31.21-1.31.71a.5.5,0,0,0,.54.55.75.75,0,0,0,.77-.72ZM65.32,10l0-.56h0a1.2,1.2,0,0,1-1.13.64,1.61,1.61,0,0,1-1.48-1.8,1.67,1.67,0,0,1,1.54-1.88,1,1,0,0,1,1,.48h0v-2H66V9.09c0,.34,0,.66,0,.95ZM65.2,8a.86.86,0,0,0-.83-.92c-.58,0-.93.52-.93,1.24s.37,1.2.92,1.2a.88.88,0,0,0,.84-.94ZM71,10.12a1.68,1.68,0,0,1-1.7-1.81A1.72,1.72,0,0,1,71,6.44a1.67,1.67,0,0,1,1.69,1.81A1.72,1.72,0,0,1,71,10.12ZM71,7c-.57,0-.93.53-.93,1.27s.37,1.25.92,1.25.92-.57.92-1.27S71.54,7,71,7Zm5.94,3h-.79V8c0-.63-.24-.94-.71-.94a.81.81,0,0,0-.78.86V10h-.79V7.52c0-.31,0-.64,0-1h.68l0,.54h0a1.27,1.27,0,0,1,1.12-.62c.74,0,1.23.57,1.23,1.49ZM82.2,7.1h-.86V8.82c0,.43.15.65.45.65a1.61,1.61,0,0,0,.35,0l0,.6a1.7,1.7,0,0,1-.61.08c-.61,0-1-.34-1-1.23V7.1h-.52V6.52h.52V5.87l.77-.23v.88h.86ZM86.35,10h-.79V8c0-.63-.23-.95-.71-.95a.77.77,0,0,0-.78.84V10h-.78V4.9h.78V7h0a1.19,1.19,0,0,1,1.06-.58c.75,0,1.21.58,1.21,1.5ZM90.6,8.47H88.25a1,1,0,0,0,1.11,1,2.67,2.67,0,0,0,1-.17l.12.55a3,3,0,0,1-1.18.22,1.64,1.64,0,0,1-1.76-1.78,1.72,1.72,0,0,1,1.67-1.89,1.47,1.47,0,0,1,1.46,1.67A1.45,1.45,0,0,1,90.6,8.47Zm-.72-.56c0-.55-.28-.93-.78-.93a.92.92,0,0,0-.85.93Z"/></g></g></svg>