<svg xmlns="http://www.w3.org/2000/svg" xmlns:xlink="http://www.w3.org/1999/xlink" viewBox="0 0 338.54 102.97"><defs><style>.cls-1{fill:#a6a6a6;}.cls-2{fill:#fff;}.cls-3{fill:#00c1ff;}.cls-4{fill:url(#linear-gradient);}.cls-5{fill:url(#linear-gradient-2);}.cls-6{fill:url(#linear-gradient-3);}.cls-7{fill:url(#linear-gradient-4);}.cls-8{fill:url(#linear-gradient-5);}.cls-9{fill:url(#linear-gradient-6);}.cls-10{fill:url(#linear-gradient-7);}.cls-11{fill:url(#linear-gradient-8);}</style><linearGradient id="linear-gradient" x1="2070.48" y1="537.13" x2="2017.81" y2="638.42" gradientTransform="translate(-414.72 -206.81) scale(0.22 0.43)" gradientUnits="userSpaceOnUse"><stop offset="0" stop-color="#00a0ff"/><stop offset="0.01" stop-color="#00a1ff"/><stop offset="0.26" stop-color="#00beff"/><stop offset="0.51" stop-color="#00d2ff"/><stop offset="0.76" stop-color="#00dfff"/><stop offset="1" stop-color="#00e3ff"/></linearGradient><linearGradient id="linear-gradient-2" x1="1128.99" y1="854.04" x2="951.11" y2="854.04" gradientTransform="translate(-300.28 -185.69) scale(0.34 0.28)" gradientUnits="userSpaceOnUse"><stop offset="0" stop-color="#ffe000"/><stop offset="0.41" stop-color="#ffbd00"/><stop offset="0.78" stop-color="orange"/><stop offset="1" stop-color="#ff9c00"/></linearGradient><linearGradient id="linear-gradient-3" x1="1261.77" y1="672.92" x2="1097.73" y2="798.65" gradientTransform="translate(-382.84 -123.21) scale(0.35 0.27)" gradientUnits="userSpaceOnUse"><stop offset="0" stop-color="#ff3a44"/><stop offset="1" stop-color="#c31162"/></linearGradient><linearGradient id="linear-gradient-4" x1="1134.97" y1="844.32" x2="1208.13" y2="900.48" gradientTransform="translate(-382.77 -210.1) scale(0.35 0.27)" gradientUnits="userSpaceOnUse"><stop offset="0" stop-color="#32a071"/><stop offset="0.07" stop-color="#2da771"/><stop offset="0.48" stop-color="#15cf74"/><stop offset="0.8" stop-color="#06e775"/><stop offset="1" stop-color="#00f076"/></linearGradient><linearGradient id="linear-gradient-5" x1="2520.66" y1="537.95" x2="2491.87" y2="621.34" gradientTransform="translate(-423.79 -256.62) scale(0.18 0.52)" gradientUnits="userSpaceOnUse"><stop offset="0" stop-color="#008de0"/><stop offset="0.01" stop-color="#008de0"/><stop offset="0.26" stop-color="#00a7e0"/><stop offset="0.51" stop-color="#00b8e0"/><stop offset="0.76" stop-color="#00c4e0"/><stop offset="1" stop-color="#00c7e0"/></linearGradient><linearGradient id="linear-gradient-6" x1="954.83" y1="899.23" x2="789.78" y2="899.23" gradientTransform="translate(-266.18 -174.8) scale(0.37 0.26)" gradientUnits="userSpaceOnUse"><stop offset="0" stop-color="#e0c500"/><stop offset="0.41" stop-color="#e0a600"/><stop offset="0.78" stop-color="#e09100"/><stop offset="1" stop-color="#e08900"/></linearGradient><linearGradient id="linear-gradient-7" x1="954.85" y1="968.64" x2="789.8" y2="968.64" gradientTransform="translate(-266.19 -203.56) scale(0.37 0.26)" gradientUnits="userSpaceOnUse"><stop offset="0" stop-color="#ffe840"/><stop offset="0.41" stop-color="#ffce40"/><stop offset="0.78" stop-color="#ffbc40"/><stop offset="1" stop-color="#ffb540"/></linearGradient><linearGradient id="linear-gradient-8" x1="2488.47" y1="832.42" x2="2460.33" y2="910.63" gradientTransform="translate(-423.85 -417.26) scale(0.18 0.52)" gradientUnits="userSpaceOnUse"><stop offset="0" stop-color="#40b8ff"/><stop offset="0.01" stop-color="#40b9ff"/><stop offset="0.26" stop-color="#40ceff"/><stop offset="0.51" stop-color="#40ddff"/><stop offset="0.76" stop-color="#40e7ff"/><stop offset="1" stop-color="#40eaff"/></linearGradient></defs><g id="Layer_2" data-name="Layer 2"><g id="Layer_1-2" data-name="Layer 1"><path d="M326,103H12.54A12.74,12.74,0,0,1,0,90.1V12.87A12.74,12.74,0,0,1,12.54,0H326a12.74,12.74,0,0,1,12.54,12.87V90.1A12.74,12.74,0,0,1,326,103"/><path class="cls-1" d="M326,0H12.54A12.74,12.74,0,0,0,0,12.87V90.1A12.74,12.74,0,0,0,12.54,103H326A12.74,12.74,0,0,0,338.54,90.1V12.87A12.74,12.74,0,0,0,326,0m0,2.06a10.68,10.68,0,0,1,10.53,10.81V90.1A10.68,10.68,0,0,1,326,100.91H12.54A10.68,10.68,0,0,1,2,90.1V12.87A10.68,10.68,0,0,1,12.54,2.06H326"/><path class="cls-2" d="M118.91,26.37A7.08,7.08,0,0,1,117,31.53a7.2,7.2,0,0,1-5.53,2.28A7.45,7.45,0,0,1,106,31.49a7.86,7.86,0,0,1-2.28-5.75A7.9,7.9,0,0,1,106,20a7.49,7.49,0,0,1,5.53-2.32,7.61,7.61,0,0,1,3.09.65A6.22,6.22,0,0,1,117,20.05l-1.33,1.36a5,5,0,0,0-4.12-1.84,5.64,5.64,0,0,0-4.1,1.72,6,6,0,0,0-1.74,4.45,6,6,0,0,0,1.74,4.46,5.89,5.89,0,0,0,8.31,0A4.9,4.9,0,0,0,117,27.06h-5.47V25.2h7.3a6.85,6.85,0,0,1,.1,1.17"/><path class="cls-2" d="M118.91,26.37h-.25a6.8,6.8,0,0,1-1.79,5h0a6.94,6.94,0,0,1-5.35,2.2,7.22,7.22,0,0,1-5.36-2.24,7.61,7.61,0,0,1-2.2-5.57,7.59,7.59,0,0,1,2.2-5.56,7.48,7.48,0,0,1,8.35-1.62,5.93,5.93,0,0,1,2.26,1.65l.2-.16-.18-.18-1.32,1.36.17.18.2-.17a5.28,5.28,0,0,0-4.32-1.92,5.89,5.89,0,0,0-4.28,1.78,6.29,6.29,0,0,0-1.81,4.64,6.29,6.29,0,0,0,1.81,4.64,6.12,6.12,0,0,0,8.66,0,5.21,5.21,0,0,0,1.34-3.29l0-.28h-5.48V25.46h7V25.2l-.25.05a6.29,6.29,0,0,1,.1,1.12h.5a6.41,6.41,0,0,0-.11-1.21l0-.21h-7.76v2.37H117v-.26l-.25,0a4.67,4.67,0,0,1-1.19,3,5.62,5.62,0,0,1-8,0,5.76,5.76,0,0,1-1.66-4.27,5.79,5.79,0,0,1,1.66-4.27,5.39,5.39,0,0,1,3.93-1.64,4.79,4.79,0,0,1,3.93,1.74l.18.22,1.51-1.56.17-.17-.15-.18a6.47,6.47,0,0,0-2.45-1.79,8,8,0,0,0-8.9,1.72,8.14,8.14,0,0,0-2.35,5.93,8.14,8.14,0,0,0,2.35,5.94,7.74,7.74,0,0,0,5.71,2.39,7.44,7.44,0,0,0,5.71-2.37l-.18-.17.18.18a7.34,7.34,0,0,0,1.94-5.34h-.25m11.56-6.45h-6.85v4.9h6.18v1.85h-6.18v4.9h6.85v1.9h-8.78V18h8.78v1.9"/><path class="cls-2" d="M130.47,19.92v-.26h-7.1v5.41h6.18v1.34h-6.18v5.42h6.85v1.38h-8.28V18.28h8.28v1.64h.25v0h.25V17.76h-9.28v16h9.28V31.31h-6.85V26.93h6.18V24.56h-6.18V20.18h6.85v-.26h-.25m8.15,13.55h-1.93V19.92h-4.2V18h10.33v1.9h-4.2V33.47"/><path class="cls-2" d="M138.62,33.47v-.26h-1.68V19.66h-4.2V18.28h9.83v1.38h-4.2V33.47h.25v0h.25V20.18h4.21V17.76H132.23v2.42h4.21V33.72h2.43v-.25h-.25m11.69,0V18h1.93V33.47h-1.93"/><path class="cls-2" d="M150.31,33.47h.25V18.28H152V33.21h-1.68v.26h0v.25h2.18v-16h-2.43v16h.25v-.25m10.5,0h-1.93V19.92h-4.2V18H165v1.9h-4.21V33.47"/><path class="cls-2" d="M160.81,33.47v-.26h-1.68V19.66h-4.2V18.28h9.84v1.38h-4.21V33.47h.25v0h.26V20.18h4.2V17.76H154.43v2.42h4.2V33.72h2.44v-.25h-.26M175,30.18a5.69,5.69,0,0,0,8.17,0,6.16,6.16,0,0,0,1.67-4.44,6.16,6.16,0,0,0-1.67-4.43,5.67,5.67,0,0,0-8.17,0,6.12,6.12,0,0,0-1.68,4.43A6.13,6.13,0,0,0,175,30.18Zm9.6,1.29a7.67,7.67,0,0,1-11,0,8,8,0,0,1-2.22-5.73A8,8,0,0,1,173.56,20a7.62,7.62,0,0,1,11,0,8,8,0,0,1,2.23,5.71A8,8,0,0,1,184.59,31.47Z"/><path class="cls-2" d="M175,30.18l-.18.18a5.93,5.93,0,0,0,8.53,0,6.4,6.4,0,0,0,1.74-4.62,6.36,6.36,0,0,0-1.74-4.61,5.93,5.93,0,0,0-8.53,0,6.4,6.4,0,0,0-1.75,4.61,6.44,6.44,0,0,0,1.75,4.62l.18-.18.17-.18a5.9,5.9,0,0,1-1.59-4.26,5.88,5.88,0,0,1,1.59-4.25,5.43,5.43,0,0,1,7.82,0,5.84,5.84,0,0,1,1.6,4.25A5.87,5.87,0,0,1,183,30a5.43,5.43,0,0,1-7.82,0Zm9.6,1.29-.18-.18a7.43,7.43,0,0,1-10.67,0h0a7.73,7.73,0,0,1-2.15-5.55,7.69,7.69,0,0,1,2.15-5.54,7.38,7.38,0,0,1,10.66,0,7.77,7.77,0,0,1,2.16,5.53,7.82,7.82,0,0,1-2.15,5.55l.18.18.18.18a8.3,8.3,0,0,0,2.29-5.91,8.26,8.26,0,0,0-2.3-5.89,7.89,7.89,0,0,0-11.38,0h0a8.25,8.25,0,0,0-2.29,5.9,8.25,8.25,0,0,0,2.29,5.91h0a7.91,7.91,0,0,0,11.39,0Zm4.93,2V18h2.35l7.32,12h.08l-.08-3V18h1.93V33.47h-2l-7.65-12.6h-.08l.08,3v9.62h-1.93"/><path class="cls-2" d="M189.52,33.47h.25V18.28h2l7.32,12h.48l-.09-3.23V18.28h1.43V33.21h-1.63l-7.65-12.6h-.48l.09,3.24v9.36h-1.68v.26h0v.25h2.18V23.84l-.08-3h-.25v.26h.08v-.26l-.21.13L199,33.72h2.41v-16h-2.44v9.3l.09,3h.25v-.26h-.08V30l.21-.14L192,17.76h-2.74v16h.25v-.25m78.64,43.76h4.68V45.05h-4.68Zm42.15-20.59-5.36,14h-.16l-5.57-14h-5l8.35,19.5L297.77,87h4.88l12.86-30.35ZM283.77,73.57c-1.53,0-3.67-.78-3.67-2.73,0-2.48,2.67-3.43,5-3.43a8.19,8.19,0,0,1,4.28,1.07,5.74,5.74,0,0,1-5.57,5.09Zm.57-17.63c-3.39,0-6.9,1.53-8.35,4.92l4.15,1.78a4.41,4.41,0,0,1,4.28-2.36c2.42,0,4.88,1.49,4.92,4.14v.34a10.1,10.1,0,0,0-4.88-1.25c-4.48,0-9,2.53-9,7.25,0,4.31,3.67,7.08,7.79,7.08a6.57,6.57,0,0,0,6-3.15h.16v2.49h4.51V64.84c0-5.71-4.15-8.9-9.51-8.9Zm-28.92,4.62h-6.66v-11h6.66a5.52,5.52,0,0,1,0,11Zm-.12-15.51H244.09V77.23h4.67V65h6.54a10,10,0,1,0,0-20ZM194.16,73.58c-3.23,0-5.94-2.78-5.94-6.59s2.71-6.68,5.94-6.68,5.69,2.82,5.69,6.68-2.5,6.59-5.69,6.59Zm5.37-15.14h-.16A7.32,7.32,0,0,0,193.75,56c-5.33,0-10.22,4.81-10.22,11s4.89,10.9,10.22,10.9a7.21,7.21,0,0,0,5.62-2.48h.16V77c0,4.19-2.18,6.43-5.7,6.43a5.93,5.93,0,0,1-5.37-3.9l-4.08,1.74a10.16,10.16,0,0,0,9.45,6.47c5.5,0,10.15-3.32,10.15-11.4V56.66h-4.45Zm7.68,18.79h4.68V45.05h-4.68ZM218.8,66.61a5.93,5.93,0,0,1,5.58-6.38,4.12,4.12,0,0,1,4,2.32ZM233.35,63c-.89-2.44-3.6-7-9.13-7s-10.06,4.43-10.06,10.94c0,6.14,4.52,11,10.58,11A10.56,10.56,0,0,0,233.63,73L230,70.55a6.05,6.05,0,0,1-5.25,3,5.42,5.42,0,0,1-5.17-3.32l14.26-6.05Zm-113.62-3.6V64h10.82a9.83,9.83,0,0,1-2.46,5.85,10.94,10.94,0,0,1-8.36,3.4,12,12,0,0,1-11.88-12.36,12,12,0,0,1,11.88-12.36,11.38,11.38,0,0,1,8.16,3.32l3.19-3.28a15.59,15.59,0,0,0-11.35-4.68,17,17,0,0,0,0,34,14.91,14.91,0,0,0,11.55-4.77c3-3.06,3.92-7.38,3.92-10.86a15.65,15.65,0,0,0-.24-2.9Zm27.78,14.22c-3.23,0-6-2.74-6-6.64s2.79-6.63,6-6.63,6,2.69,6,6.63S150.74,73.58,147.51,73.58Zm0-17.58a10.95,10.95,0,1,0,10.7,10.94A10.65,10.65,0,0,0,147.51,56Zm23.35,17.58c-3.23,0-6-2.74-6-6.64s2.79-6.63,6-6.63,6,2.69,6,6.63-2.78,6.64-6,6.64Zm0-17.58a10.95,10.95,0,1,0,10.71,10.94A10.65,10.65,0,0,0,170.86,56Z"/><path class="cls-3" d="M26.35,19.59A5.06,5.06,0,0,0,25,23.4V79.58a5.25,5.25,0,0,0,1.16,3.62l.19.18h0a3.15,3.15,0,0,0,2.21.84,5.73,5.73,0,0,0,2.81-.86l36.4-21.24,12.5-7.29a4.79,4.79,0,0,0,2.63-3.34h0a4.77,4.77,0,0,0-2.63-3.34l-12.5-7.29L31.38,19.62a5.73,5.73,0,0,0-2.81-.86,3.21,3.21,0,0,0-2.22.83Z"/><path class="cls-4" d="M26.36,83.38l-.19-.18A5.25,5.25,0,0,1,25,79.58V23.4a5.06,5.06,0,0,1,1.34-3.81l31.07,31.9L26.36,83.38"/><path class="cls-5" d="M67.78,62.12,57.42,51.49,67.78,40.86l12.5,7.29a4.77,4.77,0,0,1,2.63,3.34h0a4.79,4.79,0,0,1-2.63,3.34l-12.5,7.29"/><path class="cls-6" d="M28.57,84.22a3.15,3.15,0,0,1-2.21-.84h0L57.42,51.49,67.78,62.12,31.38,83.36a5.73,5.73,0,0,1-2.81.86"/><path class="cls-7" d="M57.42,51.49,26.35,19.59a3.21,3.21,0,0,1,2.22-.83,5.73,5.73,0,0,1,2.81.86l36.4,21.24L57.42,51.49"/><path class="cls-8" d="M26.17,83.57A5.22,5.22,0,0,1,25,80v-.38a5.25,5.25,0,0,0,1.16,3.62l.19.18-.19.19"/><path class="cls-9" d="M68,62.36l-.23-.24,12.5-7.29a4.79,4.79,0,0,0,2.63-3.34,3.29,3.29,0,0,1-.29,1.33,5.49,5.49,0,0,1-2.34,2.39L68,62.36"/><path class="cls-10" d="M82.91,51.49a4.77,4.77,0,0,0-2.63-3.34l-12.5-7.29.23-.24h0l12.27,7.15c1.75,1,2.63,2.37,2.63,3.72"/><path class="cls-11" d="M25,23.4V23c0-.15,0-.28,0-.42h0v0a5,5,0,0,1,1.15-3.16l.18.19A5.06,5.06,0,0,0,25,23.4"/></g></g></svg>