<svg width="27" height="29" viewBox="0 0 27 29" fill="none" xmlns="http://www.w3.org/2000/svg">
<path d="M28.0469 2.00339C28.0469 0.973919 27.2097 0.136719 26.1802 0.136719H1.91354C0.884075 0.136719 0.046875 0.973919 0.046875 2.00339C0.046875 2.87092 0.644208 3.59519 1.44687 3.80379V26.4633L2.84687 25.0633L5.64687 27.8633L8.44687 25.0633L11.2469 27.8633L14.0469 25.0633L16.8469 27.8633L19.6469 25.0633L22.4469 27.8633L25.2469 25.0633L26.6469 26.4633V3.80379C27.4495 3.59519 28.0469 2.87092 28.0469 2.00339ZM25.7135 24.2102L25.2469 23.7435L22.4469 26.5435L19.6469 23.7435L16.8469 26.5435L14.0469 23.7435L11.2469 26.5435L8.44687 23.7435L5.64687 26.5435L2.84687 23.7435L2.38021 24.2102V3.87005V2.47005H25.7135V3.87005V24.2102ZM26.6469 2.81119V1.53672H1.44687V2.81119C1.16827 2.65019 0.980208 2.34825 0.980208 2.00339C0.980208 1.48865 1.39881 1.07005 1.91354 1.07005H26.1802C26.6949 1.07005 27.1135 1.48865 27.1135 2.00339C27.1135 2.34825 26.9255 2.65019 26.6469 2.81119Z" fill="#F5D14E"/>
<path d="M20.5802 18.8034H13.5802C13.3226 18.8034 13.1135 19.012 13.1135 19.2701C13.1135 19.5281 13.3226 19.7367 13.5802 19.7367H20.5802C20.8378 19.7367 21.0469 19.5281 21.0469 19.2701C21.0469 19.012 20.8378 18.8034 20.5802 18.8034Z" fill="#F5D14E"/>
<path d="M22.5822 18.9387C22.4982 19.0269 22.4469 19.1436 22.4469 19.27C22.4469 19.3914 22.4982 19.5127 22.5822 19.6014C22.6709 19.6854 22.7922 19.7367 22.9136 19.7367C23.0349 19.7367 23.1562 19.6854 23.2449 19.6014C23.3289 19.5127 23.3802 19.3914 23.3802 19.27C23.3802 19.1436 23.3289 19.0269 23.2449 18.9387C23.0676 18.766 22.7596 18.766 22.5822 18.9387Z" fill="#F5D14E"/>
<path d="M22.9136 12.2701H15.9136C15.656 12.2701 15.4469 12.4787 15.4469 12.7367C15.4469 12.9948 15.656 13.2034 15.9136 13.2034H22.9136C23.1712 13.2034 23.3802 12.9948 23.3802 12.7367C23.3802 12.4787 23.1712 12.2701 22.9136 12.2701Z" fill="#F5D14E"/>
<path d="M22.9135 15.5367H18.2468C17.9892 15.5367 17.7802 15.7453 17.7802 16.0034C17.7802 16.2615 17.9892 16.4701 18.2468 16.4701H22.9135C23.1711 16.4701 23.3802 16.2615 23.3802 16.0034C23.3802 15.7453 23.1711 15.5367 22.9135 15.5367Z" fill="#F5D14E"/>
<path d="M13.1135 16.0034C13.1135 16.2615 13.3226 16.4701 13.5802 16.4701H14.5135C14.7711 16.4701 14.9802 16.2615 14.9802 16.0034C14.9802 15.7453 14.7711 15.5367 14.5135 15.5367H13.5802C13.3226 15.5367 13.1135 15.7453 13.1135 16.0034Z" fill="#F5D14E"/>
<path d="M21.0469 9.47002C21.0469 9.21196 20.8378 9.00336 20.5802 9.00336H13.5802C13.3226 9.00336 13.1135 9.21196 13.1135 9.47002C13.1135 9.72809 13.3226 9.93669 13.5802 9.93669H20.5802C20.8378 9.93669 21.0469 9.72809 21.0469 9.47002Z" fill="#F5D14E"/>
<path d="M22.5822 9.13872C22.4982 9.22692 22.4469 9.34358 22.4469 9.47005C22.4469 9.59138 22.4982 9.71272 22.5822 9.80138C22.6709 9.88538 22.7922 9.93672 22.9136 9.93672C23.0396 9.93672 23.1562 9.88538 23.2449 9.80138C23.3289 9.71272 23.3802 9.59138 23.3802 9.47005C23.3802 9.34872 23.3289 9.22692 23.2449 9.13872C23.0722 8.96605 22.7549 8.96605 22.5822 9.13872Z" fill="#F5D14E"/>
<path d="M14.3782 13.068C14.4622 12.9794 14.5135 12.8627 14.5135 12.7367C14.5135 12.6102 14.4622 12.4936 14.3782 12.4054C14.2055 12.2327 13.8929 12.2327 13.7155 12.4054C13.6315 12.4936 13.5802 12.6102 13.5802 12.7367C13.5802 12.8627 13.6315 12.9794 13.7155 13.068C13.8042 13.152 13.9255 13.2034 14.0469 13.2034C14.1682 13.2034 14.2895 13.152 14.3782 13.068Z" fill="#F5D14E"/>
<path d="M16.7116 16.3347C16.7956 16.246 16.8469 16.1294 16.8469 16.0034C16.8469 15.8769 16.7956 15.756 16.7116 15.672C16.5389 15.4994 16.2262 15.4994 16.0489 15.672C15.9649 15.7602 15.9136 15.882 15.9136 16.0034C15.9136 16.1247 15.9649 16.246 16.0489 16.3347C16.1376 16.4187 16.2589 16.47 16.3802 16.47C16.5016 16.47 16.6229 16.4187 16.7116 16.3347Z" fill="#F5D14E"/>
<path d="M7.98018 9.98382V9.47002C7.98018 9.21196 7.77111 9.00336 7.51351 9.00336C7.25591 9.00336 7.04684 9.21196 7.04684 9.47002V9.98522C6.53771 10.0888 6.07384 10.359 5.73178 10.7636C5.44664 11.1006 5.31458 11.5318 5.36124 11.9784C5.40884 12.4352 5.64404 12.859 6.00664 13.1408L7.04684 13.95V16.4878C6.50504 16.2946 6.11351 15.7812 6.11351 15.1736C6.11351 14.9156 5.90444 14.707 5.64684 14.707C5.38924 14.707 5.18018 14.9156 5.18018 15.1736C5.18018 16.3002 5.98331 17.2428 7.04684 17.4598V17.8696C7.04684 18.1276 7.25591 18.3362 7.51351 18.3362C7.77111 18.3362 7.98018 18.1276 7.98018 17.8696V17.458C8.48931 17.3544 8.95318 17.0842 9.29571 16.6796C9.58084 16.3417 9.71244 15.9105 9.66578 15.4639C9.61771 15.0075 9.38298 14.5842 9.02038 14.3028L7.98018 13.4941V10.9564C8.52198 11.1496 8.91351 11.6629 8.91351 12.2705C8.91351 12.5286 9.12258 12.7372 9.38018 12.7372C9.63778 12.7372 9.84684 12.5286 9.84684 12.2705C9.84684 11.1435 9.04371 10.2008 7.98018 9.98382ZM8.44731 15.0397C8.61018 15.1662 8.71611 15.357 8.73758 15.5614C8.75764 15.7528 8.70258 15.9362 8.58311 16.0771C8.42071 16.2689 8.21071 16.4033 7.98018 16.4854V14.6757L8.44731 15.0397ZM6.57971 12.4044C6.41638 12.2775 6.31091 12.0866 6.28944 11.8818C6.26984 11.6909 6.32444 11.508 6.44391 11.3666C6.60631 11.1748 6.81631 11.0404 7.04684 10.9582V12.7675L6.57971 12.4044Z" fill="#F5D14E"/>
<path d="M18.7135 5.73674C18.9712 5.73674 19.1802 5.52781 19.1802 5.27007C19.1802 5.01234 18.9712 4.80341 18.7135 4.80341C18.4558 4.80341 18.2468 5.01234 18.2468 5.27007C18.2468 5.52781 18.4558 5.73674 18.7135 5.73674Z" fill="#F5D14E"/>
<path d="M16.8469 5.73674C17.1046 5.73674 17.3136 5.52781 17.3136 5.27007C17.3136 5.01234 17.1046 4.80341 16.8469 4.80341C16.5892 4.80341 16.3802 5.01234 16.3802 5.27007C16.3802 5.52781 16.5892 5.73674 16.8469 5.73674Z" fill="#F5D14E"/>
<path d="M20.5802 5.73674C20.8379 5.73674 21.0469 5.52781 21.0469 5.27007C21.0469 5.01234 20.8379 4.80341 20.5802 4.80341C20.3225 4.80341 20.1135 5.01234 20.1135 5.27007C20.1135 5.52781 20.3225 5.73674 20.5802 5.73674Z" fill="#F5D14E"/>
<path d="M14.9802 5.73674C15.2379 5.73674 15.4469 5.52781 15.4469 5.27007C15.4469 5.01234 15.2379 4.80341 14.9802 4.80341C14.7225 4.80341 14.5135 5.01234 14.5135 5.27007C14.5135 5.52781 14.7225 5.73674 14.9802 5.73674Z" fill="#F5D14E"/>
<path d="M22.4469 5.73674C22.7046 5.73674 22.9136 5.52781 22.9136 5.27007C22.9136 5.01234 22.7046 4.80341 22.4469 4.80341C22.1892 4.80341 21.9802 5.01234 21.9802 5.27007C21.9802 5.52781 22.1892 5.73674 22.4469 5.73674Z" fill="#F5D14E"/>
<path d="M9.38024 5.73674C9.63797 5.73674 9.84691 5.52781 9.84691 5.27007C9.84691 5.01234 9.63797 4.80341 9.38024 4.80341C9.12251 4.80341 8.91357 5.01234 8.91357 5.27007C8.91357 5.52781 9.12251 5.73674 9.38024 5.73674Z" fill="#F5D14E"/>
<path d="M11.2468 5.73674C11.5046 5.73674 11.7135 5.52781 11.7135 5.27007C11.7135 5.01234 11.5046 4.80341 11.2468 4.80341C10.9891 4.80341 10.7802 5.01234 10.7802 5.27007C10.7802 5.52781 10.9891 5.73674 11.2468 5.73674Z" fill="#F5D14E"/>
<path d="M13.1135 5.73674C13.3713 5.73674 13.5802 5.52781 13.5802 5.27007C13.5802 5.01234 13.3713 4.80341 13.1135 4.80341C12.8558 4.80341 12.6469 5.01234 12.6469 5.27007C12.6469 5.52781 12.8558 5.73674 13.1135 5.73674Z" fill="#F5D14E"/>
<path d="M24.3136 5.73674C24.5713 5.73674 24.7803 5.52781 24.7803 5.27007C24.7803 5.01234 24.5713 4.80341 24.3136 4.80341C24.0559 4.80341 23.8469 5.01234 23.8469 5.27007C23.8469 5.52781 24.0559 5.73674 24.3136 5.73674Z" fill="#F5D14E"/>
<path d="M7.51354 5.73674C7.77127 5.73674 7.98021 5.52781 7.98021 5.27007C7.98021 5.01234 7.77127 4.80341 7.51354 4.80341C7.25581 4.80341 7.04688 5.01234 7.04688 5.27007C7.04688 5.52781 7.25581 5.73674 7.51354 5.73674Z" fill="#F5D14E"/>
<path d="M5.64684 5.73674C5.90458 5.73674 6.11351 5.52781 6.11351 5.27007C6.11351 5.01234 5.90458 4.80341 5.64684 4.80341C5.38911 4.80341 5.18018 5.01234 5.18018 5.27007C5.18018 5.52781 5.38911 5.73674 5.64684 5.73674Z" fill="#F5D14E"/>
<path d="M3.78027 5.73674C4.038 5.73674 4.24693 5.52781 4.24693 5.27007C4.24693 5.01234 4.038 4.80341 3.78027 4.80341C3.52253 4.80341 3.3136 5.01234 3.3136 5.27007C3.3136 5.52781 3.52253 5.73674 3.78027 5.73674Z" fill="#F5D14E"/>
</svg>
