<svg width="46" height="24" viewBox="0 0 46 24" fill="none" xmlns="http://www.w3.org/2000/svg">
<path d="M41.044 8.62L35.8325 6.807L33.0759 3.44574C31.2801 1.2559 28.6259 0 25.7938 0H14.8981C12.0309 0 9.35593 1.28148 7.5591 3.51584L5.03967 6.64869C2.20593 6.98139 0 9.3975 0 12.3192V18.7796C0 19.5156 0.596633 20.1122 1.33256 20.1122H6.39168C6.98228 22.3472 9.02101 24 11.4391 24C13.8571 24 15.8959 22.3472 16.4865 20.1122H28.8135C29.4041 22.3472 31.4428 24 33.8609 24C36.2789 24 38.3177 22.3472 38.9083 20.1122H44.1523C44.8882 20.1122 45.4848 19.5156 45.4848 18.7796V14.867C45.4848 12.0545 43.7002 9.54408 41.044 8.62ZM31.0151 5.13579L32.224 6.60969H29.0485L27.6674 4.53791C27.2591 3.92555 26.4317 3.76005 25.8195 4.16835C25.2071 4.57656 25.0416 5.4039 25.4498 6.01626L25.8454 6.6096H21.7075V2.66504H25.794C27.8245 2.66513 29.7275 3.56567 31.0151 5.13579ZM14.8981 2.66513H19.0422V6.60969H8.49109L9.63594 5.18607C10.9243 3.58397 12.8423 2.66513 14.8981 2.66513ZM11.439 21.3349C10.03 21.3349 8.88376 20.1886 8.88376 18.7796C8.88376 17.3707 10.03 16.2244 11.439 16.2244C12.848 16.2244 13.9943 17.3707 13.9943 18.7796C13.9943 20.1886 12.848 21.3349 11.439 21.3349ZM33.8608 21.3349C32.4518 21.3349 31.3055 20.1886 31.3055 18.7796C31.3055 17.3707 32.4517 16.2244 33.8608 16.2244C35.2698 16.2244 36.416 17.3707 36.416 18.7796C36.416 20.1886 35.2698 21.3349 33.8608 21.3349ZM42.8197 17.4471H38.9082C38.3176 15.212 36.2789 13.5593 33.8608 13.5593C31.4427 13.5593 29.404 15.2121 28.8134 17.4471H16.4864C15.8958 15.212 13.8571 13.5593 11.439 13.5593C9.02092 13.5593 6.98219 15.2121 6.3916 17.4471H2.66513V14.7662H3.99769C4.73362 14.7662 5.33025 14.1696 5.33025 13.4337C5.33025 12.6977 4.73362 12.1011 3.99769 12.1011H2.67383C2.78612 10.524 4.10421 9.27491 5.7095 9.27491H28.334C28.3348 9.27491 28.3357 9.27509 28.3365 9.27509C28.3379 9.27509 28.3394 9.27491 28.3408 9.27491H34.8149L40.1683 11.1373C40.7556 11.3416 41.2712 11.676 41.6881 12.1012H40.7923C40.0563 12.1012 39.4597 12.6978 39.4597 13.4337C39.4597 14.1697 40.0563 14.7663 40.7923 14.7663H42.8177C42.8186 14.7999 42.8197 14.8333 42.8197 14.8671V17.4471Z" fill="#F5D14E"/>
</svg>
