<svg width="28" height="27" viewBox="0 0 28 27" fill="none" xmlns="http://www.w3.org/2000/svg">
<g clip-path="url(#clip0_34132_133508)">
<path d="M27.5469 1.93184C27.5469 0.939136 26.7396 0.131836 25.7469 0.131836H2.34687C1.35417 0.131836 0.546875 0.939136 0.546875 1.93184C0.546875 2.76839 1.12287 3.46679 1.89687 3.66794V25.5181L3.24687 24.1681L5.94687 26.8681L8.64687 24.1681L11.3469 26.8681L14.0469 24.1681L16.7469 26.8681L19.4469 24.1681L22.1469 26.8681L24.8469 24.1681L26.1969 25.5181V3.66794C26.9709 3.46679 27.5469 2.76839 27.5469 1.93184ZM25.2969 23.3455L24.8469 22.8955L22.1469 25.5955L19.4469 22.8955L16.7469 25.5955L14.0469 22.8955L11.3469 25.5955L8.64687 22.8955L5.94687 25.5955L3.24687 22.8955L2.79688 23.3455V3.73184V2.38184H25.2969V3.73184V23.3455ZM26.1969 2.71079V1.48184H1.89687V2.71079C1.62822 2.55554 1.44687 2.26439 1.44687 1.93184C1.44687 1.43549 1.85052 1.03184 2.34687 1.03184H25.7469C26.2432 1.03184 26.6469 1.43549 26.6469 1.93184C26.6469 2.26439 26.4655 2.55554 26.1969 2.71079Z" fill="#F5D14E"/>
<path d="M5.27185 15.1875H21.8094M10.6719 19.9125H17.4219" stroke="#F5D14E"/>
</g>
<g clip-path="url(#clip1_34132_133508)">
<path d="M17.4043 12.825H16.5151C16.5151 11.325 15.257 10.1051 13.7094 10.1051C12.1619 10.1051 10.9042 11.3254 10.9042 12.825H10.015C10.015 10.8342 11.6728 9.21594 13.7099 9.21594C15.7465 9.21594 17.4043 10.8342 17.4043 12.825Z" fill="#F5D14E"/>
<path d="M13.7099 8.92696C12.3659 8.92696 11.2719 7.83242 11.2719 6.48848C11.2714 5.14408 12.3655 4.04999 13.7099 4.04999C15.0547 4.04999 16.1488 5.14364 16.1488 6.48848C16.1488 7.83331 15.0547 8.92696 13.7099 8.92696ZM13.7099 4.93914C12.8554 4.93914 12.1606 5.634 12.1606 6.48848C12.1606 7.34295 12.8554 8.03782 13.7099 8.03782C14.5648 8.03782 15.2597 7.34295 15.2597 6.48848C15.2597 5.634 14.5639 4.93914 13.7099 4.93914Z" fill="#F5D14E"/>
</g>
<defs>
<clipPath id="clip0_34132_133508">
<rect width="27" height="27" fill="white" transform="translate(0.546875)"/>
</clipPath>
<clipPath id="clip1_34132_133508">
<rect width="8.775" height="8.775" fill="white" transform="translate(9.3219 4.04999)"/>
</clipPath>
</defs>
</svg>
