<svg width="29" height="21" viewBox="0 0 29 21" fill="none" xmlns="http://www.w3.org/2000/svg">
<rect x="1.04688" y="2" width="26" height="18" rx="2" stroke="#F5D14E" stroke-width="2"/>
<path d="M9.04688 7V15" stroke="#F5D14E"/>
<path d="M15.8489 8.476C15.8489 9.12 15.6482 9.63333 15.2469 10.016C14.8455 10.3893 14.3415 10.576 13.7349 10.576C13.1282 10.576 12.6242 10.3893 12.2229 10.016C11.8215 9.63333 11.6209 9.12 11.6209 8.476C11.6209 7.82267 11.8215 7.30933 12.2229 6.936C12.6242 6.56267 13.1282 6.376 13.7349 6.376C14.3415 6.376 14.8455 6.56267 15.2469 6.936C15.6482 7.30933 15.8489 7.82267 15.8489 8.476ZM12.9509 8.476C12.9509 8.79333 13.0255 9.04067 13.1749 9.218C13.3242 9.386 13.5109 9.47 13.7349 9.47C13.9589 9.47 14.1455 9.386 14.2949 9.218C14.4442 9.04067 14.5189 8.79333 14.5189 8.476C14.5189 8.14933 14.4442 7.90667 14.2949 7.748C14.1455 7.58 13.9589 7.496 13.7349 7.496C13.5109 7.496 13.3242 7.58 13.1749 7.748C13.0255 7.90667 12.9509 8.14933 12.9509 8.476ZM13.7209 13.754L18.7189 6.376C18.9895 6.404 19.2182 6.46933 19.4049 6.572C19.5915 6.67467 19.6849 6.81467 19.6849 6.992C19.6849 7.104 19.6569 7.22533 19.6009 7.356C19.5449 7.47733 19.4702 7.60333 19.3769 7.734L14.3789 15.098C14.0989 15.0793 13.8655 15.014 13.6789 14.902C13.5015 14.7807 13.4129 14.636 13.4129 14.468C13.4129 14.3653 13.4409 14.2533 13.4969 14.132C13.5529 14.0107 13.6275 13.8847 13.7209 13.754ZM21.4489 12.998C21.4489 13.6513 21.2482 14.1693 20.8469 14.552C20.4549 14.9253 19.9555 15.112 19.3489 15.112C18.7515 15.112 18.2475 14.9253 17.8369 14.552C17.4355 14.1693 17.2349 13.6513 17.2349 12.998C17.2349 12.354 17.4355 11.8453 17.8369 11.472C18.2475 11.0987 18.7515 10.912 19.3489 10.912C19.9555 10.912 20.4549 11.0987 20.8469 11.472C21.2482 11.8453 21.4489 12.354 21.4489 12.998ZM18.5649 12.998C18.5649 13.334 18.6395 13.586 18.7889 13.754C18.9382 13.922 19.1249 14.006 19.3489 14.006C19.5729 14.006 19.7549 13.922 19.8949 13.754C20.0442 13.586 20.1189 13.334 20.1189 12.998C20.1189 12.69 20.0442 12.452 19.8949 12.284C19.7549 12.116 19.5729 12.032 19.3489 12.032C19.1249 12.032 18.9382 12.116 18.7889 12.284C18.6395 12.452 18.5649 12.69 18.5649 12.998Z" fill="#F5D14E"/>
</svg>
