<svg width="28" height="29" viewBox="0 0 28 29" fill="none" xmlns="http://www.w3.org/2000/svg">
<path d="M14.7393 28.1151C12.5021 28.1151 10.5135 27.8097 8.77344 27.1989C7.04048 26.5952 5.57741 25.7038 4.38423 24.5249C3.19105 23.353 2.28551 21.9219 1.66761 20.2315C1.04972 18.5412 0.737216 16.6094 0.730114 14.4361C0.737216 12.3125 1.05327 10.3984 1.67827 8.69389C2.30327 6.98224 3.21591 5.51918 4.41619 4.30469C5.61648 3.0831 7.0831 2.1456 8.81605 1.49219C10.549 0.838778 12.5199 0.512073 14.7287 0.512073C16.8097 0.512073 18.6527 0.828124 20.2578 1.46023C21.87 2.09233 23.2301 2.97301 24.3381 4.10227C25.4531 5.22443 26.2947 6.53835 26.8629 8.04403C27.4382 9.54261 27.7259 11.169 27.7259 12.9233C27.7259 14.1378 27.6335 15.2884 27.4489 16.375C27.2642 17.4545 26.9482 18.4134 26.5007 19.2514C26.0604 20.0895 25.4602 20.7571 24.7003 21.2543C23.9403 21.7443 22.9886 22.0107 21.8452 22.0533C21.1278 22.0888 20.4993 22.0213 19.9595 21.8509C19.4197 21.6804 18.983 21.4141 18.6491 21.0518C18.3224 20.6825 18.1165 20.2315 18.0312 19.6989H17.9034C17.7401 20.125 17.4311 20.5156 16.9766 20.8707C16.5291 21.2187 15.9751 21.4922 15.3146 21.6911C14.6541 21.8828 13.919 21.9609 13.1094 21.9254C12.2429 21.8828 11.4403 21.6839 10.7017 21.3288C9.97017 20.9666 9.33097 20.4624 8.78409 19.8161C8.24432 19.1626 7.82528 18.3743 7.52699 17.451C7.22869 16.5277 7.07955 15.4801 7.07955 14.3082C7.07955 13.1648 7.2429 12.1562 7.5696 11.2827C7.89631 10.4091 8.3331 9.66335 8.87997 9.04545C9.43395 8.42756 10.0589 7.9446 10.755 7.59659C11.451 7.24148 12.1683 7.0142 12.907 6.91477C13.674 6.80824 14.3949 6.81889 15.0696 6.94673C15.7443 7.07457 16.3054 7.26989 16.7528 7.53267C17.2074 7.79545 17.4915 8.0831 17.6051 8.3956H17.7543V7.20241H20.7266V17.3445C20.7337 17.8771 20.8615 18.3068 21.1101 18.6335C21.3658 18.9602 21.7209 19.1236 22.1754 19.1236C22.7436 19.1236 23.2017 18.8999 23.5497 18.4524C23.9048 17.9979 24.1605 17.3018 24.3168 16.3643C24.4801 15.4197 24.5582 14.2124 24.5511 12.7422C24.5582 11.5348 24.3984 10.4411 24.0717 9.46094C23.7521 8.47372 23.2976 7.60724 22.7081 6.86151C22.1186 6.11577 21.4119 5.49432 20.5881 4.99716C19.7713 4.4929 18.8622 4.11293 17.8608 3.85724C16.8594 3.60156 15.7905 3.47372 14.6541 3.47372C12.9141 3.47372 11.3835 3.74006 10.0625 4.27273C8.74148 4.7983 7.63352 5.54759 6.73864 6.5206C5.85085 7.49361 5.17969 8.64773 4.72514 9.98295C4.2777 11.3111 4.05398 12.7812 4.05398 14.3935C4.05398 16.1193 4.28835 17.6499 4.7571 18.9851C5.23295 20.3132 5.92898 21.4318 6.84517 22.3409C7.76136 23.25 8.89418 23.9389 10.2436 24.4077C11.6001 24.8764 13.1591 25.1108 14.9205 25.1108C15.7301 25.1108 16.522 25.0469 17.2962 24.919C18.0703 24.7912 18.7663 24.642 19.3842 24.4716C20.0021 24.3011 20.478 24.152 20.8118 24.0241L21.7173 26.7301C21.277 26.9574 20.6804 27.1776 19.9276 27.3906C19.1818 27.6037 18.358 27.7777 17.456 27.9126C16.5611 28.0476 15.6555 28.1151 14.7393 28.1151ZM13.9936 18.8679C14.8956 18.8679 15.6165 18.6939 16.1562 18.3459C16.696 17.9908 17.0831 17.4652 17.3175 16.7692C17.5518 16.0732 17.6655 15.2067 17.6584 14.1697C17.6584 13.2038 17.5376 12.4119 17.2962 11.794C17.0547 11.1761 16.6676 10.718 16.1349 10.4197C15.6023 10.1214 14.8956 9.9723 14.0149 9.9723C13.2195 9.9723 12.5412 10.1534 11.9801 10.5156C11.4261 10.8778 11 11.3786 10.7017 12.0178C10.4105 12.6499 10.2649 13.3707 10.2649 14.1804C10.2649 14.9901 10.3821 15.7536 10.6165 16.4709C10.858 17.1811 11.2486 17.7599 11.7884 18.2074C12.3352 18.6477 13.0703 18.8679 13.9936 18.8679Z" fill="#F5D14E"/>
</svg>
