<svg width="33" height="32" viewBox="0 0 33 32" fill="none" xmlns="http://www.w3.org/2000/svg">
<g clip-path="url(#clip0_34132_133707)">
<path d="M0.046875 6V11.1707V12.3127V12.992H1.38021C3.04154 12.992 4.38888 14.3393 4.38888 16C4.38888 17.662 3.04154 19.0087 1.38021 19.0087H0.046875V19.6887V20.8307V26H32.0469V20.8293V19.6947V19.008H30.7135C29.0522 19.008 27.7049 17.6613 27.7049 16C27.7049 14.3387 29.0522 12.992 30.7135 12.992H32.0469V12.056V11.1713V6H0.046875ZM25.6995 16C25.6995 18.3067 27.2589 20.2453 29.3802 20.83V23.3333H2.71354V20.8293C4.83421 20.2447 6.39421 18.3067 6.39421 15.9993C6.39421 13.6933 4.83488 11.7553 2.71354 11.1707V8.66667H29.3802V11.1707C27.2589 11.7553 25.6995 13.6933 25.6995 16Z" fill="#F5D14E"/>
<path d="M14.8762 13.9393C14.8762 15.0313 14.6656 15.85 14.2429 16.3987C13.8202 16.9467 13.2016 17.2207 12.3862 17.2207C11.6022 17.2207 10.9982 16.9393 10.5709 16.3767C10.1436 15.814 9.93024 15.002 9.93024 13.9393C9.93024 11.7713 10.7489 10.6873 12.3862 10.6873C13.1882 10.6873 13.8022 10.9687 14.2329 11.5307C14.6616 12.0933 14.8762 12.896 14.8762 13.9393ZM11.7236 13.954C11.7236 14.5567 11.7776 15.0067 11.8836 15.3027C11.9909 15.5993 12.1622 15.748 12.3989 15.748C12.8549 15.748 13.0829 15.15 13.0829 13.954C13.0829 12.768 12.8542 12.1753 12.3989 12.1753C12.1622 12.1753 11.9909 12.3213 11.8836 12.6127C11.7776 12.9047 11.7236 13.3513 11.7236 13.954ZM19.7722 10.8367L14.0009 21.2407H12.2929L18.0636 10.8367H19.7722ZM22.1636 18.096C22.1636 19.1833 21.9529 19.9993 21.5302 20.548C21.1082 21.096 20.4889 21.37 19.6729 21.37C18.8896 21.37 18.2856 21.088 17.8582 20.5267C17.4316 19.964 17.2176 19.1533 17.2176 18.096C17.2176 15.928 18.0369 14.844 19.6729 14.844C20.4756 14.844 21.0916 15.1247 21.5209 15.6873C21.9502 16.2493 22.1636 17.052 22.1636 18.096ZM19.0102 18.11C19.0102 18.712 19.0642 19.162 19.1709 19.458C19.2769 19.7553 19.4496 19.9033 19.6869 19.9033C20.1416 19.9033 20.3689 19.3053 20.3689 18.11C20.3689 16.924 20.1409 16.3307 19.6869 16.3307C19.4496 16.3307 19.2769 16.4767 19.1709 16.768C19.0642 17.0613 19.0102 17.508 19.0102 18.11Z" fill="#F5D14E"/>
</g>
<defs>
<clipPath id="clip0_34132_133707">
<rect x="0.046875" width="32" height="32" rx="16" fill="white"/>
</clipPath>
</defs>
</svg>
