<svg width="29" height="30" viewBox="0 0 29 30" fill="none" xmlns="http://www.w3.org/2000/svg">
<path d="M29.9121 26.6243C29.666 26.0255 28.983 25.7391 28.3845 25.985C28.3626 25.9939 27.1763 26.4602 24.714 26.898C25.3951 26.1974 26.0197 25.4125 26.5828 24.5432C26.9343 24 26.7792 23.2744 26.236 22.9226C25.6929 22.571 24.9673 22.7262 24.6155 23.2694C23.4345 25.0932 21.9502 26.475 20.2036 27.3766C20.1494 27.4046 20.0992 27.4373 20.0514 27.4721C18.5742 27.5849 16.8928 27.6564 14.9991 27.6564C13.1307 27.6564 11.4711 27.587 10.0122 27.4767C9.95841 27.4371 9.90165 27.4007 9.83985 27.3698C5.60005 25.2507 3.65272 21.1413 2.84546 16.9579C3.34739 17.0181 3.82782 17.1918 4.23706 17.4708C5.02532 18.0087 5.83122 18.2813 6.63207 18.2813C7.43316 18.2813 8.23905 18.0087 9.02732 17.4708C10.0802 16.7528 11.551 16.7525 12.6041 17.4708C13.3923 18.0087 14.1982 18.2813 14.9991 18.2813C15.8002 18.2813 16.6058 18.0087 17.3943 17.4708C18.4474 16.7525 19.918 16.7525 20.9711 17.4708C21.7593 18.0087 22.5652 18.2813 23.3661 18.2813C24.1672 18.2813 24.973 18.0087 25.7613 17.4708C26.1545 17.2025 26.6139 17.0316 27.095 16.9652C26.9572 17.6207 26.7945 18.2589 26.6063 18.8785C26.4184 19.4977 26.7679 20.1523 27.3873 20.3402C28.0064 20.5281 28.6608 20.1786 28.8489 19.5592C29.6113 17.0467 29.9981 14.2709 29.9981 11.3088C29.9981 10.6617 29.4735 10.137 28.8263 10.137H25.513L29.8118 1.70437C30.1057 1.12778 29.8766 0.422104 29.3001 0.128204C28.7237 -0.165925 28.0179 0.063198 27.7237 0.640011L22.8824 10.137H1.17187C0.524597 10.137 0 10.6617 0 11.3088C0 15.5966 0.696029 19.2965 2.0684 22.3057C2.88139 24.0881 3.92509 25.6149 5.18806 26.8761C2.84065 26.4478 1.7102 26.0003 1.6777 25.9873C1.08124 25.7407 0.397338 26.0232 0.148773 26.6197C-0.10025 27.2171 0.18219 27.9031 0.7798 28.1521C0.960845 28.2274 5.32585 30 14.9991 30C24.6695 30 29.0883 28.2297 29.2719 28.1542C29.8704 27.9084 30.1579 27.2228 29.9121 26.6243ZM27.6324 12.4807C27.6052 13.1985 27.5525 13.9024 27.4749 14.5911C26.3901 14.606 25.3246 14.9317 24.4407 15.5348C24.0486 15.8022 23.6872 15.9377 23.3661 15.9377C23.1463 15.9377 22.9074 15.8727 22.6531 15.747L24.3182 12.4807H27.6324ZM21.6877 12.4807L20.5298 14.752C20.0947 14.6453 19.6431 14.5899 19.1826 14.5899C18.0546 14.5899 16.9796 14.9166 16.0737 15.5348C15.6816 15.8022 15.3202 15.9377 14.9991 15.9377C14.6779 15.9377 14.3165 15.8022 13.9245 15.5348C13.0183 14.9166 11.9433 14.5899 10.8156 14.5899C9.68764 14.5899 8.61259 14.9166 7.70667 15.5348C7.3146 15.8022 6.95297 15.9377 6.63184 15.9377C6.31095 15.9377 5.94932 15.8022 5.55725 15.5348C4.66781 14.9278 3.59436 14.6019 2.50236 14.5909C2.43026 13.8756 2.38563 13.169 2.36275 12.4807H21.6877ZM4.45289 6.44545C4.45289 5.22933 5.29449 4.47971 5.97061 3.87726C6.63825 3.28259 7.01614 2.91796 7.01614 2.34413C7.01614 1.69681 7.54073 1.17219 8.18801 1.17219C8.83506 1.17219 9.35989 1.69681 9.35989 2.34413C9.35989 3.99697 8.30177 4.93932 7.52952 5.62738C7.22007 5.90297 6.79641 6.28041 6.79641 6.44545C6.79641 7.09276 6.27181 7.61738 5.62477 7.61738C4.97749 7.61738 4.45289 7.09276 4.45289 6.44545ZM10.6634 6.43377C10.6634 5.02241 11.6389 4.1533 12.4995 3.38674C13.3999 2.58469 13.9517 2.04839 13.9517 1.17219C13.9517 0.524877 14.4763 0.000252127 15.1236 0.000252127C15.7709 0.000252127 16.2955 0.524877 16.2955 1.17219C16.2955 3.14411 15.0025 4.2959 14.0581 5.13686C13.5177 5.61845 13.0071 6.07326 13.0071 6.43377C13.0071 7.08108 12.4823 7.60571 11.8352 7.60571C11.188 7.60571 10.6634 7.08108 10.6634 6.43377ZM17.0389 6.44545C17.0389 5.22933 17.8802 4.47971 18.5566 3.87726C19.2242 3.28259 19.6021 2.91796 19.6021 2.34413C19.6021 1.69681 20.1267 1.17219 20.774 1.17219C21.421 1.17219 21.9456 1.69681 21.9456 2.34413C21.9456 3.99697 20.8877 4.93932 20.1153 5.62738C19.806 5.90297 19.3824 6.28041 19.3824 6.44545C19.3824 7.09276 18.8578 7.61738 18.2105 7.61738C17.5635 7.61738 17.0389 7.09276 17.0389 6.44545Z" fill="#F5D14E"/>
</svg>
