<svg width="26" height="22" viewBox="0 0 26 22" fill="none" xmlns="http://www.w3.org/2000/svg">
<path d="M24.4341 4.36392L22.7984 4.28462C21.0268 4.19872 19.5901 2.8191 19.4325 1.05244C19.3752 0.405042 18.7966 -0.0475654 18.1205 0.00399748L1.16208 1.39619C0.486037 1.45349 -0.000945915 1.99776 0.0506169 2.63943L1.26521 16.1489C1.3225 16.7963 1.90688 17.2489 2.5772 17.1973C3.0323 17.1609 3.41535 17.5336 3.39146 17.9895L3.29908 19.7526C3.2647 20.4744 3.82616 21.0588 4.58242 21.0989L23.5002 21.9984C24.2565 22.0328 24.881 21.5057 24.9211 20.7838L25.7175 5.69883C25.7518 4.98268 25.1846 4.3983 24.4341 4.36392ZM4.09544 4.66757L3.69737 12.2253C3.69168 12.3332 3.65562 12.4374 3.59334 12.5258C3.28535 12.9631 2.59951 12.7791 2.55163 12.2465L1.77511 3.60767C1.77511 3.59621 1.77511 3.59048 1.77511 3.57902C1.77511 3.56756 1.77511 3.56183 1.77511 3.55037C1.80375 3.26391 2.02146 3.03475 2.31938 3.01183L17.2726 1.78578C17.56 1.76368 17.81 1.94411 17.8685 2.20885C17.8728 2.22839 17.8914 2.24129 17.8914 2.2613C17.8914 2.26703 17.9085 2.27276 17.9085 2.28422C17.9904 3.21768 17.2299 4.00886 16.2939 3.96398L5.51628 3.44725C4.76002 3.42433 4.12981 3.95142 4.09544 4.66757ZM23.4536 14.0989C23.3758 15.5841 21.5207 16.2081 20.5612 15.0718L18.9856 13.1984C18.8481 13.0322 18.6247 12.8947 18.3783 12.8832C18.132 12.8718 17.9486 12.9692 17.7424 13.1181L16.8028 13.7999C16.6023 13.9202 16.4476 14.0004 16.2356 13.989C16.0294 13.9775 15.846 13.8973 15.7143 13.7713C15.6684 13.7254 15.5825 13.6452 15.5137 13.5765L13.0616 10.7749C12.884 10.5515 12.5918 10.4082 12.271 10.391C11.9444 10.3739 11.6293 10.5114 11.4231 10.7119L5.63086 16.9453L5.50514 17.0821C5.41539 17.1797 5.25262 17.1121 5.25846 16.9796L5.64805 9.59468L5.83711 5.99102C5.83711 5.97956 5.83711 5.9681 5.83711 5.96237C5.83711 5.94335 5.83935 5.92435 5.84485 5.90614C5.93386 5.61117 6.20211 5.40142 6.51889 5.4181L18.2179 5.97956L19.8622 6.05977L23.2023 6.22018C23.5346 6.23737 23.7924 6.48946 23.7982 6.80456C23.7982 6.81602 23.8154 6.82175 23.8154 6.83321C23.8154 6.84467 23.8325 6.8504 23.8325 6.86186L23.4536 14.0989Z" fill="black"/>
</svg>
