<svg width="29" height="20" viewBox="0 0 29 20" fill="none" xmlns="http://www.w3.org/2000/svg">
<g clip-path="url(#clip0_2_6)">
<path d="M25.0469 1H3.04688C1.94231 1 1.04688 1.89543 1.04688 3V17C1.04688 18.1046 1.94231 19 3.04688 19H25.0469C26.1515 19 27.0469 18.1046 27.0469 17V3C27.0469 1.89543 26.1515 1 25.0469 1Z" stroke="black" stroke-width="2"/>
<path d="M9.04688 6V14" stroke="black"/>
<path d="M17.8875 9.34192C18.5519 9.73065 18.5464 10.6929 17.8775 11.0739L13.1259 13.781C12.457 14.162 11.6265 13.6761 11.6309 12.9063L11.6623 7.4378C11.6668 6.66801 12.5028 6.19169 13.1673 6.58041L17.8875 9.34192Z" fill="black"/>
</g>
<defs>
<clipPath id="clip0_2_6">
<rect width="29" height="20" fill="white"/>
</clipPath>
</defs>
</svg>
