<svg width="35" height="27" viewBox="0 0 35 27" fill="none" xmlns="http://www.w3.org/2000/svg">
<mask id="path-1-inside-1_34132_133572" fill="white">
<path fill-rule="evenodd" clip-rule="evenodd" d="M4.70703 0C2.49789 0 0.707031 1.79086 0.707031 4V19.3167C0.707031 21.5259 2.49789 23.3167 4.70703 23.3167H6.75191V27L11.7152 23.3167H30.3867C32.5959 23.3167 34.3867 21.5259 34.3867 19.3167V4C34.3867 1.79086 32.5959 0 30.3867 0H4.70703Z"/>
</mask>
<path d="M6.75191 23.3167H8.75191V21.3167H6.75191V23.3167ZM6.75191 27H4.75191V30.9748L7.94378 28.6061L6.75191 27ZM11.7152 23.3167V21.3167H11.0541L10.5233 21.7107L11.7152 23.3167ZM2.70703 4C2.70703 2.89543 3.60246 2 4.70703 2V-2C1.39332 -2 -1.29297 0.686293 -1.29297 4H2.70703ZM2.70703 19.3167V4H-1.29297V19.3167H2.70703ZM4.70703 21.3167C3.60246 21.3167 2.70703 20.4213 2.70703 19.3167H-1.29297C-1.29297 22.6304 1.39332 25.3167 4.70703 25.3167V21.3167ZM6.75191 21.3167H4.70703V25.3167H6.75191V21.3167ZM8.75191 27V23.3167H4.75191V27H8.75191ZM10.5233 21.7107L5.56004 25.3939L7.94378 28.6061L12.907 24.9228L10.5233 21.7107ZM30.3867 21.3167H11.7152V25.3167H30.3867V21.3167ZM32.3867 19.3167C32.3867 20.4213 31.4913 21.3167 30.3867 21.3167V25.3167C33.7005 25.3167 36.3867 22.6304 36.3867 19.3167H32.3867ZM32.3867 4V19.3167H36.3867V4H32.3867ZM30.3867 2C31.4913 2 32.3867 2.89543 32.3867 4H36.3867C36.3867 0.686291 33.7005 -2 30.3867 -2V2ZM4.70703 2H30.3867V-2H4.70703V2Z" fill="#F5D14E" mask="url(#path-1-inside-1_34132_133572)"/>
<path d="M8.47925 10.363H24.4555M11.5018 14.6809H21.433" stroke="#F5D14E" stroke-width="2"/>
</svg>
