<svg width="30" height="27" viewBox="0 0 30 27" fill="none" xmlns="http://www.w3.org/2000/svg">
<path d="M7.87966 5.689C5.9276 5.96238 4.45567 7.7153 4.45567 9.76649V10.7293H1.59367C0.739428 10.7293 0.046875 11.4499 0.046875 12.3387C0.046875 13.2275 0.739428 13.948 1.59367 13.948H4.45567V14.9109C4.45567 16.9621 5.9276 18.7148 7.87966 18.9882L8.28121 19.0444V25.3906C8.28121 26.2794 8.97376 27 9.82801 27C10.6823 27 11.3748 26.2794 11.3748 25.3906V19.4776L19.8414 20.6636C20.2142 22.9393 22.1213 24.6769 24.411 24.6769C26.9674 24.6769 29.0469 22.5112 29.0469 19.8488V4.8281C29.0469 2.16578 26.9674 0 24.411 0C22.1213 0 20.2142 1.73769 19.8414 4.01333L7.87966 5.689ZM19.7754 17.4067L8.29235 15.7982C7.86873 15.739 7.54926 15.3574 7.54926 14.9109V9.76649C7.54926 9.31973 7.86873 8.93842 8.29235 8.87898L19.7754 7.27047V17.4067ZM22.869 4.82831C22.869 3.9408 23.5607 3.21895 24.4112 3.21895C25.2618 3.21895 25.9535 3.9408 25.9535 4.82831V19.8491C25.9535 20.7366 25.2618 21.4584 24.4112 21.4584C23.5609 21.4584 22.869 20.7366 22.869 19.8491V4.82831Z" fill="#F5D14E"/>
</svg>
