<svg width="29" height="23" viewBox="0 0 29 23" fill="none" xmlns="http://www.w3.org/2000/svg">
<path d="M28.9942 21.7894C28.9944 21.0176 28.4087 20.2825 28.4087 19.5107V3.48935C28.4087 2.71746 28.9943 1.98243 28.9943 1.21055C28.9943 0.542 28.4523 0 27.7837 0C26.9799 0 26.2157 0.638096 25.4118 0.638096H3.62922C2.8254 0.638096 2.06125 0 1.25743 0C0.588875 0 0.046875 0.542 0.046875 1.21055C0.046875 2.04326 0.73756 2.83276 0.73756 3.66547V19.3345C0.73756 20.1672 0.046875 20.9567 0.046875 21.7894C0.046875 22.458 0.588875 23 1.25743 23C2.09015 23 2.87965 22.3092 3.71238 22.3092H25.3284C26.1613 22.3092 26.9508 23 27.7837 23C28.4523 23 28.9942 22.458 28.9942 21.7894ZM26.957 20.907C26.8063 21.0482 26.6223 21.1643 26.4157 21.1643H2.5854C2.40367 21.1643 2.24097 21.063 2.11247 20.9345C1.9839 20.8059 1.88247 20.6431 1.88247 20.4613V2.55998C1.88247 2.36494 1.99176 2.19076 2.12763 2.05084C2.27053 1.90369 2.45196 1.783 2.65708 1.783H26.3441C26.5738 1.783 26.7761 1.91924 26.9413 2.07883C27.1144 2.246 27.2638 2.45573 27.2638 2.69635V20.325C27.2638 20.5526 27.1231 20.7514 26.957 20.907Z" fill="#F5D14E"/>
<path d="M4.70484 5.78122C5.02099 5.78122 5.27729 5.52491 5.27729 5.20876C5.27729 5.03804 5.41569 4.89964 5.58642 4.89964H6.02721C6.44138 4.89964 6.77713 5.23539 6.77713 5.64955V10.9498C6.77713 11.0018 6.73499 11.0439 6.68301 11.0439C6.36687 11.0439 6.11056 11.3002 6.11056 11.6164C6.11056 11.9325 6.36687 12.1888 6.68301 12.1888H8.01615C8.33229 12.1888 8.5886 11.9325 8.5886 11.6164C8.5886 11.3002 8.33229 11.0439 8.01615 11.0439C7.96417 11.0439 7.92203 11.0018 7.92203 10.9498V5.64955C7.92203 5.23539 8.25778 4.89964 8.67195 4.89964H9.11274C9.28346 4.89964 9.42186 5.03804 9.42186 5.20876C9.42186 5.52491 9.67817 5.78122 9.99432 5.78122C10.3105 5.78122 10.5668 5.52491 10.5668 5.20876V4.32718C10.5668 4.01104 10.3105 3.75473 9.99432 3.75473H4.70484C4.38869 3.75473 4.13239 4.01104 4.13239 4.32718V5.20876C4.13239 5.52491 4.38869 5.78122 4.70484 5.78122Z" fill="#F5D14E"/>
<path d="M12.5071 11.7917C12.5071 11.7917 12.5071 11.7916 12.507 11.7916C12.1909 11.7917 11.9346 12.048 11.9346 12.3641C11.9346 12.6802 12.1909 12.9365 12.5071 12.9365H14.1118C14.4279 12.9365 14.6842 12.6802 14.6842 12.3641C14.6842 12.0479 14.4279 11.7916 14.1118 11.7916C13.9848 11.7916 13.8818 11.6887 13.8818 11.5617V4.32874C13.8818 4.20173 13.9848 4.09877 14.1118 4.09877C14.4279 4.09877 14.6842 3.84246 14.6842 3.52631C14.6842 3.21016 14.4279 2.95386 14.1118 2.95386H12.5071C12.1909 2.95386 11.9346 3.21016 11.9346 3.52631C11.9346 3.84246 12.1909 4.09877 12.5071 4.09877C12.6341 4.09877 12.737 4.20169 12.737 4.32866V11.6768C12.737 11.7403 12.6855 11.7917 12.622 11.7917H12.5071C12.5071 11.7917 12.5071 11.7917 12.5071 11.7917Z" fill="#F5D14E"/>
<path d="M24.1518 5.61172H17.4677C17.1514 5.61172 16.8952 5.86803 16.8952 6.18418C16.8952 6.50033 17.1514 6.75663 17.4677 6.75663H24.1518C24.468 6.75663 24.7242 6.50033 24.7242 6.18418C24.7242 5.86803 24.4679 5.61172 24.1518 5.61172Z" fill="#F5D14E"/>
<path d="M24.1518 8.55911H17.4677C17.1514 8.55911 16.8952 8.81542 16.8952 9.13157C16.8952 9.44771 17.1514 9.70402 17.4677 9.70402H24.1518C24.468 9.70402 24.7242 9.44771 24.7242 9.13157C24.7242 8.81542 24.4679 8.55911 24.1518 8.55911Z" fill="#F5D14E"/>
<path d="M24.1522 14.9801H4.70484C4.38869 14.9801 4.13239 15.2364 4.13239 15.5526C4.13239 15.8687 4.38869 16.125 4.70484 16.125H24.1521C24.4683 16.125 24.7246 15.8687 24.7246 15.5526C24.7246 15.2364 24.4683 14.9801 24.1522 14.9801Z" fill="#F5D14E"/>
<path d="M24.1522 17.9275H4.70484C4.38869 17.9275 4.13239 18.1838 4.13239 18.4999C4.13239 18.8161 4.38869 19.0724 4.70484 19.0724H24.1521C24.4683 19.0724 24.7246 18.8161 24.7246 18.4999C24.7246 18.1838 24.4683 17.9275 24.1522 17.9275Z" fill="#F5D14E"/>
</svg>
