<svg width="28" height="27" viewBox="0 0 28 27" fill="none" xmlns="http://www.w3.org/2000/svg">
<g clip-path="url(#clip0_34132_133563)">
<path d="M27.0469 1.93184C27.0469 0.939136 26.2396 0.131836 25.2469 0.131836H1.84687C0.854175 0.131836 0.046875 0.939136 0.046875 1.93184C0.046875 2.76839 0.622875 3.46679 1.39687 3.66794V25.5181L2.74687 24.1681L5.44687 26.8681L8.14687 24.1681L10.8469 26.8681L13.5469 24.1681L16.2469 26.8681L18.9469 24.1681L21.6469 26.8681L24.3469 24.1681L25.6969 25.5181V3.66794C26.4709 3.46679 27.0469 2.76839 27.0469 1.93184ZM24.7969 23.3455L24.3469 22.8955L21.6469 25.5955L18.9469 22.8955L16.2469 25.5955L13.5469 22.8955L10.8469 25.5955L8.14687 22.8955L5.44687 25.5955L2.74687 22.8955L2.29688 23.3455V3.73184V2.38184H24.7969V3.73184V23.3455ZM25.6969 2.71079V1.48184H1.39687V2.71079C1.12822 2.55554 0.946875 2.26439 0.946875 1.93184C0.946875 1.43549 1.35052 1.03184 1.84687 1.03184H25.2469C25.7432 1.03184 26.1469 1.43549 26.1469 1.93184C26.1469 2.26439 25.9655 2.55554 25.6969 2.71079Z" fill="#F5D14E"/>
<path d="M4.77185 15.1875H21.3094M10.1719 19.9125H16.9219" stroke="#F5D14E"/>
</g>
<g clip-path="url(#clip1_34132_133563)">
<path d="M16.9043 12.825H16.0151C16.0151 11.325 14.757 10.1051 13.2094 10.1051C11.6619 10.1051 10.4042 11.3254 10.4042 12.825H9.51501C9.51501 10.8342 11.1728 9.21594 13.2099 9.21594C15.2465 9.21594 16.9043 10.8342 16.9043 12.825Z" fill="#F5D14E"/>
<path d="M13.2099 8.92696C11.8659 8.92696 10.7719 7.83242 10.7719 6.48848C10.7714 5.14408 11.8655 4.04999 13.2099 4.04999C14.5547 4.04999 15.6488 5.14364 15.6488 6.48848C15.6488 7.83331 14.5547 8.92696 13.2099 8.92696ZM13.2099 4.93914C12.3554 4.93914 11.6606 5.634 11.6606 6.48848C11.6606 7.34295 12.3554 8.03782 13.2099 8.03782C14.0648 8.03782 14.7597 7.34295 14.7597 6.48848C14.7597 5.634 14.0639 4.93914 13.2099 4.93914Z" fill="#F5D14E"/>
</g>
<defs>
<clipPath id="clip0_34132_133563">
<rect x="0.046875" width="27" height="27" rx="13.5" fill="white"/>
</clipPath>
<clipPath id="clip1_34132_133563">
<rect x="8.8219" y="4.04999" width="8.775" height="8.775" rx="4.3875" fill="white"/>
</clipPath>
</defs>
</svg>
