<svg width="36" height="25" viewBox="0 0 36 25" fill="none" xmlns="http://www.w3.org/2000/svg">
<path d="M6.71728 19.8781H12.7104L16.155 24.4665C16.412 24.8087 16.8111 25 17.225 25C17.365 25 17.5065 24.9781 17.6448 24.9328C18.1923 24.7537 18.5601 24.2502 18.5601 23.6797V19.8783H28.3765C32.0546 19.8783 35.0469 16.9176 35.0469 13.2782V6.60011C35.0469 2.96069 32.0546 0 28.3765 0H6.71728C3.03914 0 0.046875 2.96069 0.046875 6.60011V13.2782C0.046875 16.9173 3.03914 19.8781 6.71728 19.8781ZM2.40113 6.59996C2.40113 4.245 4.33728 2.32902 6.71728 2.32902H28.3765C30.7565 2.32902 32.6926 4.245 32.6926 6.59996V13.278C32.6926 15.633 30.7565 17.549 28.3765 17.549H17.3832C16.7331 17.549 16.206 18.0702 16.206 18.7135V20.628L14.2475 18.0191C14.0254 17.7233 13.6749 17.549 13.3025 17.549H6.71728C4.33728 17.549 2.40113 15.633 2.40113 13.278V6.59996Z" fill="#F5D14E"/>
<path d="M14.1009 13.7612C14.4147 13.9205 14.7638 14 15.113 14C15.481 14 15.8488 13.9116 16.1745 13.7355L21.0419 11.1022C21.6713 10.7619 22.0469 10.1628 22.0469 9.50007C22.0469 8.83717 21.6713 8.23805 21.0419 7.89775L16.1746 5.2646C15.5402 4.92124 14.7457 4.91148 14.1011 5.23866C13.4509 5.56889 13.0469 6.19273 13.0469 6.86662V12.1334C13.0469 12.8073 13.4507 13.4309 14.1009 13.7612ZM15.594 7.6223L19.0648 9.49992L15.594 11.3777V7.6223Z" fill="#F5D14E"/>
</svg>
