<svg width="28" height="20" viewBox="0 0 28 20" fill="none" xmlns="http://www.w3.org/2000/svg">
<path d="M8.74399 6.80772C9.22867 6.32304 9.84321 6.0137 10.5209 5.91335C10.8975 5.85766 11.1575 5.50696 11.1018 5.13063C11.0461 4.75402 10.6962 4.49321 10.3191 4.55C9.3464 4.69392 8.46471 5.1378 7.76939 5.83312L3.79515 9.80708C2.0188 11.5837 2.0188 14.4744 3.79515 16.2511C4.68346 17.1396 5.85051 17.5835 7.01727 17.5835C8.18404 17.5835 9.35109 17.1394 10.2391 16.2511L14.2128 12.2771C14.8847 11.6058 15.3231 10.756 15.4816 9.82031C15.545 9.44509 15.2922 9.08943 14.9169 9.02574C14.5445 8.96095 14.1858 9.21515 14.1224 9.59038C14.0121 10.2424 13.7063 10.8346 13.2382 11.3025L9.26424 15.2764C8.02551 16.5157 6.00876 16.5157 4.76975 15.2764C3.53048 14.0372 3.53048 12.021 4.76975 10.7817L8.74399 6.80772Z" fill="#F5D14E"/>
<path d="M17.8117 7.60673C17.7331 7.23343 17.3651 6.99715 16.9951 7.07435C16.6223 7.15292 16.3841 7.5185 16.4627 7.89098C16.8561 9.75582 16.2898 11.67 14.9483 13.0119L10.9743 16.9855C9.91947 18.0404 8.5145 18.6216 7.01771 18.6216C5.5212 18.6216 4.11623 18.0406 3.06112 16.9855C0.879493 14.8039 0.879493 11.2543 3.06112 9.07263L7.03508 5.09867C8.43041 3.70335 10.4888 3.14533 12.4055 3.64269C12.7741 3.73891 13.1501 3.51725 13.2455 3.14836C13.3412 2.78002 13.1198 2.40397 12.7515 2.3083C10.3625 1.68907 7.79933 2.38494 6.06048 4.12407L2.08652 8.09803C0.771144 9.4134 0.046875 11.1644 0.046875 13.0292C0.046875 14.8941 0.771144 16.6451 2.08652 17.9604C3.40189 19.2758 5.15314 20.0001 7.01771 20.0001C8.88256 20.0001 10.6338 19.2758 11.9489 17.9604L15.9229 13.9867C17.5956 12.3141 18.3016 9.92896 17.8117 7.60673Z" fill="#F5D14E"/>
<path d="M18.5593 13.1921C18.1088 13.6423 17.5409 13.9439 16.9164 14.0636C16.5428 14.1355 16.2977 14.4964 16.3697 14.8706C16.4328 15.2003 16.7218 15.4297 17.0457 15.4297C17.0887 15.4297 17.1326 15.4255 17.1767 15.4173C18.073 15.2452 18.8882 14.8129 19.5342 14.1667L23.5082 10.1927C25.2845 8.41639 25.2845 5.52538 23.5082 3.74876C21.7318 1.97242 18.8405 1.97242 17.0642 3.74876L13.0902 7.72272C12.5261 8.28681 12.1192 8.99123 11.9133 9.75933C11.8148 10.1268 12.0332 10.5048 12.4007 10.6035C12.7693 10.7011 13.1465 10.4836 13.2449 10.1158C13.388 9.5815 13.6717 9.09075 14.0651 8.69733L18.0388 4.72337C19.2783 3.48437 21.2946 3.48492 22.5336 4.72337C23.7726 5.96265 23.7726 7.97913 22.5336 9.21813L18.5593 13.1921Z" fill="#F5D14E"/>
<path d="M25.2164 2.03943C22.4974 -0.679535 18.073 -0.680087 15.354 2.03943L11.38 6.01312C9.67925 7.7142 8.98117 10.1351 9.51245 12.4893C9.59626 12.8604 9.96542 13.0934 10.3365 13.0099C10.7079 12.9261 10.9409 12.5572 10.857 12.1858C10.4305 10.2959 10.9905 8.35245 12.3549 6.98772L16.3286 3.01404C18.5102 0.832686 22.0602 0.832411 24.2418 3.01404C26.4234 5.19566 26.4234 8.7456 24.2418 10.9272L20.2681 14.9009C18.8871 16.2816 16.9227 16.8361 15.0157 16.3864C14.6452 16.2982 14.2741 16.5281 14.1864 16.8984C14.0987 17.2686 14.3281 17.64 14.6984 17.7277C15.2418 17.8561 15.7885 17.9187 16.3294 17.9187C18.1554 17.9187 19.9149 17.2033 21.2424 15.8755L25.2161 11.9018C27.9359 9.18313 27.9359 4.75868 25.2164 2.03943Z" fill="#F5D14E"/>
</svg>

