<svg width="34" height="26" viewBox="0 0 34 26" fill="none" xmlns="http://www.w3.org/2000/svg">
<path d="M16.6931 21.8447C15.5409 21.8447 14.605 22.7765 14.605 23.9224C14.605 25.0704 15.5398 26 16.6931 26C17.8464 26 18.7802 25.0693 18.7802 23.9224C18.7802 22.7755 17.8464 21.8447 16.6931 21.8447ZM32.7583 6.23718C28.4646 2.21489 22.7567 0 16.6869 0C10.6172 0 4.90914 2.21489 0.61546 6.23928C-0.142653 6.94946 -0.142653 8.0996 0.61546 8.81095C0.993993 9.16552 1.49106 9.34339 1.98709 9.34339C2.48311 9.34339 2.98019 9.16552 3.35977 8.81095C6.9193 5.47395 11.6528 3.83198 16.6859 3.83198C21.7211 3.83198 26.4535 5.47395 30.0131 8.80886C30.7712 9.51904 31.9993 9.51904 32.7583 8.80886C33.5153 8.09856 33.5163 6.94737 32.7583 6.23718ZM16.6703 7.27286C12.1842 7.27286 7.96649 9.00743 4.79386 12.1561C4.00248 12.9422 4.00248 14.2162 4.79386 15.0023C5.19008 15.3964 5.7089 15.5929 6.22784 15.5929C6.74679 15.5929 7.26561 15.3963 7.66078 15.0023C10.067 12.6137 13.2678 11.1672 16.6703 11.1672C20.0718 11.1672 23.2736 12.6147 25.6788 15.0023C26.4712 15.7885 27.7544 15.7885 28.5457 15.0023C29.3381 14.2162 29.3381 12.9422 28.5457 12.1561C25.3731 9.00743 21.1542 7.27286 16.6703 7.27286ZM16.688 14.549C14.1506 14.549 11.7662 15.567 9.97141 17.4148C9.22784 18.1802 9.22784 19.424 9.97141 20.1893C10.3416 20.5709 10.8293 20.7622 11.317 20.7622C11.8037 20.7622 12.2903 20.5708 12.6615 20.1893C13.7367 19.0808 15.1666 18.4058 16.688 18.4058C18.2072 18.4058 19.6371 19.0797 20.7145 20.1872C21.458 20.9525 22.6611 20.9525 23.4057 20.1872C24.1472 19.4219 24.1472 18.1802 23.4057 17.4148C21.6108 15.567 19.2252 14.549 16.688 14.549Z" fill="#F5D14E"/>
</svg>
