<svg width="462" height="591" viewBox="0 0 462 591" fill="none" xmlns="http://www.w3.org/2000/svg">
<g filter="url(#filter0_d_44561_194327)">
<rect x="14.3047" y="142" width="170.065" height="122" rx="18" fill="#F4F2F3"/>
</g>
<g clip-path="url(#clip0_44561_194327)">
<path d="M125.945 177.637C125.933 177.637 106.641 177.637 106.641 177.637C105.973 177.637 105.43 178.224 105.43 178.945C105.43 179.666 105.973 180.254 106.641 180.254H125.945C127.945 180.258 129.574 182.019 129.578 184.18V212.969C129.574 215.129 127.945 216.891 125.945 216.895H108.266C107.947 216.895 107.635 217.034 107.409 217.278L101 224.204L94.5905 217.278C94.3653 217.034 94.0529 216.894 93.7344 216.894H76.0547C74.0554 216.89 72.4255 215.129 72.4219 212.969V184.18C72.4255 182.019 74.0554 180.258 76.0547 180.254H95.7421C96.4093 180.254 96.953 179.666 96.953 178.945C96.953 178.224 96.4093 177.637 95.7421 177.637H76.0547C72.7675 177.637 70 180.622 70 184.18V212.969C70 216.513 72.7693 219.512 76.0547 219.512H93.233L100.144 226.98C100.369 227.223 100.682 227.363 101 227.363C101.318 227.363 101.631 227.223 101.856 226.98L108.767 219.512H125.945C129.222 219.512 132 216.517 132 212.969C132 212.951 132 184.18 132 184.18C132 180.632 129.233 177.637 125.945 177.637Z" fill="black"/>
<path d="M101.191 180.254C101.86 180.254 102.402 179.668 102.402 178.945C102.402 178.223 101.86 177.637 101.191 177.637C100.523 177.637 99.9805 178.223 99.9805 178.945C99.9805 179.668 100.523 180.254 101.191 180.254Z" fill="black"/>
<path d="M91.9753 196.323C91.834 196.802 91.9588 197.326 92.2967 197.671L95.7585 201.211L94.9429 206.198C94.863 206.687 95.046 207.183 95.4152 207.478C95.7844 207.773 96.2765 207.817 96.6857 207.591L101 205.213L105.314 207.591C105.488 207.687 105.677 207.735 105.864 207.735C106.119 207.735 106.372 207.648 106.585 207.478C106.954 207.183 107.137 206.687 107.057 206.198L106.241 201.211L109.703 197.671C110.041 197.326 110.166 196.802 110.025 196.323C109.883 195.844 109.501 195.495 109.04 195.425L104.226 194.691L102.079 190.13C101.873 189.691 101.456 189.414 101 189.414C100.544 189.414 100.127 189.691 99.9206 190.13L97.7742 194.691L92.9599 195.425C92.4993 195.495 92.1166 195.844 91.9753 196.323ZM98.7369 197.188C99.1283 197.128 99.4681 196.866 99.6472 196.485L101 193.61L102.353 196.485C102.532 196.866 102.872 197.128 103.263 197.188L106.213 197.637L104.103 199.794C103.808 200.096 103.672 200.539 103.743 200.972L104.249 204.066L101.55 202.578C101.377 202.483 101.189 202.435 101 202.435C100.811 202.435 100.622 202.483 100.45 202.578L97.7508 204.066L98.2568 200.972C98.3276 200.539 98.1922 200.096 97.8965 199.794L95.7871 197.637L98.7369 197.188Z" fill="black"/>
<path d="M127.097 196.703C126.955 196.229 126.576 195.883 126.119 195.812L122.565 195.254L120.976 191.779C120.772 191.332 120.351 191.05 119.891 191.05C119.43 191.05 119.009 191.332 118.805 191.779L117.216 195.254L113.662 195.812C113.206 195.883 112.827 196.229 112.684 196.703C112.542 197.177 112.661 197.697 112.991 198.045L115.562 200.75L114.955 204.569C114.877 205.06 115.064 205.556 115.437 205.849C115.809 206.142 116.304 206.18 116.712 205.949L119.891 204.145L123.07 205.949C123.247 206.049 123.44 206.099 123.632 206.099C123.884 206.099 124.134 206.014 124.345 205.848C124.717 205.556 124.904 205.059 124.826 204.569L124.219 200.749L126.79 198.045C127.12 197.697 127.239 197.177 127.097 196.703ZM122.073 199.355C121.787 199.656 121.657 200.089 121.724 200.514L122.024 202.399L120.454 201.508C120.277 201.408 120.084 201.358 119.891 201.358C119.697 201.358 119.504 201.408 119.328 201.508L117.757 202.399L118.057 200.514C118.124 200.089 117.994 199.655 117.708 199.355L116.44 198.021L118.194 197.746C118.588 197.684 118.929 197.417 119.105 197.03L119.891 195.313L120.676 197.03C120.852 197.417 121.193 197.684 121.588 197.746L123.341 198.021L122.073 199.355Z" fill="black"/>
<path d="M89.3158 196.703C89.1734 196.229 88.7942 195.883 88.338 195.812L84.7841 195.254L83.195 191.779C82.991 191.332 82.57 191.05 82.1094 191.05C81.6488 191.05 81.2278 191.332 81.0238 191.779L79.4347 195.254L75.8808 195.812C75.4245 195.883 75.0454 196.229 74.903 196.703C74.7606 197.177 74.8796 197.697 75.21 198.045L77.7808 200.75L77.1739 204.569C77.0959 205.06 77.2825 205.556 77.6553 205.849C78.028 206.142 78.5224 206.18 78.9304 205.949L82.1094 204.145L85.2883 205.949C85.4654 206.049 85.6586 206.099 85.8512 206.099C86.1025 206.099 86.3524 206.014 86.5633 205.848C86.9362 205.556 87.1228 205.059 87.0448 204.569L86.4379 200.749L89.0087 198.045C89.3392 197.697 89.4582 197.177 89.3158 196.703ZM84.292 199.355C84.0062 199.656 83.8758 200.089 83.9432 200.514L84.2428 202.399L82.6724 201.508C82.496 201.408 82.3027 201.358 82.1094 201.358C81.9161 201.358 81.7226 201.408 81.5464 201.508L79.976 202.399L80.2755 200.514C80.343 200.089 80.2126 199.655 79.9268 199.355L78.6591 198.021L80.4124 197.746C80.8067 197.684 81.1475 197.417 81.3241 197.03L82.1094 195.313L82.8947 197.03C83.0712 197.417 83.4121 197.684 83.8064 197.746L85.5597 198.021L84.292 199.355Z" fill="black"/>
</g>
<g filter="url(#filter1_d_44561_194327)">
<rect x="147" y="237" width="170" height="122" rx="18" fill="#F4F2F3"/>
</g>
<g filter="url(#filter2_d_44561_194327)">
<rect x="202.482" y="36" width="93.5858" height="66" rx="18" fill="#F4F2F3"/>
</g>
<path d="M253.45 58.5376C251.525 58.5376 249.875 59.2251 248.5 60.6001L245.475 63.6251C244.925 64.1751 244.925 65.0001 245.475 65.5501C246.025 66.1001 246.85 66.1001 247.4 65.5501L250.425 62.5251C252.075 60.8751 254.825 60.8751 256.475 62.5251C257.3 63.3501 257.713 64.4501 257.713 65.5501C257.713 66.6501 257.3 67.7501 256.475 68.5751L253.45 71.6001C252.9 72.1501 252.9 72.9751 253.45 73.5251C253.725 73.8001 254.138 73.9376 254.413 73.9376C254.688 73.9376 255.1 73.8001 255.375 73.5251L258.4 70.5001C259.775 69.1251 260.463 67.4751 260.463 65.5501C260.463 63.6251 259.775 61.9751 258.4 60.6001C257.025 59.2251 255.375 58.5376 253.45 58.5376Z" fill="black"/>
<path d="M243.55 69.5377C244.1 68.9877 244.1 68.1627 243.55 67.6127C243 67.0627 242.175 67.0627 241.625 67.6127L238.6 70.5002C237.225 71.8752 236.538 73.5252 236.538 75.4502C236.538 77.3752 237.225 79.0252 238.6 80.4002C239.975 81.7752 241.625 82.4627 243.55 82.4627C245.475 82.4627 247.125 81.7752 248.5 80.4002L251.525 77.3752C252.075 76.8252 252.075 76.0002 251.525 75.4502C250.975 74.9002 250.15 74.9002 249.6 75.4502L246.575 78.4752C244.925 80.1252 242.175 80.1252 240.525 78.4752C239.7 77.6502 239.288 76.5502 239.288 75.4502C239.288 74.3502 239.7 73.2502 240.525 72.4252L243.55 69.5377Z" fill="black"/>
<path d="M244.513 74.4875C244.788 74.7625 245.2 74.9 245.475 74.9C245.75 74.9 246.163 74.7625 246.438 74.4875L252.35 68.575C252.9 68.025 252.9 67.2 252.35 66.65C251.8 66.1 250.975 66.1 250.425 66.65L244.513 72.5625C243.963 72.975 243.963 73.9375 244.513 74.4875Z" fill="black"/>
<g filter="url(#filter3_f_44561_194327)">
<g filter="url(#filter4_d_44561_194327)">
<rect x="60.5938" y="509" width="93.5858" height="66" rx="18" fill="#F4F2F3"/>
</g>
<g clip-path="url(#clip1_44561_194327)">
<path d="M119.172 530.731H106.882V529.094C106.882 528.49 106.392 528 105.788 528H98.8286C98.2245 528 97.7349 528.49 97.7349 529.094V554.906C97.7349 555.51 98.2245 556 98.8286 556H119.172C119.776 556 120.266 555.51 120.266 554.906V531.825C120.266 531.221 119.776 530.731 119.172 530.731ZM118.079 553.812H99.9224V530.188H104.694V531.825C104.694 532.429 105.184 532.919 105.788 532.919H118.079V553.812ZM115.985 550.616C115.985 551.22 115.495 551.71 114.891 551.71H103.11C102.505 551.71 102.016 551.22 102.016 550.616C102.016 550.012 102.505 549.523 103.11 549.523H114.891C115.495 549.523 115.985 550.012 115.985 550.616ZM103.11 545.261H114.891C115.495 545.261 115.985 545.751 115.985 546.355C115.985 546.959 115.495 547.449 114.891 547.449H103.11C102.505 547.449 102.016 546.959 102.016 546.355C102.016 545.751 102.505 545.261 103.11 545.261ZM105.252 535.021H112.749C113.353 535.021 113.843 535.511 113.843 536.115C113.843 536.719 113.353 537.209 112.749 537.209H110.094V542.541C110.094 543.145 109.605 543.635 109 543.635C108.396 543.635 107.907 543.145 107.907 542.541V537.209H105.252C104.648 537.209 104.158 536.719 104.158 536.115C104.158 535.511 104.648 535.021 105.252 535.021Z" fill="black"/>
</g>
</g>
<g filter="url(#filter5_f_44561_194327)">
<g filter="url(#filter6_d_44561_194327)">
<rect x="331.289" y="10" width="72.4535" height="51" rx="11" fill="#F4F2F3"/>
</g>
<path d="M363.16 30.0034C361.738 30.1957 360.665 31.4293 360.665 32.8727V33.5503H358.58C357.957 33.5503 357.453 34.0573 357.453 34.6828C357.453 35.3082 357.957 35.8153 358.58 35.8153H360.665V36.4928C360.665 37.9363 361.738 39.1697 363.16 39.362L363.453 39.4016V43.8675C363.453 44.4929 363.958 45 364.58 45C365.203 45 365.707 44.4929 365.707 43.8675V39.7065L371.877 40.5411C372.149 42.1424 373.538 43.3653 375.207 43.3653C377.07 43.3653 378.585 41.8412 378.585 39.9677V29.3975C378.585 27.5241 377.07 26 375.207 26C373.538 26 372.149 27.2228 371.877 28.8242L363.16 30.0034ZM371.829 38.2491L363.461 37.1172C363.152 37.0756 362.92 36.8071 362.92 36.4928V32.8727C362.92 32.5583 363.152 32.29 363.461 32.2482L371.829 31.1163V38.2491ZM374.083 29.3977C374.083 28.7732 374.587 28.2652 375.207 28.2652C375.827 28.2652 376.331 28.7732 376.331 29.3977V39.9679C376.331 40.5924 375.827 41.1004 375.207 41.1004C374.587 41.1004 374.083 40.5924 374.083 39.9679V29.3977Z" fill="black"/>
</g>
<g filter="url(#filter7_d_44561_194327)">
<rect x="248.771" y="387" width="170.065" height="122" rx="18" fill="#F4F2F3"/>
</g>
<path d="M309.561 467.937H322.588L330.075 477.848C330.633 478.587 331.501 479 332.4 479C332.705 479 333.012 478.953 333.313 478.855C334.503 478.468 335.303 477.38 335.303 476.148V467.937H356.639C364.634 467.937 371.138 461.542 371.138 453.681V439.256C371.138 431.395 364.634 425 356.639 425H309.561C301.566 425 295.062 431.395 295.062 439.256V453.681C295.062 461.541 301.566 467.937 309.561 467.937ZM300.179 439.256C300.179 434.169 304.388 430.031 309.561 430.031H356.639C361.813 430.031 366.021 434.169 366.021 439.256V453.681C366.021 458.767 361.813 462.906 356.639 462.906H332.744C331.331 462.906 330.186 464.032 330.186 465.421V469.556L325.928 463.921C325.446 463.282 324.684 462.906 323.874 462.906H309.561C304.388 462.906 300.179 458.767 300.179 453.681V439.256Z" fill="black"/>
<path d="M325.61 454.724C326.292 455.068 327.051 455.24 327.81 455.24C328.61 455.24 329.409 455.049 330.117 454.669L340.697 448.981C342.065 448.246 342.881 446.952 342.881 445.52C342.881 444.088 342.065 442.794 340.697 442.059L330.117 436.372C328.738 435.63 327.011 435.609 325.61 436.316C324.197 437.029 323.319 438.376 323.319 439.832V451.208C323.319 452.664 324.197 454.011 325.61 454.724V454.724ZM328.855 441.464L336.399 445.52L328.855 449.576V441.464Z" fill="black"/>
<g filter="url(#filter8_df_44561_194327)">
<rect x="9.27344" y="343" width="170.065" height="122" rx="18" fill="#F4F2F3"/>
</g>
<path d="M79.7144 400V413.41" stroke="#060606" stroke-width="4"/>
<rect x="63.1016" y="388.5" width="53.3528" height="37" rx="1.5" stroke="black" stroke-width="3"/>
<path d="M92.9333 404.612C92.9333 405.44 92.6753 406.1 92.1593 406.592C91.6433 407.072 90.9953 407.312 90.2153 407.312C89.4353 407.312 88.7873 407.072 88.2713 406.592C87.7553 406.1 87.4973 405.44 87.4973 404.612C87.4973 403.772 87.7553 403.112 88.2713 402.632C88.7873 402.152 89.4353 401.912 90.2153 401.912C90.9953 401.912 91.6433 402.152 92.1593 402.632C92.6753 403.112 92.9333 403.772 92.9333 404.612ZM89.2073 404.612C89.2073 405.02 89.3033 405.338 89.4953 405.566C89.6873 405.782 89.9273 405.89 90.2153 405.89C90.5033 405.89 90.7433 405.782 90.9353 405.566C91.1273 405.338 91.2233 405.02 91.2233 404.612C91.2233 404.192 91.1273 403.88 90.9353 403.676C90.7433 403.46 90.5033 403.352 90.2153 403.352C89.9273 403.352 89.6873 403.46 89.4953 403.676C89.3033 403.88 89.2073 404.192 89.2073 404.612ZM90.1973 411.398L96.6233 401.912C96.9713 401.948 97.2653 402.032 97.5053 402.164C97.7453 402.296 97.8653 402.476 97.8653 402.704C97.8653 402.848 97.8293 403.004 97.7573 403.172C97.6853 403.328 97.5893 403.49 97.4693 403.658L91.0433 413.126C90.6833 413.102 90.3833 413.018 90.1433 412.874C89.9153 412.718 89.8013 412.532 89.8013 412.316C89.8013 412.184 89.8373 412.04 89.9093 411.884C89.9813 411.728 90.0773 411.566 90.1973 411.398ZM100.133 410.426C100.133 411.266 99.8753 411.932 99.3593 412.424C98.8553 412.904 98.2133 413.144 97.4333 413.144C96.6653 413.144 96.0173 412.904 95.4893 412.424C94.9733 411.932 94.7153 411.266 94.7153 410.426C94.7153 409.598 94.9733 408.944 95.4893 408.464C96.0173 407.984 96.6653 407.744 97.4333 407.744C98.2133 407.744 98.8553 407.984 99.3593 408.464C99.8753 408.944 100.133 409.598 100.133 410.426ZM96.4253 410.426C96.4253 410.858 96.5213 411.182 96.7133 411.398C96.9053 411.614 97.1453 411.722 97.4333 411.722C97.7213 411.722 97.9553 411.614 98.1353 411.398C98.3273 411.182 98.4233 410.858 98.4233 410.426C98.4233 410.03 98.3273 409.724 98.1353 409.508C97.9553 409.292 97.7213 409.184 97.4333 409.184C97.1453 409.184 96.9053 409.292 96.7133 409.508C96.5213 409.724 96.4253 410.03 96.4253 410.426Z" fill="black"/>
<g filter="url(#filter9_d_44561_194327)">
<rect x="274.936" y="114" width="170.065" height="122" rx="18" fill="#F4F2F3"/>
</g>
<g clip-path="url(#clip2_44561_194327)">
<path d="M395.24 169.726C394.536 168.634 393.917 168.228 393.261 167.94C392.606 167.652 370.407 157.871 364.029 157.871C361.23 157.871 356.667 159.665 350.467 163.205C346.459 165.493 343.104 167.745 342.297 168.294C335.456 168.301 330.547 168.306 329.961 168.306C321.887 168.306 319.346 183.923 330.488 183.923C330.953 183.923 339.767 183.945 340.579 183.96C340.758 179.577 344.377 176.067 348.803 176.067C353.233 176.067 356.855 179.585 357.027 183.973C364.244 183.973 371.774 183.973 374.19 183.973C374.314 179.515 377.976 175.927 382.463 175.927C386.943 175.927 390.6 179.503 390.736 183.95C401.072 183.293 398.214 174.336 395.24 169.726ZM347.441 168.289C352.644 165.027 360.4 160.676 364.03 160.676C365.92 160.676 369.806 161.815 374.215 163.368L373.636 168.261C365.288 168.27 355.584 168.28 347.441 168.289ZM371.519 172.552H368.556C368.171 172.552 367.859 172.239 367.859 171.854C367.859 171.469 368.171 171.157 368.556 171.157H371.519C371.905 171.157 372.216 171.469 372.216 171.854C372.216 172.24 371.904 172.552 371.519 172.552Z" fill="black"/>
<path d="M348.803 177.47C345.038 177.47 341.974 180.534 341.974 184.3C341.974 188.066 345.038 191.13 348.803 191.13C352.569 191.13 355.633 188.066 355.633 184.3C355.633 180.534 352.569 177.47 348.803 177.47ZM348.803 187.886C346.826 187.886 345.218 186.277 345.218 184.3C345.218 182.323 346.826 180.714 348.803 180.714C350.781 180.714 352.389 182.323 352.389 184.3C352.389 186.277 350.781 187.886 348.803 187.886Z" fill="black"/>
<path d="M382.464 177.376C378.698 177.376 375.634 180.44 375.634 184.206C375.634 187.972 378.698 191.036 382.464 191.036C386.23 191.036 389.293 187.972 389.293 184.206C389.294 180.44 386.23 177.376 382.464 177.376ZM382.464 187.792C380.487 187.792 378.878 186.184 378.878 184.207C378.878 182.229 380.487 180.621 382.464 180.621C384.441 180.621 386.049 182.229 386.049 184.207C386.049 186.184 384.441 187.792 382.464 187.792Z" fill="black"/>
</g>
<path d="M250.681 287.139L247.956 287.008C245.057 286.869 242.706 284.612 242.446 281.722V281.722C242.352 280.663 241.399 279.922 240.286 280.007L212.367 282.284C211.254 282.378 210.453 283.268 210.537 284.318L212.537 306.42C212.631 307.479 213.593 308.22 214.697 308.135V308.135C215.446 308.076 216.077 308.689 216.037 309.44L215.885 312.316C215.829 313.497 216.753 314.453 217.998 314.518L249.143 315.99C250.388 316.046 251.416 315.184 251.482 314.003L252.793 289.323C252.85 288.152 251.916 287.196 250.681 287.139ZM217.196 287.636L216.541 299.998C216.532 300.176 216.472 300.349 216.368 300.495V300.495C215.86 301.212 214.734 300.908 214.655 300.033L213.376 285.902C213.376 285.883 213.376 285.874 213.376 285.855C213.376 285.837 213.376 285.827 213.376 285.808C213.424 285.34 213.782 284.965 214.273 284.927L238.89 282.922C239.363 282.885 239.775 283.181 239.871 283.614C239.879 283.646 239.909 283.667 239.909 283.7V283.7C239.909 283.709 239.937 283.718 239.937 283.737V283.737C240.072 285.264 238.828 286.559 237.297 286.486L219.536 285.64C218.291 285.602 217.253 286.465 217.196 287.636ZM249.067 303.048C248.938 305.492 245.889 306.523 244.304 304.658V304.658L241.711 301.593C241.484 301.321 241.116 301.096 240.711 301.077C240.305 301.059 240.003 301.218 239.664 301.462L238.117 302.577C237.787 302.774 237.532 302.905 237.183 302.886C236.844 302.868 236.542 302.736 236.325 302.53C236.249 302.455 236.108 302.324 235.995 302.211L231.958 297.628C231.665 297.262 231.184 297.028 230.656 297C230.119 296.972 229.6 297.197 229.26 297.525L219.724 307.723L219.516 307.948C219.368 308.108 219.102 307.996 219.111 307.779V307.779L219.753 295.697L220.064 289.801C220.064 289.783 220.064 289.764 220.064 289.755V289.755C220.064 289.723 220.068 289.692 220.077 289.663C220.223 289.18 220.665 288.837 221.186 288.864L240.447 289.783L243.154 289.914L248.653 290.176C249.2 290.204 249.624 290.617 249.634 291.132C249.634 291.151 249.662 291.161 249.662 291.179C249.662 291.198 249.69 291.207 249.69 291.226L249.067 303.048Z" fill="black"/>
<path d="M242.721 298.584C244.55 298.584 246.041 297.103 246.041 295.285C246.041 293.466 244.56 291.985 242.721 291.985C240.891 291.985 239.4 293.457 239.4 295.285C239.4 297.112 240.881 298.584 242.721 298.584Z" fill="black"/>
<defs>
<filter id="filter0_d_44561_194327" x="5.30469" y="132" width="196.064" height="148" filterUnits="userSpaceOnUse" color-interpolation-filters="sRGB">
<feFlood flood-opacity="0" result="BackgroundImageFix"/>
<feColorMatrix in="SourceAlpha" type="matrix" values="0 0 0 0 0 0 0 0 0 0 0 0 0 0 0 0 0 0 127 0" result="hardAlpha"/>
<feOffset dx="4" dy="3"/>
<feGaussianBlur stdDeviation="6.5"/>
<feComposite in2="hardAlpha" operator="out"/>
<feColorMatrix type="matrix" values="0 0 0 0 0 0 0 0 0 0 0 0 0 0 0 0 0 0 0.25 0"/>
<feBlend mode="normal" in2="BackgroundImageFix" result="effect1_dropShadow_44561_194327"/>
<feBlend mode="normal" in="SourceGraphic" in2="effect1_dropShadow_44561_194327" result="shape"/>
</filter>
<filter id="filter1_d_44561_194327" x="138" y="227" width="196" height="148" filterUnits="userSpaceOnUse" color-interpolation-filters="sRGB">
<feFlood flood-opacity="0" result="BackgroundImageFix"/>
<feColorMatrix in="SourceAlpha" type="matrix" values="0 0 0 0 0 0 0 0 0 0 0 0 0 0 0 0 0 0 127 0" result="hardAlpha"/>
<feOffset dx="4" dy="3"/>
<feGaussianBlur stdDeviation="6.5"/>
<feComposite in2="hardAlpha" operator="out"/>
<feColorMatrix type="matrix" values="0 0 0 0 0 0 0 0 0 0 0 0 0 0 0 0 0 0 0.25 0"/>
<feBlend mode="normal" in2="BackgroundImageFix" result="effect1_dropShadow_44561_194327"/>
<feBlend mode="normal" in="SourceGraphic" in2="effect1_dropShadow_44561_194327" result="shape"/>
</filter>
<filter id="filter2_d_44561_194327" x="193.482" y="26" width="119.586" height="92" filterUnits="userSpaceOnUse" color-interpolation-filters="sRGB">
<feFlood flood-opacity="0" result="BackgroundImageFix"/>
<feColorMatrix in="SourceAlpha" type="matrix" values="0 0 0 0 0 0 0 0 0 0 0 0 0 0 0 0 0 0 127 0" result="hardAlpha"/>
<feOffset dx="4" dy="3"/>
<feGaussianBlur stdDeviation="6.5"/>
<feComposite in2="hardAlpha" operator="out"/>
<feColorMatrix type="matrix" values="0 0 0 0 0 0 0 0 0 0 0 0 0 0 0 0 0 0 0.25 0"/>
<feBlend mode="normal" in2="BackgroundImageFix" result="effect1_dropShadow_44561_194327"/>
<feBlend mode="normal" in="SourceGraphic" in2="effect1_dropShadow_44561_194327" result="shape"/>
</filter>
<filter id="filter3_f_44561_194327" x="57.5938" y="506" width="99.5859" height="72" filterUnits="userSpaceOnUse" color-interpolation-filters="sRGB">
<feFlood flood-opacity="0" result="BackgroundImageFix"/>
<feBlend mode="normal" in="SourceGraphic" in2="BackgroundImageFix" result="shape"/>
<feGaussianBlur stdDeviation="1.5" result="effect1_foregroundBlur_44561_194327"/>
</filter>
<filter id="filter4_d_44561_194327" x="51.5938" y="499" width="119.586" height="92" filterUnits="userSpaceOnUse" color-interpolation-filters="sRGB">
<feFlood flood-opacity="0" result="BackgroundImageFix"/>
<feColorMatrix in="SourceAlpha" type="matrix" values="0 0 0 0 0 0 0 0 0 0 0 0 0 0 0 0 0 0 127 0" result="hardAlpha"/>
<feOffset dx="4" dy="3"/>
<feGaussianBlur stdDeviation="6.5"/>
<feComposite in2="hardAlpha" operator="out"/>
<feColorMatrix type="matrix" values="0 0 0 0 0 0 0 0 0 0 0 0 0 0 0 0 0 0 0.25 0"/>
<feBlend mode="normal" in2="BackgroundImageFix" result="effect1_dropShadow_44561_194327"/>
<feBlend mode="normal" in="SourceGraphic" in2="effect1_dropShadow_44561_194327" result="shape"/>
</filter>
<filter id="filter5_f_44561_194327" x="328.289" y="7" width="78.4536" height="57" filterUnits="userSpaceOnUse" color-interpolation-filters="sRGB">
<feFlood flood-opacity="0" result="BackgroundImageFix"/>
<feBlend mode="normal" in="SourceGraphic" in2="BackgroundImageFix" result="shape"/>
<feGaussianBlur stdDeviation="1.5" result="effect1_foregroundBlur_44561_194327"/>
</filter>
<filter id="filter6_d_44561_194327" x="322.289" y="0" width="98.4536" height="77" filterUnits="userSpaceOnUse" color-interpolation-filters="sRGB">
<feFlood flood-opacity="0" result="BackgroundImageFix"/>
<feColorMatrix in="SourceAlpha" type="matrix" values="0 0 0 0 0 0 0 0 0 0 0 0 0 0 0 0 0 0 127 0" result="hardAlpha"/>
<feOffset dx="4" dy="3"/>
<feGaussianBlur stdDeviation="6.5"/>
<feComposite in2="hardAlpha" operator="out"/>
<feColorMatrix type="matrix" values="0 0 0 0 0 0 0 0 0 0 0 0 0 0 0 0 0 0 0.25 0"/>
<feBlend mode="normal" in2="BackgroundImageFix" result="effect1_dropShadow_44561_194327"/>
<feBlend mode="normal" in="SourceGraphic" in2="effect1_dropShadow_44561_194327" result="shape"/>
</filter>
<filter id="filter7_d_44561_194327" x="239.771" y="377" width="196.064" height="148" filterUnits="userSpaceOnUse" color-interpolation-filters="sRGB">
<feFlood flood-opacity="0" result="BackgroundImageFix"/>
<feColorMatrix in="SourceAlpha" type="matrix" values="0 0 0 0 0 0 0 0 0 0 0 0 0 0 0 0 0 0 127 0" result="hardAlpha"/>
<feOffset dx="4" dy="3"/>
<feGaussianBlur stdDeviation="6.5"/>
<feComposite in2="hardAlpha" operator="out"/>
<feColorMatrix type="matrix" values="0 0 0 0 0 0 0 0 0 0 0 0 0 0 0 0 0 0 0.25 0"/>
<feBlend mode="normal" in2="BackgroundImageFix" result="effect1_dropShadow_44561_194327"/>
<feBlend mode="normal" in="SourceGraphic" in2="effect1_dropShadow_44561_194327" result="shape"/>
</filter>
<filter id="filter8_df_44561_194327" x="0.273438" y="333" width="196.064" height="148" filterUnits="userSpaceOnUse" color-interpolation-filters="sRGB">
<feFlood flood-opacity="0" result="BackgroundImageFix"/>
<feColorMatrix in="SourceAlpha" type="matrix" values="0 0 0 0 0 0 0 0 0 0 0 0 0 0 0 0 0 0 127 0" result="hardAlpha"/>
<feOffset dx="4" dy="3"/>
<feGaussianBlur stdDeviation="6.5"/>
<feComposite in2="hardAlpha" operator="out"/>
<feColorMatrix type="matrix" values="0 0 0 0 0 0 0 0 0 0 0 0 0 0 0 0 0 0 0.25 0"/>
<feBlend mode="normal" in2="BackgroundImageFix" result="effect1_dropShadow_44561_194327"/>
<feBlend mode="normal" in="SourceGraphic" in2="effect1_dropShadow_44561_194327" result="shape"/>
<feGaussianBlur stdDeviation="1" result="effect2_foregroundBlur_44561_194327"/>
</filter>
<filter id="filter9_d_44561_194327" x="265.936" y="104" width="196.064" height="148" filterUnits="userSpaceOnUse" color-interpolation-filters="sRGB">
<feFlood flood-opacity="0" result="BackgroundImageFix"/>
<feColorMatrix in="SourceAlpha" type="matrix" values="0 0 0 0 0 0 0 0 0 0 0 0 0 0 0 0 0 0 127 0" result="hardAlpha"/>
<feOffset dx="4" dy="3"/>
<feGaussianBlur stdDeviation="6.5"/>
<feComposite in2="hardAlpha" operator="out"/>
<feColorMatrix type="matrix" values="0 0 0 0 0 0 0 0 0 0 0 0 0 0 0 0 0 0 0.25 0"/>
<feBlend mode="normal" in2="BackgroundImageFix" result="effect1_dropShadow_44561_194327"/>
<feBlend mode="normal" in="SourceGraphic" in2="effect1_dropShadow_44561_194327" result="shape"/>
</filter>
<clipPath id="clip0_44561_194327">
<rect width="62.3906" height="67" fill="white" transform="translate(67.6387 169)"/>
</clipPath>
<clipPath id="clip1_44561_194327">
<rect width="28.1764" height="28" fill="white" transform="translate(92.7954 528)"/>
</clipPath>
<clipPath id="clip2_44561_194327">
<rect width="75.4724" height="75" fill="white" transform="translate(322.231 137)"/>
</clipPath>
</defs>
</svg>
