<svg width="69" height="59" viewBox="0 0 69 59"
                    fill="none" xmlns="http://www.w3.org/2000/svg">
                    <path
                      d="M20.665 2.05832V2.05512C20.665 2.03691 20.663 2.01949 20.6622 2.00148C20.661 1.97186 20.6606 1.94224 20.6578 1.91282C20.6536 1.86618 20.6464 1.82035 20.638 1.77512C20.6378 1.77412 20.6376 1.77312 20.6374 1.77212C20.5051 1.07841 19.8962 0.553833 19.1639 0.553833H7.15519C6.69805 0.553833 6.28936 0.758782 6.01416 1.08122L0.440319 6.64685C0.438518 6.64865 0.437117 6.65045 0.435516 6.65225C0.402292 6.68568 0.370669 6.7205 0.340847 6.75673C0.325836 6.77494 0.312627 6.79415 0.298817 6.81277C0.283405 6.83338 0.267594 6.8534 0.252983 6.87481C0.238573 6.89643 0.225764 6.91925 0.212754 6.94146C0.200745 6.96128 0.188336 6.98049 0.177328 7.0009C0.16532 7.02352 0.155112 7.04674 0.144104 7.06995C0.134097 7.09137 0.123289 7.11219 0.114483 7.134C0.105076 7.15662 0.0974706 7.17983 0.0892647 7.20285C0.0810587 7.22627 0.0720522 7.24888 0.064847 7.2725C0.0578419 7.29592 0.0528383 7.31953 0.0468339 7.34295C0.0408296 7.36697 0.0338245 7.39039 0.0292212 7.4148C0.0236171 7.44302 0.0202146 7.47124 0.0162117 7.49947C0.0134097 7.51988 0.00960696 7.53949 0.00740537 7.56011C0.00260189 7.60975 0 7.65938 0 7.70922V56.9449C0 57.7741 0.671887 58.446 1.50109 58.446H13.5098C13.5592 58.446 13.6085 58.4434 13.6577 58.4386C13.6805 58.4362 13.7027 58.432 13.7255 58.4288C13.7514 58.425 13.7772 58.422 13.8028 58.417C13.8286 58.4118 13.8538 58.4045 13.8791 58.3981C13.9011 58.3927 13.9235 58.3877 13.9451 58.3811C13.9701 58.3737 13.9941 58.3643 14.0186 58.3555C14.0402 58.3477 14.0622 58.3407 14.0836 58.3317C14.1066 58.3221 14.1288 58.3111 14.1513 58.3005C14.1731 58.2901 14.1953 58.2805 14.2167 58.2689C14.2381 58.2574 14.2587 58.2442 14.2795 58.2316C14.3006 58.219 14.3222 58.207 14.3426 58.1934C14.3648 58.1786 14.3858 58.1622 14.407 58.1462C14.4251 58.1328 14.4435 58.1201 14.4609 58.1059C14.4911 58.0811 14.5201 58.0543 14.5483 58.0269C14.5557 58.0201 14.5636 58.0139 14.5706 58.0069L20.2247 52.359C20.5187 52.065 20.6652 51.6795 20.6646 51.2944C20.6646 51.293 20.6648 51.2918 20.6648 51.2906V2.06012C20.665 2.05952 20.665 2.05892 20.665 2.05832ZM17.6628 50.6748L15.0109 53.3235V8.33527L17.6628 5.68335V50.6748ZM7.78484 3.55621H15.5441L12.8919 6.20813H5.12892L7.78484 3.55621ZM12.0087 55.4438H3.00218V9.21031H12.0087V55.4438Z"
                      fill="black" />
                    <path
                      d="M44.7826 38.0844V38.0812C44.7826 38.063 44.7806 38.0456 44.7798 38.0276C44.7786 37.998 44.7782 37.9684 44.7754 37.9389C44.7712 37.8925 44.764 37.8465 44.7556 37.8012C44.7554 37.8002 44.7552 37.7992 44.755 37.7982C44.6227 37.1045 44.0139 36.58 43.2816 36.58H31.2729C30.8157 36.58 30.407 36.7849 30.1318 37.1073L24.558 42.673C24.5562 42.6748 24.5548 42.6768 24.5532 42.6784C24.52 42.7118 24.4883 42.7466 24.4585 42.7831C24.4435 42.8013 24.4303 42.8203 24.4165 42.8391C24.4011 42.8595 24.3853 42.8797 24.3707 42.9009C24.3562 42.9226 24.3434 42.9454 24.3304 42.9676C24.3184 42.9874 24.306 43.0066 24.295 43.027C24.2828 43.0496 24.2728 43.0731 24.2618 43.0961C24.2518 43.1175 24.241 43.1383 24.2322 43.1601C24.2228 43.1827 24.2151 43.206 24.2069 43.229C24.1987 43.2522 24.1897 43.2748 24.1825 43.2986C24.1755 43.322 24.1703 43.3457 24.1645 43.3691C24.1585 43.3931 24.1517 43.4165 24.1469 43.4409C24.1413 43.4692 24.1379 43.4974 24.1339 43.5256C24.1311 43.546 24.1273 43.5656 24.1251 43.5862C24.1203 43.6357 24.1177 43.6853 24.1177 43.7351V56.9447C24.1177 57.7739 24.7896 58.4458 25.6188 58.4458H37.6275C37.6769 58.4458 37.7261 58.4432 37.7754 58.4384C37.7982 58.436 37.8204 58.4318 37.8432 58.4286C37.869 58.4248 37.8949 58.4218 37.9205 58.4168C37.9463 58.4116 37.9715 58.4044 37.9967 58.398C38.0187 58.3926 38.0412 58.3876 38.0628 58.381C38.0878 58.3735 38.1118 58.3641 38.1362 58.3553C38.1579 58.3475 38.1799 58.3405 38.2013 58.3315C38.2243 58.3219 38.2465 58.3109 38.2689 58.3003C38.2907 58.2899 38.313 58.2803 38.3344 58.2687C38.3558 58.2573 38.3764 58.2441 38.3972 58.2314C38.4182 58.2188 38.4399 58.2068 38.4603 58.1932C38.4825 58.1784 38.5035 58.162 38.5247 58.146C38.5427 58.1326 38.5611 58.12 38.5784 58.1058C38.6086 58.0809 38.6376 58.0541 38.6658 58.0267C38.6732 58.0199 38.681 58.0137 38.688 58.0067L44.3421 52.3588C44.6361 52.0648 44.7826 51.6793 44.782 51.2942C44.782 51.2928 44.7823 51.2916 44.7823 51.2904V38.0858C44.7827 38.0858 44.7826 38.085 44.7826 38.0844ZM41.7805 50.6748L39.1286 53.3235V44.3614L41.7805 41.7095V50.6748ZM31.9023 39.5823H39.6615L37.0096 42.2343H29.2466L31.9023 39.5823ZM36.1264 55.4438H27.1199V45.2364H36.1264V55.4438Z"
                      fill="black" />
                    <path
                      d="M68.9999 14.0688C68.9999 14.0682 68.9999 14.0674 68.9999 14.0668V14.0638C68.9999 14.0456 68.9979 14.0282 68.9971 14.0101C68.9959 13.9805 68.9955 13.9509 68.9927 13.9215C68.9885 13.8751 68.9813 13.829 68.9729 13.7838C68.9727 13.7828 68.9725 13.7818 68.9723 13.7808C68.84 13.0871 68.2312 12.5625 67.4988 12.5625H55.4901C55.033 12.5625 54.6243 12.7674 54.3491 13.0899L48.7753 18.6555C48.7735 18.6573 48.7721 18.6593 48.7705 18.6609C48.7373 18.6943 48.7056 18.7292 48.6758 18.7654C48.6608 18.7836 48.6476 18.8028 48.6338 18.8214C48.6184 18.8421 48.6026 18.8621 48.5879 18.8835C48.5735 18.9051 48.5607 18.9279 48.5477 18.9501C48.5357 18.9699 48.5233 18.9892 48.5123 19.0096C48.5001 19.0322 48.4901 19.0554 48.4791 19.0786C48.4691 19.0998 48.4583 19.1209 48.4494 19.1427C48.44 19.1653 48.4324 19.1885 48.4242 19.2115C48.416 19.2347 48.407 19.2574 48.3998 19.2812C48.3928 19.3046 48.3876 19.3282 48.3818 19.3518C48.3758 19.3758 48.369 19.3993 48.3642 19.4237C48.3586 19.4519 48.3552 19.4801 48.3512 19.5083C48.3484 19.5287 48.3446 19.5484 48.3424 19.569C48.3376 19.6184 48.335 19.668 48.335 19.7179V56.9449C48.335 57.7741 49.0068 58.4459 49.836 58.4459H61.8448C61.8942 58.4459 61.9434 58.4434 61.9927 58.4385C62.0155 58.4361 62.0379 58.4319 62.0605 58.4287C62.0863 58.4249 62.1121 58.4219 62.1378 58.4169C62.1636 58.4117 62.1888 58.4045 62.214 58.3981C62.236 58.3927 62.2584 58.3877 62.2801 58.3811C62.3051 58.3737 62.3291 58.3643 62.3535 58.3555C62.3751 58.3477 62.3972 58.3407 62.4186 58.3317C62.4416 58.3221 62.4638 58.3111 62.4862 58.3004C62.508 58.29 62.5303 58.2804 62.5517 58.2688C62.5731 58.2574 62.5937 58.2442 62.6147 58.2316C62.6357 58.219 62.6573 58.207 62.6778 58.1934C62.7 58.1786 62.721 58.1621 62.7422 58.1461C62.7602 58.1327 62.7786 58.1201 62.7958 58.1059C62.8261 58.0811 62.8551 58.0543 62.8833 58.0268C62.8907 58.02 62.8985 58.0138 62.9055 58.0068L68.5596 52.3589C68.8536 52.0649 69.0001 51.6794 68.9995 51.2944C68.9995 51.293 68.9997 51.2918 68.9997 51.2906V14.0688H68.9999ZM56.1198 15.5649H63.879L61.2269 18.2168H53.4639L56.1198 15.5649ZM63.3458 20.3439L65.9978 17.692V50.6747L63.3458 53.3234V20.3439ZM60.3437 55.4438H51.3371V21.219H60.3437V55.4438Z"
                      fill="black" />
                  </svg>