<svg width="72" height="71" viewBox="0 0 72 71"
                    fill="none" xmlns="http://www.w3.org/2000/svg">
                    <path
                      d="M0.0419922 44.8555V48.5904H3.77691V44.8555V41.1145H0.0419922V44.8555Z"
                      fill="#263238" />
                    <path
                      d="M3.77691 22.4398H0.0419922V26.1748H3.77691V22.4398Z"
                      fill="#263238" />
                    <path
                      d="M26.8624 63.5663H23.1274V67.3012H26.8624V63.5663Z"
                      fill="#263238" />
                    <path
                      d="M3.77691 29.9096V33.6446H0.0419922V37.3795H3.77691V41.1144H7.51185H11.2528V44.8554H14.9878V41.1144H18.7227V37.3795V33.6446H14.9878V37.3795H11.2528H7.51185V33.6446V29.9096V26.1747H3.77691V29.9096Z"
                      fill="#263238" />
                    <path
                      d="M11.2532 22.4398H7.51221V26.1748H11.2532H14.9881V22.4398H11.2532Z"
                      fill="#263238" />
                    <path
                      d="M28.063 52.4702H30.0662V48.7352H28.063H26.0537V52.4702H28.063Z"
                      fill="#263238" />
                    <path
                      d="M18.7227 26.1747H14.9878V29.9096H18.7227V26.1747Z"
                      fill="#263238" />
                    <path
                      d="M44.8736 41.1145H41.1387V44.8494H44.8736V41.1145Z"
                      fill="#263238" />
                    <path
                      d="M48.6085 0.0240479H44.8735V3.75899H48.6085V0.0240479Z"
                      fill="#263238" />
                    <path
                      d="M26.1925 29.9097V26.1747H29.9275V22.4398H26.1925V18.7048H22.4576V22.4398H18.7227V26.1747H22.4576V29.9097V33.6446V37.3795V41.1145H26.1925V37.3795V33.6446H29.9275V29.9097H26.1925Z"
                      fill="#263238" />
                    <path
                      d="M44.8736 67.2651H48.6085V63.5302H44.8736H41.1387V67.2651H44.8736Z"
                      fill="#263238" />
                    <path
                      d="M41.1383 0.0240479H37.4033V3.75899H41.1383V0.0240479Z"
                      fill="#263238" />
                    <path
                      d="M40.2034 29.9097V26.1748H36.4684V22.4398H32.7335V26.1748V29.9097H28.9985V33.6446H32.7335H36.4684V29.9097H40.2034Z"
                      fill="#263238" />
                    <path
                      d="M61.2857 22.4398H57.5508V26.1748H61.2857V22.4398Z"
                      fill="#263238" />
                    <path
                      d="M22.5665 41.1145H18.8315V44.8494H22.5665V41.1145Z"
                      fill="#263238" />
                    <path
                      d="M37.4036 18.7048V14.9699H41.1386V11.2289H44.8735H48.6085V7.49397H44.8735V3.75903H41.1386V7.49397H37.4036V11.2289H33.6627V14.9699H29.9277V18.7048H33.6627H37.4036Z"
                      fill="#263238" />
                    <path
                      d="M37.4036 44.8554V41.1144H41.1386V37.3795H37.4036H33.6627V41.1144H29.9277V44.8554H33.6627H37.4036Z"
                      fill="#263238" />
                    <path
                      d="M48.6085 59.7952V56.0543H44.8736H41.1386V52.3193H37.4037V56.0543H33.6627V59.7952H29.9278H26.1929V63.5302H29.9278H33.6627H37.4037V59.7952H41.1386V63.5302H44.8736V59.7952H48.6085Z"
                      fill="#263238" />
                    <path
                      d="M33.6628 3.75899V0.0240479H29.9279H26.1929V3.75899H22.458V7.49393H26.1929H29.9279V3.75899H33.6628Z"
                      fill="#263238" />
                    <path
                      d="M33.6627 7.49402H29.9277V11.2289H33.6627V7.49402Z"
                      fill="#263238" />
                    <path
                      d="M43.003 22.4397H39.2681V26.1747V29.9096V33.6445H43.003H46.7379V29.9096H43.003V26.1747H46.7379V22.4397H50.4729V18.7048H46.7379V14.9698H43.003V18.7048V22.4397Z"
                      fill="#263238" />
                    <path
                      d="M29.9278 11.2289H26.1929V14.9638H29.9278V11.2289Z"
                      fill="#263238" />
                    <path
                      d="M41.1387 48.5904V52.3253H44.8736H48.6085V48.5904H52.3435H56.0784V44.8555H52.3435H48.6085H44.8736V48.5904H41.1387Z"
                      fill="#263238" />
                    <path
                      d="M61.2857 33.6447H57.5508V37.3796H61.2857V33.6447Z"
                      fill="#263238" />
                    <path
                      d="M48.6085 37.3795H44.8735V41.1144H48.6085V37.3795Z"
                      fill="#263238" />
                    <path
                      d="M57.949 26.1747H54.2141H50.4731V29.9096H54.2141V33.6446H57.949V29.9096V26.1747Z"
                      fill="#263238" />
                    <path
                      d="M56.0782 37.3795H52.3433V41.1144H56.0782V37.3795Z"
                      fill="#263238" />
                    <path
                      d="M14.9879 59.8677H26.1988V44.8495H11.1806V48.5905H7.51807V52.3254H11.1806V56.0603H7.51807V59.7953H11.1806V59.8677H11.253V63.5302H7.51807V71.0001H11.253V67.2531H14.9879V59.8677ZM23.3207 47.7216V57.062H13.9803V47.7216H23.3207Z"
                      fill="#263238" />
                    <path
                      d="M63.548 44.8555H67.2829V41.1145H63.548H59.8131H56.0781V44.8555H59.8131H63.548Z"
                      fill="#263238" />
                    <path
                      d="M63.5479 29.9097H67.2828V26.1748V22.4398H63.5479V26.1748V29.9097Z"
                      fill="#263238" />
                    <path
                      d="M33.8079 48.7352H30.0669V52.4702V56.2051H33.8079V52.4702V48.7352Z"
                      fill="#263238" />
                    <path
                      d="M71.0181 44.8555H67.2832V48.5904H71.0181V44.8555Z"
                      fill="#263238" />
                    <path
                      d="M71.0242 37.3796V33.6447H67.2832V37.3796V41.1145H71.0242V37.3796Z"
                      fill="#263238" />
                    <path
                      d="M3.77691 63.5302H0.0419922V67.2651V71H3.77691V67.2651V63.5302Z"
                      fill="#263238" />
                    <path
                      d="M71.0242 18.7049V0H52.3193V18.7049H71.0242ZM55.1432 15.8991V2.82383H68.2185V15.8991H55.1432Z"
                      fill="#263238" />
                    <path
                      d="M65.4186 5.62964H57.9487V13.0995H65.4186V5.62964Z"
                      fill="#263238" />
                    <path
                      d="M71.0242 52.3253H52.3193V71H71.0242V52.3253ZM55.1432 68.2003V55.125H68.2185V68.2003H55.1432Z"
                      fill="#263238" />
                    <path
                      d="M65.4186 57.9247H57.9487V65.3946H65.4186V57.9247Z"
                      fill="#263238" />
                    <path
                      d="M0 0.0240479V18.7289H18.6626V0.0240479H0ZM15.875 2.82374V15.899H2.79969V2.82374H15.875Z"
                      fill="#263238" />
                    <path
                      d="M13.0695 5.62964H5.59961V13.0995H13.0695V5.62964Z"
                      fill="#263238" />
                  </svg>