<svg width="103" height="36" viewBox="0 0 103 36" fill="none" xmlns="http://www.w3.org/2000/svg">
<g clip-path="url(#clip0_44286_194488)">
<path d="M35.6934 0H17.8467V18.0001H35.6934V0Z" fill="#FF0000"/>
<path d="M35.6934 18H17.8467V36.0001H35.6934V18Z" fill="#FFCC00"/>
<path d="M17.8467 0H0V18.0001H17.8467V0Z" fill="black"/>
<path d="M45.7707 9.48981C45.0228 9.48981 44.3645 9.3566 43.7956 9.09018C43.2267 8.82376 42.7492 8.4671 42.3631 8.02018C41.9803 7.57934 41.6862 7.0676 41.4973 6.51347C41.3077 5.96388 41.2109 5.38608 41.2109 4.80416C41.2105 4.22418 41.3074 3.64831 41.4973 3.10088C41.6865 2.55064 41.9806 2.04305 42.3631 1.60669C42.7489 1.1641 43.2264 0.809599 43.7956 0.543181C44.3648 0.276764 45.0231 0.143555 45.7707 0.143555C46.5267 0.143555 47.1892 0.276764 47.7582 0.543181C48.3273 0.809599 48.8027 1.1641 49.1845 1.60669C49.5636 2.04439 49.8555 2.55172 50.0441 3.10088C50.2346 3.64838 50.3318 4.22441 50.3318 4.80463C50.3313 5.37288 50.2408 5.93741 50.0636 6.47685C49.8894 7.01778 49.612 7.51908 49.2468 7.9525L50.5026 9.36649H48.5031L48.1009 8.91146C47.7639 9.09665 47.4056 9.23921 47.0341 9.33589C46.6212 9.44169 46.1966 9.49343 45.7707 9.48981ZM45.7707 7.7805C46.1691 7.7805 46.5308 7.70261 46.8559 7.54684L45.477 6.02182L46.6475 5.03828L47.952 6.50142C48.2365 6.00165 48.3788 5.43606 48.3788 4.80463C48.3807 4.31377 48.2811 3.82792 48.0862 3.37812C47.8982 2.93624 47.5953 2.55386 47.2094 2.2715C46.8195 1.98483 46.3399 1.84135 45.7707 1.84104C45.2015 1.84073 44.724 1.98422 44.3382 2.2715C43.9548 2.55525 43.6537 2.93746 43.4665 3.37835C43.2716 3.82815 43.172 4.31401 43.1739 4.80486C43.1724 5.29762 43.272 5.78536 43.4665 6.2374C43.6524 6.68065 43.9536 7.06506 44.3382 7.35004C44.7241 7.63701 45.2016 7.7805 45.7707 7.7805Z" fill="black"/>
<path d="M51.5535 9.36645V0.266602H55.2112C55.8777 0.266602 56.4487 0.385516 56.9243 0.623345C57.3999 0.861174 57.7657 1.18902 58.0217 1.60688C58.2777 2.02505 58.4057 2.50874 58.4057 3.05796C58.4057 3.65647 58.2554 4.17911 57.9546 4.62587C57.6538 5.07263 57.2274 5.39854 56.6752 5.60361L58.6383 9.36645H56.5533L54.7607 5.86184H53.4316V9.36645H51.5535ZM55.1868 1.90243H53.4312V4.31317H55.1868C55.6014 4.31317 55.9265 4.19835 56.1622 3.96871C56.3978 3.73907 56.5157 3.45627 56.5159 3.12032C56.5159 2.77586 56.398 2.48688 56.1622 2.25338C55.9264 2.01987 55.6013 1.90281 55.1868 1.9022V1.90243Z" fill="black"/>
<path d="M45.6854 22.6184C44.9376 22.6184 44.2853 22.4852 43.7285 22.2188C43.1717 21.9524 42.7063 21.5958 42.3325 21.149C41.9601 20.705 41.6746 20.1937 41.4913 19.6423C41.1175 18.5382 41.1175 17.3401 41.4913 16.236C41.6747 15.6846 41.9602 15.1734 42.3325 14.7293C42.7062 14.2824 43.1715 13.9278 43.7285 13.6655C44.2854 13.4033 44.9377 13.2719 45.6854 13.2715C46.3113 13.2715 46.8458 13.3515 47.2887 13.5114C47.7317 13.6713 48.1015 13.8763 48.3983 14.1261C48.6948 14.3762 48.9346 14.6426 49.1177 14.9254C49.3008 15.2082 49.4369 15.4747 49.5261 15.7249C49.6227 16.0031 49.6962 16.289 49.7456 16.5795H47.8801C47.8319 16.3819 47.7625 16.1902 47.6732 16.0077C47.5794 15.8313 47.458 15.6713 47.3135 15.5341C47.1553 15.3785 46.944 15.2453 46.6797 15.1345C46.4154 15.0237 46.0882 14.9684 45.6981 14.9685C45.1373 14.9685 44.6679 15.114 44.2899 15.405C43.9136 15.6939 43.6192 16.0777 43.4364 16.5176C43.2462 16.9643 43.1487 17.4455 43.1498 17.9316C43.149 18.4203 43.2468 18.9041 43.437 19.3535C43.6185 19.7961 43.913 20.1823 44.2906 20.4726C44.6677 20.7632 45.1367 20.9084 45.6976 20.9084C46.0879 20.9084 46.4151 20.8552 46.6792 20.7487C46.9434 20.6422 47.1546 20.509 47.3131 20.3491C47.4568 20.2089 47.5782 20.0472 47.6727 19.8695C47.7608 19.6907 47.8301 19.5032 47.8796 19.3099H49.7451C49.6957 19.6005 49.6223 19.8864 49.5256 20.1646C49.436 20.4146 49.2998 20.681 49.1172 20.9638C48.9346 21.2466 48.6948 21.513 48.3979 21.7631C48.1009 22.0134 47.731 22.2184 47.2882 22.3781C46.8454 22.5377 46.3112 22.6178 45.6854 22.6184Z" fill="black"/>
<path d="M54.9809 22.6183C54.233 22.6183 53.5747 22.485 53.0058 22.2186C52.4369 21.9522 51.9593 21.5956 51.573 21.1489C51.1902 20.708 50.8962 20.1963 50.7073 19.6421C50.5176 19.0926 50.4208 18.5148 50.4209 17.9328C50.4205 17.3529 50.5173 16.7771 50.7073 16.2298C50.8965 15.6796 51.1906 15.1721 51.573 14.7358C51.9588 14.2931 52.4363 13.9385 53.0055 13.6721C53.5747 13.4057 54.2331 13.2725 54.9807 13.2725C55.7368 13.2725 56.3993 13.4057 56.9682 13.6721C57.5371 13.9385 58.0125 14.2931 58.3945 14.7358C58.7736 15.1735 59.0655 15.6808 59.2541 16.23C59.4441 16.7774 59.541 17.3532 59.5406 17.9331C59.5406 18.515 59.4438 19.0928 59.2541 19.6424C59.0657 20.1954 58.7739 20.7069 58.3945 21.1491C58.0125 21.596 57.5371 21.9526 56.9682 22.2189C56.3993 22.4851 55.7369 22.6183 54.9809 22.6183ZM54.9809 20.9089C55.5498 20.9089 56.0294 20.7655 56.4196 20.4787C56.8071 20.1952 57.1106 19.8105 57.2975 19.3661C57.492 18.914 57.5917 18.4263 57.5901 17.9335C57.592 17.4427 57.4924 16.9568 57.2975 16.507C57.1093 16.065 56.8059 15.6826 56.4196 15.4004C56.0295 15.1134 55.5499 14.9699 54.9809 14.9699C54.4118 14.9699 53.9347 15.1133 53.5495 15.3999C53.1655 15.6834 52.8639 16.0655 52.6762 16.5066C52.4814 16.9564 52.3817 17.4422 52.3836 17.9331C52.3821 18.4258 52.4817 18.9136 52.6762 19.3656C52.8622 19.8088 53.1634 20.1932 53.5479 20.4783C53.934 20.7649 54.4117 20.9082 54.9809 20.9082V20.9089Z" fill="black"/>
<path d="M60.7078 22.4954V13.3955H64.1218C64.8535 13.3955 65.4977 13.5246 66.0545 13.7828C66.6112 14.0411 67.0725 14.3874 67.4382 14.8218C67.8023 15.2534 68.0834 15.7497 68.2672 16.2852C68.6414 17.3598 68.6414 18.5309 68.2672 19.6055C68.0835 20.141 67.8023 20.6373 67.4382 21.0688C67.0727 21.5036 66.6114 21.8499 66.0545 22.108C65.4975 22.3661 64.8533 22.4952 64.1218 22.4954H60.7078ZM64.0363 15.0545H62.5854V20.8106H64.0363C64.6294 20.8106 65.1192 20.6715 65.5056 20.3934C65.8874 20.12 66.1869 19.7455 66.3712 19.3113C66.5604 18.8772 66.658 18.4082 66.6577 17.934C66.6584 17.4617 66.5607 16.9946 66.3712 16.5628C66.1847 16.13 65.8856 15.7561 65.5056 15.4808C65.1194 15.1974 64.6296 15.0556 64.0363 15.0554V15.0545Z" fill="black"/>
<path d="M69.7065 22.4954V13.3955H75.9247V15.0436H71.5845V17.0851H75.3642V18.6713H71.5845V20.8479H75.9859V22.4958L69.7065 22.4954Z" fill="black"/>
<path d="M45.7463 35.7469C44.9904 35.7469 44.3279 35.6155 43.759 35.3528C43.1901 35.0901 42.7167 34.7355 42.3387 34.2891C41.9639 33.8482 41.6762 33.3389 41.4913 32.7889C41.1154 31.6826 41.1175 30.4814 41.4973 29.3765C41.6851 28.8245 41.9748 28.3133 42.3509 27.8698C42.7287 27.4232 43.2062 27.0666 43.7834 26.8C44.3606 26.5334 45.0352 26.4002 45.8072 26.4004C46.4086 26.4004 46.9268 26.4762 47.3618 26.6278C47.7968 26.7794 48.1605 26.9762 48.453 27.2182C48.7458 27.4599 48.9795 27.716 49.1542 27.9866C49.3139 28.2284 49.4486 28.4859 49.5564 28.7553C49.6564 29.0203 49.7319 29.2941 49.7821 29.5731H47.9166C47.8191 29.2779 47.6973 29.0299 47.5509 28.829C47.4046 28.6281 47.1912 28.4518 46.9106 28.3002C46.6303 28.1486 46.2625 28.0728 45.8075 28.0728C45.2141 28.0728 44.7203 28.2183 44.3262 28.5093C43.9358 28.7955 43.6285 29.1818 43.4361 29.6282C43.2386 30.0753 43.1368 30.5593 43.1374 31.0487C43.136 31.5507 43.2399 32.0473 43.4423 32.5058C43.6356 32.9569 43.9451 33.3476 44.3387 33.6372C44.7327 33.9284 45.2266 34.0739 45.8201 34.0737C46.4702 34.0737 46.9843 33.9057 47.3623 33.5696C47.7402 33.2334 47.9659 32.7785 48.0391 32.2047H45.6976V30.7165H49.8917V31.4175C49.8917 32.3685 49.7109 33.1658 49.3493 33.8095C48.9877 34.4531 48.4959 34.9368 47.8739 35.2606C47.2522 35.5849 46.5431 35.747 45.7463 35.7469Z" fill="black"/>
<path d="M51.0989 35.6243V26.5244H57.3168V28.1723H52.9766V30.2135H56.7561V31.8H52.9766V33.9766H57.378V35.6243H51.0989Z" fill="black"/>
<path d="M58.6938 35.6243V26.5244H62.3522C63.0186 26.5244 63.5895 26.6433 64.0651 26.8812C64.5407 27.119 64.9065 27.4469 65.1625 27.8649C65.4186 28.2822 65.5466 28.7659 65.5466 29.316C65.5466 29.9145 65.3962 30.4372 65.0954 30.8839C64.7947 31.3307 64.368 31.6565 63.8153 31.8614L65.7766 35.6243H63.6917L61.899 32.1196H60.5701V35.6243H58.6938ZM62.3272 28.1602H60.5715V30.571H62.3272C62.7409 30.571 63.066 30.4562 63.3026 30.2265C63.5391 29.9969 63.657 29.7141 63.656 29.3781C63.656 29.034 63.5382 28.745 63.3026 28.5112C63.0669 28.2774 62.7418 28.1603 62.3272 28.16V28.1602Z" fill="black"/>
<path d="M66.9832 35.6243V26.5244H69.5193L71.5797 31.2096L73.7012 26.5244H76.1519V35.6243H74.2985V29.4266L72.4454 33.497H70.7017L68.8365 29.402V35.6243H66.9832Z" fill="black"/>
<path d="M77.0066 35.6243L80.0789 26.5244H82.5785L85.6508 35.6243H83.6757L83.1027 33.8412H79.5664L78.9813 35.6243H77.0066ZM80.0913 32.1936H82.5785L81.3361 28.3937L80.0913 32.1936Z" fill="black"/>
<path d="M86.498 35.6243V26.5244H88.2171L92.1065 32.3287V26.5244H93.972V35.6243H92.2297L88.3647 29.9799V35.6243H86.498Z" fill="black"/>
<path d="M97.952 35.6243V32.5132L94.782 26.5244H96.8424L98.8906 30.5703L100.94 26.5244H103L99.8301 32.5132V35.6243H97.952Z" fill="black"/>
</g>
<defs>
<clipPath id="clip0_44286_194488">
<rect width="103" height="36" fill="white"/>
</clipPath>
</defs>
</svg>
