<svg width="145" height="196" viewBox="0 0 145 196" fill="none" xmlns="http://www.w3.org/2000/svg">
<g filter="url(#filter0_f_478_4077)">
<path d="M59.0248 46.9582L49.21 50.2781L52.4324 59.8044L62.2472 56.4845L72.0779 53.1591L68.8555 43.6328L59.0248 46.9582Z" fill="#F5D14E"/>
<path d="M121.152 36.5615L117.93 27.0352L108.115 30.3551L111.337 39.8814L121.152 36.5615Z" fill="#F5D14E"/>
<path d="M32.9958 131.999L29.7734 122.473L19.9587 125.793L23.1811 135.319L32.9958 131.999Z" fill="#F5D14E"/>
<path d="M101.521 43.1978L91.7061 46.5178L88.4837 36.9915L78.6689 40.3115L81.8913 49.8378L72.0765 53.1577L75.2989 62.6841L78.5265 72.2258L68.6958 75.5512L71.9182 85.0775L81.7489 81.7522L84.9713 91.2785L94.7861 87.9586L104.601 84.6386L101.378 75.1122L91.5637 78.4322L88.3413 68.9059L85.1137 59.3641L94.9285 56.0442L104.743 52.7242L114.558 49.4042L111.336 39.8779L101.521 43.1978Z" fill="#F5D14E"/>
<path d="M127.603 55.6277L124.375 46.0859L114.56 49.4059L117.788 58.9477L121.01 68.474L130.825 65.154L127.603 55.6277Z" fill="#F5D14E"/>
<path d="M63.1922 125.199L64.9205 130.308L74.7353 126.988L73.007 121.879L71.2734 116.754L61.4586 120.074L63.1922 125.199Z" fill="#F5D14E"/>
<path d="M124.234 77.999L121.012 68.4727L111.197 71.7926L114.419 81.319L124.234 77.999Z" fill="#F5D14E"/>
<path d="M107.535 157.979L104.312 148.453L94.4977 151.773L97.7201 161.299L107.535 157.979Z" fill="#F5D14E"/>
<path d="M120.86 100.372L130.675 97.052L133.897 106.578L143.712 103.258L140.489 93.732L150.304 90.4121L147.082 80.8857L137.267 84.2057L134.045 74.6793L124.23 77.9993L127.452 87.5257L117.637 90.8456L107.823 94.1656L98.0078 97.4856L88.193 100.806L91.4154 110.332L101.23 107.012L111.045 103.692L114.267 113.218L124.082 109.898L120.86 100.372Z" fill="#F5D14E"/>
<path d="M130.646 128.796L140.228 125.555L138.144 119.396L147.726 116.155L145.642 109.995L136.061 113.236L126.479 116.478L124.396 110.318L114.814 113.559L116.898 119.719L118.981 125.878L128.563 122.637L130.646 128.796Z" fill="#F5D14E"/>
<path d="M88.2888 101.085L85.0664 91.5586L75.2516 94.8786L78.474 104.405L88.2888 101.085Z" fill="#F5D14E"/>
<path d="M91.2577 142.252L101.088 138.927L104.311 148.453L114.126 145.133L110.903 135.607L107.676 126.065L97.8607 129.385L94.6383 119.859L84.8077 123.184L88.0301 132.711L91.2577 142.252Z" fill="#F5D14E"/>
<path d="M154.995 136.612L151.773 127.085L141.958 130.405L132.143 133.725L122.328 137.045L125.551 146.572L128.773 156.098L138.588 152.778L135.366 143.252L145.18 139.932L148.403 149.458L158.218 146.138L161.44 155.664L171.255 152.344L168.032 142.818L177.847 139.498L174.625 129.972L164.81 133.292L154.995 136.612Z" fill="#F5D14E"/>
<path d="M120.57 164.186L117.348 154.66L107.533 157.98L110.755 167.506L120.57 164.186Z" fill="#F5D14E"/>
<path d="M22.2529 88.3086L31.9253 116.903L71.3906 103.553L58.4334 65.2479L48.6027 68.5733L45.4428 59.2316L35.628 62.5516L38.7879 71.8932L28.9731 75.2132L25.8132 65.8715L15.9984 69.1915L19.1583 78.5332L18.968 78.5975L19.0305 78.7822L9.40598 82.0378L15.8081 69.2559L12.6703 70.3173L11.273 81.4063L12.9122 86.2521L12.6284 91.5642L22.2529 88.3086ZM61.36 98.7654L36.8151 107.068L28.7565 83.2444L53.3014 74.9418L61.36 98.7654Z" fill="#F5D14E"/>
<path d="M77.962 136.53L74.7344 126.988L64.9196 130.308L55.1048 133.628L58.3324 143.17L68.1472 139.85L77.962 136.53Z" fill="#F5D14E"/>
<path d="M176.797 7L127.644 23.6267L143.745 71.2276L192.898 54.6009L176.797 7ZM183.136 49.9794L148.777 61.602L137.496 28.2521L171.855 16.6295L183.136 49.9794Z" fill="#F5D14E"/>
</g>
<defs>
<filter id="filter0_f_478_4077" x="2.40625" y="0" width="204.516" height="174.508" filterUnits="userSpaceOnUse" color-interpolation-filters="sRGB">
<feFlood flood-opacity="0" result="BackgroundImageFix"/>
<feBlend mode="normal" in="SourceGraphic" in2="BackgroundImageFix" result="shape"/>
<feGaussianBlur stdDeviation="3.5" result="effect1_foregroundBlur_478_4077"/>
</filter>
</defs>
</svg>
