<svg width="131" height="222" viewBox="0 0 131 222" fill="none" xmlns="http://www.w3.org/2000/svg">
<g filter="url(#filter0_f_478_4100)">
<path d="M17.5272 40.5565L13.8691 29.7422L2.72727 33.5111L6.38536 44.3254L17.5272 40.5565Z" fill="#D90C0D" fill-opacity="0.6"/>
<path d="M-4.75527 48.0949L-15.8971 51.8638L-19.5552 41.0495L-30.6971 44.8183L-27.039 55.6327L-38.1809 59.4016L-34.5228 70.216L-30.8587 81.0479L-42.0186 84.8228L-38.3605 95.6372L-27.2006 91.8623L-23.5425 102.677L-12.4007 98.9078L-1.25881 95.1389L-4.91692 84.3245L-16.0588 88.0934L-19.7169 77.279L-23.3809 66.4471L-12.239 62.6782L-1.09717 58.9094L10.0447 55.1405L6.3866 44.3261L-4.75527 48.0949Z" fill="#D90C0D" fill-opacity="0.6"/>
<path d="M24.8496 62.203L21.1855 51.3711L10.0437 55.14L13.7077 65.9719L17.3658 76.7863L28.5077 73.0174L24.8496 62.203Z" fill="#D90C0D" fill-opacity="0.6"/>
<path d="M21.0253 87.5996L17.3672 76.7852L6.22532 80.554L9.88342 91.3684L21.0253 87.5996Z" fill="#D90C0D" fill-opacity="0.6"/>
<path d="M2.06826 178.396L-1.58984 167.582L-12.7317 171.351L-9.07361 182.165L2.06826 178.396Z" fill="#D90C0D" fill-opacity="0.6"/>
<path d="M17.1972 112.998L28.3391 109.229L31.9972 120.043L43.1391 116.275L39.481 105.46L50.6228 101.691L46.9647 90.8769L35.8229 94.6458L32.1648 83.8314L21.0229 87.6002L24.681 98.4147L13.5391 102.184L2.39727 105.952L-8.7446 109.721L-19.8864 113.49L-16.2283 124.305L-5.0865 120.536L6.05537 116.767L9.71348 127.581L20.8553 123.812L17.1972 112.998Z" fill="#D90C0D" fill-opacity="0.6"/>
<path d="M28.3086 145.265L39.1856 141.586L36.8203 134.594L47.6973 130.914L45.332 123.922L34.4551 127.601L23.5781 131.281L21.2129 124.288L10.3359 127.967L12.7012 134.96L15.0664 141.952L25.9434 138.273L28.3086 145.265Z" fill="#D90C0D" fill-opacity="0.6"/>
<path d="M54.8851 134.154L66.0269 130.385L69.685 141.199L80.8449 137.424L84.503 148.239L88.1611 159.053L99.303 155.284L95.6449 144.47L106.787 140.701L103.129 129.886L91.9868 133.655L88.3287 122.841L77.1868 126.61L73.5228 115.778L62.3629 119.553L58.7048 108.738L47.563 112.507L51.2211 123.322L54.8851 134.154Z" fill="#D90C0D" fill-opacity="0.6"/>
<path d="M-16.4074 160.538L-5.24747 156.763L-1.58937 167.577L9.55247 163.808L5.89437 152.994L2.23035 142.162L-8.91149 145.931L-12.5696 135.117L-23.7295 138.891L-20.0714 149.706L-16.4074 160.538Z" fill="#D90C0D" fill-opacity="0.6"/>
<path d="M95.8051 108.239L106.947 104.471L103.289 93.6562L99.6308 82.8418L88.4889 86.6106L84.8308 75.7962L73.6889 79.5651L77.347 90.3795L81.0051 101.194L92.147 97.425L95.8051 108.239Z" fill="#D90C0D" fill-opacity="0.6"/>
<path d="M91.3846 112.006L87.7266 101.191L76.5847 104.96L80.2428 115.775L91.3846 112.006Z" fill="#D90C0D" fill-opacity="0.6"/>
<path d="M55.9467 154.133L52.2886 143.319L41.1467 147.088L30.0048 150.857L18.8629 154.626L22.521 165.44L26.1791 176.254L37.321 172.486L33.6629 161.671L44.8048 157.902L48.4629 168.717L59.6048 164.948L63.2629 175.762L74.4047 171.993L70.7466 161.179L81.8885 157.41L78.2304 146.596L67.0885 150.365L55.9467 154.133Z" fill="#D90C0D" fill-opacity="0.6"/>
<path d="M76.5839 104.959L72.9258 94.1445L61.7839 97.9134L65.442 108.728L76.5839 104.959Z" fill="#D90C0D" fill-opacity="0.6"/>
<path d="M16.869 185.439L13.2109 174.625L2.0691 178.394L5.7272 189.208L16.869 185.439Z" fill="#D90C0D" fill-opacity="0.6"/>
<path d="M80.6973 7L24.8979 25.8748L43.1766 79.9119L98.976 61.0371L80.6973 7ZM87.8938 55.7907L48.8882 68.9848L36.0819 31.1256L75.0875 17.9315L87.8938 55.7907Z" fill="#D90C0D" fill-opacity="0.6"/>
<path d="M76.7771 50.4999L69.4609 28.8711L47.1772 36.4088L54.4934 58.0376L76.7771 50.4999Z" fill="#D90C0D" fill-opacity="0.6"/>
</g>
<defs>
<filter id="filter0_f_478_4100" x="-116.326" y="0" width="230.273" height="196.207" filterUnits="userSpaceOnUse" color-interpolation-filters="sRGB">
<feFlood flood-opacity="0" result="BackgroundImageFix"/>
<feBlend mode="normal" in="SourceGraphic" in2="BackgroundImageFix" result="shape"/>
<feGaussianBlur stdDeviation="3.5" result="effect1_foregroundBlur_478_4100"/>
</filter>
</defs>
</svg>
