<svg width="205" height="161" viewBox="0 0 205 161" fill="none" xmlns="http://www.w3.org/2000/svg">
<path d="M198.365 105.35H196.212H98.7792H96.6268V109.665H98.7792V153.522H196.212V109.665H198.365V105.35Z" fill="#F6CD80"/>
<path opacity="0.5" d="M198.365 105.35H196.212H98.7792H96.6268V109.665H98.7792V153.522H196.212V109.665H198.365V105.35Z" fill="white"/>
<path d="M101.39 128.253H127.961V114.066H101.39V128.253ZM101.929 114.591H127.422V127.744H101.929V114.591Z" fill="white"/>
<path d="M134.388 128.253H160.965V114.066H134.388V128.253ZM134.937 114.606H160.436V127.744H134.937V114.606Z" fill="white"/>
<path d="M167.391 114.066V128.253H193.963V114.066H167.391ZM193.424 127.744H167.931V114.606H193.424V127.744Z" fill="white"/>
<path d="M101.39 147.325H127.961V133.123H101.39V147.325ZM101.929 133.662H127.422V146.785H101.929V133.662Z" fill="white"/>
<path d="M134.388 147.325H160.965V133.123H134.388V147.325ZM134.937 133.662H160.436V146.785H134.937V133.662Z" fill="white"/>
<path d="M167.391 147.325H193.963V133.123H167.391V147.325ZM167.931 133.662H193.424V146.785H167.931V133.662Z" fill="white"/>
<path d="M114.96 122.965C117.343 122.965 119.275 122.24 119.275 121.347C119.275 120.453 117.343 119.729 114.96 119.729C112.577 119.729 110.645 120.453 110.645 121.347C110.645 122.24 112.577 122.965 114.96 122.965Z" fill="white"/>
<path d="M147.801 122.965C150.184 122.965 152.116 122.24 152.116 121.347C152.116 120.453 150.184 119.729 147.801 119.729C145.418 119.729 143.486 120.453 143.486 121.347C143.486 122.24 145.418 122.965 147.801 122.965Z" fill="white"/>
<path d="M181.593 122.965C183.976 122.965 185.908 122.24 185.908 121.347C185.908 120.453 183.976 119.729 181.593 119.729C179.21 119.729 177.278 120.453 177.278 121.347C177.278 122.24 179.21 122.965 181.593 122.965Z" fill="white"/>
<path d="M114.96 138.785C112.579 138.785 110.645 139.508 110.645 140.403C110.645 141.299 112.579 142.016 114.96 142.016C117.342 142.016 119.275 141.294 119.275 140.403C119.275 139.513 117.342 138.785 114.96 138.785Z" fill="white"/>
<path d="M147.801 138.785C145.42 138.785 143.486 139.508 143.486 140.403C143.486 141.299 145.42 142.016 147.801 142.016C150.182 142.016 152.116 141.294 152.116 140.403C152.116 139.513 150.203 138.785 147.801 138.785Z" fill="white"/>
<path d="M181.593 138.785C179.212 138.785 177.283 139.508 177.283 140.403C177.283 141.299 179.212 142.016 181.593 142.016C183.975 142.016 185.908 141.294 185.908 140.403C185.908 139.513 183.98 138.785 181.593 138.785Z" fill="white"/>
<path d="M84.6537 101.58C82.6896 104.495 79.952 108.286 78.4916 111.329C79.0463 109.324 79.5907 107.426 80.0843 105.732C80.8323 104.261 82.8371 100.552 85.1727 98.0993C88.1087 94.9546 89.3656 92.9345 87.7831 92.7615C86.6891 92.6394 83.4834 96.9086 81.4734 101.147C81.911 99.6971 82.257 98.6031 82.4911 97.9466C82.5878 97.6515 82.6794 97.3309 82.771 96.99C84.8501 94.0814 86.7433 91.0443 88.4395 87.897C91.406 82.3557 92.3627 77.1248 90.3833 79.3739C88.5616 81.4449 85.3915 91.7439 82.8727 96.588C83.0865 95.7535 83.29 94.8325 83.4681 93.9217C83.8243 93.0414 84.2924 92.1458 84.557 91.3317C84.9692 90.0799 85.3305 88.818 85.6205 87.5306C86.0989 85.5305 86.3414 83.4811 86.3431 81.4245C86.3941 79.0089 85.736 76.6313 84.4502 74.5857C84.1092 74.0768 82.023 70.9576 81.3971 72.5503C81.3156 72.8156 81.2999 73.0968 81.3513 73.3696C81.6566 76.0206 82.6183 78.458 83.2137 81.0378C84.1041 84.8999 83.5139 91.3826 83.2137 94.1405C83.1017 94.5781 82.9593 95.1175 82.7913 95.7434C83.2035 90.9399 81.1223 85.2459 79.1938 84.2486C76.8073 83.0172 79.148 87.8512 80.99 92.0746C81.8626 93.9229 82.273 95.9555 82.1858 97.9975C81.8093 99.3816 81.3768 100.944 80.929 102.521C80.8374 102.735 80.756 102.954 80.6745 103.167C80.8816 102.138 80.9653 101.087 80.9239 100.038C80.7509 97.2801 77.6266 91.7591 75.5505 92.5376C73.4744 93.3162 76.9905 96.2268 78.8682 99.6157C79.8533 101.49 80.232 103.623 79.952 105.722C79.952 105.849 79.9113 105.971 79.896 106.088C79.6772 106.811 79.4635 107.503 79.26 108.164C78.7511 109.691 78.3186 111.156 77.8861 112.571C78.4175 110.518 78.6505 108.4 78.5781 106.281C78.3186 102.241 75.9525 98.425 73.9985 97.9009C72.0446 97.3767 75.7744 103.971 77.0261 107.676C77.7068 109.839 77.8224 112.141 77.362 114.362C76.7565 116.367 76.1866 118.346 75.6014 120.437C75.7648 117.698 75.7053 114.95 75.4233 112.22C75.0417 107.722 72.3702 104.852 70.5282 104.969C68.6862 105.086 70.6096 107.64 73.2658 113.11C74.6683 115.982 75.2929 119.172 75.0773 122.361C74.8381 123.241 74.5684 124.147 74.3445 125.093C74.0596 126.172 73.8357 127.348 73.6322 128.548C73.3676 127.475 72.9707 125.908 72.5076 124.177C71.9684 122.265 71.5771 120.314 71.3373 118.341C71.088 116.046 70.4824 113.181 68.2334 111.991C68.0805 111.884 67.9062 111.812 67.7227 111.78C67.5391 111.749 67.3508 111.757 67.171 111.806C66.9911 111.854 66.824 111.941 66.6814 112.061C66.5388 112.181 66.4242 112.331 66.3455 112.5C66.1392 112.992 66.0929 113.537 66.2132 114.057C66.5119 115.618 67.0256 117.13 67.7398 118.55C67.2979 119.397 67.0973 120.349 67.1597 121.303C67.1597 121.659 67.1902 122.015 67.2157 122.371C67.0172 122.005 66.8289 121.669 66.6509 121.353C66.3275 120.814 65.9301 120.322 65.4703 119.893C65.5856 119.05 65.6434 118.2 65.6433 117.349C65.6433 116.234 64.3356 113.39 63.1551 115.497C62.6819 116.341 62.7735 117.995 62.7277 119.094C62.4071 119.399 62.3104 120.02 62.5801 120.997C62.3969 123.541 62.3613 126.147 62.977 128.63L62.5699 127.923C61.9964 124.979 61.6561 121.995 61.5523 118.997C61.4047 114.046 62.1934 109.986 60.845 108.459C59.4965 106.933 58.7434 112.301 59.3184 118.153C59.5893 120.823 60.3012 123.43 61.425 125.867C60.1021 123.491 58.7943 121.068 57.5578 118.743C57.049 117.496 55.7871 114.123 56.0975 110.703C56.4893 106.393 56.7742 102.862 55.1357 100.435C53.4973 98.0077 53.1564 99.5851 53.9603 104.643C54.5099 108.113 55.095 112.754 56.1026 115.975C55.1459 114.128 54.2453 112.372 53.4413 110.785C52.9833 109.197 51.9148 105.121 51.9148 101.738C51.9148 97.4327 51.4568 95.1226 50.1847 96.0538C49.2993 96.7102 49.8692 102.022 51.294 106.49C50.6274 105.132 50.1237 104.088 49.8336 103.473C49.7013 103.193 49.5537 102.893 49.3858 102.582C48.9203 99.0382 48.232 95.527 47.325 92.0695C45.712 85.9939 42.837 81.5161 42.9286 84.5132C43.01 87.2711 47.7219 96.9595 49.1925 102.221C48.7752 101.463 48.2918 100.654 47.8033 99.865C47.4624 98.9745 47.1927 98.0026 46.8314 97.2292C46.2768 96.0334 45.6815 94.8631 45.0149 93.7233C43.9969 91.931 42.7724 90.2642 41.3665 88.757C39.7378 86.9023 37.5919 85.5769 35.2044 84.9508C34.604 84.8083 30.9606 83.9331 31.5814 85.5614C31.6975 85.8098 31.8721 86.0263 32.0903 86.1924C34.1256 87.9224 36.4867 89.047 38.7052 90.5277C41.9923 92.7463 45.9868 97.8856 47.6354 100.119L48.419 101.58C45.4423 97.7838 40.0333 95.0462 37.9471 95.6365C35.3621 96.3641 40.3691 98.2977 44.5976 100.124C46.4976 100.879 48.1848 102.086 49.513 103.641C50.1847 104.913 50.9327 106.343 51.6807 107.803C51.7672 108.022 51.8486 108.235 51.9351 108.449C51.3853 107.556 50.731 106.731 49.9863 105.991C47.9763 104.099 41.9211 102.19 40.939 104.175C39.957 106.159 44.5009 105.895 48.1951 107.085C50.1848 107.784 51.9103 109.079 53.136 110.795C53.2072 110.897 53.2734 111.004 53.3446 111.1C53.6805 111.772 53.9959 112.428 54.2962 113.049C54.9882 114.509 55.6497 115.878 56.2959 117.206C55.2872 115.337 54.0139 113.623 52.5152 112.118C49.5639 109.34 45.2286 108.169 43.4324 109.136C41.6362 110.103 48.8719 112.357 52.3168 114.225C54.2913 115.342 55.9468 116.947 57.1253 118.886C58.0514 120.763 58.9826 122.6 59.985 124.529C58.2348 122.415 56.317 120.446 54.2504 118.641C50.8971 115.614 46.9841 115.339 45.7171 116.682C44.4501 118.026 47.5998 118.58 53.2683 120.753C56.2513 121.895 58.883 123.798 60.9009 126.274C61.3284 127.083 61.766 127.912 62.2341 128.777C62.7429 129.754 63.3892 130.772 64.071 131.785C63.1449 131.184 61.7812 130.309 60.2649 129.363C58.5632 128.333 56.9452 127.171 55.4258 125.887C53.6754 124.386 51.2787 122.702 48.8108 123.368C48.6271 123.395 48.4515 123.462 48.2965 123.564C48.1415 123.666 48.0108 123.801 47.9137 123.96C47.8166 124.118 47.7555 124.296 47.7347 124.48C47.7138 124.665 47.7338 124.851 47.7932 125.027C47.9729 125.53 48.3101 125.962 48.7549 126.259C51.0752 128.055 54.1944 128.92 56.8963 129.983C59.3724 130.958 61.9103 131.767 64.4934 132.405C65.1345 133.326 65.8011 134.237 66.4728 135.102L65.2617 135.138C63.8268 135.184 57.3543 132.248 54.0672 131.306C50.7801 130.365 47.7066 132.146 51.1515 133.998C54.5964 135.85 63.9642 135.438 63.9642 135.438L66.6661 135.357C67.3022 136.171 67.923 136.944 68.5132 137.652H55.6751V141.214H58.2193L60.2547 153.879H77.3162L79.377 141.214H81.9212V137.652H73.4185C73.3497 136.112 73.3905 134.57 73.5406 133.036C74.1079 132.46 74.7377 131.948 75.4182 131.51C79.1531 128.93 85.4831 128.716 87.1674 123.745C87.5745 122.549 87.1114 121.012 85.6816 121.079C84.6639 121.124 83.5597 122.03 82.9185 122.768C80.7814 125.236 79.1735 127.795 76.3952 129.668C75.4407 130.402 74.5236 131.183 73.6474 132.009C73.7441 131.2 73.8662 130.334 74.024 129.408C74.6953 128.218 75.461 127.083 76.3138 126.014C78.5883 123.19 82.0484 121.537 84.5061 118.845C85.2592 118.02 86.2515 115.059 83.9515 115.792C82.9338 116.117 81.7228 117.669 80.8984 118.377C78.6341 120.412 76.3189 122.58 74.8432 125.256C74.9043 124.992 74.9704 124.747 75.0315 124.462C76.6189 121.917 78.4073 119.502 80.3794 117.242C83.6462 113.527 86.9944 111.095 87.0503 109.06C87.1063 107.024 82.8931 110.434 79.3159 115.095C77.6932 117.233 76.4347 119.624 75.5912 122.173C76.2476 119.537 76.9447 116.87 77.6266 114.316C78.0947 113.044 79.4839 109.737 82.0433 107.442C85.2745 104.557 87.8899 102.175 88.353 99.3002C88.816 96.4252 87.5185 97.336 84.6537 101.58ZM66.5847 134.309C66.1013 133.652 65.5975 132.94 65.0582 132.151C64.7369 130.813 64.5225 129.452 64.417 128.08C64.3519 126.913 64.4064 125.741 64.5799 124.585C65.4483 125.66 66.3705 126.691 67.3429 127.673C67.3197 128.691 67.1952 129.703 66.9714 130.696C66.7808 131.893 66.6518 133.098 66.5847 134.309ZM69.3528 137.662C68.6964 136.965 67.9789 136.135 67.2004 135.118C67.22 134.31 67.3309 133.508 67.5312 132.726C67.8419 131.493 68.289 130.298 68.8643 129.164C70.0703 130.309 70.9557 131.067 70.9557 131.067L72.991 132.853C72.8333 134.629 72.7417 136.298 72.6857 137.652L69.3528 137.662ZM73.0165 132.543L72.1056 131.744C71.5968 131.286 70.6809 129.515 69.6836 127.475C70.109 126.616 70.4861 125.735 70.8132 124.834C71.8919 126.834 72.8486 128.396 73.4134 129.225C73.2505 130.329 73.1233 131.454 73.0165 132.543Z" fill="#F6CD80"/>
<path opacity="0.5" d="M84.6537 101.58C82.6896 104.495 79.952 108.286 78.4916 111.329C79.0463 109.324 79.5907 107.426 80.0843 105.732C80.8323 104.261 82.8371 100.552 85.1727 98.0993C88.1087 94.9546 89.3656 92.9345 87.7831 92.7615C86.6891 92.6394 83.4834 96.9086 81.4734 101.147C81.911 99.6971 82.257 98.6031 82.4911 97.9466C82.5878 97.6515 82.6794 97.3309 82.771 96.99C84.8501 94.0814 86.7433 91.0443 88.4395 87.897C91.406 82.3557 92.3627 77.1248 90.3833 79.3739C88.5616 81.4449 85.3915 91.7439 82.8727 96.588C83.0865 95.7535 83.29 94.8325 83.4681 93.9217C83.8243 93.0414 84.2924 92.1458 84.557 91.3317C84.9692 90.0799 85.3305 88.818 85.6205 87.5306C86.0989 85.5305 86.3414 83.4811 86.3431 81.4245C86.3941 79.0089 85.736 76.6313 84.4502 74.5857C84.1092 74.0768 82.023 70.9576 81.3971 72.5503C81.3156 72.8156 81.2999 73.0968 81.3513 73.3696C81.6566 76.0206 82.6183 78.458 83.2137 81.0378C84.1041 84.8999 83.5139 91.3826 83.2137 94.1405C83.1017 94.5781 82.9593 95.1175 82.7913 95.7434C83.2035 90.9399 81.1223 85.2459 79.1938 84.2486C76.8073 83.0172 79.148 87.8512 80.99 92.0746C81.8626 93.9229 82.273 95.9555 82.1858 97.9975C81.8093 99.3816 81.3768 100.944 80.929 102.521C80.8374 102.735 80.756 102.954 80.6745 103.167C80.8816 102.138 80.9653 101.087 80.9239 100.038C80.7509 97.2801 77.6266 91.7591 75.5505 92.5376C73.4744 93.3162 76.9905 96.2268 78.8682 99.6157C79.8533 101.49 80.232 103.623 79.952 105.722C79.952 105.849 79.9113 105.971 79.896 106.088C79.6772 106.811 79.4635 107.503 79.26 108.164C78.7511 109.691 78.3186 111.156 77.8861 112.571C78.4175 110.518 78.6505 108.4 78.5781 106.281C78.3186 102.241 75.9525 98.425 73.9985 97.9009C72.0446 97.3767 75.7744 103.971 77.0261 107.676C77.7068 109.839 77.8224 112.141 77.362 114.362C76.7565 116.367 76.1866 118.346 75.6014 120.437C75.7648 117.698 75.7053 114.95 75.4233 112.22C75.0417 107.722 72.3702 104.852 70.5282 104.969C68.6862 105.086 70.6096 107.64 73.2658 113.11C74.6683 115.982 75.2929 119.172 75.0773 122.361C74.8381 123.241 74.5684 124.147 74.3445 125.093C74.0596 126.172 73.8357 127.348 73.6322 128.548C73.3676 127.475 72.9707 125.908 72.5076 124.177C71.9684 122.265 71.5771 120.314 71.3373 118.341C71.088 116.046 70.4824 113.181 68.2334 111.991C68.0805 111.884 67.9062 111.812 67.7227 111.78C67.5391 111.749 67.3508 111.757 67.171 111.806C66.9911 111.854 66.824 111.941 66.6814 112.061C66.5388 112.181 66.4242 112.331 66.3455 112.5C66.1392 112.992 66.0929 113.537 66.2132 114.057C66.5119 115.618 67.0256 117.13 67.7398 118.55C67.2979 119.397 67.0973 120.349 67.1597 121.303C67.1597 121.659 67.1902 122.015 67.2157 122.371C67.0172 122.005 66.8289 121.669 66.6509 121.353C66.3275 120.814 65.9301 120.322 65.4703 119.893C65.5856 119.05 65.6434 118.2 65.6433 117.349C65.6433 116.234 64.3356 113.39 63.1551 115.497C62.6819 116.341 62.7735 117.995 62.7277 119.094C62.4071 119.399 62.3104 120.02 62.5801 120.997C62.3969 123.541 62.3613 126.147 62.977 128.63L62.5699 127.923C61.9964 124.979 61.6561 121.995 61.5523 118.997C61.4047 114.046 62.1934 109.986 60.845 108.459C59.4965 106.933 58.7434 112.301 59.3184 118.153C59.5893 120.823 60.3012 123.43 61.425 125.867C60.1021 123.491 58.7943 121.068 57.5578 118.743C57.049 117.496 55.7871 114.123 56.0975 110.703C56.4893 106.393 56.7742 102.862 55.1357 100.435C53.4973 98.0077 53.1564 99.5851 53.9603 104.643C54.5099 108.113 55.095 112.754 56.1026 115.975C55.1459 114.128 54.2453 112.372 53.4413 110.785C52.9833 109.197 51.9148 105.121 51.9148 101.738C51.9148 97.4327 51.4568 95.1226 50.1847 96.0538C49.2993 96.7102 49.8692 102.022 51.294 106.49C50.6274 105.132 50.1237 104.088 49.8336 103.473C49.7013 103.193 49.5537 102.893 49.3858 102.582C48.9203 99.0382 48.232 95.527 47.325 92.0695C45.712 85.9939 42.837 81.5161 42.9286 84.5132C43.01 87.2711 47.7219 96.9595 49.1925 102.221C48.7752 101.463 48.2918 100.654 47.8033 99.865C47.4624 98.9745 47.1927 98.0026 46.8314 97.2292C46.2768 96.0334 45.6815 94.8631 45.0149 93.7233C43.9969 91.931 42.7724 90.2642 41.3665 88.757C39.7378 86.9023 37.5919 85.5769 35.2044 84.9508C34.604 84.8083 30.9606 83.9331 31.5814 85.5614C31.6975 85.8098 31.8721 86.0263 32.0903 86.1924C34.1256 87.9224 36.4867 89.047 38.7052 90.5277C41.9923 92.7463 45.9868 97.8856 47.6354 100.119L48.419 101.58C45.4423 97.7838 40.0333 95.0462 37.9471 95.6365C35.3621 96.3641 40.3691 98.2977 44.5976 100.124C46.4976 100.879 48.1848 102.086 49.513 103.641C50.1847 104.913 50.9327 106.343 51.6807 107.803C51.7672 108.022 51.8486 108.235 51.9351 108.449C51.3853 107.556 50.731 106.731 49.9863 105.991C47.9763 104.099 41.9211 102.19 40.939 104.175C39.957 106.159 44.5009 105.895 48.1951 107.085C50.1848 107.784 51.9103 109.079 53.136 110.795C53.2072 110.897 53.2734 111.004 53.3446 111.1C53.6805 111.772 53.9959 112.428 54.2962 113.049C54.9882 114.509 55.6497 115.878 56.2959 117.206C55.2872 115.337 54.0139 113.623 52.5152 112.118C49.5639 109.34 45.2286 108.169 43.4324 109.136C41.6362 110.103 48.8719 112.357 52.3168 114.225C54.2913 115.342 55.9468 116.947 57.1253 118.886C58.0514 120.763 58.9826 122.6 59.985 124.529C58.2348 122.415 56.317 120.446 54.2504 118.641C50.8971 115.614 46.9841 115.339 45.7171 116.682C44.4501 118.026 47.5998 118.58 53.2683 120.753C56.2513 121.895 58.883 123.798 60.9009 126.274C61.3284 127.083 61.766 127.912 62.2341 128.777C62.7429 129.754 63.3892 130.772 64.071 131.785C63.1449 131.184 61.7812 130.309 60.2649 129.363C58.5632 128.333 56.9452 127.171 55.4258 125.887C53.6754 124.386 51.2787 122.702 48.8108 123.368C48.6271 123.395 48.4515 123.462 48.2965 123.564C48.1415 123.666 48.0108 123.801 47.9137 123.96C47.8166 124.118 47.7555 124.296 47.7347 124.48C47.7138 124.665 47.7338 124.851 47.7932 125.027C47.9729 125.53 48.3101 125.962 48.7549 126.259C51.0752 128.055 54.1944 128.92 56.8963 129.983C59.3724 130.958 61.9103 131.767 64.4934 132.405C65.1345 133.326 65.8011 134.237 66.4728 135.102L65.2617 135.138C63.8268 135.184 57.3543 132.248 54.0672 131.306C50.7801 130.365 47.7066 132.146 51.1515 133.998C54.5964 135.85 63.9642 135.438 63.9642 135.438L66.6661 135.357C67.3022 136.171 67.923 136.944 68.5132 137.652H55.6751V141.214H58.2193L60.2547 153.879H77.3162L79.377 141.214H81.9212V137.652H73.4185C73.3497 136.112 73.3905 134.57 73.5406 133.036C74.1079 132.46 74.7377 131.948 75.4182 131.51C79.1531 128.93 85.4831 128.716 87.1674 123.745C87.5745 122.549 87.1114 121.012 85.6816 121.079C84.6639 121.124 83.5597 122.03 82.9185 122.768C80.7814 125.236 79.1735 127.795 76.3952 129.668C75.4407 130.402 74.5236 131.183 73.6474 132.009C73.7441 131.2 73.8662 130.334 74.024 129.408C74.6953 128.218 75.461 127.083 76.3138 126.014C78.5883 123.19 82.0484 121.537 84.5061 118.845C85.2592 118.02 86.2515 115.059 83.9515 115.792C82.9338 116.117 81.7228 117.669 80.8984 118.377C78.6341 120.412 76.3189 122.58 74.8432 125.256C74.9043 124.992 74.9704 124.747 75.0315 124.462C76.6189 121.917 78.4073 119.502 80.3794 117.242C83.6462 113.527 86.9944 111.095 87.0503 109.06C87.1063 107.024 82.8931 110.434 79.3159 115.095C77.6932 117.233 76.4347 119.624 75.5912 122.173C76.2476 119.537 76.9447 116.87 77.6266 114.316C78.0947 113.044 79.4839 109.737 82.0433 107.442C85.2745 104.557 87.8899 102.175 88.353 99.3002C88.816 96.4252 87.5185 97.336 84.6537 101.58ZM66.5847 134.309C66.1013 133.652 65.5975 132.94 65.0582 132.151C64.7369 130.813 64.5225 129.452 64.417 128.08C64.3519 126.913 64.4064 125.741 64.5799 124.585C65.4483 125.66 66.3705 126.691 67.3429 127.673C67.3197 128.691 67.1952 129.703 66.9714 130.696C66.7808 131.893 66.6518 133.098 66.5847 134.309ZM69.3528 137.662C68.6964 136.965 67.9789 136.135 67.2004 135.118C67.22 134.31 67.3309 133.508 67.5312 132.726C67.8419 131.493 68.289 130.298 68.8643 129.164C70.0703 130.309 70.9557 131.067 70.9557 131.067L72.991 132.853C72.8333 134.629 72.7417 136.298 72.6857 137.652L69.3528 137.662ZM73.0165 132.543L72.1056 131.744C71.5968 131.286 70.6809 129.515 69.6836 127.475C70.109 126.616 70.4861 125.735 70.8132 124.834C71.8919 126.834 72.8486 128.396 73.4134 129.225C73.2505 130.329 73.1233 131.454 73.0165 132.543Z" fill="white"/>
<path d="M34.4666 5.75391V57.3505H73.6474V5.75391H34.4666ZM70.9302 53.753H37.2041V9.35651H70.9302V53.753Z" fill="#F6CD80"/>
<path opacity="0.5" d="M34.4666 5.75391V57.3505H73.6474V5.75391H34.4666ZM70.9302 53.753H37.2041V9.35651H70.9302V53.753Z" fill="white"/>
<path d="M171.574 30.9258V69.0279H200.517V30.9258H171.574ZM198.497 66.3667H173.61V33.6074H198.512L198.497 66.3667Z" fill="#F6CD80"/>
<path opacity="0.5" d="M171.574 30.9258V69.0279H200.517V30.9258H171.574ZM198.497 66.3667H173.61V33.6074H198.512L198.497 66.3667Z" fill="white"/>
<path d="M6.08841 159.2C7.54879 154.254 22.6767 102.841 22.6258 102.454C22.5749 102.067 23.8623 95.1623 26.8746 89.4072C29.887 83.6522 34.0697 77.2408 34.5938 76.4572C35.3914 75.1803 35.9243 73.7562 36.161 72.2694C36.5528 70.1781 40.7406 64.418 42.0483 62.8508C43.356 61.2835 47.2792 53.0403 47.5438 51.7325C47.8084 50.4248 49.3705 49.3766 51.467 48.9848C53.5634 48.593 56.4384 48.2012 56.4384 48.2012C56.9704 48.8273 57.291 49.6056 57.3543 50.4248C57.3543 51.6002 52.6424 79.724 52.3829 84.4359C52.1234 89.1477 52.7747 91.7581 50.6834 96.6023C48.592 101.446 42.4401 104.449 39.4329 106.413C36.4256 108.377 36.6546 108.784 36.6546 108.784C36.6546 108.784 38.3541 155.867 38.3134 159.566" fill="white"/>
<mask id="mask0_35781_134036" style="mask-type:alpha" maskUnits="userSpaceOnUse" x="6" y="48" width="52" height="112">
<path d="M6.08841 159.2C7.54879 154.254 22.6767 102.841 22.6258 102.454C22.5749 102.067 23.8623 95.1623 26.8746 89.4072C29.887 83.6522 34.0697 77.2408 34.5938 76.4572C35.3914 75.1803 35.9243 73.7562 36.161 72.2694C36.5528 70.1781 40.7406 64.418 42.0483 62.8508C43.356 61.2835 47.2792 53.0403 47.5438 51.7325C47.8084 50.4248 49.3705 49.3766 51.467 48.9848C53.5634 48.593 56.4384 48.2012 56.4384 48.2012C56.9704 48.8273 57.291 49.6056 57.3543 50.4248C57.3543 51.6002 52.6424 79.724 52.3829 84.4359C52.1234 89.1477 52.7747 91.7581 50.6834 96.6023C48.592 101.446 42.4401 104.449 39.4329 106.413C36.4256 108.377 36.6546 108.784 36.6546 108.784C36.6546 108.784 38.3541 155.867 38.3134 159.566" fill="white"/>
</mask>
<g mask="url(#mask0_35781_134036)">
<g style="mix-blend-mode:multiply" opacity="0.7">
<path d="M59.2675 79.0519C58.7231 76.6146 55.1968 77.9681 55.1968 77.9681C52.7955 80.574 49.8392 82.6069 46.5465 83.9165C41.035 86.0006 35.709 88.5453 30.6248 91.5237C31.2049 90.3584 31.8358 89.183 32.5177 87.9618C36.0338 81.7437 42.2518 73.3631 45.7476 72.2792C47.9051 71.6177 50.0575 72.9865 51.4008 74.1467L51.5535 48.959H51.467C49.3705 49.3508 47.8033 50.399 47.5438 51.7067C47.2843 53.0145 43.356 61.2526 42.0483 62.8249C40.7406 64.3973 36.5528 70.1523 36.161 72.2436C35.9243 73.7304 35.3914 75.1545 34.5938 76.4314C34.0849 77.215 29.8819 83.6213 26.8746 89.3814C23.8674 95.1415 22.5749 102.036 22.6258 102.428C22.6614 102.713 16.8402 123.8 13.141 137.07C16.194 131.066 20.9415 121.352 23.8267 114.172C24.9614 114.06 27.1596 110.987 28.9812 108.483C31.1438 105.512 34.3851 104.698 40.878 99.833C47.3708 94.9685 54.6625 88.206 55.7463 85.504C56.8302 82.8021 59.8069 81.4842 59.2675 79.0519Z" fill="#F6CD80"/>
</g>
</g>
<path d="M6.08841 159.2C7.54879 154.254 22.6767 102.841 22.6258 102.454C22.5749 102.067 23.8623 95.1622 26.8746 89.4072C29.887 83.6522 34.0697 77.2408 34.5938 76.4572C35.3914 75.1803 35.9243 73.7562 36.161 72.2694C36.5528 70.1781 40.7406 64.418 42.0483 62.8508C43.356 61.2835 47.2792 53.0403 47.5438 51.7325C47.8084 50.4248 49.3705 49.3766 51.467 48.9848C53.5634 48.593 56.4384 48.2012 56.4384 48.2012C56.9704 48.8273 57.291 49.6056 57.3543 50.4248C57.3543 51.6002 52.6424 79.724 52.3829 84.4359C52.1234 89.1477 52.7747 91.7581 50.6834 96.6023C48.592 101.446 42.4401 104.449 39.4329 106.413C36.4256 108.377 36.6546 108.784 36.6546 108.784C36.6546 108.784 38.3541 155.867 38.3134 159.566" stroke="#2E353A" stroke-linecap="round" stroke-linejoin="round"/>
<path d="M51.2024 80.2478C51.2024 80.2478 49.7674 80.1155 48.3274 77.5" stroke="#2E353A" stroke-linecap="round" stroke-linejoin="round"/>
<path d="M49.6352 63.375C49.6352 63.375 53.7059 64.1586 54.2147 67.5577" stroke="#2E353A" stroke-linecap="round" stroke-linejoin="round"/>
<path d="M50.9429 52.7754C51.8433 53.4605 52.5885 54.3284 53.1296 55.322C53.6707 56.3156 53.9954 57.4125 54.0824 58.5406" stroke="#2E353A" stroke-linecap="round" stroke-linejoin="round"/>
<path d="M182.845 80.2588L182.524 25.9297C182.523 24.3462 181.893 22.828 180.773 21.7088C179.653 20.5896 178.134 19.9609 176.551 19.9609H57.6596C56.0766 19.9609 54.5584 20.5898 53.4391 21.7091C52.3197 22.8285 51.6909 24.3467 51.6909 25.9297L51.3652 80.2588C51.3646 81.0508 51.5201 81.8352 51.8229 82.567C52.1257 83.2989 52.5698 83.9639 53.1298 84.5239C53.6899 85.084 54.3549 85.5281 55.0867 85.8309C55.8186 86.1337 56.603 86.2892 57.395 86.2886H176.815C177.607 86.2892 178.392 86.1337 179.124 85.8309C179.855 85.5281 180.52 85.084 181.08 84.5239C181.64 83.9639 182.085 83.2989 182.387 82.567C182.69 81.8352 182.846 81.0508 182.845 80.2588Z" fill="#2E353A" stroke="#363636" stroke-width="0.868674" stroke-linecap="round" stroke-linejoin="round"/>
<path d="M176.164 83.3364L175.904 22.8809H58.3058L58.0514 83.3364H176.164Z" fill="white" stroke="#363636" stroke-width="0.651505" stroke-linecap="round" stroke-linejoin="round"/>
<path d="M175.904 22.8809H58.3058L58.2957 25.8983H69.592L72.4822 30.0301H175.935L175.904 22.8809Z" fill="#F6CD80" stroke="#2E353A" stroke-linecap="round" stroke-linejoin="round"/>
<g style="mix-blend-mode:multiply" opacity="0.5">
<path d="M175.904 34.9102L93.243 83.3367H176.164L175.904 34.9102Z" fill="#F6CD80"/>
</g>
<path d="M180.104 53.0933C180.11 52.5903 179.708 52.1772 179.205 52.1707C178.702 52.1642 178.289 52.5667 178.282 53.0697C178.276 53.5727 178.678 53.9857 179.181 53.9922C179.684 53.9987 180.097 53.5962 180.104 53.0933Z" fill="white"/>
<path d="M67.3632 44.9697C70.0526 44.9697 72.2328 42.7895 72.2328 40.1001C72.2328 37.4107 70.0526 35.2305 67.3632 35.2305C64.6738 35.2305 62.4936 37.4107 62.4936 40.1001C62.4936 42.7895 64.6738 44.9697 67.3632 44.9697Z" fill="#F6CD80" stroke="#2E353A" stroke-linecap="round" stroke-linejoin="round"/>
<path d="M67.3632 64.9931C70.0526 64.9931 72.2328 62.8129 72.2328 60.1235C72.2328 57.4341 70.0526 55.2539 67.3632 55.2539C64.6738 55.2539 62.4936 57.4341 62.4936 60.1235C62.4936 62.8129 64.6738 64.9931 67.3632 64.9931Z" fill="white" stroke="#2E353A" stroke-linecap="round" stroke-linejoin="round"/>
<path d="M100.642 44.9697C103.331 44.9697 105.511 42.7895 105.511 40.1001C105.511 37.4107 103.331 35.2305 100.642 35.2305C97.9521 35.2305 95.7719 37.4107 95.7719 40.1001C95.7719 42.7895 97.9521 44.9697 100.642 44.9697Z" fill="white" stroke="#2E353A" stroke-linecap="round" stroke-linejoin="round"/>
<path d="M100.642 64.9931C103.331 64.9931 105.511 62.8129 105.511 60.1235C105.511 57.4341 103.331 55.2539 100.642 55.2539C97.9521 55.2539 95.7719 57.4341 95.7719 60.1235C95.7719 62.8129 97.9521 64.9931 100.642 64.9931Z" fill="#F6CD80" stroke="#2E353A" stroke-linecap="round" stroke-linejoin="round"/>
<path d="M133.925 44.9697C136.614 44.9697 138.795 42.7895 138.795 40.1001C138.795 37.4107 136.614 35.2305 133.925 35.2305C131.235 35.2305 129.055 37.4107 129.055 40.1001C129.055 42.7895 131.235 44.9697 133.925 44.9697Z" fill="#F6CD80" stroke="#2E353A" stroke-linecap="round" stroke-linejoin="round"/>
<path d="M133.925 64.9931C136.614 64.9931 138.795 62.8129 138.795 60.1235C138.795 57.4341 136.614 55.2539 133.925 55.2539C131.235 55.2539 129.055 57.4341 129.055 60.1235C129.055 62.8129 131.235 64.9931 133.925 64.9931Z" fill="#F6CD80" stroke="#2E353A" stroke-width="2" stroke-linecap="round" stroke-linejoin="round"/>
<path d="M167.203 44.9697C169.893 44.9697 172.073 42.7895 172.073 40.1001C172.073 37.4107 169.893 35.2305 167.203 35.2305C164.514 35.2305 162.334 37.4107 162.334 40.1001C162.334 42.7895 164.514 44.9697 167.203 44.9697Z" fill="#F6CD80" stroke="#2E353A" stroke-linecap="round" stroke-linejoin="round"/>
<path d="M167.203 64.9931C169.893 64.9931 172.073 62.8129 172.073 60.1235C172.073 57.4341 169.893 55.2539 167.203 55.2539C164.514 55.2539 162.334 57.4341 162.334 60.1235C162.334 62.8129 164.514 64.9931 167.203 64.9931Z" fill="white" stroke="#2E353A" stroke-linecap="round" stroke-linejoin="round"/>
<path d="M75.8253 46.6953H91.7775" stroke="#2E353A" stroke-linecap="round" stroke-linejoin="round"/>
<path d="M75.8253 50.375H91.7775" stroke="#2E353A" stroke-linecap="round" stroke-linejoin="round"/>
<path d="M75.8253 54.0586H91.7775" stroke="#2E353A" stroke-linecap="round" stroke-linejoin="round"/>
<path d="M108.651 46.6953H124.603" stroke="#2E353A" stroke-linecap="round" stroke-linejoin="round"/>
<path d="M108.651 50.375H124.603" stroke="#2E353A" stroke-linecap="round" stroke-linejoin="round"/>
<path d="M108.651 54.0586H124.603" stroke="#2E353A" stroke-linecap="round" stroke-linejoin="round"/>
<path d="M143.623 46.6953H159.576" stroke="#2E353A" stroke-linecap="round" stroke-linejoin="round"/>
<path d="M143.623 50.375H159.576" stroke="#2E353A" stroke-linecap="round" stroke-linejoin="round"/>
<path d="M143.623 54.0586H159.576" stroke="#2E353A" stroke-linecap="round" stroke-linejoin="round"/>
<path d="M75.8253 67.5273H91.7775" stroke="#2E353A" stroke-linecap="round" stroke-linejoin="round"/>
<path d="M75.8253 71.2109H91.7775" stroke="#2E353A" stroke-linecap="round" stroke-linejoin="round"/>
<path d="M75.8253 74.8906H91.7775" stroke="#2E353A" stroke-linecap="round" stroke-linejoin="round"/>
<path d="M108.651 67.5273H124.603" stroke="#2E353A" stroke-linecap="round" stroke-linejoin="round"/>
<path d="M108.651 71.2109H124.603" stroke="#2E353A" stroke-linecap="round" stroke-linejoin="round"/>
<path d="M108.651 74.8906H124.603" stroke="#2E353A" stroke-linecap="round" stroke-linejoin="round"/>
<path d="M143.623 67.5273H159.576" stroke="#2E353A" stroke-linecap="round" stroke-linejoin="round"/>
<path d="M143.623 71.2109H159.576" stroke="#2E353A" stroke-linecap="round" stroke-linejoin="round"/>
<path d="M143.623 74.8906H159.576" stroke="#2E353A" stroke-linecap="round" stroke-linejoin="round"/>
<path d="M124.318 60.373H127.34" stroke="#2E353A" stroke-linecap="round" stroke-linejoin="round"/>
<path d="M134.245 54.3342V50.5586" stroke="#2E353A" stroke-linecap="round" stroke-linejoin="round"/>
<path d="M127.554 54.7656L129.498 56.2769" stroke="#2E353A" stroke-linecap="round" stroke-linejoin="round"/>
<path d="M129.931 64.2559L127.554 65.5534" stroke="#2E353A" stroke-linecap="round" stroke-linejoin="round"/>
<path d="M144.387 60.373H141.364" stroke="#2E353A" stroke-linecap="round" stroke-linejoin="round"/>
<path d="M141.145 54.7656L139.207 56.2769" stroke="#2E353A" stroke-linecap="round" stroke-linejoin="round"/>
<path d="M131.895 70.377L134.439 79.4649" stroke="#2E353A" stroke-linecap="round" stroke-linejoin="round"/>
<path d="M129.345 69.2832L130.801 74.0103" stroke="#2E353A" stroke-linecap="round" stroke-linejoin="round"/>
<path d="M192.05 155.832C192.05 155.832 179.965 133.545 178.245 129.637C176.525 125.729 175.228 119.572 174.805 117.882C174.194 115.9 174.138 113.788 174.642 111.776C175.279 108.927 174.902 100.795 175.187 98.9279C175.472 97.0605 174.317 91.219 173.66 87.9471C173.004 84.6753 171.518 82.3499 169.513 82.0954C168.93 82.0256 168.339 82.1011 167.792 82.315C167.245 82.529 166.76 82.8748 166.379 83.3218C166.379 83.3218 165.544 76.3557 164.735 74.9106C163.926 73.4655 161.29 73.6741 159.881 74.0201C158.471 74.3661 157.795 78.8745 157.795 78.8745C157.795 78.8745 156.573 74.5442 156.538 72.6106C156.502 70.677 154.151 69.0131 152.32 69.4711C150.488 69.929 149.501 70.7686 149.002 74.7783C148.503 78.788 149.445 84.9908 149.445 84.9908L148.493 85.3775C148.493 85.3775 145.063 73.3688 143.975 70.1987C142.886 67.0286 141.837 63.4006 141.105 61.0395C140.372 58.6785 139.283 54.9334 136.286 55.5084C133.289 56.0834 134.027 62.6322 134.027 62.6322C134.027 62.6322 138.713 82.701 138.957 84.2835C139.202 85.866 139.975 91.3615 139.822 93.1933C139.67 95.0251 139.675 99.8083 139.675 99.8083L135.212 94.4858C134.662 93.0457 133.969 91.6648 133.141 90.3641C131.615 87.9013 128.221 85.6065 126.017 86.2934C123.814 86.9803 125.554 89.2498 126.465 90.5168C127.376 91.7838 128.114 95.3406 128.114 97.1317C128.114 98.9229 129.64 100.185 131.482 103.472C133.324 106.759 142.57 118.116 143.969 120.162C145.006 121.536 146.309 122.687 147.801 123.546C147.801 123.546 153.144 128.202 155.637 134.013C158.131 139.824 165.778 156.509 165.778 156.509" fill="white"/>
<mask id="mask1_35781_134036" style="mask-type:alpha" maskUnits="userSpaceOnUse" x="124" y="55" width="69" height="102">
<path d="M192.05 155.832C192.05 155.832 179.965 133.545 178.245 129.637C176.525 125.729 175.228 119.572 174.805 117.882C174.194 115.9 174.138 113.788 174.642 111.776C175.279 108.927 174.902 100.795 175.187 98.9279C175.472 97.0605 174.317 91.219 173.66 87.9471C173.004 84.6753 171.518 82.3499 169.513 82.0954C168.93 82.0256 168.339 82.1011 167.792 82.315C167.245 82.529 166.76 82.8748 166.379 83.3218C166.379 83.3218 165.544 76.3557 164.735 74.9106C163.926 73.4655 161.29 73.6741 159.881 74.0201C158.471 74.3661 157.795 78.8745 157.795 78.8745C157.795 78.8745 156.573 74.5442 156.538 72.6106C156.502 70.677 154.151 69.0131 152.32 69.4711C150.488 69.929 149.501 70.7686 149.002 74.7783C148.503 78.788 149.445 84.9908 149.445 84.9908L148.493 85.3775C148.493 85.3775 145.063 73.3688 143.975 70.1987C142.886 67.0286 141.837 63.4006 141.105 61.0395C140.372 58.6785 139.283 54.9334 136.286 55.5084C133.289 56.0834 134.027 62.6322 134.027 62.6322C134.027 62.6322 138.713 82.701 138.957 84.2835C139.202 85.866 139.975 91.3615 139.822 93.1933C139.67 95.0251 139.675 99.8083 139.675 99.8083L135.212 94.4858C134.662 93.0457 133.969 91.6648 133.141 90.3641C131.615 87.9013 128.221 85.6065 126.017 86.2934C123.814 86.9803 125.554 89.2498 126.465 90.5168C127.376 91.7838 128.114 95.3406 128.114 97.1317C128.114 98.9229 129.64 100.185 131.482 103.472C133.324 106.759 142.57 118.116 143.969 120.162C145.006 121.536 146.309 122.687 147.801 123.546C147.801 123.546 153.144 128.202 155.637 134.013C158.131 139.824 165.778 156.509 165.778 156.509" fill="white"/>
</mask>
<g mask="url(#mask1_35781_134036)">
<g style="mix-blend-mode:multiply" opacity="0.7">
<path d="M173.752 150.53C176.25 148.24 176.871 129.744 176.556 122.859C176.556 122.803 176.556 122.737 176.556 122.676C175.665 120.376 174.973 118.509 174.815 117.883C174.205 115.901 174.148 113.789 174.653 111.777C175.289 108.927 174.912 100.796 175.197 98.9286C175.365 97.8244 175.024 95.3107 174.587 92.7665C172.775 92.6087 169.457 94.2421 169.457 94.2421C169.457 94.2421 166.842 90.436 165.137 90.3037C163.433 90.1714 160.476 92.8479 160.476 92.8479C160.476 92.8479 158.782 87.1387 155.301 87.7238C151.821 88.309 150.844 87.7238 149.47 87.7849C148.096 87.846 146.982 84.5029 145.608 81.2208C144.234 77.9388 142.265 65.6655 141.1 63.1213C141.1 63.1213 139.273 58.0024 136.907 59.707C134.541 61.4116 136.764 66.9834 137.874 70.3265C138.983 73.6696 139.578 80.02 140.479 83.0476C141.496 86.4212 140.988 91.4333 141.919 95.1071C142.85 98.781 145.242 99.9717 143.924 104.775C142.606 109.579 139.726 108.047 136.515 105.223C133.304 102.399 131.717 95.9315 129.9 96.5726C129.27 96.7319 128.662 96.9659 128.088 97.2697C128.129 99.0303 129.615 100.323 131.457 103.539C133.299 106.755 142.57 118.117 143.969 120.163C145.006 121.537 146.309 122.688 147.801 123.546C147.801 123.546 153.144 128.202 155.637 134.013C156.085 135.056 156.797 136.598 157.673 138.43C158.69 139.244 156.533 135.377 157.062 136.018C160.588 140.155 171.259 152.825 173.752 150.53Z" fill="#F6CD80"/>
</g>
</g>
<path d="M192.05 155.832C192.05 155.832 179.965 133.545 178.245 129.637C176.525 125.729 175.228 119.572 174.805 117.882C174.194 115.9 174.138 113.788 174.642 111.776C175.279 108.927 174.902 100.795 175.187 98.9279C175.472 97.0605 174.317 91.219 173.66 87.9471C173.004 84.6753 171.518 82.3499 169.513 82.0954C168.93 82.0256 168.339 82.1011 167.792 82.315C167.245 82.529 166.76 82.8748 166.379 83.3218C166.379 83.3218 165.544 76.3557 164.735 74.9106C163.926 73.4655 161.29 73.6741 159.881 74.0201C158.471 74.3661 157.795 78.8745 157.795 78.8745C157.795 78.8745 156.573 74.5442 156.538 72.6106C156.502 70.677 154.151 69.0131 152.32 69.4711C150.488 69.929 149.501 70.7686 149.002 74.7783C148.503 78.788 149.445 84.9908 149.445 84.9908L148.493 85.3775C148.493 85.3775 145.063 73.3688 143.975 70.1987C142.886 67.0286 141.837 63.4006 141.105 61.0395C140.372 58.6785 139.283 54.9334 136.286 55.5084C133.289 56.0834 134.027 62.6322 134.027 62.6322C134.027 62.6322 138.713 82.701 138.957 84.2835C139.202 85.866 139.975 91.3615 139.822 93.1933C139.67 95.0251 139.675 99.8082 139.675 99.8082L135.212 94.4858C134.662 93.0457 133.969 91.6648 133.141 90.3641C131.615 87.9013 128.221 85.6065 126.017 86.2934C123.814 86.9803 125.554 89.2498 126.465 90.5168C127.376 91.7838 128.114 95.3406 128.114 97.1317C128.114 98.9229 129.64 100.185 131.482 103.472C133.324 106.759 142.57 118.116 143.969 120.162C145.006 121.536 146.309 122.687 147.801 123.546C147.801 123.546 153.144 128.202 155.637 134.013C158.131 139.824 165.778 156.509 165.778 156.509" stroke="#2E353A" stroke-linecap="round" stroke-linejoin="round"/>
<path d="M134.698 56.9648C134.698 56.9648 135.253 60.4046 135.36 60.8371C135.599 61.809 139.619 61.346 139.939 60.598C140.224 59.9314 140.016 58.4863 140.016 58.4863" stroke="#2E353A" stroke-linecap="round" stroke-linejoin="round"/>
<path d="M127.814 90.674C128.148 90.3343 128.355 89.89 128.401 89.4156C128.446 88.9412 128.327 88.4656 128.063 88.0687C127.117 86.6592 126.587 86.3438 126.587 86.3438" stroke="#2E353A" stroke-linecap="round" stroke-linejoin="round"/>
<path d="M139.349 76.8962C139.349 76.8962 141.145 77.4967 142.835 75.2832" stroke="#2E353A" stroke-width="0.75" stroke-linecap="round" stroke-linejoin="round"/>
<path d="M139.563 75.3331C139.563 75.3331 141.96 73.5368 143.791 73.6844" stroke="#2E353A" stroke-width="0.75" stroke-linecap="round" stroke-linejoin="round"/>
<path d="M137.08 65.9454C137.08 65.9454 138.876 64.1543 140.316 64.541" stroke="#2E353A" stroke-width="0.75" stroke-linecap="round" stroke-linejoin="round"/>
<path d="M138.769 65.5236C139.507 65.6478 140.264 65.6131 140.988 65.4219" stroke="#2E353A" stroke-width="0.75" stroke-linecap="round" stroke-linejoin="round"/>
<path d="M157.79 78.8906L158.736 84.493" stroke="#2E353A" stroke-linecap="round" stroke-linejoin="round"/>
<path d="M166.374 83.3379L167.386 89.2201" stroke="#2E353A" stroke-linecap="round" stroke-linejoin="round"/>
<path d="M139.67 99.8438C139.67 99.8438 139.415 104.245 139.838 105.95" stroke="#2E353A" stroke-linecap="round" stroke-linejoin="round"/>
<path d="M158.741 87.4746C158.741 87.4746 159.784 90.2376 159.53 92.0542" stroke="#2E353A" stroke-width="0.75" stroke-linecap="round" stroke-linejoin="round"/>
<path d="M167.274 90.3281C167.274 90.3281 167.982 91.7529 167.559 94.348" stroke="#2E353A" stroke-width="0.75" stroke-linecap="round" stroke-linejoin="round"/>
<path d="M46.3633 82.3406C46.3633 82.3406 50.6834 81.557 53.0342 78.682C55.3851 75.8071 61.0129 72.1383 62.8447 71.487C64.6765 70.8357 67.5566 70.6983 68.6048 71.6142C69.653 72.5301 70.172 74.7538 68.6048 77.3743C67.0376 79.9948 60.6465 82.4576 59.3134 83.6483C57.9802 84.839 56.8302 85.6125 55.2426 89.1438C53.6973 92.5648 51.4727 95.6359 48.704 98.1707C46.2157 100.394 41.6412 104.19 39.2853 105.625" fill="white"/>
<mask id="mask2_35781_134036" style="mask-type:alpha" maskUnits="userSpaceOnUse" x="39" y="70" width="31" height="36">
<path d="M46.3633 82.3406C46.3633 82.3406 50.6834 81.557 53.0342 78.682C55.3851 75.8071 61.0129 72.1383 62.8447 71.487C64.6765 70.8357 67.5566 70.6983 68.6048 71.6142C69.653 72.5301 70.172 74.7538 68.6048 77.3743C67.0376 79.9948 60.6465 82.4576 59.3134 83.6483C57.9802 84.839 56.8302 85.6125 55.2426 89.1438C53.6973 92.5648 51.4727 95.6359 48.704 98.1707C46.2157 100.394 41.6412 104.19 39.2853 105.625" fill="white"/>
</mask>
<g mask="url(#mask2_35781_134036)">
<g style="mix-blend-mode:multiply" opacity="0.7">
<path d="M59.2676 79.0539C58.7231 76.6165 55.1968 77.97 55.1968 77.97C52.7955 80.576 49.8392 82.6088 46.5465 83.9184C41.035 86.0025 35.709 88.5472 30.6248 91.5256C31.2049 90.3604 31.8359 89.1849 32.5177 87.9637C36.0338 81.7457 42.2519 73.365 45.7476 72.2812C47.9051 71.6197 50.0575 72.9885 51.4009 74.1486L51.5535 48.9609H51.467C49.3706 49.3527 47.8033 50.401 47.5438 51.7087C47.2843 53.0164 43.3561 61.2546 42.0483 62.8269C40.7406 64.3992 36.5528 70.1542 36.161 72.2456C35.9243 73.7324 35.3914 75.1565 34.5938 76.4333C34.0849 77.217 29.8819 83.6233 26.8746 89.3834C23.8674 95.1435 22.5749 102.038 22.6258 102.43C22.6614 102.715 16.8403 123.801 13.141 137.072C16.194 131.068 20.9415 121.354 23.8267 114.174C24.9614 114.062 27.1596 110.989 28.9813 108.485C31.1438 105.514 34.3852 104.7 40.878 99.835C47.3708 94.9705 54.6625 88.2079 55.7464 85.506C56.8302 82.804 59.8069 81.4861 59.2676 79.0539Z" fill="#F6CD80"/>
</g>
</g>
<path d="M46.3633 82.3406C46.3633 82.3406 50.6834 81.557 53.0342 78.682C55.3851 75.8071 61.0129 72.1383 62.8447 71.487C64.6766 70.8357 67.5566 70.6983 68.6048 71.6142C69.653 72.5301 70.172 74.7538 68.6048 77.3743C67.0376 79.9948 60.6465 82.4576 59.3134 83.6483C57.9802 84.839 56.8302 85.6125 55.2426 89.1438C53.6973 92.5648 51.4727 95.6359 48.704 98.1707C46.2157 100.394 41.6412 104.19 39.2853 105.625" stroke="#2E353A" stroke-linecap="round" stroke-linejoin="round"/>
<path d="M68.732 76.3508C67.9484 77.5262 65.9843 77.6585 65.9843 77.6585C65.9843 77.6585 65.2006 75.959 64.6765 74.9108C64.2683 74.2054 63.6823 73.6194 62.977 73.2113C62.977 73.2113 63.6334 71.5117 64.9411 71.5117" stroke="#2E353A" stroke-linecap="round" stroke-linejoin="round"/>
<path d="M17.5221 108.876C22.3497 107.83 27.2945 107.428 32.2277 107.68C40.5778 108.082 42.5622 112.85 42.5622 112.85L42.1653 123.582C42.1653 123.582 37.7944 120.401 28.6505 119.211C19.5066 118.02 14.7387 118.814 14.7387 118.814L17.5221 108.876Z" fill="white" stroke="#2E353A" stroke-linecap="round" stroke-linejoin="round"/>
<path d="M42.6437 158.951L44.7961 124.508C30.8843 116.158 14.7387 118.814 14.7387 118.814L1 158.951H42.6437Z" fill="#2E353A" stroke="#2E353A" stroke-linecap="round" stroke-linejoin="round"/>
<path d="M151.22 132.491C151.22 132.491 152.579 127.067 160.039 122.655C167.498 118.243 178.698 119.943 178.698 119.943L180.392 124.35C180.392 124.35 171.233 124.014 164.45 127.744C157.667 131.473 154.274 135.885 154.274 135.885L151.22 132.491Z" fill="white" stroke="#2E353A" stroke-linecap="round" stroke-linejoin="round"/>
<path d="M201.723 158.951L181.593 122.966C181.593 122.966 173.961 120.961 164.801 124.691C155.642 128.421 151.907 135.544 151.907 135.544L155.759 158.951H201.723Z" fill="#2E353A" stroke="#2E353A" stroke-linecap="round" stroke-linejoin="round"/>
<path d="M156.278 136.634C156.533 137.728 156.227 138.736 155.586 138.883C154.945 139.031 154.223 138.268 153.968 137.174C153.714 136.08 154.019 135.072 154.655 134.925C155.291 134.777 156.019 135.54 156.278 136.634Z" fill="white"/>
</svg>
