<svg width="501" height="289" viewBox="0 0 501 289" fill="none" xmlns="http://www.w3.org/2000/svg">
<g filter="url(#filter0_d_32561_123085)">
<path fill-rule="evenodd" clip-rule="evenodd" d="M172.515 22.8729L22.369 158.251C17.1481 161.104 7.78653 172.912 12.1073 197.312L33.4618 279H489.618L435 80.1275C432.12 73.5281 422.47 59.58 406.916 56.5835L215.183 14.8465C205.821 11.4576 184.181 8.31841 172.515 22.8729Z" fill="#EFE8E8"/>
<path d="M22.369 158.251L22.6089 158.689L22.6603 158.661L22.7039 158.622L22.369 158.251ZM172.515 22.8729L172.85 23.2442L172.88 23.2171L172.905 23.1856L172.515 22.8729ZM12.1073 197.312L11.6149 197.399L11.6184 197.419L11.6235 197.439L12.1073 197.312ZM33.4618 279L32.978 279.126L33.0757 279.5H33.4618V279ZM489.618 279V279.5H490.274L490.1 278.868L489.618 279ZM435 80.1275L435.483 79.9951L435.473 79.9604L435.459 79.9275L435 80.1275ZM406.916 56.5835L406.809 57.0722L406.821 57.0745L406.916 56.5835ZM215.183 14.8465L215.012 15.3167L215.044 15.328L215.076 15.3351L215.183 14.8465ZM22.7039 158.622L172.85 23.2442L172.18 22.5015L22.0342 157.879L22.7039 158.622ZM12.5996 197.225C8.3043 172.969 17.6303 161.411 22.6089 158.689L22.1292 157.812C16.666 160.798 7.26876 172.856 11.6149 197.399L12.5996 197.225ZM33.9455 278.874L12.591 197.186L11.6235 197.439L32.978 279.126L33.9455 278.874ZM33.4618 279.5H489.618V278.5H33.4618V279.5ZM434.518 80.2599L489.136 279.132L490.1 278.868L435.483 79.9951L434.518 80.2599ZM406.821 57.0745C414.474 58.5488 420.69 62.7204 425.358 67.3591C430.029 71.9999 433.126 77.0839 434.542 80.3275L435.459 79.9275C433.994 76.5717 430.826 71.3819 426.063 66.6497C421.298 61.9154 414.912 57.6148 407.01 56.0926L406.821 57.0745ZM215.076 15.3351L406.809 57.0721L407.022 56.095L215.289 14.358L215.076 15.3351ZM172.905 23.1856C178.623 16.0512 186.798 13.2338 194.751 12.6295C202.707 12.0248 210.387 13.6422 215.012 15.3167L215.353 14.3764C210.617 12.662 202.795 11.0153 194.675 11.6324C186.55 12.2498 178.072 15.1401 172.125 22.5602L172.905 23.1856Z" fill="white"/>
</g>
<g filter="url(#filter1_d_32561_123085)">
<path fill-rule="evenodd" clip-rule="evenodd" d="M185.72 62.9819L62.3422 174.816C58.0521 177.173 50.3594 186.927 53.9099 207.084L72.6105 279H447.502L401.41 110.279C399.043 104.828 391.114 93.3052 378.332 90.8299L220.781 56.3515C213.088 53.5519 195.306 50.9587 185.72 62.9819Z" fill="#263238"/>
<path d="M62.3422 174.816L62.583 175.254L62.6345 175.226L62.678 175.186L62.3422 174.816ZM185.72 62.9819L186.056 63.3524L186.086 63.3252L186.111 63.2936L185.72 62.9819ZM53.9099 207.084L53.4175 207.171L53.4209 207.19L53.426 207.21L53.9099 207.084ZM72.6105 279L72.1266 279.126L72.2239 279.5H72.6105V279ZM447.502 279V279.5H448.157L447.985 278.868L447.502 279ZM401.41 110.279L401.892 110.147L401.883 110.113L401.869 110.08L401.41 110.279ZM378.332 90.8299L378.225 91.3185L378.237 91.3208L378.332 90.8299ZM220.781 56.3515L220.61 56.8213L220.642 56.8328L220.674 56.8399L220.781 56.3515ZM62.678 175.186L186.056 63.3524L185.384 62.6115L62.0064 174.445L62.678 175.186ZM54.4023 206.997C50.8769 186.983 58.535 177.478 62.583 175.254L62.1014 174.378C57.5691 176.868 49.842 186.872 53.4175 207.171L54.4023 206.997ZM73.0944 278.874L54.3938 206.958L53.426 207.21L72.1266 279.126L73.0944 278.874ZM72.6105 279.5H447.502V278.5H72.6105V279.5ZM400.928 110.411L447.02 279.132L447.985 278.868L401.892 110.147L400.928 110.411ZM378.237 91.3208C384.503 92.5342 389.595 95.9686 393.423 99.7922C397.253 103.618 399.792 107.808 400.952 110.478L401.869 110.08C400.661 107.298 398.052 103.002 394.13 99.0847C390.206 95.1654 384.943 91.6009 378.427 90.339L378.237 91.3208ZM220.674 56.8399L378.225 91.3183L378.439 90.3414L220.888 55.863L220.674 56.8399ZM186.111 63.2936C190.79 57.4252 197.48 55.1047 203.999 54.6067C210.522 54.1083 216.819 55.4417 220.61 56.8213L220.952 55.8816C217.05 54.4617 210.61 53.0987 203.923 53.6096C197.23 54.1209 190.236 56.5154 185.329 62.6702L186.111 63.2936Z" fill="white"/>
</g>
<path d="M194.874 137.4L200.524 137.25C200.657 138.517 200.757 139.85 200.824 141.25C200.924 142.65 200.974 144.033 200.974 145.4C201.007 146.767 201.024 148.083 201.024 149.35V160.95C200.791 161.017 200.391 161.083 199.824 161.15C199.291 161.25 198.757 161.3 198.224 161.3C197.024 161.3 196.157 161.1 195.624 160.7C195.124 160.267 194.874 159.517 194.874 158.45V137.4ZM220.624 154.15L214.924 154.3C214.657 151.733 214.507 149.233 214.474 146.8C214.441 144.333 214.424 141.95 214.424 139.65V130.65C214.724 130.583 215.124 130.5 215.624 130.4C216.157 130.3 216.724 130.25 217.324 130.25C218.491 130.25 219.324 130.467 219.824 130.9C220.357 131.333 220.624 132.067 220.624 133.1V154.15ZM220.624 152.1V148.95V160.2C220.224 160.533 219.691 160.8 219.024 161C218.357 161.233 217.591 161.35 216.724 161.35C215.691 161.35 214.757 161.183 213.924 160.85C213.124 160.517 212.441 159.783 211.874 158.65L204.524 145.5C204.124 144.7 203.691 143.867 203.224 143C202.791 142.133 202.374 141.283 201.974 140.45C201.574 139.617 201.207 138.85 200.874 138.15L194.874 139.55V131.7C195.241 131.233 195.774 130.883 196.474 130.65C197.207 130.417 197.991 130.3 198.824 130.3C199.824 130.3 200.741 130.467 201.574 130.8C202.407 131.133 203.107 131.85 203.674 132.95L211.024 146.1C211.457 146.9 211.891 147.733 212.324 148.6C212.791 149.467 213.207 150.317 213.574 151.15C213.974 151.983 214.324 152.75 214.624 153.45L220.624 152.1ZM232.721 143.7V138.9H242.771C242.905 139.133 243.038 139.467 243.171 139.9C243.338 140.3 243.421 140.767 243.421 141.3C243.421 142.133 243.221 142.75 242.821 143.15C242.455 143.517 241.921 143.7 241.221 143.7H232.721ZM233.671 136.5V142.95H227.771V136.25C227.771 134.15 228.188 132.45 229.021 131.15C229.888 129.817 231.071 128.85 232.571 128.25C234.105 127.617 235.838 127.3 237.771 127.3C239.938 127.3 241.588 127.583 242.721 128.15C243.855 128.717 244.421 129.567 244.421 130.7C244.421 131.2 244.305 131.667 244.071 132.1C243.871 132.5 243.621 132.833 243.321 133.1C242.688 132.833 241.971 132.617 241.171 132.45C240.405 132.283 239.588 132.2 238.721 132.2C236.955 132.2 235.671 132.533 234.871 133.2C234.071 133.867 233.671 134.967 233.671 136.5ZM227.771 141.2H233.921V160.9C233.655 161 233.271 161.083 232.771 161.15C232.271 161.25 231.721 161.3 231.121 161.3C229.988 161.3 229.138 161.1 228.571 160.7C228.038 160.267 227.771 159.517 227.771 158.45V141.2ZM259.206 141.6C257.206 141.6 255.523 142.25 254.156 143.55C252.823 144.85 252.156 146.75 252.156 149.25C252.156 151.717 252.806 153.583 254.106 154.85C255.406 156.117 257.089 156.75 259.156 156.75C260.389 156.75 261.423 156.6 262.256 156.3C263.123 155.967 263.873 155.617 264.506 155.25C265.006 155.55 265.389 155.917 265.656 156.35C265.956 156.75 266.106 157.25 266.106 157.85C266.106 158.983 265.423 159.917 264.056 160.65C262.689 161.35 260.889 161.7 258.656 161.7C256.123 161.7 253.889 161.25 251.956 160.35C250.056 159.417 248.556 158.017 247.456 156.15C246.389 154.283 245.856 151.983 245.856 149.25C245.856 146.417 246.423 144.067 247.556 142.2C248.723 140.333 250.256 138.95 252.156 138.05C254.089 137.117 256.206 136.65 258.506 136.65C260.706 136.65 262.473 137.033 263.806 137.8C265.139 138.567 265.806 139.517 265.806 140.65C265.806 141.15 265.673 141.617 265.406 142.05C265.139 142.483 264.823 142.833 264.456 143.1C263.789 142.7 263.039 142.35 262.206 142.05C261.373 141.75 260.373 141.6 259.206 141.6Z" fill="#FFD736"/>
<path d="M144.626 211.28C144.626 211.584 144.538 211.856 144.362 212.096C144.202 212.32 144.01 212.496 143.786 212.624C143.386 212.352 142.922 212.104 142.394 211.88C141.866 211.656 141.218 211.544 140.45 211.544C139.554 211.544 138.762 211.744 138.074 212.144C137.402 212.528 136.874 213.112 136.49 213.896C136.122 214.664 135.938 215.608 135.938 216.728C135.938 218.424 136.362 219.712 137.21 220.592C138.058 221.456 139.186 221.888 140.594 221.888C141.346 221.888 141.994 221.784 142.538 221.576C143.082 221.368 143.554 221.128 143.954 220.856C144.162 220.984 144.338 221.176 144.482 221.432C144.642 221.672 144.722 221.944 144.722 222.248C144.722 222.52 144.65 222.768 144.506 222.992C144.378 223.216 144.146 223.416 143.81 223.592C143.474 223.784 143.01 223.96 142.418 224.12C141.842 224.28 141.114 224.36 140.234 224.36C138.858 224.36 137.602 224.088 136.466 223.544C135.346 222.984 134.458 222.144 133.802 221.024C133.146 219.888 132.818 218.456 132.818 216.728C132.818 215.048 133.146 213.64 133.802 212.504C134.458 211.368 135.338 210.512 136.442 209.936C137.546 209.344 138.754 209.048 140.066 209.048C140.994 209.048 141.794 209.152 142.466 209.36C143.154 209.568 143.682 209.84 144.05 210.176C144.434 210.512 144.626 210.88 144.626 211.28ZM161.025 216.704C161.025 218.368 160.705 219.768 160.065 220.904C159.441 222.04 158.577 222.904 157.473 223.496C156.385 224.072 155.145 224.36 153.753 224.36C152.377 224.36 151.137 224.072 150.033 223.496C148.945 222.904 148.081 222.04 147.441 220.904C146.817 219.768 146.505 218.368 146.505 216.704C146.505 215.04 146.825 213.64 147.465 212.504C148.121 211.368 148.993 210.512 150.081 209.936C151.185 209.344 152.409 209.048 153.753 209.048C155.129 209.048 156.361 209.344 157.449 209.936C158.553 210.512 159.425 211.368 160.065 212.504C160.705 213.64 161.025 215.04 161.025 216.704ZM157.929 216.704C157.929 215.024 157.545 213.744 156.777 212.864C156.025 211.984 155.017 211.544 153.753 211.544C152.521 211.544 151.521 211.984 150.753 212.864C150.001 213.744 149.625 215.024 149.625 216.704C149.625 218.4 150.001 219.688 150.753 220.568C151.505 221.448 152.513 221.888 153.777 221.888C155.041 221.888 156.049 221.448 156.801 220.568C157.553 219.688 157.929 218.4 157.929 216.704ZM173.059 220.304C172.899 220.432 172.691 220.544 172.435 220.64C172.179 220.72 171.891 220.76 171.571 220.76C171.155 220.76 170.803 220.704 170.515 220.592C170.243 220.48 170.059 220.288 169.963 220.016C169.307 218.416 168.739 217.024 168.259 215.84C167.795 214.64 167.427 213.632 167.155 212.816H167.059C167.011 213.888 166.963 214.88 166.915 215.792C166.867 216.704 166.827 217.592 166.795 218.456C166.763 219.304 166.723 220.176 166.675 221.072C166.643 221.952 166.595 222.912 166.531 223.952C166.371 224 166.171 224.048 165.931 224.096C165.691 224.144 165.443 224.168 165.187 224.168C164.675 224.168 164.283 224.08 164.011 223.904C163.755 223.712 163.627 223.408 163.627 222.992C163.627 222.688 163.643 222.192 163.675 221.504C163.723 220.8 163.771 219.976 163.819 219.032C163.883 218.088 163.947 217.096 164.011 216.056C164.075 215 164.147 213.96 164.227 212.936C164.307 211.896 164.379 210.944 164.443 210.08C164.571 209.92 164.795 209.76 165.115 209.6C165.451 209.424 165.891 209.336 166.435 209.336C167.027 209.336 167.507 209.44 167.875 209.648C168.243 209.856 168.515 210.176 168.691 210.608C168.995 211.28 169.307 212.032 169.627 212.864C169.963 213.696 170.283 214.536 170.587 215.384C170.907 216.216 171.203 216.992 171.475 217.712H171.595C172.139 216.192 172.683 214.72 173.227 213.296C173.787 211.872 174.267 210.672 174.667 209.696C174.859 209.584 175.099 209.496 175.387 209.432C175.691 209.368 176.003 209.336 176.323 209.336C176.883 209.336 177.339 209.424 177.691 209.6C178.043 209.776 178.259 210.04 178.339 210.392C178.403 210.68 178.467 211.152 178.531 211.808C178.611 212.464 178.691 213.232 178.771 214.112C178.851 214.976 178.931 215.888 179.011 216.848C179.091 217.792 179.163 218.72 179.227 219.632C179.291 220.528 179.347 221.344 179.395 222.08C179.459 222.8 179.499 223.376 179.515 223.808C179.307 223.936 179.091 224.024 178.867 224.072C178.643 224.136 178.363 224.168 178.027 224.168C177.611 224.168 177.251 224.088 176.947 223.928C176.659 223.768 176.499 223.456 176.467 222.992C176.387 221.632 176.315 220.32 176.251 219.056C176.187 217.776 176.131 216.608 176.083 215.552C176.051 214.496 176.019 213.608 175.987 212.888H175.867C175.611 213.64 175.251 214.608 174.787 215.792C174.323 216.96 173.747 218.464 173.059 220.304ZM182.829 214.376H185.853V223.952C185.725 224 185.533 224.04 185.277 224.072C185.021 224.12 184.749 224.144 184.461 224.144C183.885 224.144 183.469 224.04 183.213 223.832C182.957 223.608 182.829 223.24 182.829 222.728V214.376ZM185.853 217.88H182.829V209.432C182.957 209.4 183.157 209.36 183.429 209.312C183.701 209.264 183.973 209.24 184.245 209.24C184.805 209.24 185.213 209.344 185.469 209.552C185.725 209.744 185.853 210.112 185.853 210.656V217.88ZM189.602 212.672L192.314 212.6C192.378 213.208 192.426 213.848 192.458 214.52C192.506 215.192 192.53 215.856 192.53 216.512C192.546 217.168 192.554 217.8 192.554 218.408V223.976C192.442 224.008 192.25 224.04 191.978 224.072C191.722 224.12 191.466 224.144 191.21 224.144C190.634 224.144 190.218 224.048 189.962 223.856C189.722 223.648 189.602 223.288 189.602 222.776V212.672ZM201.962 220.712L199.226 220.784C199.098 219.552 199.026 218.352 199.01 217.184C198.994 216 198.986 214.856 198.986 213.752V209.432C199.13 209.4 199.322 209.36 199.562 209.312C199.818 209.264 200.09 209.24 200.378 209.24C200.938 209.24 201.338 209.344 201.578 209.552C201.834 209.76 201.962 210.112 201.962 210.608V220.712ZM201.962 219.728V218.216V223.616C201.77 223.776 201.514 223.904 201.194 224C200.874 224.112 200.506 224.168 200.09 224.168C199.594 224.168 199.146 224.088 198.746 223.928C198.362 223.768 198.034 223.416 197.762 222.872L194.234 216.56C194.042 216.176 193.834 215.776 193.61 215.36C193.402 214.944 193.202 214.536 193.01 214.136C192.818 213.736 192.642 213.368 192.482 213.032L189.602 213.704V209.936C189.778 209.712 190.034 209.544 190.37 209.432C190.722 209.32 191.098 209.264 191.498 209.264C191.978 209.264 192.418 209.344 192.818 209.504C193.218 209.664 193.554 210.008 193.826 210.536L197.354 216.848C197.562 217.232 197.77 217.632 197.978 218.048C198.202 218.464 198.402 218.872 198.578 219.272C198.77 219.672 198.938 220.04 199.082 220.376L201.962 219.728ZM217.992 216.92V222.008C217.992 222.392 217.904 222.696 217.728 222.92C217.568 223.144 217.304 223.352 216.936 223.544C216.52 223.768 215.92 223.96 215.136 224.12C214.368 224.28 213.592 224.36 212.808 224.36C211.288 224.36 209.928 224.096 208.728 223.568C207.544 223.024 206.608 222.192 205.92 221.072C205.232 219.936 204.888 218.488 204.888 216.728C204.888 215.032 205.24 213.616 205.944 212.48C206.648 211.344 207.584 210.488 208.752 209.912C209.936 209.336 211.24 209.048 212.664 209.048C213.624 209.048 214.456 209.152 215.16 209.36C215.88 209.568 216.432 209.84 216.816 210.176C217.216 210.512 217.416 210.88 217.416 211.28C217.416 211.584 217.328 211.856 217.152 212.096C216.992 212.336 216.808 212.52 216.6 212.648C216.168 212.376 215.656 212.128 215.064 211.904C214.472 211.664 213.744 211.544 212.88 211.544C211.952 211.544 211.112 211.744 210.36 212.144C209.624 212.544 209.048 213.136 208.632 213.92C208.216 214.688 208.008 215.624 208.008 216.728C208.008 217.912 208.216 218.888 208.632 219.656C209.048 220.408 209.624 220.968 210.36 221.336C211.096 221.704 211.928 221.888 212.856 221.888C213.32 221.888 213.744 221.848 214.128 221.768C214.528 221.688 214.84 221.592 215.064 221.48V218.072H211.944C211.88 217.96 211.808 217.8 211.728 217.592C211.664 217.368 211.632 217.144 211.632 216.92C211.632 216.488 211.728 216.176 211.92 215.984C212.112 215.776 212.376 215.672 212.712 215.672H216.744C217.112 215.672 217.408 215.784 217.632 216.008C217.872 216.232 217.992 216.536 217.992 216.92ZM230.342 221.888C231.27 221.888 231.958 221.704 232.406 221.336C232.854 220.952 233.078 220.48 233.078 219.92C233.078 219.424 232.902 219.024 232.55 218.72C232.214 218.4 231.694 218.136 230.99 217.928L229.43 217.448C228.63 217.176 227.926 216.872 227.318 216.536C226.726 216.2 226.262 215.768 225.926 215.24C225.606 214.696 225.446 214.032 225.446 213.248C225.446 211.952 225.926 210.928 226.886 210.176C227.862 209.424 229.19 209.048 230.87 209.048C231.766 209.048 232.558 209.144 233.246 209.336C233.95 209.512 234.502 209.76 234.902 210.08C235.318 210.4 235.526 210.776 235.526 211.208C235.526 211.512 235.446 211.784 235.286 212.024C235.142 212.248 234.958 212.432 234.734 212.576C234.366 212.304 233.862 212.072 233.222 211.88C232.582 211.672 231.886 211.568 231.134 211.568C230.302 211.568 229.662 211.72 229.214 212.024C228.766 212.328 228.542 212.736 228.542 213.248C228.542 213.664 228.694 214 228.998 214.256C229.318 214.512 229.798 214.736 230.438 214.928L231.83 215.336C233.206 215.752 234.278 216.32 235.046 217.04C235.814 217.744 236.198 218.712 236.198 219.944C236.198 221.256 235.694 222.32 234.686 223.136C233.694 223.952 232.27 224.36 230.414 224.36C229.438 224.36 228.574 224.256 227.822 224.048C227.07 223.84 226.47 223.552 226.022 223.184C225.59 222.816 225.374 222.4 225.374 221.936C225.374 221.584 225.486 221.28 225.71 221.024C225.934 220.768 226.174 220.576 226.43 220.448C226.846 220.8 227.382 221.128 228.038 221.432C228.694 221.736 229.462 221.888 230.342 221.888ZM252.854 216.704C252.854 218.368 252.534 219.768 251.894 220.904C251.27 222.04 250.406 222.904 249.302 223.496C248.214 224.072 246.974 224.36 245.582 224.36C244.206 224.36 242.966 224.072 241.862 223.496C240.774 222.904 239.91 222.04 239.27 220.904C238.646 219.768 238.334 218.368 238.334 216.704C238.334 215.04 238.654 213.64 239.294 212.504C239.95 211.368 240.822 210.512 241.91 209.936C243.014 209.344 244.238 209.048 245.582 209.048C246.958 209.048 248.19 209.344 249.278 209.936C250.382 210.512 251.254 211.368 251.894 212.504C252.534 213.64 252.854 215.04 252.854 216.704ZM249.758 216.704C249.758 215.024 249.374 213.744 248.606 212.864C247.854 211.984 246.846 211.544 245.582 211.544C244.35 211.544 243.35 211.984 242.582 212.864C241.83 213.744 241.454 215.024 241.454 216.704C241.454 218.4 241.83 219.688 242.582 220.568C243.334 221.448 244.342 221.888 245.606 221.888C246.87 221.888 247.878 221.448 248.63 220.568C249.382 219.688 249.758 218.4 249.758 216.704ZM269.564 216.704C269.564 218.368 269.244 219.768 268.604 220.904C267.98 222.04 267.116 222.904 266.012 223.496C264.924 224.072 263.684 224.36 262.292 224.36C260.916 224.36 259.676 224.072 258.572 223.496C257.484 222.904 256.62 222.04 255.98 220.904C255.356 219.768 255.044 218.368 255.044 216.704C255.044 215.04 255.364 213.64 256.004 212.504C256.66 211.368 257.532 210.512 258.62 209.936C259.724 209.344 260.948 209.048 262.292 209.048C263.668 209.048 264.9 209.344 265.988 209.936C267.092 210.512 267.964 211.368 268.604 212.504C269.244 213.64 269.564 215.04 269.564 216.704ZM266.468 216.704C266.468 215.024 266.084 213.744 265.316 212.864C264.564 211.984 263.556 211.544 262.292 211.544C261.06 211.544 260.06 211.984 259.292 212.864C258.54 213.744 258.164 215.024 258.164 216.704C258.164 218.4 258.54 219.688 259.292 220.568C260.044 221.448 261.052 221.888 262.316 221.888C263.58 221.888 264.588 221.448 265.34 220.568C266.092 219.688 266.468 218.4 266.468 216.704ZM272.523 212.672L275.235 212.6C275.299 213.208 275.347 213.848 275.379 214.52C275.427 215.192 275.451 215.856 275.451 216.512C275.467 217.168 275.475 217.8 275.475 218.408V223.976C275.363 224.008 275.171 224.04 274.899 224.072C274.643 224.12 274.387 224.144 274.131 224.144C273.555 224.144 273.139 224.048 272.883 223.856C272.643 223.648 272.523 223.288 272.523 222.776V212.672ZM284.883 220.712L282.147 220.784C282.019 219.552 281.947 218.352 281.931 217.184C281.915 216 281.907 214.856 281.907 213.752V209.432C282.051 209.4 282.243 209.36 282.483 209.312C282.739 209.264 283.011 209.24 283.299 209.24C283.859 209.24 284.259 209.344 284.499 209.552C284.755 209.76 284.883 210.112 284.883 210.608V220.712ZM284.883 219.728V218.216V223.616C284.691 223.776 284.435 223.904 284.115 224C283.795 224.112 283.427 224.168 283.011 224.168C282.515 224.168 282.067 224.088 281.667 223.928C281.283 223.768 280.955 223.416 280.683 222.872L277.155 216.56C276.963 216.176 276.755 215.776 276.531 215.36C276.323 214.944 276.123 214.536 275.931 214.136C275.739 213.736 275.563 213.368 275.403 213.032L272.523 213.704V209.936C272.699 209.712 272.955 209.544 273.291 209.432C273.643 209.32 274.019 209.264 274.419 209.264C274.899 209.264 275.339 209.344 275.739 209.504C276.139 209.664 276.475 210.008 276.747 210.536L280.275 216.848C280.483 217.232 280.691 217.632 280.899 218.048C281.123 218.464 281.323 218.872 281.499 219.272C281.691 219.672 281.859 220.04 282.003 220.376L284.883 219.728ZM287.186 222.536C287.186 222.024 287.346 221.592 287.666 221.24C287.986 220.888 288.426 220.712 288.986 220.712C289.546 220.712 289.986 220.888 290.306 221.24C290.626 221.592 290.786 222.024 290.786 222.536C290.786 223.048 290.626 223.48 290.306 223.832C289.986 224.184 289.546 224.36 288.986 224.36C288.426 224.36 287.986 224.184 287.666 223.832C287.346 223.48 287.186 223.048 287.186 222.536ZM291.991 222.536C291.991 222.024 292.151 221.592 292.471 221.24C292.791 220.888 293.231 220.712 293.791 220.712C294.351 220.712 294.791 220.888 295.111 221.24C295.431 221.592 295.591 222.024 295.591 222.536C295.591 223.048 295.431 223.48 295.111 223.832C294.791 224.184 294.351 224.36 293.791 224.36C293.231 224.36 292.791 224.184 292.471 223.832C292.151 223.48 291.991 223.048 291.991 222.536ZM296.795 222.536C296.795 222.024 296.955 221.592 297.275 221.24C297.595 220.888 298.035 220.712 298.595 220.712C299.155 220.712 299.595 220.888 299.915 221.24C300.235 221.592 300.395 222.024 300.395 222.536C300.395 223.048 300.235 223.48 299.915 223.832C299.595 224.184 299.155 224.36 298.595 224.36C298.035 224.36 297.595 224.184 297.275 223.832C296.955 223.48 296.795 223.048 296.795 222.536Z" fill="white"/>
<path d="M405.601 211.377C411.519 217.896 412.053 225.817 412.053 235.317H357.61C357.61 225.817 358.144 217.896 364.063 211.377C369.981 204.858 374.742 202.611 377.167 200.253C378.085 199.644 378.838 198.817 379.359 197.847C379.88 196.876 380.152 195.792 380.152 194.69C380.152 193.589 379.88 192.505 379.359 191.534C378.838 190.564 378.085 189.737 377.167 189.128C374.742 186.77 369.959 184.5 364.063 178.004C358.167 171.507 357.61 163.564 357.61 154.064H412.053C412.053 163.564 411.519 171.507 405.601 178.004C399.683 184.5 394.922 186.77 392.497 189.128C391.579 189.737 390.826 190.564 390.305 191.534C389.784 192.505 389.512 193.589 389.512 194.69C389.512 195.792 389.784 196.876 390.305 197.847C390.826 198.817 391.579 199.644 392.497 200.253C393.809 201.521 395.834 202.789 398.326 204.702C400.948 206.702 403.384 208.936 405.601 211.377Z" fill="#FFD736"/>
<path opacity="0.6" d="M405.601 211.377C411.519 217.896 412.053 225.817 412.053 235.317H357.61C357.61 225.817 358.144 217.896 364.063 211.377C369.981 204.858 374.742 202.611 377.167 200.253C378.085 199.644 378.838 198.817 379.359 197.847C379.88 196.876 380.152 195.792 380.152 194.69C380.152 193.589 379.88 192.505 379.359 191.534C378.838 190.564 378.085 189.737 377.167 189.128C374.742 186.77 369.959 184.5 364.063 178.004C358.167 171.507 357.61 163.564 357.61 154.064H412.053C412.053 163.564 411.519 171.507 405.601 178.004C399.683 184.5 394.922 186.77 392.497 189.128C391.579 189.737 390.826 190.564 390.305 191.534C389.784 192.505 389.512 193.589 389.512 194.69C389.512 195.792 389.784 196.876 390.305 197.847C390.826 198.817 391.579 199.644 392.497 200.253C393.809 201.521 395.834 202.789 398.326 204.702C400.948 206.702 403.384 208.936 405.601 211.377Z" fill="white"/>
<path opacity="0.5" d="M359.146 234.204C358.998 234.204 358.857 234.146 358.752 234.041C358.648 233.937 358.589 233.796 358.589 233.648C358.589 225.661 359.168 218.074 364.797 211.755C367.692 208.586 370.939 205.757 374.475 203.323C375.67 202.521 376.807 201.636 377.879 200.675C378.875 199.983 379.689 199.06 380.251 197.984C380.812 196.909 381.106 195.714 381.106 194.501C381.106 193.288 380.812 192.093 380.251 191.018C379.689 189.943 378.875 189.02 377.879 188.327C376.811 187.372 375.681 186.487 374.497 185.68C370.955 183.237 367.701 180.4 364.797 177.225C359.168 171.018 358.656 163.342 358.589 155.354C358.589 155.207 358.648 155.065 358.752 154.961C358.857 154.857 358.998 154.798 359.146 154.798C359.287 154.798 359.423 154.854 359.523 154.954C359.623 155.055 359.68 155.19 359.68 155.332C359.68 163.119 360.236 170.573 365.598 176.513C368.448 179.618 371.642 182.387 375.12 184.767C376.323 185.617 377.468 186.546 378.547 187.548C379.641 188.348 380.531 189.394 381.144 190.602C381.758 191.81 382.078 193.146 382.078 194.501C382.078 195.856 381.758 197.192 381.144 198.4C380.531 199.608 379.641 200.655 378.547 201.454C377.44 202.453 376.265 203.375 375.031 204.213C371.549 206.595 368.353 209.373 365.509 212.489C360.147 218.408 359.657 225.839 359.591 233.648C359.593 233.778 359.55 233.905 359.469 234.007C359.387 234.108 359.273 234.178 359.146 234.204Z" fill="white"/>
<path d="M403.199 213.424C407.648 218.297 408.583 224.548 408.739 231.735H361.082C361.237 224.437 362.016 218.252 366.622 213.424C371.227 208.596 376.901 206.482 384.91 206.482C388.267 206.367 391.613 206.922 394.753 208.114C397.893 209.306 400.764 211.111 403.199 213.424Z" fill="#FAFAFA"/>
<path d="M408.515 161.695C408.349 166.788 406.476 171.677 403.198 175.579C400.415 178.616 397.295 181.325 393.898 183.655C392.609 184.541 391.382 185.515 390.227 186.57C389.06 187.548 388.106 188.756 387.425 190.119C386.743 191.481 386.349 192.969 386.266 194.49C386.266 197.16 385.821 197.85 384.909 197.85C383.997 197.85 383.552 197.227 383.552 194.49C383.469 192.969 383.075 191.481 382.394 190.119C381.713 188.756 380.759 187.548 379.592 186.57C378.444 185.515 377.225 184.541 375.943 183.655C372.534 181.332 369.406 178.622 366.621 175.579C365.599 174.451 364.717 173.203 363.995 171.863C363.946 171.765 363.926 171.655 363.937 171.546C363.948 171.437 363.99 171.333 364.057 171.247C364.125 171.161 364.216 171.096 364.319 171.059C364.422 171.022 364.534 171.016 364.641 171.04C368.937 172.064 373.357 172.469 377.767 172.241C386.533 171.707 390.472 170.239 395.967 165.567C399.26 162.808 401.752 158.892 403.954 158.047C404.502 157.744 405.127 157.611 405.75 157.664C406.374 157.717 406.967 157.954 407.456 158.345C407.944 158.736 408.306 159.263 408.494 159.859C408.683 160.456 408.69 161.095 408.515 161.695Z" fill="#FAFAFA"/>
<path d="M384.91 203.367C385.807 203.367 386.534 202.64 386.534 201.743C386.534 200.846 385.807 200.119 384.91 200.119C384.013 200.119 383.286 200.846 383.286 201.743C383.286 202.64 384.013 203.367 384.91 203.367Z" fill="#FAFAFA"/>
<path opacity="0.3" d="M398.326 204.702C400.949 206.702 403.384 208.936 405.602 211.377C411.52 217.896 412.054 225.817 412.054 235.317H363.863C371.138 235.317 391.496 231.913 398.771 224.793C406.469 217.206 402.687 210.776 398.326 204.702Z" fill="#FFD736"/>
<path opacity="0.3" d="M412.053 154.131C412.053 163.631 411.519 171.574 405.601 178.07C399.683 184.567 394.922 186.836 392.497 189.195C391.579 189.804 390.826 190.63 390.305 191.601C389.784 192.571 389.511 193.656 389.511 194.757C389.511 195.859 389.784 196.943 390.305 197.913C390.826 198.884 391.579 199.71 392.497 200.319C384.509 195.469 385.822 190.597 387.29 187.348C388.759 184.1 398.726 177.959 398.17 168.971C397.614 159.982 383.619 154.197 370.314 154.197L412.053 154.131Z" fill="#FFD736"/>
<path d="M416.97 146.833C416.97 148.114 416.461 149.342 415.556 150.247C414.651 151.153 413.423 151.661 412.142 151.661H357.699C356.419 151.661 355.191 151.153 354.285 150.247C353.38 149.342 352.871 148.114 352.871 146.833H416.97Z" fill="#FFD736"/>
<path opacity="0.2" d="M394.944 146.833C394.938 148.116 394.424 149.344 393.515 150.249C392.606 151.153 391.376 151.661 390.093 151.661H357.699C356.419 151.661 355.191 151.153 354.285 150.247C353.38 149.342 352.871 148.114 352.871 146.833H394.944Z" fill="white"/>
<path d="M420.821 140.848V142.717C420.821 143.809 420.387 144.856 419.615 145.627C418.843 146.399 417.796 146.833 416.704 146.833H353.184C352.092 146.833 351.045 146.399 350.273 145.627C349.502 144.856 349.068 143.809 349.068 142.717V140.848C349.074 140.622 349.168 140.407 349.33 140.249C349.492 140.091 349.709 140.003 349.936 140.003H419.908C420.025 139.993 420.142 140.008 420.252 140.047C420.363 140.085 420.464 140.146 420.55 140.225C420.636 140.305 420.704 140.401 420.75 140.508C420.797 140.616 420.821 140.731 420.821 140.848Z" fill="#FFD736"/>
<path opacity="0.15" d="M420.686 140.848V142.717C420.686 143.809 420.252 144.856 419.48 145.628C418.708 146.4 417.662 146.833 416.57 146.833H353.116C352.024 146.833 350.977 146.4 350.206 145.628C349.434 144.856 349 143.809 349 142.717V140.848C349 140.624 349.089 140.409 349.248 140.251C349.406 140.092 349.621 140.003 349.845 140.003H419.818C420.045 140.003 420.262 140.091 420.424 140.249C420.586 140.407 420.68 140.622 420.686 140.848Z" fill="black"/>
<path d="M402.51 140.848V142.717C402.51 143.809 402.076 144.856 401.304 145.628C400.532 146.399 399.485 146.833 398.394 146.833H353.184C352.092 146.833 351.045 146.399 350.273 145.628C349.502 144.856 349.068 143.809 349.068 142.717V140.848C349.074 140.622 349.168 140.407 349.33 140.249C349.492 140.091 349.709 140.003 349.936 140.003H401.664C401.888 140.003 402.104 140.092 402.262 140.25C402.421 140.409 402.51 140.624 402.51 140.848Z" fill="#FFD736"/>
<path opacity="0.2" d="M359.969 146.833C359.171 145.874 358.734 144.666 358.734 143.418C358.734 142.17 359.171 140.962 359.969 140.003H374.542C375.353 140.956 375.798 142.167 375.798 143.418C375.798 144.669 375.353 145.88 374.542 146.833H359.969Z" fill="white"/>
<path opacity="0.2" d="M362.438 151.661C361.902 150.971 361.611 150.121 361.611 149.247C361.611 148.373 361.902 147.524 362.438 146.833H372.094C372.63 147.524 372.921 148.373 372.921 149.247C372.921 150.121 372.63 150.971 372.094 151.661H362.438Z" fill="white"/>
<path d="M352.871 242.147C352.871 240.867 353.38 239.639 354.285 238.733C355.191 237.828 356.419 237.319 357.699 237.319H412.142C413.423 237.319 414.651 237.828 415.556 238.733C416.461 239.639 416.97 240.867 416.97 242.147H352.871Z" fill="#FFD736"/>
<path opacity="0.2" d="M374.898 242.147C374.898 240.867 375.407 239.639 376.312 238.733C377.217 237.828 378.445 237.319 379.726 237.319H412.143C413.423 237.319 414.651 237.828 415.556 238.733C416.462 239.639 416.971 240.867 416.971 242.147H374.898Z" fill="white"/>
<path d="M349.068 248.132V246.264C349.068 245.172 349.502 244.125 350.273 243.353C351.045 242.581 352.092 242.147 353.184 242.147H416.638C417.729 242.147 418.776 242.581 419.548 243.353C420.32 244.125 420.754 245.172 420.754 246.264V248.132C420.757 248.245 420.737 248.358 420.696 248.463C420.655 248.568 420.593 248.664 420.514 248.745C420.435 248.826 420.341 248.89 420.237 248.934C420.133 248.978 420.021 249 419.908 249H349.936C349.705 249 349.485 248.909 349.322 248.746C349.159 248.583 349.068 248.363 349.068 248.132Z" fill="#FFD736"/>
<path opacity="0.15" d="M349.068 248.132V246.264C349.068 245.172 349.502 244.125 350.273 243.353C351.045 242.581 352.092 242.147 353.184 242.147H416.638C417.729 242.147 418.776 242.581 419.548 243.353C420.32 244.125 420.754 245.172 420.754 246.264V248.132C420.757 248.245 420.737 248.358 420.696 248.463C420.655 248.568 420.593 248.664 420.514 248.745C420.435 248.826 420.341 248.89 420.237 248.934C420.133 248.978 420.021 249 419.908 249H349.936C349.705 249 349.485 248.909 349.322 248.746C349.159 248.583 349.068 248.363 349.068 248.132Z" fill="black"/>
<path d="M367.423 248.132V246.264C367.423 245.172 367.856 244.125 368.628 243.353C369.4 242.581 370.447 242.147 371.539 242.147H416.749C417.84 242.147 418.887 242.581 419.659 243.353C420.431 244.125 420.865 245.172 420.865 246.264V248.132C420.868 248.245 420.848 248.358 420.807 248.463C420.766 248.568 420.704 248.664 420.625 248.745C420.546 248.826 420.452 248.89 420.348 248.934C420.244 248.978 420.132 249 420.019 249H368.179C367.967 248.978 367.771 248.876 367.631 248.715C367.49 248.554 367.416 248.346 367.423 248.132Z" fill="#FFD736"/>
<path opacity="0.2" d="M409.851 242.147C410.659 243.106 411.102 244.32 411.102 245.574C411.102 246.828 410.659 248.041 409.851 249H395.278C394.478 248.037 394.04 246.825 394.04 245.574C394.04 244.322 394.478 243.11 395.278 242.147H409.851Z" fill="white"/>
<path opacity="0.2" d="M407.471 237.319C408.007 238.01 408.297 238.859 408.297 239.733C408.297 240.607 408.007 241.457 407.471 242.147H397.792C397.26 241.455 396.972 240.606 396.972 239.733C396.972 238.86 397.26 238.012 397.792 237.319H407.471Z" fill="white"/>
<defs>
<filter id="filter0_d_32561_123085" x="0.500488" y="0.5" width="499.773" height="288" filterUnits="userSpaceOnUse" color-interpolation-filters="sRGB">
<feFlood flood-opacity="0" result="BackgroundImageFix"/>
<feColorMatrix in="SourceAlpha" type="matrix" values="0 0 0 0 0 0 0 0 0 0 0 0 0 0 0 0 0 0 127 0" result="hardAlpha"/>
<feOffset dy="-1"/>
<feGaussianBlur stdDeviation="5"/>
<feComposite in2="hardAlpha" operator="out"/>
<feColorMatrix type="matrix" values="0 0 0 0 0 0 0 0 0 0 0 0 0 0 0 0 0 0 0.25 0"/>
<feBlend mode="normal" in2="BackgroundImageFix" result="effect1_dropShadow_32561_123085"/>
<feBlend mode="normal" in="SourceGraphic" in2="effect1_dropShadow_32561_123085" result="shape"/>
</filter>
<filter id="filter1_d_32561_123085" x="42.5005" y="42.5" width="415.657" height="246" filterUnits="userSpaceOnUse" color-interpolation-filters="sRGB">
<feFlood flood-opacity="0" result="BackgroundImageFix"/>
<feColorMatrix in="SourceAlpha" type="matrix" values="0 0 0 0 0 0 0 0 0 0 0 0 0 0 0 0 0 0 127 0" result="hardAlpha"/>
<feOffset dy="-1"/>
<feGaussianBlur stdDeviation="5"/>
<feComposite in2="hardAlpha" operator="out"/>
<feColorMatrix type="matrix" values="0 0 0 0 0 0 0 0 0 0 0 0 0 0 0 0 0 0 0.25 0"/>
<feBlend mode="normal" in2="BackgroundImageFix" result="effect1_dropShadow_32561_123085"/>
<feBlend mode="normal" in="SourceGraphic" in2="effect1_dropShadow_32561_123085" result="shape"/>
</filter>
</defs>
</svg>
