<svg width="309" height="272" viewBox="0 0 309 272" fill="none" xmlns="http://www.w3.org/2000/svg">
<path d="M19.6008 165.522L176.071 9.05197C176.071 -0.258665 162.278 0.862059 155.382 2.58625C122.622 17.2419 57.1019 47.0704 57.1019 49.1395C-21.5212 75.0023 -0.658499 137.504 19.6008 165.522Z" fill="#D9D9D9" stroke="#D9D9D9"/>
<path d="M19.6667 166.815L176.694 10.9027C186.004 10.9358 184.834 24.7248 183.086 31.6151C168.313 64.3226 138.252 129.736 136.183 129.728C110.04 208.259 47.6125 187.174 19.6667 166.815Z" fill="#D9D9D9" stroke="#D9D9D9"/>
<ellipse cx="169.607" cy="15.5177" rx="15.5177" ry="15.5177" fill="#D9D9D9"/>
<circle cx="59.4572" cy="122.229" r="42.5143" fill="#E53D3D"/>
<circle cx="156.443" cy="25.2428" r="14.6143" fill="white"/>
<rect x="129.512" y="22.519" width="36" height="78.5731" transform="rotate(39.0603 129.512 22.519)" fill="#D9D9D9"/>
<path d="M289.458 258.118L180.867 141.734C174.173 141.502 174.635 151.446 175.703 156.447C185.423 180.363 205.236 228.209 206.723 228.26C223.359 285.427 268.811 271.985 289.458 258.118Z" fill="#D9D9D9" stroke="#D9D9D9"/>
<path d="M290.389 258.103L182.213 141.333C182.469 134.64 192.352 135.825 197.262 137.253C220.408 148.688 266.686 171.928 266.629 173.415C322.434 194.165 305.721 238.519 290.389 258.103Z" fill="#D9D9D9" stroke="#D9D9D9"/>
<ellipse cx="185.354" cy="146.542" rx="11.1625" ry="11.1625" transform="rotate(-88.0163 185.354 146.542)" fill="#D9D9D9"/>
<circle cx="259.327" cy="228.387" r="30.5821" transform="rotate(-88.0163 259.327 228.387)" fill="#FFD255"/>
<circle cx="192.017" cy="156.248" r="10.5126" transform="rotate(-88.0163 192.017 156.248)" fill="white"/>
<rect x="200.703" y="162.384" width="39.0011" height="42.3203" fill="#D9D9D9"/>
</svg>
