<svg width="156" height="319" viewBox="0 0 156 319" fill="none" xmlns="http://www.w3.org/2000/svg">
<path d="M131.963 319L23.595 318.942C17.3357 318.938 11.3342 316.448 6.90981 312.021C2.48537 307.593 -1.54014e-06 301.59 0 295.331L0.057979 23.6033C0.0579782 20.5022 0.669027 17.4316 1.85624 14.5669C3.04345 11.7021 4.78354 9.09936 6.97706 6.90738C9.17058 4.7154 11.7745 2.97714 14.6401 1.79194C17.5057 0.606739 20.5768 -0.00217034 23.6778 5.81237e-06L132.046 0.099387C138.305 0.103778 144.306 2.59335 148.731 7.0209C153.155 11.4484 155.641 17.4516 155.641 23.7109L155.591 295.405C155.589 298.506 154.976 301.576 153.787 304.44C152.599 307.303 150.858 309.905 148.664 312.096C146.47 314.287 143.865 316.024 141 317.209C138.134 318.394 135.064 319.002 131.963 319Z" fill="#263238"/>
<path d="M131.93 9.70631H110.919C109.536 9.7389 108.222 10.3187 107.266 11.3185C106.309 12.3183 105.788 13.6566 105.817 15.0398V18.8495C105.833 19.5347 105.713 20.2162 105.465 20.8552C105.217 21.4941 104.845 22.0779 104.372 22.5732C103.898 23.0685 103.331 23.4656 102.704 23.7418C102.077 24.018 101.401 24.1679 100.716 24.183H59.7621C59.0768 24.1679 58.4013 24.018 57.774 23.7418C57.1467 23.4656 56.58 23.0685 56.1062 22.5732C55.6325 22.0779 55.261 21.4941 55.0129 20.8552C54.7648 20.2162 54.645 19.5347 54.6604 18.8495V14.9901C54.6893 13.6069 54.1685 12.2686 53.2122 11.2688C52.2558 10.269 50.942 9.6892 49.5588 9.65662H42.1631H23.7774C19.3845 9.65662 15.1714 11.4017 12.0652 14.508C8.95886 17.6143 7.21375 21.8273 7.21375 26.2203L7.16406 291.413C7.16405 295.799 8.90346 300.006 12.0008 303.111C15.0982 306.216 19.3006 307.966 23.6863 307.977L131.847 308.035C136.24 308.035 140.453 306.29 143.559 303.183C146.666 300.077 148.411 295.864 148.411 291.471L148.469 26.2783C148.471 21.8882 146.73 17.6768 143.629 14.5694C140.528 11.462 136.32 9.71289 131.93 9.70631Z" fill="white"/>
<path d="M148.461 26.2451C148.461 21.8522 146.716 17.6391 143.61 14.5329C140.504 11.4266 136.291 9.68146 131.898 9.68146H110.887C109.504 9.71405 108.19 10.2938 107.233 11.2936C106.277 12.2935 105.756 13.6317 105.785 15.015V18.8246C105.801 19.5098 105.681 20.1914 105.433 20.8303C105.185 21.4692 104.813 22.053 104.339 22.5483C103.866 23.0436 103.299 23.4407 102.672 23.7169C102.044 23.9931 101.369 24.1431 100.684 24.1581H59.7298C59.0446 24.1431 58.369 23.9931 57.7418 23.7169C57.1145 23.4407 56.5478 23.0436 56.074 22.5483C55.6003 22.053 55.2287 21.4692 54.9806 20.8303C54.7326 20.1914 54.6128 19.5098 54.6282 18.8246V14.9901C54.6571 13.6069 54.1362 12.2686 53.1799 11.2688C52.2235 10.269 50.9097 9.6892 49.5266 9.65662H42.1309H23.7452C19.3522 9.65662 15.1392 11.4017 12.0329 14.508C8.92661 17.6143 7.18152 21.8273 7.18152 26.2203L7.13184 51.5793H148.453L148.461 26.2451Z" fill="#F5F5F5"/>
<path d="M136.964 35.5622C136.964 35.6367 134.43 35.7278 131.308 35.7527C129.422 35.8175 127.534 35.7844 125.651 35.6533C129.418 35.4297 133.194 35.3993 136.964 35.5622Z" fill="#263238"/>
<path d="M137.015 38.4527C135.137 38.6148 133.251 38.6783 131.366 38.6431C129.481 38.708 127.592 38.6748 125.71 38.5438C125.71 38.4692 128.236 38.3864 131.366 38.3533C134.497 38.3201 137.015 38.3781 137.015 38.4527Z" fill="#263238"/>
<path d="M137.015 41.3512C137.015 41.4258 134.489 41.5086 131.366 41.5334C129.481 41.5983 127.593 41.5679 125.71 41.4423C129.474 41.2187 133.247 41.1883 137.015 41.3512Z" fill="#263238"/>
<path d="M30.2969 170.893V176.02H35.4233V170.893V165.758H30.2969V170.893Z" fill="#B9B9C3"/>
<path d="M35.4233 140.126H30.2969V145.253H35.4233V140.126Z" fill="#B9B9C3"/>
<path d="M67.1079 196.575H61.9814V201.702H67.1079V196.575Z" fill="#B9B9C3"/>
<path d="M35.4233 150.379V155.506H30.2969V160.632H35.4233V165.758H40.5498H45.6845V170.893H50.811V165.758H55.9375V160.632V155.506H50.811V160.632H45.6845H40.5498V155.506V150.379V145.253H35.4233V150.379Z" fill="#B9B9C3"/>
<path d="M45.6846 140.126H40.5498V145.253H45.6846H50.811V140.126H45.6846Z" fill="#B9B9C3"/>
<path d="M68.7569 181.345H71.5064V176.218H68.7569H65.999V181.345H68.7569Z" fill="#B9B9C3"/>
<path d="M55.936 145.253H50.8096V150.379H55.936V145.253Z" fill="#B9B9C3"/>
<path d="M91.8296 165.758H86.7031V170.885H91.8296V165.758Z" fill="#B9B9C3"/>
<path d="M96.9556 109.359H91.8291V114.486H96.9556V109.359Z" fill="#B9B9C3"/>
<path d="M66.1904 150.379V145.253H71.3169V140.126H66.1904V135H61.064V140.126H55.9375V145.253H61.064V150.379V155.506V160.632V165.758H66.1904V160.632V155.506H71.3169V150.379H66.1904Z" fill="#263238"/>
<path d="M91.8296 201.652H96.956V196.526H91.8296H86.7031V201.652H91.8296Z" fill="#B9B9C3"/>
<path d="M86.7046 109.359H81.5781V114.486H86.7046V109.359Z" fill="#B9B9C3"/>
<path d="M85.4185 150.379V145.253H80.292V140.126H75.1655V145.253V150.379H70.0391V155.506H75.1655H80.292V150.379H85.4185Z" fill="#B9B9C3"/>
<path d="M114.357 140.126H109.23V145.253H114.357V140.126Z" fill="#B9B9C3"/>
<path d="M61.2114 165.759H56.085V170.885H61.2114V165.759Z" fill="#B9B9C3"/>
<path d="M81.5776 135V129.873H86.7041V124.739H91.8305H96.957V119.612H91.8305V114.486H86.7041V119.612H81.5776V124.739H76.4428V129.873H71.3164V135H76.4428H81.5776Z" fill="#B9B9C3"/>
<path d="M81.5776 170.893V165.758H86.7041V160.632H81.5776H76.4428V165.758H71.3164V170.893H76.4428H81.5776Z" fill="#B9B9C3"/>
<path d="M96.9575 191.399V186.264H91.831H86.7045V181.138H81.5781V186.264H76.4433V191.399H71.3169H66.1904V196.526H71.3169H76.4433H81.5781V191.399H86.7045V196.526H91.831V191.399H96.9575Z" fill="#263238"/>
<path d="M76.4419 114.486V109.359H71.3154H66.189V114.486H61.0625V119.612H66.189H71.3154V114.486H76.4419Z" fill="#B9B9C3"/>
<path d="M76.4428 119.612H71.3164V124.738H76.4428V119.612Z" fill="#B9B9C3"/>
<path d="M89.2612 140.126H84.1348V145.253V150.379V155.506H89.2612H94.3877V150.379H89.2612V145.253H94.3877V140.126H99.5142V135H94.3877V129.873H89.2612V135V140.126Z" fill="#263238"/>
<path d="M71.3169 124.739H66.1904V129.865H71.3169V124.739Z" fill="#B9B9C3"/>
<path d="M86.7031 176.02V181.146H91.8296H96.956V176.02H102.083H107.209V170.893H102.083H96.956H91.8296V176.02H86.7031Z" fill="#B9B9C3"/>
<path d="M114.357 155.505H109.23V160.632H114.357V155.505Z" fill="#B9B9C3"/>
<path d="M96.9556 160.632H91.8291V165.758H96.9556V160.632Z" fill="#B9B9C3"/>
<path d="M109.777 145.253H104.65H99.5156V150.379H104.65V155.506H109.777V150.379V145.253Z" fill="#B9B9C3"/>
<path d="M107.208 160.632H102.082V165.758H107.208V160.632Z" fill="#B9B9C3"/>
<path d="M50.8096 191.498H66.1972V170.885H45.5837V176.02H40.5566V181.146H45.5837V186.273H40.5566V191.399H45.5837V191.498H45.6831V196.526H40.5566V206.778H45.6831V201.635H50.8096V191.498ZM62.2468 174.827V187.647H49.4265V174.827H62.2468Z" fill="#B9B9C3"/>
<path d="M117.463 170.893H122.589V165.759H117.463H112.336H107.21V170.893H112.336H117.463Z" fill="#B9B9C3"/>
<path d="M117.463 150.379H122.589V145.253V140.126H117.463V145.253V150.379Z" fill="#B9B9C3"/>
<path d="M76.6416 176.218H71.5068V181.345V186.471H76.6416V181.345V176.218Z" fill="#B9B9C3"/>
<path d="M127.716 170.893H122.59V176.02H127.716V170.893Z" fill="#B9B9C3"/>
<path d="M127.725 160.632V155.505H122.59V160.632V165.758H127.725V160.632Z" fill="#B9B9C3"/>
<path d="M35.4233 196.526H30.2969V201.652V206.778H35.4233V201.652V196.526Z" fill="#B9B9C3"/>
<path d="M127.723 135V109.326H102.049V135H127.723ZM105.925 131.149V113.202H123.871V131.149H105.925Z" fill="#B9B9C3"/>
<path d="M120.03 117.053H109.777V127.306H120.03V117.053Z" fill="#B9B9C3"/>
<path d="M127.723 181.146H102.049V206.778H127.723V181.146ZM105.925 202.936V184.989H123.871V202.936H105.925Z" fill="#B9B9C3"/>
<path d="M120.03 188.832H109.777V199.085H120.03V188.832Z" fill="#B9B9C3"/>
<path d="M30.2383 109.359V135.033H55.854V109.359H30.2383ZM52.0278 113.202V131.149H34.081V113.202H52.0278Z" fill="#B9B9C3"/>
<path d="M48.1758 117.053H37.9229V127.306H48.1758V117.053Z" fill="#B9B9C3"/>
</svg>
