<svg width="157" height="320" viewBox="0 0 157 320" fill="none" xmlns="http://www.w3.org/2000/svg">
<path d="M132.377 320L23.6689 319.942C17.39 319.937 11.3698 317.44 6.93147 312.999C2.49316 308.557 -1.54497e-06 302.535 0 296.256L0.0581607 23.6772C0.0581599 20.5665 0.671124 17.4863 1.86206 14.6125C3.05299 11.7388 4.79854 9.12788 6.99893 6.92903C9.19933 4.73018 11.8114 2.98647 14.686 1.79756C17.5606 0.608641 20.6413 -0.00217714 23.752 5.83059e-06L132.46 0.0996986C138.739 0.104103 144.759 2.60148 149.197 7.04291C153.635 11.4843 156.129 17.5063 156.129 23.7852L156.079 296.331C156.077 299.441 155.462 302.521 154.269 305.394C153.077 308.267 151.331 310.877 149.13 313.074C146.929 315.272 144.316 317.015 141.442 318.203C138.567 319.392 135.487 320.002 132.377 320Z" fill="#263238"/>
<path d="M132.344 9.73674H111.267C109.879 9.76943 108.561 10.351 107.602 11.354C106.643 12.3569 106.12 13.6994 106.149 15.087V18.9086C106.165 19.5959 106.044 20.2796 105.796 20.9205C105.547 21.5615 105.174 22.1471 104.699 22.6439C104.224 23.1408 103.655 23.5391 103.026 23.8162C102.397 24.0933 101.719 24.2437 101.032 24.2588H59.9494C59.262 24.2437 58.5843 24.0933 57.9551 23.8162C57.3259 23.5391 56.7574 23.1408 56.2821 22.6439C55.8069 22.1471 55.4342 21.5615 55.1853 20.9205C54.9365 20.2796 54.8163 19.5959 54.8318 18.9086V15.0371C54.8608 13.6495 54.3383 12.3071 53.379 11.3041C52.4196 10.3012 51.1017 9.71958 49.7142 9.68689H42.2953H23.852C19.4452 9.68689 15.219 11.4375 12.103 14.5535C8.98695 17.6695 7.23637 21.8958 7.23637 26.3025L7.18652 292.327C7.18651 296.726 8.93138 300.946 12.0384 304.061C15.1455 307.176 19.3611 308.931 23.7606 308.942L132.261 309C136.667 309 140.894 307.25 144.01 304.134C147.126 301.018 148.876 296.792 148.876 292.385L148.934 26.3607C148.936 21.9568 147.19 17.7322 144.079 14.6151C140.969 11.498 136.747 9.74334 132.344 9.73674Z" fill="white"/>
<path d="M148.926 26.3274C148.926 21.9207 147.175 17.6944 144.059 14.5784C140.943 11.4624 136.717 9.71181 132.31 9.71181H111.233C109.846 9.7445 108.528 10.3261 107.569 11.329C106.609 12.332 106.087 13.6744 106.116 15.062V18.8836C106.131 19.571 106.011 20.2547 105.762 20.8956C105.513 21.5365 105.141 22.1222 104.666 22.619C104.19 23.1159 103.622 23.5142 102.993 23.7913C102.363 24.0684 101.686 24.2187 100.998 24.2339H59.9162C59.2288 24.2187 58.5511 24.0684 57.9219 23.7913C57.2927 23.5142 56.7242 23.1159 56.2489 22.619C55.7737 22.1222 55.401 21.5365 55.1521 20.8956C54.9033 20.2547 54.7831 19.571 54.7986 18.8836V15.0371C54.8275 13.6495 54.3051 12.3071 53.3457 11.3041C52.3864 10.3012 51.0685 9.71958 49.6809 9.68689H42.2621H23.8188C19.412 9.68689 15.1858 11.4375 12.0698 14.5535C8.95372 17.6695 7.20317 21.8958 7.20317 26.3025L7.15332 51.741H148.918L148.926 26.3274Z" fill="#F5F5F5"/>
<path d="M137.393 35.6737C137.393 35.7485 134.851 35.8398 131.719 35.8648C129.827 35.9298 127.933 35.8966 126.045 35.7651C129.824 35.5408 133.611 35.5103 137.393 35.6737Z" fill="#263238"/>
<path d="M137.445 38.5732C135.561 38.7358 133.669 38.7996 131.779 38.7643C129.887 38.8294 127.993 38.7961 126.104 38.6646C126.104 38.5898 128.638 38.5067 131.779 38.4735C134.919 38.4403 137.445 38.4984 137.445 38.5732Z" fill="#263238"/>
<path d="M137.445 41.4809C137.445 41.5556 134.911 41.6387 131.779 41.6636C129.887 41.7287 127.993 41.6982 126.104 41.5723C129.88 41.3479 133.666 41.3174 137.445 41.4809Z" fill="#263238"/>
<path d="M30.3906 171.429V176.571H35.5331V171.429V166.278H30.3906V171.429Z" fill="#B9B9C3"/>
<path d="M35.5331 140.565H30.3906V145.708H35.5331V140.565Z" fill="#B9B9C3"/>
<path d="M67.3164 197.191H62.1738V202.334H67.3164V197.191Z" fill="#B9B9C3"/>
<path d="M35.5331 150.85V155.993H30.3906V161.136H35.5331V166.278H40.6757H45.8265V171.429H50.969V166.278H56.1116V161.136V155.993H50.969V161.136H45.8265H40.6757V155.993V150.85V145.708H35.5331V150.85Z" fill="#B9B9C3"/>
<path d="M45.8266 140.565H40.6758V145.708H45.8266H50.9692V140.565H45.8266Z" fill="#B9B9C3"/>
<path d="M68.9716 181.913H71.7298V176.771H68.9716H66.2051V181.913H68.9716Z" fill="#B9B9C3"/>
<path d="M56.1103 145.708H50.9678V150.85H56.1103V145.708Z" fill="#B9B9C3"/>
<path d="M92.1162 166.278H86.9736V171.421H92.1162V166.278Z" fill="#B9B9C3"/>
<path d="M97.2578 109.702H92.1152V114.844H97.2578V109.702Z" fill="#B9B9C3"/>
<path d="M66.3964 150.85V145.708H71.5389V140.565H66.3964V135.423H61.2539V140.565H56.1113V145.708H61.2539V150.85V155.993V161.135V166.278H66.3964V161.135V155.993H71.5389V150.85H66.3964Z" fill="#B9B9C3"/>
<path d="M92.1162 202.284H97.2587V197.142H92.1162H86.9736V202.284H92.1162Z" fill="#B9B9C3"/>
<path d="M86.9746 109.702H81.832V114.844H86.9746V109.702Z" fill="#B9B9C3"/>
<path d="M85.6854 150.85V145.708H80.5429V140.565H75.4003V145.708V150.85H70.2578V155.993H75.4003H80.5429V150.85H85.6854Z" fill="#B9B9C3"/>
<path d="M114.714 140.565H109.571V145.708H114.714V140.565Z" fill="#B9B9C3"/>
<path d="M61.4023 166.278H56.2598V171.421H61.4023V166.278Z" fill="#B9B9C3"/>
<path d="M81.8314 135.423V130.28H86.974V125.13H92.1165H97.259V119.987H92.1165V114.844H86.974V119.987H81.8314V125.13H76.6806V130.28H71.5381V135.423H76.6806H81.8314Z" fill="#B9B9C3"/>
<path d="M81.8314 171.429V166.278H86.974V161.136H81.8314H76.6806V166.278H71.5381V171.429H76.6806H81.8314Z" fill="#B9B9C3"/>
<path d="M97.26 191.999V186.848H92.1174H86.9749V181.706H81.8324V186.848H76.6815V191.999H71.539H66.3965V197.142H71.539H76.6815H81.8324V191.999H86.9749V197.142H92.1174V191.999H97.26Z" fill="#B9B9C3"/>
<path d="M76.6805 114.844V109.702H71.538H66.3955V114.844H61.2529V119.987H66.3955H71.538V114.844H76.6805Z" fill="#B9B9C3"/>
<path d="M76.6806 119.987H71.5381V125.129H76.6806V119.987Z" fill="#B9B9C3"/>
<path d="M89.54 140.565H84.3975V145.708V150.85V155.993H89.54H94.6825V150.85H89.54V145.708H94.6825V140.565H99.8251V135.423H94.6825V130.28H89.54V135.423V140.565Z" fill="#B9B9C3"/>
<path d="M71.539 125.129H66.3965V130.272H71.539V125.129Z" fill="#B9B9C3"/>
<path d="M86.9736 176.571V181.714H92.1162H97.2587V176.571H102.401H107.544V171.429H102.401H97.2587H92.1162V176.571H86.9736Z" fill="#B9B9C3"/>
<path d="M114.714 155.993H109.571V161.135H114.714V155.993Z" fill="#B9B9C3"/>
<path d="M97.2578 161.136H92.1152V166.278H97.2578V161.136Z" fill="#B9B9C3"/>
<path d="M110.12 145.708H104.977H99.8262V150.85H104.977V155.993H110.12V150.85V145.708Z" fill="#B9B9C3"/>
<path d="M107.543 161.136H102.4V166.278H107.543V161.136Z" fill="#B9B9C3"/>
<path d="M50.9677 192.099H66.4036V171.421H45.7255V176.571H40.6826V181.714H45.7255V186.856H40.6826V191.999H45.7255V192.099H45.8252V197.142H40.6826V207.427H45.8252V202.267H50.9677V192.099ZM62.4408 175.375V188.236H49.5803V175.375H62.4408Z" fill="#B9B9C3"/>
<path d="M117.829 171.429H122.972V166.278H117.829H112.686H107.544V171.429H112.686H117.829Z" fill="#B9B9C3"/>
<path d="M117.829 150.85H122.972V145.708V140.565H117.829V145.708V150.85Z" fill="#B9B9C3"/>
<path d="M76.8803 176.771H71.7295V181.913V187.056H76.8803V181.913V176.771Z" fill="#B9B9C3"/>
<path d="M128.116 171.429H122.974V176.571H128.116V171.429Z" fill="#B9B9C3"/>
<path d="M128.124 161.135V155.993H122.974V161.135V166.278H128.124V161.135Z" fill="#B9B9C3"/>
<path d="M35.5331 197.142H30.3906V202.284V207.427H35.5331V202.284V197.142Z" fill="#B9B9C3"/>
<path d="M128.122 135.423V109.669H102.368V135.423H128.122ZM106.256 131.56V113.557H124.259V131.56H106.256Z" fill="#263238"/>
<path d="M120.406 117.42H110.121V127.705H120.406V117.42Z" fill="#263238"/>
<path d="M128.122 181.714H102.368V207.427H128.122V181.714ZM106.256 203.572V185.569H124.259V203.572H106.256Z" fill="#263238"/>
<path d="M120.406 189.424H110.121V199.709H120.406V189.424Z" fill="#263238"/>
<path d="M30.332 109.702V135.456H56.0281V109.702H30.332ZM52.1899 113.557V131.56H34.1868V113.557H52.1899Z" fill="#263238"/>
<path d="M48.3261 117.42H38.041V127.705H48.3261V117.42Z" fill="#263238"/>
</svg>

