<svg width="164" height="336" viewBox="0 0 164 336" fill="none" xmlns="http://www.w3.org/2000/svg">
<path d="M138.995 336L24.8524 335.939C18.2595 335.934 11.9383 333.312 7.27804 328.649C2.61782 323.985 -1.62222e-06 317.662 0 311.069L0.0610687 24.8611C0.0610679 21.5948 0.70468 18.3606 1.95516 15.3431C3.20564 12.3257 5.03847 9.58428 7.34888 7.27548C9.6593 4.96669 12.402 3.13579 15.4203 1.88743C18.4386 0.639073 21.6733 -0.002286 24.9396 6.12212e-06L139.083 0.104684C145.675 0.109308 151.997 2.73156 156.657 7.39505C161.317 12.0586 163.935 18.3816 163.935 24.9745L163.883 311.148C163.88 314.414 163.235 317.647 161.983 320.664C160.731 323.68 158.897 326.42 156.586 328.728C154.275 331.036 151.532 332.866 148.514 334.114C145.496 335.361 142.261 336.002 138.995 336Z" fill="#263238"/>
<path d="M138.961 10.2236H116.83C115.373 10.2579 113.989 10.8686 112.982 11.9217C111.975 12.9748 111.426 14.3843 111.457 15.8413V19.854C111.473 20.5757 111.347 21.2936 111.085 21.9666C110.824 22.6395 110.433 23.2544 109.934 23.7761C109.435 24.2978 108.838 24.7161 108.177 25.007C107.516 25.2979 106.805 25.4559 106.083 25.4717H62.9469C62.2252 25.4559 61.5136 25.2979 60.8529 25.007C60.1922 24.7161 59.5953 24.2978 59.0963 23.7761C58.5973 23.2544 58.206 22.6395 57.9447 21.9666C57.6834 21.2936 57.5572 20.5757 57.5734 19.854V15.789C57.6039 14.332 57.0553 12.9224 56.048 11.8693C55.0406 10.8162 53.6568 10.2056 52.1999 10.1712H44.4101H25.0446C20.4176 10.1712 15.98 12.0093 12.7082 15.2812C9.43635 18.553 7.59824 22.9906 7.59824 27.6176L7.5459 306.943C7.54588 311.563 9.378 315.993 12.6404 319.264C15.9028 322.535 20.3292 324.378 24.9487 324.389L138.874 324.45C143.501 324.45 147.938 322.612 151.21 319.341C154.482 316.069 156.32 311.631 156.32 307.004L156.381 27.6787C156.383 23.0546 154.55 18.6188 151.283 15.3458C148.017 12.0729 143.585 10.2305 138.961 10.2236Z" fill="white"/>
<path d="M156.373 27.6438C156.373 23.0167 154.535 18.5792 151.263 15.3073C147.991 12.0355 143.554 10.1974 138.927 10.1974H116.796C115.339 10.2317 113.955 10.8424 112.948 11.8955C111.941 12.9486 111.392 14.3582 111.422 15.8151V19.8278C111.439 20.5496 111.312 21.2674 111.051 21.9404C110.79 22.6134 110.399 23.2283 109.9 23.75C109.401 24.2716 108.804 24.6899 108.143 24.9808C107.482 25.2718 106.771 25.4297 106.049 25.4455H62.9127C62.191 25.4297 61.4794 25.2718 60.8187 24.9808C60.158 24.6899 59.5611 24.2716 59.0621 23.75C58.5631 23.2283 58.1717 22.6134 57.9104 21.9404C57.6492 21.2674 57.523 20.5496 57.5392 19.8278V15.789C57.5696 14.332 57.0211 12.9224 56.0138 11.8693C55.0064 10.8162 53.6226 10.2056 52.1657 10.1712H44.3759H25.0104C20.3834 10.1712 15.9458 12.0093 12.674 15.2812C9.40214 18.553 7.56406 22.9906 7.56406 27.6176L7.51172 54.328H156.364L156.373 27.6438Z" fill="#F5F5F5"/>
<path d="M144.264 37.4574C144.264 37.5359 141.594 37.6318 138.306 37.658C136.319 37.7263 134.33 37.6914 132.348 37.5533C136.315 37.3178 140.293 37.2858 144.264 37.4574Z" fill="#263238"/>
<path d="M144.316 40.5018C142.338 40.6726 140.352 40.7395 138.367 40.7025C136.381 40.7708 134.392 40.7358 132.409 40.5978C132.409 40.5193 135.07 40.432 138.367 40.3971C141.664 40.3622 144.316 40.4233 144.316 40.5018Z" fill="#263238"/>
<path d="M144.316 43.5549C144.316 43.6335 141.656 43.7207 138.367 43.7469C136.381 43.8152 134.392 43.7832 132.409 43.6509C136.374 43.4154 140.348 43.3833 144.316 43.5549Z" fill="#263238"/>
<path d="M31.9111 180V185.4H37.3108V180V174.592H31.9111V180Z" fill="#B9B9C3"/>
<path d="M37.3108 147.594H31.9111V152.993H37.3108V147.594Z" fill="#B9B9C3"/>
<path d="M70.6838 207.051H65.2842V212.451H70.6838V207.051Z" fill="#B9B9C3"/>
<path d="M37.3108 158.393V163.793H31.9111V169.192H37.3108V174.592H42.7104H48.1188V180H53.5185V174.592H58.9181V169.192V163.793H53.5185V169.192H48.1188H42.7104V163.793V158.393V152.993H37.3108V158.393Z" fill="#B9B9C3"/>
<path d="M48.1193 147.594H42.7109V152.993H48.1193H53.519V147.594H48.1193Z" fill="#B9B9C3"/>
<path d="M72.4214 191.009H75.3175V185.609H72.4214H69.5166V191.009H72.4214Z" fill="#B9B9C3"/>
<path d="M58.9163 152.993H53.5166V158.393H58.9163V152.993Z" fill="#B9B9C3"/>
<path d="M96.7229 174.592H91.3232V179.992H96.7229V174.592Z" fill="#B9B9C3"/>
<path d="M102.121 115.187H96.7217V120.587H102.121V115.187Z" fill="#B9B9C3"/>
<path d="M69.7173 158.393V152.993H75.1169V147.594H69.7173V142.194H64.3176V147.594H58.918V152.993H64.3176V158.393V163.793V169.192V174.592H69.7173V169.192V163.793H75.1169V158.393H69.7173Z" fill="#B9B9C3"/>
<path d="M96.7229 212.398H102.123V206.999H96.7229H91.3232V212.398H96.7229Z" fill="#B9B9C3"/>
<path d="M91.3245 115.187H85.9248V120.587H91.3245V115.187Z" fill="#B9B9C3"/>
<path d="M89.9705 158.393V152.993H84.5708V147.594H79.1711V152.993V158.393H73.7715V163.793H79.1711H84.5708V158.393H89.9705Z" fill="#B9B9C3"/>
<path d="M120.451 147.594H115.052V152.993H120.451V147.594Z" fill="#B9B9C3"/>
<path d="M64.4729 174.592H59.0732V179.992H64.4729V174.592Z" fill="#B9B9C3"/>
<path d="M85.9242 142.194V136.794H91.3239V131.386H96.7236H102.123V125.986H96.7236V120.587H91.3239V125.986H85.9242V131.386H80.5158V136.794H75.1162V142.194H80.5158H85.9242Z" fill="#B9B9C3"/>
<path d="M85.9242 180V174.592H91.3239V169.192H85.9242H80.5158V174.592H75.1162V180H80.5158H85.9242Z" fill="#B9B9C3"/>
<path d="M102.124 201.599V196.191H96.7248H91.3251V190.791H85.9255V196.191H80.5171V201.599H75.1174H69.7178V206.999H75.1174H80.5171H85.9255V201.599H91.3251V206.999H96.7248V201.599H102.124Z" fill="#B9B9C3"/>
<path d="M80.5154 120.587V115.187H75.1157H69.7161V120.587H64.3164V125.986H69.7161H75.1157V120.587H80.5154Z" fill="#B9B9C3"/>
<path d="M80.5158 125.986H75.1162V131.386H80.5158V125.986Z" fill="#B9B9C3"/>
<path d="M94.0178 147.594H88.6182V152.993V158.393V163.793H94.0178H99.4175V158.393H94.0178V152.993H99.4175V147.594H104.817V142.194H99.4175V136.794H94.0178V142.194V147.594Z" fill="#B9B9C3"/>
<path d="M75.1174 131.386H69.7178V136.786H75.1174V131.386Z" fill="#B9B9C3"/>
<path d="M91.3232 185.4V190.8H96.7229H102.123V185.4H107.522H112.922V180H107.522H102.123H96.7229V185.4H91.3232Z" fill="#B9B9C3"/>
<path d="M120.451 163.793H115.052V169.192H120.451V163.793Z" fill="#B9B9C3"/>
<path d="M102.121 169.192H96.7217V174.592H102.121V169.192Z" fill="#B9B9C3"/>
<path d="M115.627 152.993H110.228H104.819V158.393H110.228V163.793H115.627V158.393V152.993Z" fill="#B9B9C3"/>
<path d="M112.921 169.192H107.521V174.592H112.921V169.192Z" fill="#B9B9C3"/>
<path d="M53.5171 201.704H69.7248V179.992H48.0128V185.4H42.7178V190.8H48.0128V196.199H42.7178V201.599H48.0128V201.704H48.1174V206.999H42.7178V217.798H48.1174V212.381H53.5171V201.704ZM65.5638 184.144V197.647H52.0603V184.144H65.5638Z" fill="#B9B9C3"/>
<path d="M123.722 180H129.122V174.592H123.722H118.323H112.923V180H118.323H123.722Z" fill="#B9B9C3"/>
<path d="M123.722 158.393H129.121V152.993V147.594H123.722V152.993V158.393Z" fill="#B9B9C3"/>
<path d="M80.7258 185.609H75.3174V191.009V196.409H80.7258V191.009V185.609Z" fill="#B9B9C3"/>
<path d="M134.523 180H129.123V185.4H134.523V180Z" fill="#B9B9C3"/>
<path d="M134.531 169.192V163.793H129.123V169.192V174.592H134.531V169.192Z" fill="#B9B9C3"/>
<path d="M37.3108 206.999H31.9111V212.398V217.798H37.3108V212.398V206.999Z" fill="#B9B9C3"/>
<path d="M134.53 142.194V115.152H107.488V142.194H134.53ZM111.571 138.138V119.235H130.474V138.138H111.571Z" fill="#B9B9C3"/>
<path d="M126.428 123.291H115.629V134.09H126.428V123.291Z" fill="#B9B9C3"/>
<path d="M134.53 190.8H107.488V217.798H134.53V190.8ZM111.571 213.75V194.847H130.474V213.75H111.571Z" fill="#B9B9C3"/>
<path d="M126.428 198.895H115.629V209.694H126.428V198.895Z" fill="#B9B9C3"/>
<path d="M31.8506 115.187V142.229H58.8314V115.187H31.8506ZM54.8013 119.235V138.138H35.8981V119.235H54.8013Z" fill="#B9B9C3"/>
<path d="M50.7446 123.291H39.9453V134.09H50.7446V123.291Z" fill="#B9B9C3"/>
<mask id="path-47-inside-1_1274_66292" fill="white">
<rect x="24.9531" y="109" width="119" height="117" rx="2"/>
</mask>
<rect x="24.9531" y="109" width="119" height="117" rx="2" stroke="black" stroke-width="8" mask="url(#path-47-inside-1_1274_66292)"/>
</svg>
